<svg width="25" height="26" viewBox="0 0 25 26" fill="none" xmlns="http://www.w3.org/2000/svg">
<g clip-path="url(#clip0_386_5029)">
<path d="M15.4637 17.9277H15.9442C16.7932 17.9277 17.4814 17.2394 17.4814 16.3905C17.4814 15.5415 16.7932 14.8532 15.9442 14.8532H12.5021L7.69607 13.0868C6.10718 14.2998 5.08203 16.2137 5.08203 18.3671C5.08203 22.0337 8.05444 25.0061 11.7211 25.0061H16.2844C16.2844 24.9724 16.2835 24.9389 16.2818 24.9055C16.2438 24.082 15.7421 23.3798 15.0318 23.0535H15.4637V17.9277ZM19.4015 8.53648C19.6375 8.58131 19.8773 8.60381 20.1175 8.6037C22.2205 8.6037 23.9253 6.89892 23.9253 4.79599C23.9253 2.69306 22.2205 0.988281 20.1175 0.988281C18.4595 0.988281 17.0489 2.04804 16.5263 3.52719L19.4015 8.53648Z" fill="#A7BDCD"/>
<path d="M20.1168 6.55289C21.0874 6.55289 21.8742 5.76608 21.8742 4.79549C21.8742 3.8249 21.0874 3.03809 20.1168 3.03809C19.1462 3.03809 18.3594 3.8249 18.3594 4.79549C18.3594 5.76608 19.1462 6.55289 20.1168 6.55289Z" fill="white"/>
<path d="M5.60188 8.53648C5.36584 8.58131 5.1261 8.60381 4.88583 8.6037C2.7829 8.6037 1.07812 6.89892 1.07812 4.79599C1.07812 2.69306 2.7829 0.988281 4.88583 0.988281C6.5439 0.988281 7.95446 2.04804 8.47704 3.52719L5.60188 8.53648Z" fill="#A7BDCD"/>
<path d="M4.88631 6.55289C5.8569 6.55289 6.64371 5.76608 6.64371 4.79549C6.64371 3.8249 5.8569 3.03809 4.88631 3.03809C3.91572 3.03809 3.12891 3.8249 3.12891 4.79549C3.12891 5.76608 3.91572 6.55289 4.88631 6.55289Z" fill="white"/>
<path d="M12.501 14.8534C16.3114 14.8534 19.4004 12.0555 19.4004 8.60397C19.4004 5.15248 16.3114 2.35449 12.501 2.35449C8.69054 2.35449 5.60156 5.15248 5.60156 8.60397C5.60156 12.0555 8.69054 14.8534 12.501 14.8534Z" fill="#A7BDCD"/>
<path d="M12.5007 11.4354C11.8121 11.4354 11.2539 10.8772 11.2539 10.1886V9.39522C11.2539 8.70666 11.8121 8.14844 12.5007 8.14844C13.1892 8.14844 13.7475 8.70666 13.7475 9.39522V10.1886C13.7475 10.8772 13.1892 11.4354 12.5007 11.4354Z" fill="#6D92AC"/>
<path d="M21.1048 7.20609L19.6574 6.80105C19.2493 6.68682 18.8259 6.9251 18.7116 7.33326L16.5699 14.9865C17.1062 15.2265 17.4801 15.7644 17.4801 16.39C17.4801 17.239 16.7919 17.9272 15.9429 17.9272H15.7469L14.3125 23.053H15.0304C15.7407 23.3793 16.2425 24.0815 16.2805 24.9051C16.2822 24.9384 16.283 24.9719 16.283 25.0057H16.2515C16.6191 25.0473 16.973 24.8184 17.0759 24.4507L21.637 8.15196C21.7513 7.7438 21.5129 7.32032 21.1048 7.20609Z" fill="#89DF8F"/>
<path d="M19.6518 15.6885C19.6518 15.6885 19.0195 17.0028 17.5892 17.4176C16.7461 17.662 16.2246 18.5283 16.4261 19.3826C16.7249 20.6498 18.2744 20.3915 18.2744 20.3915C18.2744 20.3915 21.5903 19.8873 19.6518 15.6885Z" fill="#A7BDCD"/>
<path d="M9.40223 7.13867C9.27384 7.13867 9.1479 7.19091 9.0571 7.28175C8.9663 7.3725 8.91406 7.49845 8.91406 7.62684C8.91406 7.75523 8.9663 7.88118 9.0571 7.97197C9.1479 8.06277 9.27384 8.11501 9.40223 8.11501C9.53062 8.11501 9.65657 8.06282 9.74737 7.97197C9.83816 7.88118 9.8904 7.75523 9.8904 7.62684C9.8904 7.49845 9.83816 7.3725 9.74737 7.28175C9.65562 7.19051 9.53162 7.13911 9.40223 7.13867ZM15.602 7.13867C15.4736 7.13867 15.3476 7.19091 15.2568 7.28175C15.166 7.3725 15.1138 7.49845 15.1138 7.62684C15.1138 7.75523 15.166 7.88118 15.2568 7.97197C15.3476 8.06277 15.4736 8.11501 15.602 8.11501C15.7303 8.11501 15.8563 8.06282 15.9471 7.97197C16.0379 7.88118 16.0901 7.75523 16.0901 7.62684C16.0901 7.49845 16.0379 7.3725 15.9471 7.28175C15.8554 7.19051 15.7313 7.13911 15.602 7.13867ZM12.5021 7.65945C11.5454 7.65945 10.7671 8.43774 10.7671 9.3944V10.1878C10.7671 11.1445 11.5454 11.9228 12.5021 11.9228C13.4588 11.9228 14.237 11.1445 14.237 10.1878V9.3944C14.237 8.43774 13.4587 7.65945 12.5021 7.65945ZM13.2607 10.1878C13.2607 10.6061 12.9204 10.9464 12.5021 10.9464C12.0838 10.9464 11.7435 10.6061 11.7435 10.1878V9.3944C11.7435 8.97614 12.0838 8.63579 12.5021 8.63579C12.9204 8.63579 13.2607 8.97614 13.2607 9.3944V10.1878Z" fill="black"/>
<path d="M20.1166 0.5C18.4972 0.5 17.0292 1.4138 16.2997 2.82422C15.156 2.19614 13.8576 1.86599 12.5011 1.86599C11.1135 1.86599 9.81397 2.21684 8.70358 2.82622C7.97446 1.41463 6.5058 0.5 4.88572 0.5C2.51698 0.5 0.589844 2.42714 0.589844 4.79588C0.589844 7.16461 2.51698 9.09175 4.88572 9.09175C4.96803 9.09149 5.05032 9.08889 5.13249 9.08394C5.25033 10.6021 5.9223 11.9829 6.96429 13.0589C6.06831 13.861 5.39127 14.8706 4.99238 16.0087C4.9032 16.2632 5.0372 16.5417 5.29158 16.6309C5.34347 16.6491 5.39807 16.6585 5.45307 16.6585C5.65463 16.6585 5.84331 16.5326 5.91375 16.3317C6.26958 15.3165 6.88238 14.4197 7.69532 13.7164C8.98809 14.7287 10.6676 15.3413 12.5011 15.3413H15.9432C16.5217 15.3413 16.9923 15.8119 16.9923 16.3903C16.9923 16.9688 16.5216 17.4394 15.9432 17.4394H15.0396C14.7699 17.4394 14.5514 17.658 14.5514 17.9276C14.5514 18.1972 14.7699 18.4158 15.0396 18.4158H15.1037L14.6576 20.0096C14.2707 18.8794 13.1986 18.0643 11.939 18.0643C11.6694 18.0643 11.4508 18.2829 11.4508 18.5524C11.4508 18.822 11.6694 19.0406 11.939 19.0406C12.985 19.0406 13.8359 19.8916 13.8359 20.9375C13.8359 21.4983 13.5964 22.0146 13.1748 22.3757H12.6482C12.3786 22.3757 12.16 22.5943 12.16 22.8638C12.16 23.1334 12.3786 23.352 12.6482 23.352H14.1352C14.8806 23.352 15.5128 23.8459 15.7218 24.5236H11.7201C9.09665 24.5236 6.75936 22.8585 5.90409 20.3802C5.81612 20.1254 5.53821 19.99 5.28338 20.078C5.02851 20.166 4.89324 20.4439 4.98116 20.6988C5.97228 23.5705 8.68044 25.5 11.7201 25.5L16.3374 25.5C16.8944 25.5 17.3943 25.1258 17.5463 24.5826L18.6002 20.8167C19.0348 20.6951 19.92 20.3448 20.4115 19.4316C20.949 18.4326 20.8423 17.1045 20.0942 15.4843C20.0939 15.4835 20.0934 15.4829 20.0931 15.4822L22.0035 8.65543C22.7267 8.30291 23.3361 7.75403 23.7621 7.07152C24.1881 6.38901 24.4135 5.60042 24.4125 4.79588C24.4124 2.42714 22.4853 0.5 20.1166 0.5ZM5.1339 8.10536C5.05133 8.11177 4.96854 8.11512 4.88572 8.11542C3.05534 8.11542 1.56618 6.62626 1.56618 4.79588C1.56618 2.96549 3.05534 1.47634 4.88572 1.47634C6.16819 1.47634 7.32798 2.21767 7.87633 3.35383C7.57135 3.57751 7.28442 3.82481 7.01818 4.09345C6.7225 3.1983 5.8786 2.5503 4.88572 2.5503C3.64753 2.5503 2.64015 3.55769 2.64015 4.79588C2.64015 6.03407 3.64753 7.04145 4.88572 7.04145C5.03627 7.04145 5.18331 7.02622 5.32566 6.99785C5.22814 7.36041 5.16396 7.73112 5.1339 8.10536ZM4.88572 6.06511C4.18588 6.06511 3.61648 5.49576 3.61648 4.79588C3.61648 4.09599 4.18588 3.52664 4.88572 3.52664C5.58556 3.52664 6.15496 4.09599 6.15496 4.79588C6.15496 5.49576 5.58556 6.06511 4.88572 6.06511ZM16.6128 13.0231C15.4617 13.8889 14.0058 14.3649 12.5011 14.3649C8.96592 14.3649 6.08983 11.7804 6.08983 8.60359C6.08983 5.42683 8.96592 2.84228 12.5011 2.84228C15.2082 2.84228 17.6417 4.40241 18.5422 6.67327C18.4001 6.82212 18.2969 7.00376 18.2419 7.20205L16.6128 13.0231ZM16.6411 24.1943C16.3825 23.4035 15.7594 22.7766 14.9712 22.5123L15.9018 19.1869C15.9105 19.2893 15.9259 19.3922 15.9502 19.495C16.1713 20.4329 16.9073 20.7879 17.5688 20.8794L16.6411 24.1943ZM19.5561 18.9606C19.1387 19.7471 18.2069 19.9082 18.2003 19.9093L18.1934 19.9104C18.1486 19.918 17.0922 20.0842 16.9005 19.271C16.7611 18.6799 17.1306 18.059 17.7243 17.8868C18.5546 17.6461 19.1474 17.1471 19.5322 16.7092C19.8383 17.6414 19.8483 18.4101 19.5561 18.9606ZM21.1672 8.02076L18.9782 15.8431C18.9779 15.844 18.9778 15.845 18.9775 15.846C18.7729 16.1227 18.4297 16.4961 17.9352 16.7542C17.9568 16.6361 17.9686 16.5146 17.9686 16.3903C17.9686 15.7214 17.6425 15.1275 17.1411 14.7585L19.1821 7.46523C19.1918 7.42986 19.2085 7.3968 19.2312 7.36794C19.2539 7.33908 19.282 7.315 19.3141 7.2971C19.346 7.27901 19.3812 7.26743 19.4176 7.26305C19.454 7.25866 19.491 7.26156 19.5263 7.27157L20.9736 7.6766C21.0449 7.69664 21.1053 7.74413 21.1416 7.80865C21.1779 7.87317 21.1871 7.94945 21.1672 8.02076ZM18.8473 4.79588C18.8473 4.09599 19.4167 3.52664 20.1166 3.52664C20.8164 3.52664 21.3858 4.09599 21.3858 4.79588C21.3858 5.49576 20.8164 6.06511 20.1166 6.06511C19.4167 6.06511 18.8473 5.49576 18.8473 4.79588ZM22.0654 7.48436C21.9263 7.13347 21.6316 6.84877 21.2418 6.73791C21.911 6.34864 22.3621 5.62415 22.3621 4.79588C22.3621 3.55769 21.3547 2.5503 20.1165 2.5503C19.1245 2.5503 18.2812 3.19718 17.9849 4.09106C17.719 3.82197 17.4323 3.57433 17.1275 3.35046C17.6765 2.2162 18.8354 1.47634 20.1166 1.47634C21.9469 1.47634 23.4361 2.96549 23.4361 4.79588C23.4361 5.87741 22.9157 6.86888 22.0654 7.48436Z" fill="black"/>
<path d="M5.08192 18.8552C4.95353 18.8552 4.82758 18.8031 4.73678 18.7122C4.64598 18.6214 4.59375 18.4955 4.59375 18.3671C4.59375 18.2387 4.64598 18.1127 4.73678 18.022C4.82758 17.9312 4.95353 17.8789 5.08192 17.8789C5.21031 17.8789 5.33625 17.9311 5.42705 18.022C5.51827 18.1137 5.56966 18.2377 5.57009 18.3671C5.57009 18.4955 5.51785 18.6214 5.42705 18.7122C5.3353 18.8034 5.2113 18.8548 5.08192 18.8552Z" fill="black"/>
</g>
<defs>
<clipPath id="clip0_386_5029">
<rect width="25" height="25" fill="white" transform="translate(0 0.5)"/>
</clipPath>
</defs>
</svg>
