<svg width="25" height="26" viewBox="0 0 25 26" fill="none" xmlns="http://www.w3.org/2000/svg">
<g clip-path="url(#clip0_396_4008)">
<path d="M0.572314 16.7501C0.200439 15.5663 0 14.3066 0 13C0 6.09644 5.59644 0.5 12.5 0.5C19.4036 0.5 25 6.09644 25 13C25 19.9036 19.4036 25.5 12.5 25.5C8.71836 25.5 5.32891 23.8207 3.03677 21.1671L0.572314 16.7501Z" fill="#FE8205"/>
<path d="M3.03516 21.167L4.3313 22.4631C6.52192 24.3554 9.37651 25.4999 12.4984 25.4999C19.402 25.4999 24.9984 19.9035 24.9984 12.9999C24.9984 12.9284 24.9978 12.8571 24.9966 12.7859L16.6541 4.44336L4.95483 12.7888L6.56445 14.3984L5.99541 14.7607L7.85034 16.6156L3.03516 21.167Z" fill="#F24500"/>
<path d="M5.99609 11.1094H8.29932V14.7608H5.99609V11.1094Z" fill="#636978"/>
<path d="M16.6992 11.1094H19.0024V14.7608H16.6992V11.1094Z" fill="#414952"/>
<path d="M18.8753 8.8647H6.12109L8.34253 4.44336H16.6539L18.8753 8.8647Z" fill="#7584F2"/>
<path d="M16.6538 4.44336H12.5156V8.8647H18.8752L16.6538 4.44336Z" fill="#606AEA"/>
<path d="M17.3205 8.86504H7.67578L9.35562 5.4873H15.6406L17.3205 8.86504Z" fill="white"/>
<path d="M15.6406 5.4873H12.5156V8.86504H17.3204L15.6406 5.4873Z" fill="#E9EDF5"/>
<path d="M20.0442 12.7887H4.95703V10.2159C4.95703 9.1145 5.84985 8.22168 6.95122 8.22168H18.05C19.1514 8.22168 20.0442 9.1145 20.0442 10.2159V12.7887Z" fill="#7584F2"/>
<path d="M20.0417 10.2159C20.0417 9.1145 19.1489 8.22168 18.0475 8.22168H12.5156V12.7887H20.0417V10.2159Z" fill="#606AEA"/>
<path d="M5.99609 9.95312H9.08408V11.1095H5.99609V9.95312Z" fill="white"/>
<path d="M15.9141 9.95312H19.0021V11.1095H15.9141V9.95312Z" fill="#E9EDF5"/>
<path d="M18.3947 16.4573L13.8705 19.2851L10.6796 17.5163L14.22 16.5656C14.6819 16.3354 14.9161 15.8101 14.7788 15.3125C14.6349 14.791 14.1272 14.4568 13.5915 14.5307L9.05859 14.6602C8.45078 14.6776 7.84696 14.7647 7.25898 14.9197L0.574219 16.7499C1.09087 18.3947 1.93828 19.893 3.03862 21.1668C4.63594 20.2934 6.06504 19.4985 6.06504 19.4985L11.9429 21.7177C12.4539 21.9088 13.0035 21.9733 13.5448 21.9056C14.0861 21.8379 14.6029 21.6401 15.051 21.3291L20.5412 17.4122L20.2065 16.8573C19.8218 16.2392 19.0039 16.0587 18.3947 16.4573Z" fill="#FFDECF"/>
<path d="M14.2163 16.5656C14.6781 16.3354 14.9124 15.8102 14.775 15.3126C14.6311 14.7911 14.1234 14.4568 13.5877 14.5307L12.5156 14.5613V17.0222L14.2163 16.5656ZM20.2027 16.8574C19.818 16.2393 19.0001 16.0587 18.3909 16.4573L13.8667 19.2852L12.5157 18.5362V21.8767C12.9529 21.9565 13.4016 21.9493 13.836 21.8553C14.2705 21.7613 14.6821 21.5825 15.0472 21.3292L20.5374 17.4123L20.2027 16.8574Z" fill="#FFCDBE"/>
</g>
<defs>
<clipPath id="clip0_396_4008">
<rect width="25" height="25" fill="white" transform="translate(0 0.5)"/>
</clipPath>
</defs>
</svg>
