<svg width="25" height="25" viewBox="0 0 25 25" fill="none" xmlns="http://www.w3.org/2000/svg">
<path d="M16.2109 21.3245L21.0398 15.7526C21.2006 15.5672 21.2891 15.3301 21.2891 15.0847C21.2893 14.8855 21.2312 14.6906 21.122 14.524C21.0128 14.3575 20.8572 14.2266 20.6744 14.1474C20.4916 14.0683 20.2896 14.0444 20.0934 14.0787C19.8972 14.113 19.7154 14.204 19.5703 14.3405L15.0391 18.5901" fill="#FFDED8"/>
<path d="M17.9688 21.7151L22.7977 16.1432C22.9584 15.9579 23.0469 15.7207 23.0469 15.4753C23.0471 15.2761 22.989 15.0812 22.8798 14.9147C22.7706 14.7481 22.615 14.6172 22.4322 14.5381C22.2494 14.4589 22.0475 14.435 21.8513 14.4693C21.6551 14.5037 21.4732 14.5947 21.3281 14.7311L16.7969 18.9807" fill="#FCCAC3"/>
<path d="M17.7414 19.5315H11.7188V22.2659H17.7477C18.3076 22.2659 18.8609 22.1455 19.3702 21.9129C19.8796 21.6803 20.3329 21.341 20.6996 20.9179L24.3602 16.694C24.5209 16.5086 24.6094 16.2715 24.6094 16.0261C24.6096 15.8269 24.5515 15.632 24.4423 15.4654C24.3331 15.2989 24.1775 15.168 23.9947 15.0888C23.8119 15.0097 23.61 14.9858 23.4138 15.0201C23.2176 15.0544 23.0357 15.1454 22.8906 15.2819L18.8086 19.11C18.5192 19.3808 18.1377 19.5315 17.7414 19.5315Z" fill="#FFEBE8"/>
<path d="M13.2812 19.8238C13.2812 19.9015 13.3121 19.976 13.3671 20.031C13.422 20.0859 13.4965 20.1168 13.5742 20.1168H17.5781C17.8965 20.1164 18.2048 20.005 18.4499 19.8019C18.6951 19.5988 18.8618 19.3166 18.9215 19.0039L18.8102 19.1082C18.5205 19.3797 18.1384 19.5309 17.7414 19.5309H13.5742C13.4965 19.5309 13.422 19.5617 13.3671 19.6167C13.3121 19.6716 13.2812 19.7461 13.2812 19.8238Z" fill="#FFDED8"/>
<path d="M13.2812 19.5312H17.5781C17.7853 19.5312 17.984 19.4489 18.1306 19.3023C18.2771 19.1558 18.3594 18.9571 18.3594 18.7499C18.3594 18.3355 18.1948 17.9381 17.9017 17.6451C17.6087 17.352 17.2113 17.1874 16.7969 17.1874H13.2812C12.7176 16.7576 12.015 16.5512 11.3085 16.6078C10.6019 16.6644 9.94118 16.98 9.45313 17.4941L9.375 17.578H7.42188V22.2655H13.2812" fill="#FFEBE8"/>
<path d="M5.85938 16.7969H7.42188V23.0469H5.85938V16.7969Z" fill="#F9F9FF"/>
<path d="M5.85938 17.9688H7.42188V23.0469H5.85938V17.9688Z" fill="#F1F0FF"/>
<path d="M0.390625 16.4062H5.85938V23.4375H0.390625V16.4062Z" fill="#F695A9"/>
<path d="M1.5625 17.5781H5.85938V23.4375H1.5625V17.5781Z" fill="#F47A94"/>
<path d="M8.35701 12.2587H7.73435C7.59722 12.2587 7.4625 12.2226 7.34374 12.154C7.22498 12.0855 7.12636 11.9868 7.05779 11.8681L6.54998 10.9911C6.48141 10.8724 6.44531 10.7376 6.44531 10.6005C6.44531 10.4634 6.48141 10.3286 6.54998 10.2099L8.06404 7.58683L7.75389 7.40793C7.70587 7.38019 7.66671 7.33939 7.64096 7.29027C7.61521 7.24116 7.60393 7.18574 7.60843 7.13047C7.61293 7.07519 7.63302 7.02233 7.66638 6.97803C7.69973 6.93372 7.74498 6.8998 7.79685 6.88019L9.48006 6.24347C9.52065 6.22816 9.56414 6.22205 9.60739 6.22559C9.65063 6.22913 9.69255 6.24223 9.73012 6.26394C9.76768 6.28566 9.79995 6.31545 9.8246 6.35116C9.84925 6.38687 9.86565 6.4276 9.87264 6.47043L10.1633 8.2466C10.1722 8.3013 10.1653 8.35741 10.1436 8.4084C10.1219 8.45939 10.0862 8.50317 10.0406 8.53467C9.99496 8.56616 9.94136 8.58407 9.88598 8.58632C9.8306 8.58857 9.77572 8.57507 9.72771 8.54738L9.41756 8.36847L7.76443 11.2318C7.70427 11.3358 7.67257 11.4538 7.67252 11.574C7.67246 11.6942 7.70406 11.8123 7.76412 11.9164C7.82419 12.0205 7.91061 12.1069 8.01468 12.167C8.11876 12.2271 8.23683 12.2587 8.35701 12.2587Z" fill="#9FE387"/>
<path d="M11.4624 10.6963H8.07181L7.76361 11.2307C7.70347 11.3349 7.67183 11.4531 7.67188 11.5735C7.67192 11.6938 7.70364 11.8121 7.76386 11.9163C7.82407 12.0205 7.91066 12.107 8.01491 12.1671C8.11916 12.2272 8.2374 12.2588 8.35775 12.2588H11.4632L11.4624 10.6963Z" fill="#87D873"/>
<path d="M18.1397 9.66895L18.4522 10.2096C18.5207 10.3283 18.5568 10.4631 18.5568 10.6002C18.5568 10.7373 18.5207 10.8721 18.4522 10.9908L17.9443 11.8678C17.8758 11.9865 17.7772 12.0852 17.6584 12.1537C17.5396 12.2223 17.4049 12.2584 17.2678 12.2584H14.2404V12.617C14.2404 12.6724 14.2246 12.7267 14.195 12.7736C14.1653 12.8204 14.123 12.8579 14.0728 12.8816C14.0227 12.9053 13.9669 12.9144 13.9119 12.9076C13.8568 12.9009 13.8048 12.8787 13.7619 12.8436L12.369 11.7041C12.3354 11.6766 12.3084 11.642 12.2899 11.6028C12.2713 11.5636 12.2617 11.5207 12.2617 11.4773C12.2617 11.434 12.2713 11.3911 12.2899 11.3519C12.3084 11.3127 12.3354 11.2781 12.369 11.2506L13.7619 10.1111C13.8048 10.076 13.8568 10.0538 13.9119 10.0471C13.9669 10.0403 14.0227 10.0493 14.0728 10.0731C14.123 10.0968 14.1653 10.1343 14.195 10.1811C14.2246 10.2279 14.2404 10.2822 14.2404 10.3377V10.6959H17.5467C17.6669 10.6959 17.7849 10.6642 17.889 10.6041C17.993 10.544 18.0794 10.4576 18.1395 10.3535C18.1996 10.2495 18.2313 10.1314 18.2313 10.0113C18.2313 9.89109 18.1997 9.77303 18.1397 9.66895Z" fill="#9FE387"/>
<path d="M15.2305 7.75977L16.9258 10.6957H17.5426C17.6629 10.6957 17.7811 10.664 17.8853 10.6039C17.9895 10.5437 18.076 10.4572 18.1362 10.353C18.1963 10.2488 18.228 10.1306 18.2281 10.0103C18.2281 9.89 18.1965 9.77179 18.1363 9.66758L16.5836 6.97852L15.2305 7.75977Z" fill="#87D873"/>
<path d="M11.0039 2.49375L11.316 1.95312C11.3845 1.83459 11.4828 1.73612 11.6013 1.66756C11.7198 1.59901 11.8541 1.56278 11.991 1.5625H13.0066C13.1438 1.5625 13.2785 1.5986 13.3973 1.66717C13.516 1.73574 13.6146 1.83436 13.6832 1.95312L15.1977 4.57578L15.5078 4.39687C15.5558 4.36918 15.6107 4.35568 15.6661 4.35793C15.7215 4.36018 15.7751 4.37809 15.8207 4.40959C15.8663 4.44108 15.902 4.48486 15.9237 4.53586C15.9454 4.58685 15.9523 4.64295 15.9434 4.69766L15.6527 6.47383C15.6458 6.51665 15.6294 6.55739 15.6047 6.59309C15.5801 6.62879 15.5478 6.65856 15.5102 6.68025C15.4726 6.70194 15.4307 6.71499 15.3874 6.71848C15.3442 6.72196 15.3007 6.71578 15.2602 6.70039L13.577 6.06406C13.5251 6.04446 13.4798 6.01053 13.4465 5.96623C13.4131 5.92192 13.393 5.86906 13.3885 5.81379C13.384 5.75851 13.3953 5.7031 13.4211 5.65398C13.4468 5.60487 13.486 5.56407 13.534 5.53633L13.8441 5.35703L12.191 2.49375C12.131 2.38967 12.0446 2.30324 11.9405 2.24314C11.8364 2.18305 11.7184 2.15141 11.5982 2.15141C11.4781 2.15141 11.36 2.18305 11.256 2.24314C11.1519 2.30324 11.0655 2.38967 11.0055 2.49375H11.0039Z" fill="#9FE387"/>
<path d="M10.8047 5.96557L12.5 3.02924L12.1914 2.49525C12.1313 2.39101 12.0448 2.30443 11.9406 2.24423C11.8364 2.18404 11.7182 2.15234 11.5979 2.15234C11.4775 2.15234 11.3593 2.18404 11.2551 2.24423C11.1509 2.30443 11.0644 2.39101 11.0043 2.49525L9.45312 5.18432L10.8047 5.96557Z" fill="#87D873"/>
<path d="M23.148 14.7859C22.9728 14.5018 22.6958 14.2953 22.3734 14.2086C22.2037 14.1612 22.0261 14.1489 21.8515 14.1725C21.6769 14.1961 21.5089 14.255 21.3578 14.3457C21.1815 14.0896 20.9211 13.9032 20.6219 13.8187C20.4047 13.7574 20.1753 13.7536 19.9562 13.8075C19.7371 13.8615 19.5357 13.9714 19.3719 14.1266L16.4188 16.8945H13.3777C12.7578 16.4517 11.999 16.2474 11.2406 16.3192C10.4821 16.391 9.77507 16.7339 9.24922 17.2852H7.71484V16.7969C7.71484 16.7192 7.68398 16.6447 7.62904 16.5897C7.57409 16.5348 7.49958 16.5039 7.42188 16.5039H6.15234V16.4062C6.15234 16.3285 6.12148 16.254 6.06653 16.1991C6.01159 16.1441 5.93708 16.1133 5.85938 16.1133H0.390625C0.312925 16.1133 0.238407 16.1441 0.183465 16.1991C0.128523 16.254 0.0976563 16.3285 0.0976562 16.4062V23.4375C0.0976563 23.5152 0.128523 23.5897 0.183465 23.6447C0.238407 23.6996 0.312925 23.7305 0.390625 23.7305H5.85938C5.93708 23.7305 6.01159 23.6996 6.06653 23.6447C6.12148 23.5897 6.15234 23.5152 6.15234 23.4375V23.3398H7.42188C7.49958 23.3398 7.57409 23.309 7.62904 23.254C7.68398 23.1991 7.71484 23.1246 7.71484 23.0469V22.5586H17.7477C18.3496 22.5586 18.9445 22.4291 19.492 22.1791C20.0395 21.9291 20.5269 21.5642 20.9211 21.1094L24.5816 16.8855C24.7883 16.6469 24.9022 16.3419 24.9023 16.0262C24.9022 15.8157 24.8517 15.6084 24.7549 15.4215C24.6581 15.2346 24.5179 15.0737 24.346 14.9522C24.1742 14.8307 23.9757 14.7522 23.7673 14.7233C23.5588 14.6944 23.3465 14.7159 23.148 14.7859ZM5.56641 23.1445H0.683594V16.6992H5.56641V23.1445ZM7.12891 22.7539H6.15234V17.0898H7.12891V22.7539ZM21.5301 14.9449C21.6193 14.8584 21.7298 14.7969 21.8503 14.7667C21.9709 14.7366 22.0973 14.7387 22.2168 14.773C22.4006 14.8215 22.5583 14.9398 22.6562 15.1027L18.6484 18.8602C18.652 18.8238 18.6539 18.7871 18.6539 18.75C18.6543 18.4379 18.5754 18.1307 18.4246 17.8574L21.5301 14.9449ZM19.7723 14.5543C19.862 14.4677 19.973 14.4062 20.094 14.3763C20.2151 14.3463 20.3419 14.3488 20.4617 14.3836C20.5547 14.4088 20.6417 14.4521 20.7178 14.5111C20.7939 14.5701 20.8575 14.6436 20.9051 14.7273L18.0613 17.3937C17.8258 17.1736 17.5368 17.0187 17.223 16.9445L19.7723 14.5543ZM24.1406 16.502L20.4781 20.7258C20.1389 21.1171 19.7196 21.431 19.2485 21.6461C18.7774 21.8612 18.2655 21.9726 17.7477 21.9727H7.71484V17.8711H9.375C9.41474 17.8711 9.45407 17.8631 9.49061 17.8474C9.52714 17.8318 9.56011 17.8089 9.5875 17.7801L9.66562 17.6961C10.1037 17.2341 10.6973 16.9506 11.3319 16.9001C11.9666 16.8496 12.5975 17.0357 13.1031 17.4227C13.1547 17.4607 13.2172 17.481 13.2812 17.4805H16.7969C17.1334 17.4809 17.4561 17.6148 17.6941 17.8528C17.9321 18.0908 18.066 18.4134 18.0664 18.75C18.0662 18.8794 18.0147 19.0035 17.9232 19.095C17.8316 19.1866 17.7076 19.2381 17.5781 19.2383H13.2812C13.2035 19.2383 13.129 19.2691 13.0741 19.3241C13.0191 19.379 12.9883 19.4536 12.9883 19.5312C12.9883 19.6089 13.0191 19.6835 13.0741 19.7384C13.129 19.7934 13.2035 19.8242 13.2812 19.8242H17.7414C18.2129 19.8243 18.6667 19.6448 19.0105 19.3223L23.0926 15.4941C23.1588 15.4253 23.2378 15.3702 23.3253 15.332C23.4128 15.2937 23.5069 15.2731 23.6024 15.2712C23.6978 15.2693 23.7927 15.2863 23.8816 15.3211C23.9705 15.3559 24.0517 15.4078 24.1205 15.474C24.1893 15.5402 24.2444 15.6193 24.2827 15.7067C24.3209 15.7942 24.3416 15.8884 24.3435 15.9838C24.3453 16.0793 24.3284 16.1742 24.2936 16.2631C24.2588 16.352 24.2068 16.4331 24.1406 16.502ZM9.30508 5.43789L10.6582 6.21914C10.6915 6.23841 10.7283 6.25094 10.7665 6.25599C10.8046 6.26104 10.8434 6.25852 10.8806 6.24859C10.9178 6.23865 10.9526 6.22148 10.9832 6.19806C11.0137 6.17464 11.0393 6.14544 11.0586 6.11211L12.5 3.61523L13.4438 5.25L13.3871 5.28242C13.2913 5.33798 13.2132 5.41955 13.1618 5.51769C13.1105 5.61583 13.088 5.72651 13.097 5.83691C13.106 5.9473 13.1461 6.05288 13.2127 6.14141C13.2792 6.22994 13.3695 6.2978 13.473 6.33711L15.1562 6.97422C15.2374 7.00492 15.3244 7.01722 15.4109 7.01022C15.4973 7.00322 15.5812 6.9771 15.6564 6.93375C15.7315 6.89039 15.7961 6.83088 15.8455 6.75952C15.8948 6.68816 15.9277 6.60672 15.9418 6.52109L16.232 4.74492C16.2499 4.63548 16.2363 4.52322 16.193 4.42117C16.1496 4.31913 16.0781 4.23149 15.9869 4.16845C15.8956 4.10541 15.7884 4.06955 15.6776 4.06504C15.5668 4.06053 15.457 4.08755 15.3609 4.14297L15.3047 4.17578L13.9375 1.80664C13.843 1.64367 13.7074 1.50831 13.5443 1.41407C13.3812 1.31983 13.1962 1.26999 13.0078 1.26953H11.9922C11.8037 1.26982 11.6185 1.31957 11.4552 1.41382C11.2919 1.50808 11.1563 1.64353 11.0617 1.80664L9.19766 5.03906C9.15915 5.10623 9.14884 5.18591 9.16897 5.26067C9.18911 5.33542 9.23805 5.39915 9.30508 5.43789ZM11.9922 1.85547H13.0078C13.0935 1.85567 13.1777 1.87832 13.2519 1.92115C13.3261 1.96399 13.3878 2.02551 13.4309 2.09961L14.9449 4.72227C14.9838 4.78956 15.0478 4.83867 15.1229 4.85881C15.198 4.87895 15.278 4.86848 15.3453 4.82969L15.6555 4.65039L15.3652 6.42617L13.6816 5.78984L13.9918 5.61094C14.0252 5.59172 14.0544 5.56611 14.0779 5.53558C14.1013 5.50505 14.1185 5.47019 14.1285 5.43301C14.1385 5.39582 14.141 5.35703 14.136 5.31886C14.131 5.28069 14.1185 5.24388 14.0992 5.21055L12.4461 2.34727C12.3804 2.23192 12.2917 2.13133 12.1854 2.05177C12.0792 1.9722 11.9577 1.91535 11.8285 1.88477C11.881 1.86571 11.9364 1.85581 11.9922 1.85547ZM11.2578 2.6418C11.292 2.58196 11.3413 2.53222 11.4009 2.49762C11.4605 2.46302 11.5282 2.4448 11.5971 2.4448C11.666 2.4448 11.7336 2.46302 11.7932 2.49762C11.8528 2.53222 11.9022 2.58196 11.9363 2.6418L12.1609 3.03242L10.6969 5.56875L9.85156 5.07812L11.2578 2.6418ZM6.80273 12.0148C6.89734 12.1782 7.03321 12.3137 7.19672 12.408C7.36023 12.5023 7.54564 12.5519 7.73437 12.552H11.4652C11.5429 12.552 11.6175 12.5211 11.6724 12.4661C11.7273 12.4112 11.7582 12.3367 11.7582 12.259V10.6965C11.7582 10.6188 11.7273 10.5443 11.6724 10.4893C11.6175 10.4344 11.5429 10.4035 11.4652 10.4035H8.58242L9.52617 8.76875L9.58281 8.80117C9.67886 8.85659 9.78867 8.88361 9.89946 8.8791C10.0103 8.87459 10.1175 8.83873 10.2087 8.77569C10.3 8.71265 10.3714 8.62501 10.4148 8.52297C10.4582 8.42092 10.4718 8.30866 10.4539 8.19922L10.1633 6.42344C10.1494 6.33744 10.1165 6.25563 10.0669 6.18395C10.0174 6.11228 9.95257 6.05255 9.87706 6.00911C9.80155 5.96566 9.7173 5.93961 9.63045 5.93283C9.5436 5.92605 9.45633 5.93872 9.375 5.96992L7.69141 6.60664C7.58788 6.64599 7.49763 6.71388 7.43111 6.80244C7.3646 6.89099 7.32454 6.99658 7.31559 7.10697C7.30663 7.21736 7.32915 7.32803 7.38052 7.42614C7.4319 7.52426 7.51003 7.60581 7.60586 7.66133L7.66211 7.69414L6.29492 10.0633C6.20106 10.2267 6.15167 10.4119 6.15167 10.6004C6.15167 10.7889 6.20106 10.9741 6.29492 11.1375L6.80273 12.0148ZM11.1719 10.9895V11.966H8.35938C8.29059 11.9666 8.22289 11.9488 8.16329 11.9145C8.10368 11.8801 8.05432 11.8305 8.02031 11.7707C7.98516 11.7116 7.96661 11.6441 7.96661 11.5754C7.96661 11.5066 7.98516 11.4392 8.02031 11.3801L8.24492 10.9895H11.1719ZM6.80469 10.3566L8.31758 7.73437C8.35638 7.66713 8.3669 7.58723 8.34684 7.51223C8.32677 7.43723 8.27775 7.37326 8.21055 7.33437L7.9 7.15547L9.58359 6.51875L9.87422 8.29453L9.56367 8.11562C9.49642 8.07682 9.41652 8.0663 9.34152 8.08637C9.26652 8.10644 9.20255 8.15546 9.16367 8.22266L7.51055 11.0863C7.44349 11.2008 7.40074 11.3279 7.38494 11.4596C7.36915 11.5913 7.38066 11.7249 7.41875 11.852C7.37523 11.8156 7.33847 11.7718 7.31016 11.7227L6.80234 10.8457C6.75967 10.7712 6.73732 10.6868 6.73753 10.601C6.73773 10.5152 6.76049 10.4309 6.80352 10.3566H6.80469ZM14.9777 7.90625L16.4191 10.4031H14.5312V10.3379C14.5313 10.227 14.4998 10.1183 14.4405 10.0246C14.3812 9.93081 14.2965 9.85583 14.1962 9.80833C14.096 9.76082 13.9843 9.74275 13.8742 9.75621C13.7641 9.76968 13.6601 9.81412 13.5742 9.88438L12.1816 11.0242C12.1145 11.0792 12.0605 11.1483 12.0233 11.2267C11.9862 11.3051 11.9669 11.3908 11.9669 11.4775C11.9669 11.5643 11.9862 11.6499 12.0233 11.7283C12.0605 11.8067 12.1145 11.8759 12.1816 11.9309L13.5746 13.0707C13.6605 13.1408 13.7645 13.1852 13.8745 13.1986C13.9845 13.212 14.0961 13.1939 14.1963 13.1464C14.2965 13.0989 14.3811 13.024 14.4404 12.9303C14.4997 12.8366 14.5312 12.728 14.5312 12.6172V12.552H17.2656C17.4541 12.5516 17.6392 12.5019 17.8024 12.4076C17.9656 12.3134 18.1012 12.1779 18.1957 12.0148L18.7035 11.1379C18.7976 10.9745 18.8471 10.7893 18.8471 10.6008C18.8471 10.4123 18.7976 10.2271 18.7035 10.0637L16.8383 6.83203C16.7993 6.7648 16.7353 6.71578 16.6602 6.69571C16.5852 6.67565 16.5052 6.68618 16.4379 6.725L15.0848 7.50625C15.0514 7.52543 15.0222 7.551 14.9987 7.58151C14.9753 7.61202 14.9581 7.64685 14.9482 7.68402C14.9382 7.72118 14.9357 7.75995 14.9408 7.79808C14.9459 7.83622 14.9584 7.87298 14.9777 7.90625ZM18.2539 10.6855C18.2443 10.7415 18.2249 10.7953 18.1965 10.8445L17.6887 11.7215C17.6457 11.7956 17.584 11.8572 17.5098 11.9C17.4355 11.9429 17.3513 11.9655 17.2656 11.9656H14.2387C14.161 11.9656 14.0865 11.9965 14.0315 12.0514C13.9766 12.1064 13.9457 12.1809 13.9457 12.2586V12.6172L12.5527 11.4777L13.9453 10.3379V10.6961C13.9453 10.7738 13.9762 10.8483 14.0311 10.9033C14.0861 10.9582 14.1606 10.9891 14.2383 10.9891H17.5445C17.6773 10.99 17.8088 10.9636 17.9309 10.9113C18.053 10.8591 18.1629 10.7822 18.2539 10.6855ZM16.4773 7.37891L17.8836 9.81406C17.9182 9.87334 17.9364 9.94074 17.9364 10.0094C17.9364 10.078 17.9182 10.1454 17.8836 10.2047C17.85 10.2648 17.8007 10.3147 17.741 10.3491C17.6813 10.3835 17.6134 10.4011 17.5445 10.4H17.0953L15.6312 7.86719L16.4773 7.37891Z" fill="black"/>
</svg>
