<svg width="25" height="26" viewBox="0 0 25 26" fill="none" xmlns="http://www.w3.org/2000/svg">
<mask id="mask0_386_5086" style="mask-type:luminance" maskUnits="userSpaceOnUse" x="0" y="0" width="25" height="26">
<path d="M0 0.500074H24.9999V25.5H0V0.500074Z" fill="white"/>
</mask>
<g mask="url(#mask0_386_5086)">
<path d="M11.3398 16.9676L12.6292 17.8169C13.0003 18.0613 13.4177 18.2269 13.8554 18.3035C14.2931 18.38 14.7419 18.3658 15.1739 18.2618L21.9238 25.0117L24.5132 18.1675L20.3375 13.9916C20.3375 13.2175 20.2439 12.4531 20.063 11.7134L11.3398 16.9676Z" fill="#FFBF9E"/>
<path d="M21.1823 8.93574C20.7249 8.47837 19.9834 8.47837 19.5261 8.93574C19.9834 8.47837 19.9834 7.73687 19.5261 7.27954C19.0687 6.82217 18.3272 6.82217 17.8699 7.27954C18.3272 6.82217 18.3272 6.08067 17.8699 5.6233C17.4125 5.16598 16.671 5.16598 16.2137 5.6233C16.671 5.16598 16.671 4.42448 16.2137 3.9671C15.7563 3.50973 15.0148 3.50973 14.5575 3.9671L12.529 5.99557L6.33641 13.1096L0.5 18.946L2.81474 24.9863L10.3637 17.4373C10.788 17.0131 11.3634 16.7748 11.9633 16.7748C12.9259 16.7748 13.8791 16.5852 14.7684 16.2168C15.6577 15.8484 16.4657 15.3085 17.1464 14.6279L21.1823 10.5919C21.6397 10.1346 21.6397 9.39306 21.1823 8.93574Z" fill="#FFD4BE"/>
<path d="M4.56641 14.8781L8.74393 19.0557L10.3625 17.4371C10.4127 17.387 10.4652 17.3393 10.5199 17.2941L6.33515 13.1094L4.56641 14.8781Z" fill="#91DEF5"/>
<path d="M17.7687 20.8574L22.4856 16.1405L20.7168 14.3718L16 19.0887L17.7687 20.8574Z" fill="#F6838D"/>
<path d="M7.9921 11.4538L6.23365 9.6954C5.77628 9.23803 5.77628 8.49653 6.23365 8.03921C6.69098 7.58184 7.43253 7.58184 7.88985 8.03921L9.64829 9.79765C10.1057 10.255 10.1057 10.9965 9.64829 11.4538C9.19097 11.9112 8.44947 11.9112 7.9921 11.4538Z" fill="#FFBF9E"/>
<path d="M9.64835 9.7976L7.8899 8.03915C7.43253 7.58178 7.43253 6.84028 7.8899 6.38296C8.34723 5.92559 9.08878 5.92559 9.5461 6.38296L11.3045 8.1414C11.7619 8.59872 11.7619 9.34022 11.3045 9.7976C10.8472 10.255 10.1057 10.255 9.64835 9.7976Z" fill="#FFBF9E"/>
<path d="M11.3046 8.14135L9.54615 6.3829C9.08878 5.92553 9.08878 5.18403 9.54615 4.72671C10.0035 4.26934 10.745 4.26934 11.2024 4.72671L12.9608 6.48515C13.4182 6.94247 13.4182 7.68397 12.9608 8.14135C12.5035 8.59872 11.762 8.59872 11.3046 8.14135Z" fill="#FFBF9E"/>
<path d="M6.33648 13.1101L5.30006 12.0737C4.84269 11.6163 4.84269 10.8748 5.30006 10.4174C5.75738 9.96011 6.49888 9.96011 6.95626 10.4174L7.99268 11.4539C8.45005 11.9112 8.45005 12.6527 7.99268 13.1101C7.53536 13.5675 6.79385 13.5675 6.33648 13.1101Z" fill="#FFBF9E"/>
<path d="M15.5175 17.9165C15.4584 17.8573 15.3851 17.8143 15.3046 17.7917C15.2241 17.769 15.1392 17.7674 15.0579 17.7871C14.3189 17.9649 13.531 17.8273 12.8962 17.4091L12.6318 17.2349C14.468 17.0804 16.1737 16.2915 17.4916 14.9736L19.9284 12.5368C20.1383 13.0441 20.2513 13.5863 20.2614 14.1352L15.9989 18.3979L15.5175 17.9165ZM5.25818 14.8788L6.33635 13.8006L9.82335 17.2876L8.74513 18.3658L5.25818 14.8788ZM5.64519 10.7627C5.70856 10.6993 5.78384 10.649 5.8667 10.6147C5.94956 10.5804 6.03838 10.5629 6.12805 10.563C6.30265 10.563 6.47736 10.6294 6.61037 10.7623L7.64728 11.7992C7.71088 11.8624 7.76136 11.9377 7.79569 12.0205C7.83002 12.1034 7.84757 12.1923 7.84733 12.282C7.84733 12.4643 7.77628 12.6358 7.64728 12.7648C7.58402 12.8284 7.50878 12.8789 7.42591 12.9132C7.34303 12.9475 7.25417 12.9651 7.16447 12.9648C7.07482 12.9651 6.98601 12.9475 6.90318 12.9133C6.82035 12.879 6.74514 12.8286 6.6819 12.765L6.68166 12.7648L5.64519 11.7284C5.37898 11.4621 5.37898 11.0289 5.64519 10.7627ZM6.57941 8.38448C6.64267 8.32087 6.71791 8.27045 6.80079 8.23612C6.88366 8.20179 6.97252 8.18423 7.06222 8.18447C7.24464 8.18447 7.41613 8.25552 7.54508 8.38448L9.30352 10.1429C9.56973 10.4092 9.56973 10.8424 9.30352 11.1086C9.03727 11.3748 8.60411 11.3748 8.3378 11.1086H8.33785L6.57941 9.35019C6.31315 9.08393 6.31315 8.65069 6.57941 8.38448ZM8.23561 6.72828C8.29897 6.66482 8.37424 6.61451 8.45711 6.58024C8.53997 6.54597 8.6288 6.52841 8.71847 6.52857C8.89327 6.52857 9.06817 6.59517 9.20128 6.72828L10.9597 8.48667C11.226 8.75293 11.2259 9.18618 10.9597 9.45239C10.8965 9.516 10.8212 9.56642 10.7383 9.60075C10.6555 9.63508 10.5666 9.65263 10.4769 9.65239C10.3872 9.65264 10.2984 9.6351 10.2156 9.60079C10.1327 9.56649 10.0575 9.5161 9.99425 9.45254L9.99405 9.45239L8.23561 7.69395C8.17201 7.63068 8.12158 7.55543 8.08725 7.47255C8.05292 7.38967 8.03537 7.3008 8.03561 7.21109C8.03561 7.02872 8.10665 6.85723 8.23561 6.72828ZM9.89185 5.07203C9.95511 5.00843 10.0304 4.95801 10.1132 4.92369C10.1961 4.88937 10.285 4.87183 10.3747 4.87208C10.4644 4.87184 10.5532 4.88938 10.6361 4.92371C10.719 4.95804 10.7942 5.00847 10.8575 5.07208L12.616 6.83052C12.6796 6.89378 12.73 6.96903 12.7643 7.0519C12.7986 7.13478 12.8162 7.22364 12.8159 7.31334C12.8159 7.49576 12.7449 7.66719 12.6159 7.7962C12.5527 7.8598 12.4774 7.91022 12.3945 7.94456C12.3117 7.97888 12.2228 7.99644 12.1331 7.9962C12.0434 7.99644 11.9546 7.9789 11.8718 7.94459C11.7889 7.91029 11.7137 7.8599 11.6504 7.79634L11.6503 7.79615L9.8918 6.0377C9.8282 5.97445 9.77778 5.89921 9.74345 5.81633C9.70912 5.73346 9.69156 5.6446 9.6918 5.55489C9.6918 5.37252 9.76285 5.20104 9.89185 5.07203ZM14.9027 4.31281C14.966 4.2492 15.0412 4.19878 15.1241 4.16445C15.207 4.13012 15.2958 4.11257 15.3855 4.11281C15.5679 4.11281 15.7394 4.18385 15.8683 4.31281C15.932 4.37607 15.9824 4.45132 16.0167 4.5342C16.0511 4.61709 16.0686 4.70596 16.0683 4.79567C16.0683 4.97809 15.9974 5.14952 15.8683 5.27848L14.7954 6.35147C14.6047 6.54219 14.6047 6.85137 14.7954 7.04205C14.986 7.23272 15.2952 7.23272 15.4859 7.04205L16.5589 5.96905C16.6222 5.90544 16.6974 5.855 16.7803 5.82067C16.8632 5.78634 16.952 5.7688 17.0417 5.76905C17.2242 5.76905 17.3956 5.84005 17.5245 5.96905C17.7908 6.23531 17.7908 6.66846 17.5245 6.93472L15.8861 8.57315C15.6954 8.76387 15.6954 9.07305 15.8861 9.26372C15.9314 9.30914 15.9852 9.34515 16.0445 9.36969C16.1037 9.39424 16.1672 9.40683 16.2314 9.40674C16.3563 9.40674 16.4813 9.35908 16.5766 9.26372L18.2151 7.62525C18.2784 7.56165 18.3536 7.51122 18.4365 7.47689C18.5194 7.44256 18.6082 7.42501 18.6979 7.42525C18.8804 7.42525 19.0518 7.49629 19.1808 7.62525C19.2444 7.68851 19.2948 7.76376 19.3292 7.84664C19.3635 7.92953 19.381 8.0184 19.3808 8.10811C19.381 8.19781 19.3635 8.28667 19.3292 8.36955C19.2948 8.45243 19.2444 8.52767 19.1808 8.59092L17.5423 10.2293C17.3516 10.4201 17.3516 10.7292 17.5423 10.9199C17.5876 10.9653 17.6414 11.0013 17.7007 11.0259C17.76 11.0504 17.8235 11.063 17.8876 11.0629C18.0126 11.0629 18.1375 11.0153 18.2329 10.9199L19.8713 9.28144C20.1375 9.01524 20.5708 9.01524 20.837 9.28144C21.1032 9.54766 21.1032 9.98091 20.837 10.2471L16.8011 14.283C15.5089 15.5753 13.7908 16.2869 11.9633 16.2869C11.4684 16.2869 10.9938 16.4173 10.5776 16.6608L7.75143 13.8346C7.97165 13.7513 8.17156 13.6221 8.3378 13.4554C8.65069 13.1425 8.8232 12.7266 8.82379 12.2843C9.24771 12.2835 9.67135 12.1218 9.99405 11.7991C10.3168 11.4764 10.4784 11.0528 10.4792 10.6289C10.9216 10.6283 11.3374 10.4558 11.6503 10.1429C11.9729 9.82021 12.1347 9.39658 12.1354 8.97266C12.5778 8.97207 12.9936 8.79956 13.3064 8.48672C13.6199 8.17329 13.7925 7.7566 13.7925 7.31334C13.7925 6.87012 13.6199 6.45338 13.3065 6.13995L13.191 6.02447L14.9027 4.31281ZM21.2394 14.2047C21.2373 13.3696 21.0405 12.5464 20.6646 11.8006L21.5276 10.9376C22.1745 10.2907 22.1745 9.23789 21.5275 8.59092C21.2048 8.26822 20.7812 8.10655 20.3573 8.10576C20.3567 7.66338 20.1842 7.24756 19.8714 6.93472C19.5485 6.61182 19.1245 6.45016 18.7003 6.44957C18.6997 6.0254 18.538 5.60143 18.2151 5.27848C17.9024 4.96583 17.4869 4.79337 17.0449 4.79254C17.044 4.3505 16.8716 3.93498 16.5589 3.62228C16.2455 3.30886 15.8288 3.13625 15.3855 3.13625C14.9423 3.13625 14.5256 3.30886 14.2122 3.62228L12.5005 5.33395L11.548 4.38156C11.2346 4.06813 10.8179 3.89552 10.3747 3.89552C9.9314 3.89552 9.51471 4.06813 9.20133 4.38151C8.88844 4.6944 8.71593 5.11022 8.71534 5.55255C8.29142 5.55338 7.86779 5.71505 7.54508 6.03775C7.23239 6.3504 7.05993 6.76593 7.0591 7.20797C6.61706 7.2088 6.20153 7.38126 5.88884 7.69395C5.35456 8.22823 5.26198 9.03901 5.61008 9.66973C5.36293 9.75033 5.13835 9.88822 4.95466 10.0722C4.30764 10.7192 4.30764 11.7719 4.95466 12.4189L5.64582 13.1101L0.154724 18.6012C-0.0359496 18.7919 -0.0359496 19.1011 0.154724 19.2918C0.200019 19.3372 0.253838 19.3732 0.313088 19.3977C0.372339 19.4223 0.435854 19.4349 0.499987 19.4348C0.56412 19.4349 0.627638 19.4223 0.686889 19.3977C0.74614 19.3732 0.799957 19.3372 0.845249 19.2918L4.5676 15.5694L8.05455 19.0564L2.46941 24.6415C2.27874 24.8322 2.27879 25.1414 2.46941 25.3321C2.51472 25.3775 2.56855 25.4135 2.62781 25.438C2.68706 25.4626 2.75059 25.4752 2.81473 25.4751C2.93968 25.4751 3.06463 25.4274 3.15999 25.3321L10.709 17.7831C10.8458 17.6461 11.0041 17.5324 11.1776 17.4465L12.3591 18.2247C13.1405 18.7394 14.0932 18.9404 15.0117 18.7917L21.5769 25.357C21.6222 25.4024 21.676 25.4384 21.7353 25.4629C21.7945 25.4875 21.8581 25.5001 21.9222 25.5C21.9863 25.5001 22.0498 25.4875 22.1091 25.4629C22.1683 25.4384 22.2222 25.4024 22.2675 25.357C22.4582 25.1663 22.4582 24.8571 22.2675 24.6664L18.4582 20.8571L18.9187 20.3966C19.1094 20.206 19.1094 19.8968 18.9187 19.7061C18.728 19.5154 18.4188 19.5154 18.2282 19.7061L17.7677 20.1666L16.6894 19.0884L20.7157 15.0621L21.794 16.1403L21.3345 16.5998C21.1438 16.7905 21.1438 17.0996 21.3345 17.2904C21.3798 17.3358 21.4336 17.3718 21.4929 17.3963C21.5521 17.4208 21.6156 17.4334 21.6798 17.4333C21.7439 17.4334 21.8074 17.4208 21.8667 17.3963C21.9259 17.3718 21.9797 17.3358 22.025 17.2904L22.4845 16.8308L24.1664 18.5127C24.2117 18.5581 24.2655 18.5941 24.3247 18.6187C24.384 18.6432 24.4475 18.6558 24.5116 18.6557C24.5758 18.6558 24.6393 18.6432 24.6985 18.6187C24.7578 18.5941 24.8116 18.5581 24.8569 18.5127C25.0476 18.322 25.0476 18.0129 24.8569 17.8221L21.2394 14.2047Z" fill="black"/>
<path d="M19.7798 18.1538C19.6885 18.2455 19.6371 18.3696 19.6367 18.499C19.6367 18.6274 19.689 18.7534 19.7798 18.8442C19.8706 18.9351 19.9966 18.9873 20.125 18.9873C20.2539 18.9873 20.3794 18.9351 20.4702 18.8442C20.561 18.7534 20.6133 18.6274 20.6133 18.499C20.6133 18.3701 20.561 18.2446 20.4702 18.1538C20.3784 18.0626 20.2544 18.0112 20.125 18.0107C19.9966 18.0107 19.8706 18.063 19.7798 18.1538Z" fill="black"/>
<path d="M3.29689 4.48882C3.34218 4.53423 3.396 4.57024 3.45525 4.59478C3.5145 4.61933 3.57802 4.63192 3.64215 4.63184C3.7063 4.63192 3.76982 4.61933 3.82908 4.59479C3.88834 4.57024 3.94217 4.53423 3.98747 4.48882C4.17814 4.29815 4.17814 3.98897 3.98747 3.79824L1.68904 1.49986C1.49836 1.30919 1.18918 1.30919 0.99851 1.49986C0.807788 1.69054 0.807788 1.99971 0.99851 2.19044L3.29689 4.48882Z" fill="black"/>
<path d="M5.95703 3.16113C6.22671 3.16113 6.44531 2.94253 6.44531 2.67285V0.987506C6.44531 0.717829 6.22671 0.499227 5.95703 0.499227C5.68735 0.499227 5.46875 0.717829 5.46875 0.987506V2.67285C5.46875 2.94253 5.68735 3.16113 5.95703 3.16113Z" fill="black"/>
<path d="M0.48828 6.94434H2.17363C2.4433 6.94434 2.66191 6.72573 2.66191 6.45606C2.66191 6.18638 2.4433 5.96778 2.17363 5.96778H0.48828C0.218603 5.96778 0 6.18638 0 6.45606C0 6.72573 0.218603 6.94434 0.48828 6.94434Z" fill="black"/>
<path d="M21.3555 4.63184C21.4804 4.63184 21.6054 4.58418 21.7008 4.48882L23.9992 2.19044C24.1899 1.99976 24.1899 1.69058 23.9992 1.49986C23.8085 1.30919 23.4993 1.30919 23.3086 1.49986L21.0102 3.79829C20.8195 3.98897 20.8195 4.29815 21.0102 4.48882C21.0555 4.53423 21.1093 4.57025 21.1686 4.59479C21.2278 4.61934 21.2914 4.63193 21.3555 4.63184Z" fill="black"/>
<path d="M19.043 3.16113C19.3126 3.16113 19.5312 2.94253 19.5312 2.67285V0.987506C19.5312 0.717829 19.3126 0.499227 19.043 0.499227C18.7733 0.499227 18.5547 0.717829 18.5547 0.987506V2.67285C18.5547 2.94253 18.7733 3.16113 19.043 3.16113Z" fill="black"/>
<path d="M22.3398 6.45606C22.3398 6.72573 22.5584 6.94434 22.8281 6.94434H24.5135C24.7831 6.94434 25.0017 6.72573 25.0017 6.45606C25.0017 6.18638 24.7831 5.96778 24.5135 5.96778H22.8281C22.5584 5.96778 22.3398 6.18638 22.3398 6.45606Z" fill="black"/>
</g>
</svg>
