<svg width="25" height="26" viewBox="0 0 25 26" fill="none" xmlns="http://www.w3.org/2000/svg">
<g clip-path="url(#clip0_386_4438)">
<path d="M8.32432 8.27012L5.85444 8.27359L5.84766 4.11148C5.84762 4.08379 5.85303 4.05636 5.86359 4.03077C5.87415 4.00517 5.88965 3.98191 5.9092 3.9623C5.92875 3.9427 5.95198 3.92713 5.97754 3.9165C6.00311 3.90587 6.03052 3.90038 6.0582 3.90034L8.1064 3.89746C8.13408 3.89742 8.16151 3.90284 8.1871 3.9134C8.2127 3.92396 8.23596 3.93946 8.25557 3.95901C8.27517 3.97856 8.29074 4.00178 8.30137 4.02735C8.312 4.05291 8.31749 4.08032 8.31753 4.10801L8.32432 8.27012Z" fill="#FFB125"/>
<path d="M8.31855 4.10801C8.31852 4.08032 8.31302 4.05291 8.30239 4.02735C8.29176 4.00178 8.2762 3.97856 8.25659 3.95901C8.23699 3.93946 8.21372 3.92396 8.18813 3.9134C8.16253 3.90284 8.13511 3.89742 8.10742 3.89746L6.88623 3.89917C6.99453 3.90786 7.08003 3.99746 7.08022 4.10801L7.08701 8.27012L5.85547 8.27183V8.27354L8.32534 8.27007L8.31855 4.10801Z" fill="#FF901D"/>
<path d="M12.409 3.82227L5.79297 10.0548L5.8062 19.5297C5.80637 19.6497 5.85421 19.7648 5.93919 19.8495C6.02418 19.9343 6.13935 19.9818 6.25937 19.9816L18.6037 19.9644C18.7237 19.9642 18.8387 19.9164 18.9235 19.8314C19.0082 19.7464 19.0558 19.6313 19.0556 19.5112L19.0424 10.0363L12.409 3.82227Z" fill="#E1EFFB"/>
<path d="M19.0407 10.0363L12.4074 3.82227L11.3164 4.85L16.8527 10.0363L16.866 19.5112C16.8661 19.5706 16.8544 19.6295 16.8318 19.6844C16.8091 19.7393 16.7758 19.7893 16.7339 19.8314C16.6919 19.8734 16.6421 19.9068 16.5872 19.9297C16.5323 19.9525 16.4735 19.9643 16.4141 19.9644H18.6021C18.7221 19.9642 18.8372 19.9163 18.9219 19.8314C19.0067 19.7464 19.0542 19.6312 19.0541 19.5112L19.0407 10.0363Z" fill="#CCDFED"/>
<path d="M21.3776 12.1246C21.1461 12.1252 20.9232 12.0373 20.7545 11.8788L12.4105 4.06237L4.08837 11.9021C3.7226 12.2466 3.14677 12.2294 2.80229 11.8637C2.45771 11.498 2.47489 10.9221 2.84067 10.5776L11.7849 2.15187C12.1346 1.82243 12.6802 1.8217 13.0308 2.15012L21.9985 10.5508C22.3652 10.8944 22.384 11.4701 22.0404 11.8368C21.9556 11.9276 21.8529 12 21.7389 12.0496C21.6249 12.0991 21.5019 12.1246 21.3776 12.1246Z" fill="#FF4C4C"/>
<path d="M22.0399 10.7423C21.955 10.8331 21.8524 10.9055 21.7384 10.955C21.6244 11.0045 21.5014 11.0301 21.3771 11.0301C21.1456 11.0307 20.9227 10.9427 20.754 10.7842L12.41 2.96777L4.08786 10.8075C3.72209 11.1521 3.14626 11.1348 2.80178 10.7691C2.77908 10.7449 2.75772 10.7195 2.73781 10.6929C2.47565 11.0404 2.49323 11.5359 2.80178 11.8634C3.14621 12.2291 3.72209 12.2463 4.08786 11.9018L12.41 4.06211L20.754 11.8785C20.9227 12.037 21.1456 12.125 21.3771 12.1244C21.5014 12.1244 21.6244 12.0988 21.7384 12.0493C21.8524 11.9998 21.955 11.9274 22.0399 11.8366C22.3469 11.5089 22.3637 11.0147 22.1023 10.668C22.0828 10.6938 22.062 10.7186 22.0399 10.7423Z" fill="#F33939"/>
<path d="M14.1193 11.6338L10.7182 11.6385C10.6416 11.6386 10.5681 11.6692 10.514 11.7235C10.4599 11.7777 10.4296 11.8513 10.4297 11.9279L10.4409 19.9762L14.4199 19.9707L14.4087 11.9223C14.4086 11.8457 14.378 11.7722 14.3238 11.7181C14.2695 11.664 14.196 11.6337 14.1193 11.6338Z" fill="#2D5871"/>
<path d="M14.4102 11.9223C14.41 11.8457 14.3795 11.7722 14.3252 11.7181C14.271 11.664 14.1974 11.6337 14.1208 11.6338L12.1992 11.6365C12.2579 11.6549 12.3092 11.6915 12.3456 11.741C12.382 11.7905 12.4017 11.8504 12.4018 11.9119L12.413 19.9735L14.4214 19.9707L14.4102 11.9223Z" fill="#1D4859"/>
<path d="M22.799 15.9078L17.786 19.2627L16.292 19.1789L16.2335 18.5909C16.1465 17.7155 15.4725 17.013 14.6015 16.8897L10.5986 16.4289C9.67524 16.2982 8.78618 15.9888 7.9812 15.5179C6.88219 14.875 5.63189 14.5361 4.35864 14.5361H1.47266V21.1238L9.10024 24.0123C9.38853 24.0937 9.69126 24.118 9.98711 24.0712L9.99243 24.0704L17.6716 22.9635C18.2632 22.869 18.8193 22.6199 19.2836 22.2412L24.2468 17.7774C24.6922 17.3819 24.7748 16.7172 24.4396 16.2247C24.073 15.6859 23.34 15.5443 22.799 15.9078Z" fill="#FED9A8"/>
<path d="M24.5052 16.334L19.5995 20.4634C19.1352 20.8421 18.3634 21.0912 17.7718 21.1857L9.99248 21.7418C9.99071 21.7421 9.98894 21.7424 9.98716 21.7426C9.69131 21.7894 9.38853 21.765 9.10029 21.6836L1.47266 18.7952V21.1237L9.10024 24.0122C9.24407 24.053 9.3917 24.079 9.54082 24.0897C9.578 24.0923 9.61523 24.0939 9.65249 24.0945C9.76629 24.0964 9.88004 24.0883 9.99243 24.0703L17.6716 22.9634C17.8926 22.9281 18.1095 22.871 18.3192 22.7932C18.6688 22.6633 18.9947 22.4768 19.2836 22.2411L24.2468 17.7773C24.6601 17.4103 24.7604 16.8119 24.5052 16.334Z" fill="#F4C892"/>
<path d="M2.44326 23.3616H1.30137C0.778955 23.3616 0.355469 22.9381 0.355469 22.4157V13.9654C0.355469 13.443 0.778955 13.0195 1.30137 13.0195H2.44326C2.96567 13.0195 3.38916 13.443 3.38916 13.9654V22.4157C3.38916 22.9381 2.96567 23.3616 2.44326 23.3616Z" fill="#2D5871"/>
<path d="M2.44653 13.0195H1.30464C1.24043 13.0195 1.17778 13.0261 1.11719 13.0383C1.54976 13.1253 1.87559 13.5072 1.87559 13.9654V22.4157C1.87559 22.8739 1.54976 23.2558 1.11719 23.3428C1.17778 23.355 1.24048 23.3616 1.30464 23.3616H2.44653C2.96895 23.3616 3.39243 22.9381 3.39243 22.4157V13.9654C3.39243 13.443 2.96895 13.0195 2.44653 13.0195Z" fill="#1D4859"/>
<path d="M24.734 16.024C24.2584 15.3252 23.3008 15.1402 22.5999 15.6113L19.4094 17.7465L19.4001 11.1005L20.5085 12.1388C20.7429 12.3591 21.0526 12.4815 21.3742 12.4811H21.3761C21.5491 12.4806 21.7201 12.4448 21.8788 12.3759C22.0375 12.307 22.1804 12.2065 22.2989 12.0804C22.5302 11.8335 22.6515 11.5113 22.6405 11.1731C22.6294 10.835 22.4874 10.5213 22.2404 10.29L20.1391 8.32158C20.0696 8.25926 19.9785 8.22663 19.8853 8.23068C19.792 8.23472 19.7041 8.27513 19.6403 8.34325C19.5765 8.41136 19.5419 8.50175 19.5439 8.59506C19.5459 8.68837 19.5845 8.77717 19.6512 8.84243L21.7525 10.8109C21.8056 10.8604 21.8485 10.92 21.8784 10.9861C21.9084 11.0523 21.925 11.1238 21.9271 11.1964C21.9297 11.269 21.9178 11.3414 21.8922 11.4094C21.8666 11.4773 21.8278 11.5396 21.778 11.5924C21.7265 11.6478 21.6642 11.692 21.5948 11.7221C21.5255 11.7522 21.4506 11.7676 21.375 11.7673H21.3742C21.2334 11.7673 21.0993 11.7143 20.9964 11.6179L19.2862 10.0158L19.2861 10.0157L12.6525 3.80151C12.5863 3.73945 12.4989 3.70498 12.4081 3.7051C12.3173 3.70523 12.23 3.73995 12.1639 3.8022L5.54805 10.0345L5.54795 10.0346L3.84175 11.6419C3.78897 11.6918 3.72683 11.7308 3.65893 11.7565C3.59102 11.7823 3.51869 11.7944 3.44609 11.7921C3.37347 11.7901 3.30195 11.7738 3.2357 11.744C3.16944 11.7142 3.10976 11.6715 3.06011 11.6185C3.01015 11.5657 2.97115 11.5036 2.94537 11.4357C2.91959 11.3678 2.90754 11.2955 2.90991 11.2229C2.91188 11.1502 2.92823 11.0787 2.95802 11.0125C2.9878 10.9462 3.03044 10.8865 3.08345 10.8369L12.0276 2.41123C12.2396 2.21148 12.5723 2.21099 12.7848 2.41021L18.0176 7.31216C18.0518 7.3442 18.092 7.36919 18.1358 7.3857C18.1797 7.40221 18.2263 7.40992 18.2732 7.4084C18.32 7.40687 18.3661 7.39613 18.4088 7.37679C18.4515 7.35746 18.4899 7.3299 18.522 7.2957C18.554 7.26151 18.579 7.22133 18.5955 7.17747C18.612 7.13362 18.6197 7.08694 18.6182 7.0401C18.6167 6.99326 18.6059 6.94718 18.5866 6.9045C18.5673 6.86181 18.5397 6.82335 18.5055 6.79131L13.2728 1.88936C12.7858 1.43311 12.024 1.43413 11.5383 1.89175L8.67505 4.58902L8.67427 4.10791C8.67438 4.03333 8.65968 3.95947 8.63104 3.89061C8.6024 3.82174 8.56038 3.75925 8.50742 3.70674C8.45486 3.65402 8.39237 3.61224 8.32358 3.5838C8.25478 3.55535 8.18104 3.54081 8.10659 3.54102H8.10576L6.05757 3.5439C5.98299 3.5438 5.90913 3.55849 5.84027 3.58713C5.7714 3.61577 5.70891 3.65778 5.6564 3.71074C5.60359 3.76342 5.56176 3.82605 5.53332 3.895C5.50488 3.96395 5.4904 4.03787 5.49072 4.11245L5.49639 7.5835L2.59409 10.3175C2.3478 10.5495 2.20664 10.8635 2.19653 11.2017C2.18643 11.5399 2.30864 11.8618 2.54063 12.108C2.77256 12.3542 3.08657 12.4955 3.4248 12.5056C3.43774 12.506 3.45068 12.5062 3.46362 12.5062C3.7876 12.5062 4.09439 12.3846 4.33115 12.1614L5.43706 11.1196L5.44146 14.2588C5.08268 14.2063 4.72057 14.1797 4.35796 14.1794H3.74736V13.9654C3.74736 13.2471 3.16294 12.6627 2.44463 12.6627H1.30273C0.584424 12.6626 0 13.247 0 13.9654V19.5571C0 19.6517 0.0375951 19.7425 0.104515 19.8094C0.171435 19.8763 0.262197 19.9139 0.356836 19.9139C0.451475 19.9139 0.542237 19.8763 0.609157 19.8094C0.676077 19.7425 0.713672 19.6517 0.713672 19.5571V13.9654C0.713672 13.6406 0.97793 13.3763 1.30273 13.3763H2.44458C2.76938 13.3763 3.03364 13.6406 3.03364 13.9654V22.4156C3.03364 22.7404 2.76938 23.0047 2.44458 23.0047H1.30273C0.97793 23.0047 0.713672 22.7404 0.713672 22.4156V21.7912C0.713672 21.6966 0.676077 21.6058 0.609157 21.5389C0.542237 21.472 0.451475 21.4344 0.356836 21.4344C0.262197 21.4344 0.171435 21.472 0.104515 21.5389C0.0375951 21.6058 0 21.6966 0 21.7912L0 22.4156C0 23.1339 0.584424 23.7184 1.30273 23.7184H2.44458C3.16289 23.7184 3.74731 23.134 3.74731 22.4156V22.3671L8.9731 24.346C8.98276 24.3497 8.99258 24.3529 9.00254 24.3557C9.22974 24.4199 9.45684 24.4521 9.68106 24.4521C9.80234 24.4521 9.9228 24.4426 10.042 24.4238L17.7218 23.3167L17.7271 23.3159C18.3808 23.2113 18.9953 22.936 19.5084 22.5178C19.5128 22.5142 19.5172 22.5104 19.5215 22.5065L24.483 18.0442C25.0607 17.5313 25.1686 16.6628 24.734 16.024ZM7.96079 4.25493L7.96245 5.2603L6.20894 6.91216L6.20459 4.25733L7.96079 4.25493ZM6.15532 14.3973L6.1498 10.4481L12.4092 4.55151L18.6855 10.431L18.6964 18.2236L17.6861 18.8998L16.6162 18.8398L16.5879 18.5556C16.5407 18.0715 16.3385 17.6156 16.0114 17.2556C15.6843 16.8956 15.2499 16.6508 14.7725 16.5575L14.7661 11.9215C14.7656 11.5657 14.4759 11.2766 14.1202 11.2766H14.1193L10.7183 11.2814C10.6334 11.2813 10.5494 11.298 10.471 11.3306C10.3927 11.3631 10.3216 11.4109 10.2619 11.4712C10.2018 11.5311 10.1542 11.6023 10.1218 11.6807C10.0895 11.7592 10.073 11.8432 10.0733 11.9281L10.079 15.9701C9.40452 15.8161 8.75758 15.5597 8.16064 15.21C8.08564 15.1662 8.00988 15.1237 7.9334 15.0825C7.90361 15.0664 7.87334 15.0513 7.84331 15.0356C7.79683 15.0114 7.75044 14.987 7.70347 14.9637C7.66606 14.9451 7.62822 14.9275 7.59053 14.9096C7.55054 14.8906 7.5106 14.8714 7.47031 14.8531C7.4293 14.8345 7.38794 14.8168 7.34663 14.7989C7.30889 14.7826 7.27114 14.7662 7.23315 14.7505C7.19067 14.733 7.14795 14.7162 7.10518 14.6994C7.06724 14.6846 7.02925 14.6698 6.99111 14.6556C6.94878 14.6397 6.90625 14.6245 6.86362 14.6095C6.73973 14.5658 6.61471 14.5253 6.48867 14.4882C6.45083 14.4771 6.41304 14.466 6.375 14.4554C6.3253 14.4417 6.27546 14.4285 6.22549 14.4159C6.2021 14.4099 6.17886 14.4031 6.15532 14.3973ZM10.7872 11.995L14.0525 11.9904L14.0587 16.4682L11.0741 16.1246L10.7929 16.0922L10.7872 11.995ZM24.0075 17.5122L19.0509 21.9701C18.6372 22.3053 18.1429 22.5262 17.6172 22.6108L9.94082 23.7173L9.93604 23.7181L9.93071 23.7189C9.69814 23.7557 9.45596 23.7402 9.21079 23.6729L3.74736 21.604V14.893H4.35796C4.89518 14.8932 5.43048 14.9569 5.95273 15.0829C6.0145 15.0978 6.07612 15.1131 6.13745 15.1297L6.15352 15.1342C6.21499 15.151 6.27622 15.1687 6.33726 15.1872C6.34819 15.1905 6.35918 15.1938 6.37007 15.1972C6.43501 15.2172 6.49966 15.2382 6.56396 15.2602L6.58384 15.2671C6.72519 15.3159 6.8649 15.3693 7.00273 15.4273C7.0698 15.4555 7.13641 15.4848 7.20254 15.5151C7.26484 15.5437 7.32671 15.5734 7.38818 15.6039C7.39541 15.6075 7.40269 15.611 7.40991 15.6146C7.46997 15.6446 7.52954 15.6757 7.58877 15.7076C7.59995 15.7136 7.61108 15.7197 7.62227 15.7258C7.68203 15.7584 7.74146 15.7916 7.80029 15.826C8.64946 16.3227 9.57388 16.6444 10.5479 16.7823C10.551 16.7827 10.554 16.7831 10.5571 16.7834L14.5552 17.2438C14.8539 17.2863 15.1338 17.4152 15.3602 17.6147C15.5866 17.8142 15.7498 18.0755 15.8296 18.3665C15.8527 18.4504 15.8689 18.5372 15.8778 18.6262L15.8937 18.7859L8.40049 18.1294C8.35381 18.1253 8.30678 18.1304 8.26208 18.1445C8.21739 18.1586 8.17591 18.1814 8.14001 18.2115C8.0675 18.2723 8.02213 18.3594 8.01387 18.4537C8.0056 18.548 8.03513 18.6417 8.09595 18.7142C8.15677 18.7867 8.24391 18.8321 8.33818 18.8403L16.2602 19.5344C16.2621 19.5346 16.2639 19.5345 16.2658 19.5347C16.2676 19.5348 16.2694 19.5351 16.2713 19.5353L17.7653 19.6191C17.772 19.6195 17.7787 19.6196 17.7853 19.6196C17.7924 19.6196 17.7994 19.6185 17.8064 19.6181C17.8144 19.6176 17.8223 19.6173 17.8302 19.6163C17.8409 19.6149 17.8513 19.6126 17.8617 19.6104C17.8692 19.6087 17.8767 19.6075 17.884 19.6053C17.8955 19.6021 17.9064 19.5976 17.9175 19.5932C17.9235 19.5908 17.9296 19.589 17.9355 19.5862C17.9521 19.5785 17.9684 19.5696 17.9838 19.5593L19.252 18.7106L19.2521 18.7105L22.9973 16.204C23.3741 15.9507 23.8885 16.0501 24.1439 16.4255C24.3774 16.7686 24.3194 17.2351 24.0075 17.5122Z" fill="black"/>
</g>
<defs>
<clipPath id="clip0_386_4438">
<rect width="25" height="25" fill="white" transform="translate(0 0.5)"/>
</clipPath>
</defs>
</svg>
