<svg width="25" height="26" viewBox="0 0 25 26" fill="none" xmlns="http://www.w3.org/2000/svg">
<g clip-path="url(#clip0_386_4930)">
<path fill-rule="evenodd" clip-rule="evenodd" d="M9.63679 20.5792H1.61101C0.717633 20.5792 0 19.8616 0 18.9829V2.90203C0 2.0233 0.717633 1.30566 1.61101 1.30566H17.6772C18.5706 1.30566 19.2882 2.0233 19.2882 2.90203V18.9829C19.2882 19.8616 18.5706 20.5792 17.6772 20.5792H9.63679Z" fill="#EBF0F3"/>
<path fill-rule="evenodd" clip-rule="evenodd" d="M1.61101 1.30566C0.717633 1.30566 0 2.0233 0 2.90203V4.42517H19.2882V2.90203C19.2882 2.0233 18.5706 1.30566 17.6772 1.30566H1.61101Z" fill="#3A556A"/>
<path fill-rule="evenodd" clip-rule="evenodd" d="M4.56901 3.2684H3.32414C3.10446 3.2684 2.91406 3.09265 2.91406 2.85832C2.91406 2.63864 3.10446 2.46289 3.32414 2.46289H4.56901C4.7887 2.46289 4.97909 2.63864 4.97909 2.85832C4.97909 3.09265 4.7887 3.2684 4.56901 3.2684Z" fill="#FFD54F"/>
<path fill-rule="evenodd" clip-rule="evenodd" d="M7.08854 3.2684H5.84367C5.62399 3.2684 5.43359 3.09265 5.43359 2.85832C5.43359 2.63864 5.62399 2.46289 5.84367 2.46289H7.08854C7.30823 2.46289 7.49862 2.63864 7.49862 2.85832C7.49862 3.09265 7.30823 3.2684 7.08854 3.2684Z" fill="#EF5350"/>
<path fill-rule="evenodd" clip-rule="evenodd" d="M9.60808 3.2684H8.3632C8.12887 3.2684 7.95312 3.09265 7.95312 2.85832C7.95312 2.63864 8.12887 2.46289 8.3632 2.46289H9.60808C9.82776 2.46289 10.0035 2.63864 10.0035 2.85832C10.0035 3.09265 9.82776 3.2684 9.60808 3.2684Z" fill="#33CC66"/>
<path fill-rule="evenodd" clip-rule="evenodd" d="M19.2866 4.4255H11.4805C11.4805 3.61999 12.1395 2.96094 12.945 2.96094H19.2866V4.4255Z" fill="#708392"/>
<path fill-rule="evenodd" clip-rule="evenodd" d="M13.0495 9.81485H11.9072C11.7168 9.81485 11.5703 9.6684 11.5703 9.49265V7.19329C11.5703 7.01755 11.7168 6.85645 11.9072 6.85645H13.0495C13.8697 6.85645 14.5287 7.53014 14.5287 8.33565C14.5287 9.1558 13.8697 9.81485 13.0495 9.81485ZM12.244 9.1558H13.0495C13.5035 9.1558 13.8697 8.78966 13.8697 8.33565C13.8697 7.89628 13.5035 7.53014 13.0495 7.53014H12.244V9.1558Z" fill="#5C9CEE"/>
<path fill-rule="evenodd" clip-rule="evenodd" d="M13.4901 12.1142H11.9084C11.718 12.1142 11.5715 11.9678 11.5715 11.7774V9.49265C11.5715 9.30226 11.718 9.1558 11.9084 9.1558H13.4901C14.3103 9.1558 14.9693 9.81485 14.9693 10.635C14.9693 11.4552 14.3103 12.1142 13.4901 12.1142ZM12.2452 11.4552H13.4901C13.9441 11.4552 14.3103 11.089 14.3103 10.635C14.3103 10.181 13.9441 9.81485 13.4901 9.81485H12.2452V11.4552ZM8.89139 12.1142H8.701C7.79298 12.1142 7.0607 11.3819 7.0607 10.4885V8.49675C7.0607 7.58872 7.79298 6.85645 8.701 6.85645H8.89139C9.78477 6.85645 10.5171 7.58872 10.5171 8.49675V10.4885C10.5171 11.3819 9.78477 12.1142 8.89139 12.1142ZM8.701 7.53014C8.15912 7.53014 7.73439 7.95486 7.73439 8.49675V10.4885C7.73439 11.0158 8.15912 11.4552 8.701 11.4552H8.89139C9.41863 11.4552 9.858 11.0158 9.858 10.4885V8.49675C9.858 7.95486 9.41863 7.53014 8.89139 7.53014H8.701ZM4.30733 12.1142C3.48718 12.1142 2.82812 11.4405 2.82812 10.635C2.82812 10.4446 2.97458 10.2982 3.16497 10.2982C3.35537 10.2982 3.50182 10.4446 3.50182 10.635C3.50182 11.0744 3.86796 11.4405 4.30733 11.4405C4.76134 11.4405 5.11284 11.0744 5.11284 10.635V7.20794C5.11284 7.01755 5.27394 6.87109 5.44968 6.87109C5.64008 6.87109 5.78653 7.01755 5.78653 7.20794V10.635C5.78653 11.4405 5.12748 12.1142 4.30733 12.1142Z" fill="#5C9CEE"/>
<path fill-rule="evenodd" clip-rule="evenodd" d="M14.8053 14.1649H3.23529C3.04489 14.1649 2.89844 14.0185 2.89844 13.8281C2.89844 13.6377 3.04489 13.4912 3.23529 13.4912H14.8053C14.981 13.4912 15.1275 13.6377 15.1275 13.8281C15.1275 14.0185 14.981 14.1649 14.8053 14.1649ZM14.8053 16.2006H3.23529C3.04489 16.2006 2.89844 16.0542 2.89844 15.8784C2.89844 15.688 3.04489 15.5416 3.23529 15.5416H14.8053C14.981 15.5416 15.1275 15.688 15.1275 15.8784C15.1275 16.0542 14.981 16.2006 14.8053 16.2006ZM14.8053 18.251H3.23529C3.04489 18.251 2.89844 18.1046 2.89844 17.9142C2.89844 17.7384 3.04489 17.5773 3.23529 17.5773H14.8053C14.981 17.5773 15.1275 17.7384 15.1275 17.9142C15.1275 18.1046 14.981 18.251 14.8053 18.251Z" fill="#D5D6DB"/>
<path fill-rule="evenodd" clip-rule="evenodd" d="M22.4668 24.6949C22.3789 24.6949 22.291 24.6657 22.2325 24.5924L18.9079 21.2825L18.0438 22.1466C17.9559 22.2345 17.8388 22.2638 17.7216 22.2345C17.6044 22.1906 17.5166 22.1027 17.4873 21.9855L16.1399 16.2298C16.1106 16.1273 16.1399 16.0101 16.2278 15.9222C16.301 15.849 16.4182 15.8051 16.5353 15.8344L22.291 17.1818C22.4082 17.2111 22.4961 17.2989 22.5254 17.4161C22.5547 17.5333 22.5254 17.6651 22.4375 17.7529L21.5734 18.617L24.8979 21.9269C24.9565 21.9855 25.0005 22.0734 25.0005 22.1613C25.0005 22.2491 24.9565 22.337 24.8979 22.3956L22.7011 24.5924C22.6279 24.6657 22.54 24.6949 22.4668 24.6949Z" fill="#EF5350"/>
</g>
<defs>
<clipPath id="clip0_386_4930">
<rect width="25" height="25" fill="white" transform="translate(0 0.5)"/>
</clipPath>
</defs>
</svg>
