<svg width="25" height="26" viewBox="0 0 25 26" fill="none" xmlns="http://www.w3.org/2000/svg">
<g clip-path="url(#clip0_386_4859)">
<path d="M16.25 23V23.4167H8.75V23L9.58333 20.9167V20.5H15.4167V20.9167L16.25 23Z" fill="#9DC5CE"/>
<path d="M7.08464 23H17.918C18.139 23 18.3509 23.0878 18.5072 23.2441C18.6635 23.4004 18.7513 23.6123 18.7513 23.8333V24.6667C18.7513 24.7772 18.7074 24.8832 18.6293 24.9613C18.5511 25.0394 18.4451 25.0833 18.3346 25.0833H6.66797C6.55746 25.0833 6.45148 25.0394 6.37334 24.9613C6.2952 24.8832 6.2513 24.7772 6.2513 24.6667V23.8333C6.2513 23.6123 6.3391 23.4004 6.49538 23.2441C6.65166 23.0878 6.86362 23 7.08464 23ZM24.5846 18.4167V19.6667C24.5846 19.9982 24.4529 20.3161 24.2185 20.5505C23.9841 20.785 23.6662 20.9167 23.3346 20.9167H1.66797C1.33645 20.9167 1.01851 20.785 0.784085 20.5505C0.549665 20.3161 0.417969 19.9982 0.417969 19.6667V18.4167L0.834635 18H24.168L24.5846 18.4167Z" fill="#C0D7DD"/>
<path d="M24.5846 18.4167V3C24.5846 2.66848 24.4529 2.35054 24.2185 2.11612C23.9841 1.8817 23.6662 1.75 23.3346 1.75H1.66797C1.33645 1.75 1.01851 1.8817 0.784085 2.11612C0.549665 2.35054 0.417969 2.66848 0.417969 3V18.4167H24.5846Z" fill="#263F51"/>
<path d="M20.0026 11.7503C19.8921 11.7503 19.7861 11.7064 19.708 11.6283C19.6298 11.5501 19.5859 11.4442 19.5859 11.3337V7.58366C19.5859 7.47315 19.6298 7.36717 19.708 7.28903C19.7861 7.21089 19.8921 7.16699 20.0026 7.16699C20.1131 7.16699 20.2191 7.21089 20.2972 7.28903C20.3754 7.36717 20.4193 7.47315 20.4193 7.58366V11.3337C20.4193 11.4442 20.3754 11.5501 20.2972 11.6283C20.2191 11.7064 20.1131 11.7503 20.0026 11.7503Z" fill="#151F28"/>
<path d="M18.0703 12.6756C18.5281 12.3172 18.9081 11.8692 19.187 11.359C19.2439 11.2448 19.3339 11.1504 19.4453 11.0881C19.6802 10.9396 19.9624 10.885 20.2358 10.9352C20.5091 10.9854 20.7535 11.1367 20.9203 11.359C20.9977 11.4676 21.0519 11.591 21.0794 11.7216C21.1069 11.8521 21.1072 11.9869 21.0802 12.1175C21.0532 12.2482 20.9995 12.3718 20.9226 12.4808C20.8456 12.5897 20.7469 12.6816 20.6328 12.7506C20.5649 12.7963 20.4904 12.8314 20.412 12.8548C19.894 13.0263 19.4162 13.3013 19.0078 13.6631L18.9911 13.6756L18.3328 13.4173L18.0703 12.6756Z" fill="#FDD1C3"/>
<path d="M13.2138 10.0833L13.618 10.1916C14.0423 10.2861 14.4364 10.4849 14.7646 10.7701C15.0927 11.0553 15.3445 11.4179 15.4971 11.8249L16.0596 13.3208C16.0822 13.3792 16.1181 13.4315 16.1645 13.4735C16.211 13.5156 16.2666 13.5461 16.327 13.5627C16.3874 13.5793 16.4508 13.5815 16.5122 13.5692C16.5736 13.5568 16.6312 13.5303 16.6805 13.4916L17.6805 12.6916C17.7449 12.639 17.8271 12.6131 17.91 12.6193C17.993 12.6255 18.0704 12.6633 18.1263 12.7249L18.9346 13.5833C18.9646 13.6159 18.9877 13.6542 19.0026 13.6959C19.0176 13.7375 19.0241 13.7818 19.0218 13.826C19.0194 13.8702 19.0083 13.9135 18.9891 13.9534C18.9698 13.9933 18.9428 14.0289 18.9096 14.0583L16.2055 16.0708C16.082 16.18 15.9344 16.2585 15.7747 16.2998C15.6151 16.341 15.4479 16.3439 15.287 16.3081C15.126 16.2723 14.9758 16.199 14.8487 16.094C14.7215 15.989 14.621 15.8554 14.5555 15.7041L13.3346 13.4166V18.4166H5.83464C5.72413 18.4166 5.61815 18.3727 5.54001 18.2946C5.46187 18.2164 5.41797 18.1104 5.41797 17.9999V12.5958C5.41796 12.0014 5.62067 11.4248 5.99263 10.9611C6.36459 10.4975 6.88355 10.1746 7.4638 10.0458L7.59714 10.0166L13.2138 10.0833Z" fill="#DB464E"/>
<path d="M9.58479 12.5837L9.17146 15.3407C9.16223 15.4048 9.1714 15.4701 9.19788 15.5291C9.22436 15.5881 9.26708 15.6384 9.32104 15.6741L10.2277 16.2766C10.2841 16.3141 10.3504 16.334 10.4181 16.334C10.4859 16.334 10.5521 16.3141 10.6085 16.2766L11.5152 15.6741C11.5692 15.6384 11.6119 15.5881 11.6384 15.5291C11.6648 15.4701 11.674 15.4048 11.6648 15.3407L11.2515 12.5837L10.4181 12.167L9.58479 12.5837Z" fill="#F2AB1C"/>
<path d="M9.34375 11.8585L9.58542 12.5835H11.2521L11.4937 11.8585L11.0492 10.7798C10.9978 10.6548 10.9104 10.548 10.7982 10.4728C10.6859 10.3976 10.5539 10.3574 10.4187 10.3574C10.2836 10.3574 10.1516 10.3976 10.0393 10.4728C9.9271 10.548 9.83973 10.6548 9.78833 10.7798L9.34375 11.8585Z" fill="#FFB91D"/>
<path d="M13.2143 10.0837C13.0045 10.7545 12.5998 11.3477 12.0518 11.7878C11.9764 11.8431 11.8888 11.8795 11.7964 11.8939C11.704 11.9082 11.6095 11.9002 11.5208 11.8703C11.4322 11.8405 11.352 11.7898 11.2871 11.7225C11.2221 11.6552 11.1743 11.5733 11.1477 11.4837C11.0994 11.2788 11.0098 11.0859 10.8844 10.9168C10.7591 10.7477 10.6005 10.606 10.4185 10.5003C10.2365 10.606 10.0779 10.7477 9.95254 10.9168C9.82716 11.0859 9.7376 11.2788 9.68932 11.4837C9.66268 11.5733 9.61487 11.6552 9.54992 11.7225C9.48498 11.7898 9.4048 11.8405 9.31616 11.8703C9.22752 11.9002 9.13301 11.9082 9.04059 11.8939C8.94818 11.8795 8.86057 11.8431 8.78516 11.7878C8.22018 11.3305 7.80631 10.7133 7.59766 10.017L9.16849 9.66699H11.6685L13.2143 10.0837Z" fill="#C43745"/>
<path d="M11.668 8.49609V9.66693C11.5439 9.89765 11.365 10.0943 11.147 10.2397C10.929 10.385 10.6787 10.4745 10.418 10.5003C10.1573 10.4745 9.9069 10.385 9.68893 10.2397C9.47095 10.0943 9.29205 9.89765 9.16797 9.66693V8.49609H11.668Z" fill="#E8BCB1"/>
<path d="M7.08594 5.50033V4.25033C7.08594 3.36627 7.43713 2.51842 8.06225 1.8933C8.68737 1.26818 9.53522 0.916992 10.4193 0.916992C11.3033 0.916992 12.1512 1.26818 12.7763 1.8933C13.4014 2.51842 13.7526 3.36627 13.7526 4.25033V5.50033H7.08594Z" fill="#151F28"/>
<path d="M7.91927 4.66727V4.63018C7.92331 4.47736 7.96793 4.32837 8.04856 4.19849C8.12919 4.06861 8.24291 3.96252 8.37808 3.8911C8.51324 3.81968 8.66497 3.7855 8.8177 3.79208C8.97043 3.79865 9.11866 3.84574 9.24719 3.92852C9.59718 4.15 10.0052 4.26214 10.4193 4.2506C10.8332 4.26205 11.2411 4.14992 11.5909 3.92852C11.7195 3.84564 11.8677 3.79846 12.0205 3.79183C12.1733 3.78519 12.3251 3.81935 12.4604 3.89078C12.5956 3.96221 12.7094 4.06835 12.79 4.19829C12.8707 4.32823 12.9153 4.4773 12.9193 4.63018V4.66727C13.1403 4.66727 13.3522 4.75506 13.5085 4.91134C13.6648 5.06762 13.7526 5.27959 13.7526 5.5006C13.7526 5.72161 13.6648 5.93357 13.5085 6.08985C13.3522 6.24613 13.1403 6.33393 12.9193 6.33393C12.9193 6.99697 12.6559 7.63286 12.187 8.1017C11.7182 8.57054 11.0823 8.83393 10.4193 8.83393C9.75623 8.83393 9.12034 8.57054 8.6515 8.1017C8.18266 7.63286 7.91927 6.99697 7.91927 6.33393C7.69826 6.33393 7.4863 6.24613 7.33002 6.08985C7.17374 5.93357 7.08594 5.72161 7.08594 5.5006C7.08594 5.27959 7.17374 5.06762 7.33002 4.91134C7.4863 4.75506 7.69826 4.66727 7.91927 4.66727Z" fill="#FDD1C3"/>
<path d="M7.08594 18.4167V13.4167C7.08594 13.3062 7.12984 13.2002 7.20798 13.122C7.28612 13.0439 7.3921 13 7.5026 13C7.61311 13 7.71909 13.0439 7.79723 13.122C7.87537 13.2002 7.91927 13.3062 7.91927 13.4167V18.4167H7.08594Z" fill="#C43745"/>
</g>
<defs>
<clipPath id="clip0_386_4859">
<rect width="25" height="25" fill="white" transform="translate(0 0.5)"/>
</clipPath>
</defs>
</svg>
