<svg width="25" height="26" viewBox="0 0 25 26" fill="none" xmlns="http://www.w3.org/2000/svg">
<path d="M20.9939 17.1385L22.8316 17.1275C23.1818 17.1254 23.4675 17.4076 23.4697 17.758L23.4914 21.4069C23.4935 21.7571 23.2113 22.0428 22.8609 22.0449L21.0233 22.0559C20.673 22.058 20.3873 21.7758 20.3852 21.4254L20.3634 17.7765C20.3613 17.4262 20.6436 17.1406 20.9939 17.1385ZM2.29375 17.2498L4.1314 17.2388C4.48166 17.2367 4.76734 17.5189 4.76947 17.8693L4.79117 21.5182C4.79323 21.8685 4.51101 22.1542 4.16068 22.1563L2.32303 22.1673C1.97277 22.1694 1.68709 21.8871 1.68496 21.5368L1.6632 17.8879C1.66113 17.5376 1.94342 17.2519 2.29375 17.2498ZM23.0828 8.25131C23.0088 8.2583 22.9401 8.29285 22.8904 8.34811C22.8406 8.40337 22.8134 8.4753 22.8142 8.54966C22.8325 8.69503 22.7969 8.84206 22.7141 8.96298C22.6314 9.0839 22.5072 9.17034 22.3651 9.20597L21.908 9.20879L22.1427 9.89395C22.1427 9.89395 25.0861 9.87627 24.998 8.90951C24.9298 8.1592 23.6523 8.1967 23.0828 8.25131ZM1.91715 8.25131C1.99118 8.2583 2.05988 8.29285 2.10963 8.34811C2.15938 8.40337 2.18656 8.4753 2.18577 8.54966C2.16751 8.69503 2.2031 8.84206 2.28584 8.96298C2.36858 9.0839 2.49274 9.17034 2.63486 9.20597L3.09203 9.20879L2.85726 9.89395C2.85726 9.89395 -0.0860995 9.87627 0.0019362 8.90951C0.0701576 8.1592 1.34768 8.1967 1.91715 8.25131Z" fill="#2F4859"/>
<path d="M24.3411 13.9925C24.2861 13.2735 24.0782 12.5746 23.7313 11.9424L22.4906 9.66706C22.4906 9.66706 20.2876 4.70145 19.3698 4.30629C18.4824 3.92418 12.8183 3.83827 12.4431 3.83301H12.4223C12.047 3.84291 6.38447 3.99648 5.5018 4.38912C4.58871 4.79513 2.44393 9.78583 2.44393 9.78583L1.23156 12.076C0.892402 12.7122 0.692871 13.4135 0.646289 14.133C0.561025 15.7223 0.732244 17.315 1.15337 18.8499C1.24985 19.2019 1.4601 19.5121 1.75134 19.732C2.04258 19.952 2.39844 20.0695 2.76341 20.066L12.5188 20.0096H12.5395L22.2949 19.9516C22.6598 19.9506 23.0142 19.8288 23.3027 19.6054C23.5912 19.3819 23.7977 19.0693 23.89 18.7162C24.2932 17.1761 24.4455 15.5811 24.3411 13.9925Z" fill="#FE7058"/>
<path d="M7.75534 16.9435L17.2618 16.8867C17.3434 16.8862 17.422 16.9182 17.4801 16.9756C17.5382 17.033 17.5711 17.1112 17.5716 17.1928L17.5812 18.8115C17.5817 18.8932 17.5497 18.9717 17.4923 19.0298C17.4349 19.0879 17.3568 19.1209 17.2751 19.1214L7.7687 19.1781C7.68702 19.1786 7.6085 19.1466 7.5504 19.0892C7.4923 19.0318 7.45938 18.9537 7.45888 18.872L7.44922 17.2533C7.44874 17.1716 7.48072 17.0931 7.53813 17.035C7.59553 16.9769 7.67367 16.944 7.75534 16.9435Z" fill="#3A556A"/>
<path d="M19.5479 5.05528C19.4993 4.94934 19.4218 4.85926 19.3243 4.79535C19.2268 4.73143 19.1133 4.69628 18.9967 4.69392L12.4964 4.56055H12.476L5.97761 4.77148C5.86116 4.77529 5.74814 4.81181 5.65149 4.87686C5.55484 4.94191 5.47845 5.03286 5.43108 5.1393L3.56641 9.33354L12.5035 9.28018H12.524L21.4624 9.22681L19.5479 5.05528Z" fill="#2F4859"/>
<path d="M21.6659 16.6133C21.0393 16.6169 20.5343 17.1278 20.538 17.7544C20.5416 18.381 21.0524 18.886 21.679 18.8824C22.3056 18.8787 22.8106 18.3679 22.807 17.7413V17.7407C22.8031 17.1144 22.2923 16.6097 21.6659 16.6133ZM3.44799 16.7222C2.8214 16.7259 2.31651 17.237 2.32033 17.8635C2.3241 18.4901 2.83513 18.995 3.46173 18.9912C4.08832 18.9874 4.59315 18.4764 4.58939 17.8499C4.58556 17.2233 4.07459 16.7184 3.44799 16.7222Z" fill="#EBF0F3"/>
<path d="M8.25391 14.0654H16.5283V15.0983H8.25391V14.0654Z" fill="#3A556A"/>
<path d="M23.2557 12.4416C23.2486 12.3794 23.2284 12.3194 23.1963 12.2656C23.1643 12.2118 23.1211 12.1655 23.0697 12.1297C23.0183 12.0939 22.9599 12.0695 22.8983 12.0581C22.8367 12.0467 22.7734 12.0486 22.7126 12.0636L18.9287 12.9888C18.8724 13.0026 18.8195 13.0274 18.7728 13.0617C18.7261 13.096 18.6867 13.1392 18.6567 13.1888L17.9071 14.4295C17.8668 14.4962 17.8449 14.5724 17.8438 14.6503C17.8426 14.7283 17.8622 14.8051 17.9005 14.873C17.9388 14.9408 17.9945 14.9973 18.0618 15.0366C18.1291 15.0759 18.2056 15.0966 18.2835 15.0966H21.9806C22.0671 15.0973 22.1518 15.0726 22.2244 15.0256C23.0965 14.448 23.3695 13.5483 23.2557 12.4416Z" fill="#E1E6E9"/>
<path d="M21.4632 12.7927C21.0058 12.8114 20.65 13.1974 20.6688 13.6549C20.6875 14.1124 21.0735 14.4681 21.531 14.4494C21.9884 14.4307 22.3442 14.0447 22.3255 13.5873C22.3067 13.1298 21.9207 12.7741 21.4632 12.7927ZM19.7068 13.5839C19.3589 13.5979 19.0881 13.8913 19.1021 14.2393C19.1161 14.5872 19.4095 14.858 19.7575 14.844C20.1054 14.83 20.3762 14.5365 20.3622 14.1886V14.1881C20.3479 13.8403 20.0546 13.5699 19.7068 13.5839Z" fill="#BDBEC1"/>
<path d="M1.74323 12.4416C1.75027 12.3794 1.7705 12.3194 1.80257 12.2656C1.83465 12.2118 1.87782 12.1655 1.92922 12.1297C1.98061 12.0939 2.03905 12.0695 2.10063 12.0581C2.16221 12.0467 2.22551 12.0486 2.28631 12.0636L6.07021 12.9888C6.12647 13.0026 6.17946 13.0274 6.22613 13.0617C6.27281 13.096 6.31225 13.1392 6.34222 13.1888L7.09184 14.4295C7.13213 14.4962 7.15397 14.5724 7.15512 14.6503C7.15627 14.7283 7.13669 14.8051 7.09839 14.873C7.06009 14.9408 7.00444 14.9973 6.93714 15.0366C6.86984 15.0759 6.7933 15.0966 6.71537 15.0966H3.01831C2.93185 15.0973 2.8471 15.0726 2.77452 15.0256C1.90231 14.448 1.62942 13.5483 1.74323 12.4416Z" fill="#E1E6E9"/>
<path d="M3.53487 12.7927C3.99236 12.8114 4.34807 13.1974 4.32933 13.6549C4.31064 14.1124 3.92457 14.4681 3.46709 14.4494C3.00967 14.4307 2.65395 14.0447 2.67257 13.5873C2.69145 13.1298 3.07739 12.7741 3.53487 12.7927ZM5.29132 13.5839C5.63926 13.5979 5.91002 13.8913 5.89603 14.2393C5.88205 14.5872 5.5886 14.858 5.24066 14.844C4.89272 14.83 4.62196 14.5365 4.63595 14.1886V14.1881C4.65018 13.8403 4.94351 13.5699 5.29132 13.5839Z" fill="#BDBEC1"/>
</svg>
