<svg width="21" height="20" viewBox="0 0 21 20" fill="none" xmlns="http://www.w3.org/2000/svg">
<g clip-path="url(#clip0_423_6131)">
<path d="M19.6287 4.74605C19.3815 4.49861 19.0885 4.375 18.7498 4.375H1.25009C0.911336 4.375 0.61848 4.49861 0.371047 4.74605C0.123614 4.99375 0 5.28661 0 5.62516C0 5.96365 0.123614 6.2565 0.371047 6.504L9.12095 15.2539C9.36866 15.5013 9.66152 15.6252 10 15.6252C10.3385 15.6252 10.6316 15.5013 10.8788 15.2539L19.6287 6.50394C19.8759 6.2565 20 5.96365 20 5.62509C20 5.28661 19.8759 4.99375 19.6287 4.74605Z" fill="#1544AB"/>
</g>
<defs>
<clipPath id="clip0_423_6131">
<rect width="20" height="20" fill="white" transform="translate(0.5)"/>
</clipPath>
</defs>
</svg>
