<svg width="14" height="10" viewBox="0 0 14 10" fill="none" xmlns="http://www.w3.org/2000/svg"><path d="M13.7081 1.54029C13.5471 0.933996 13.0727 0.4565 12.4703 0.294455C11.3785 0 7.00034 0 7.00034 0C7.00034 0 2.62223 0 1.53037 0.294455C0.927997 0.456526 0.453578 0.933996 0.292558 1.54029C0 2.63923 0 4.93206 0 4.93206C0 4.93206 0 7.22489 0.292558 8.32383C0.453578 8.93012 0.927997 9.38772 1.53037 9.54977C2.62223 9.84422 7.00034 9.84422 7.00034 9.84422C7.00034 9.84422 11.3785 9.84422 12.4703 9.54977C13.0727 9.38772 13.5471 8.93012 13.7081 8.32383C14.0007 7.22489 14.0007 4.93206 14.0007 4.93206C14.0007 4.93206 14.0007 2.63923 13.7081 1.54029ZM5.56845 7.01378V2.85034L9.2277 4.93211L5.56845 7.01378Z" fill="white"/></svg>