<svg width="24" height="23" viewBox="0 0 24 23" fill="none" xmlns="http://www.w3.org/2000/svg"><path d="M8.31791 0.0625556C7.86879 0.188867 7.48986 0.474239 7.17642 0.932706C6.96122 1.25083 6.82555 1.55023 6.54485 2.32682C6.29223 3.01452 6.13317 3.342 6.02557 3.39814C5.87587 3.47767 5.62324 3.50574 4.70163 3.54784C3.44318 3.60866 2.88179 3.77239 2.43268 4.22618C2.10521 4.54898 1.93679 4.95599 1.90404 5.47527C1.87597 5.97584 1.93211 6.33607 2.18006 7.20154C2.2783 7.54773 2.38122 7.9641 2.39994 8.12316L2.44204 8.40853L2.20345 8.63776C2.07246 8.76407 1.73563 9.04009 1.45961 9.25529C0.809335 9.75586 0.350868 10.2471 0.154382 10.6494C0.00467824 10.9488 0 10.9862 0 11.5008C0 12.0201 0.00467824 12.0529 0.15906 12.3663C0.350868 12.7593 0.940326 13.3675 1.61399 13.8727C1.85726 14.0598 2.14263 14.2937 2.24088 14.3967C2.42333 14.5838 2.42333 14.5838 2.39526 14.8785C2.37654 15.0423 2.29234 15.4165 2.20345 15.7113C1.95082 16.5767 1.88065 16.9837 1.90404 17.4937C1.92276 17.8726 1.95082 17.9942 2.07246 18.2515C2.25023 18.6398 2.54028 18.9299 2.92858 19.117C3.40108 19.3509 3.70984 19.4071 4.72502 19.4538C5.60453 19.4959 5.92733 19.5381 6.05364 19.6129C6.13317 19.6644 6.32965 20.0714 6.48871 20.5205C6.98929 21.9567 7.36354 22.5087 8.04657 22.8269C8.59392 23.0842 9.18806 23.0561 9.87576 22.7333C10.0348 22.6584 10.4512 22.4058 10.7974 22.1719C11.1482 21.9333 11.5506 21.69 11.6909 21.6245L11.9529 21.5076L12.2055 21.6199C12.3459 21.6854 12.7482 21.9286 13.0991 22.1625C14.1283 22.8502 14.4511 22.9812 15.1107 22.9859C15.485 22.9859 15.5645 22.9719 15.8405 22.8409C16.5376 22.5087 16.865 22.0456 17.3609 20.6749C17.5855 20.0527 17.7679 19.669 17.8522 19.6129C17.9785 19.5381 18.3013 19.4959 19.1808 19.4538C19.7422 19.4305 20.2287 19.3837 20.3971 19.3369C21.1176 19.1498 21.5807 18.7989 21.8333 18.2562C21.9503 18.0083 21.983 17.8679 22.0017 17.5264C22.0298 17.0258 21.9737 16.6656 21.7257 15.8001C21.6275 15.454 21.5246 15.0376 21.5059 14.8785L21.4637 14.5932L21.7023 14.3639C21.8333 14.2376 22.1702 13.9616 22.4462 13.7464C23.0965 13.2411 23.5549 12.7499 23.7514 12.3523C23.8964 12.0529 23.9058 12.0108 23.9058 11.5008C23.9058 10.9909 23.8964 10.9488 23.7514 10.6494C23.5502 10.2377 23.0871 9.75118 22.376 9.19447C22.0579 8.9512 21.7304 8.67519 21.6415 8.58162C21.4871 8.42256 21.4825 8.41321 21.5105 8.12316C21.5292 7.95942 21.6135 7.58516 21.7023 7.29043C21.955 6.42496 22.0251 6.01795 22.0017 5.50802C21.983 5.12908 21.955 5.00745 21.8333 4.75015C21.5807 4.20279 21.1176 3.85193 20.3971 3.6648C20.2287 3.62269 19.7468 3.57123 19.2042 3.54784C18.2825 3.50574 18.0299 3.47767 17.8802 3.39814C17.7726 3.342 17.6136 3.01452 17.3609 2.32682C17.0802 1.55023 16.9446 1.25083 16.7294 0.932706C16.1493 0.0906238 15.3072 -0.194747 14.3482 0.132728C14.0394 0.240328 13.3798 0.619265 12.9119 0.960776C12.7576 1.07305 12.4769 1.24147 12.2897 1.33503L11.9529 1.50345L11.6114 1.33503C11.4289 1.24147 11.1295 1.05902 10.9471 0.92803C10.4746 0.586518 9.92722 0.273075 9.57167 0.142086C9.18338 0.00173845 8.65474 -0.0356872 8.31791 0.0625556ZM16.1072 8.12783C16.5937 8.38046 16.8042 8.91378 16.589 9.37224C16.4627 9.63423 11.2933 14.7896 11.0547 14.8926C10.8488 14.9768 10.643 14.9815 10.3857 14.9113C10.2313 14.8692 9.96932 14.6306 8.82783 13.4984C7.41968 12.095 7.22788 11.8564 7.22788 11.5289C7.22788 10.9862 7.67231 10.5231 8.18691 10.5184C8.55649 10.5184 8.78573 10.6822 9.77751 11.6833L10.7132 12.6236L12.9353 10.4015C14.3388 9.00266 15.2183 8.1559 15.3212 8.1138C15.5505 8.01556 15.8966 8.02023 16.1072 8.12783Z" fill="black"/></svg>