<svg width="25" height="25" viewBox="0 0 25 25" fill="none" xmlns="http://www.w3.org/2000/svg"><g clip-path="url(#clip0_26_8562)"><path d="M24.5359 5.93256C24.2269 5.62327 23.8606 5.46875 23.4373 5.46875H1.56262C1.13917 5.46875 0.7731 5.62327 0.463809 5.93256C0.154517 6.24219 0 6.60826 0 7.03145C0 7.45456 0.154517 7.82063 0.463809 8.13001L11.4012 19.0674C11.7108 19.3767 12.0769 19.5315 12.5 19.5315C12.9231 19.5315 13.2895 19.3767 13.5986 19.0674L24.5359 8.12992C24.8449 7.82063 25 7.45456 25 7.03137C25 6.60826 24.8449 6.24219 24.5359 5.93256Z" fill="#1544AB"/></g><defs><clipPath id="clip0_26_8562"><rect width="25" height="25" rx="10" fill="white"/></clipPath></defs></svg>