<svg width="200" height="200" viewBox="0 0 200 200" fill="none" xmlns="http://www.w3.org/2000/svg"><path d="M53.3359 40V160C53.3359 171.004 62.3319 180 73.3359 180H126.668C137.672 180 146.668 171.004 146.668 160V40C146.668 28.998 137.672 20 126.668 20H73.3359C62.3319 20 53.3359 28.998 53.3359 40Z" fill="#212121"/><path d="M66.668 160C66.668 163.614 69.72 166.668 73.336 166.668H126.668C130.284 166.668 133.336 163.614 133.336 160V40C133.336 36.386 130.284 33.334 126.668 33.334H120.002V36.668C119.996 38.4341 119.292 40.1263 118.043 41.3752C116.794 42.624 115.102 43.3282 113.336 43.334H86.668C84.9018 43.3282 83.2097 42.624 81.9608 41.3752C80.7119 40.1263 80.0078 38.4341 80.002 36.668V33.334H73.336C69.72 33.334 66.668 36.386 66.668 40V160Z" fill="#B3E5FC"/></svg>