<svg width="35" height="35" viewBox="0 0 35 35" fill="none" xmlns="http://www.w3.org/2000/svg"><path d="M10.9401 3.64583C10.9401 2.84042 10.2872 2.1875 9.48177 2.1875C8.67636 2.1875 8.02344 2.84042 8.02344 3.64583V5.10417C8.02344 5.90958 8.67636 6.5625 9.48177 6.5625C10.2872 6.5625 10.9401 5.90958 10.9401 5.10417V3.64583Z" fill="#1544AB"/><path d="M26.9792 3.64583C26.9792 2.84042 26.3262 2.1875 25.5208 2.1875C24.7154 2.1875 24.0625 2.84042 24.0625 3.64583V5.10417C24.0625 5.90958 24.7154 6.5625 25.5208 6.5625C26.3262 6.5625 26.9792 5.90958 26.9792 5.10417V3.64583Z" fill="#1544AB"/><path d="M2.91797 13.125V29.8958C2.91797 30.6694 3.22526 31.4112 3.77224 31.9582C4.31922 32.5052 5.06109 32.8125 5.83464 32.8125H29.168C29.9415 32.8125 30.6834 32.5052 31.2304 31.9582C31.7774 31.4112 32.0846 30.6694 32.0846 29.8958V13.125H2.91797ZM11.668 27.7083C11.668 28.0951 11.5143 28.466 11.2408 28.7395C10.9673 29.013 10.5964 29.1667 10.2096 29.1667H8.7513C8.36453 29.1667 7.9936 29.013 7.72011 28.7395C7.44662 28.466 7.29297 28.0951 7.29297 27.7083V26.25C7.29297 25.8632 7.44662 25.4923 7.72011 25.2188C7.9936 24.9453 8.36453 24.7917 8.7513 24.7917H10.2096C10.5964 24.7917 10.9673 24.9453 11.2408 25.2188C11.5143 25.4923 11.668 25.8632 11.668 26.25V27.7083ZM11.668 19.6875C11.668 20.0743 11.5143 20.4452 11.2408 20.7187C10.9673 20.9922 10.5964 21.1458 10.2096 21.1458H8.7513C8.36453 21.1458 7.9936 20.9922 7.72011 20.7187C7.44662 20.4452 7.29297 20.0743 7.29297 19.6875V18.2292C7.29297 17.8424 7.44662 17.4715 7.72011 17.198C7.9936 16.9245 8.36453 16.7708 8.7513 16.7708H10.2096C10.5964 16.7708 10.9673 16.9245 11.2408 17.198C11.5143 17.4715 11.668 17.8424 11.668 18.2292V19.6875ZM19.6888 27.7083C19.6888 28.0951 19.5352 28.466 19.2617 28.7395C18.9882 29.013 18.6172 29.1667 18.2305 29.1667H16.7721C16.3854 29.1667 16.0144 29.013 15.7409 28.7395C15.4675 28.466 15.3138 28.0951 15.3138 27.7083V26.25C15.3138 25.8632 15.4675 25.4923 15.7409 25.2188C16.0144 24.9453 16.3854 24.7917 16.7721 24.7917H18.2305C18.6172 24.7917 18.9882 24.9453 19.2617 25.2188C19.5352 25.4923 19.6888 25.8632 19.6888 26.25V27.7083ZM19.6888 19.6875C19.6888 20.0743 19.5352 20.4452 19.2617 20.7187C18.9882 20.9922 18.6172 21.1458 18.2305 21.1458H16.7721C16.3854 21.1458 16.0144 20.9922 15.7409 20.7187C15.4675 20.4452 15.3138 20.0743 15.3138 19.6875V18.2292C15.3138 17.8424 15.4675 17.4715 15.7409 17.198C16.0144 16.9245 16.3854 16.7708 16.7721 16.7708H18.2305C18.6172 16.7708 18.9882 16.9245 19.2617 17.198C19.5352 17.4715 19.6888 17.8424 19.6888 18.2292V19.6875ZM27.7096 27.7083C27.7096 28.0951 27.556 28.466 27.2825 28.7395C27.009 29.013 26.6381 29.1667 26.2513 29.1667H24.793C24.4062 29.1667 24.0353 29.013 23.7618 28.7395C23.4883 28.466 23.3346 28.0951 23.3346 27.7083V26.25C23.3346 25.8632 23.4883 25.4923 23.7618 25.2188C24.0353 24.9453 24.4062 24.7917 24.793 24.7917H26.2513C26.6381 24.7917 27.009 24.9453 27.2825 25.2188C27.556 25.4923 27.7096 25.8632 27.7096 26.25V27.7083ZM27.7096 19.6875C27.7096 20.0743 27.556 20.4452 27.2825 20.7187C27.009 20.9922 26.6381 21.1458 26.2513 21.1458H24.793C24.4062 21.1458 24.0353 20.9922 23.7618 20.7187C23.4883 20.4452 23.3346 20.0743 23.3346 19.6875V18.2292C23.3346 17.8424 23.4883 17.4715 23.7618 17.198C24.0353 16.9245 24.4062 16.7708 24.793 16.7708H26.2513C26.6381 16.7708 27.009 16.9245 27.2825 17.198C27.556 17.4715 27.7096 17.8424 27.7096 18.2292V19.6875ZM32.0846 11.6667V7.29167C32.0846 6.51812 31.7774 5.77625 31.2304 5.22927C30.6834 4.68229 29.9415 4.375 29.168 4.375H28.4388V5.10417C28.4388 6.71271 27.1307 8.02083 25.5221 8.02083C23.9136 8.02083 22.6055 6.71271 22.6055 5.10417V4.375H12.3971V5.10417C12.3971 6.71271 11.089 8.02083 9.48047 8.02083C7.87193 8.02083 6.5638 6.71271 6.5638 5.10417V4.375H5.83464C5.06109 4.375 4.31922 4.68229 3.77224 5.22927C3.22526 5.77625 2.91797 6.51812 2.91797 7.29167V11.6667H32.0846Z" fill="#1544AB"/></svg>