<svg width="50" height="50" viewBox="0 0 50 50" fill="none" xmlns="http://www.w3.org/2000/svg"><path d="M47.701 25.0018L49.8946 19.2803C50.1352 18.6491 49.9477 17.9335 49.4196 17.5054L44.6637 13.6494L43.7013 7.59669C43.595 6.92799 43.0701 6.40615 42.4014 6.29991L36.3487 5.33747L32.4958 0.578422C32.0708 0.0503336 31.3396 -0.137154 30.724 0.103455L24.9994 2.30018L19.278 0.10658C18.6436 -0.137154 17.9343 0.0565832 17.5062 0.581547L13.6502 5.3406L7.59751 6.30303C7.27245 6.35538 6.97217 6.50887 6.73936 6.74168C6.50655 6.97448 6.35306 7.27476 6.30072 7.59982L5.33828 13.6525L0.579235 17.5085C0.054271 17.9335 -0.136341 18.6491 0.104268 19.2803L2.29787 25.0018L0.104268 30.7232C-0.139466 31.3544 0.054271 32.07 0.579235 32.495L5.33828 36.3479L6.30072 42.4006C6.40696 43.0693 6.9288 43.5942 7.59751 43.7005L13.6502 44.6629L17.5062 49.4188C17.7132 49.6763 17.9969 49.8611 18.316 49.9465C18.6351 50.0319 18.9732 50.0135 19.2811 49.8938L24.9994 47.7033L30.7209 49.8969C30.8995 49.9651 31.0891 50 31.2803 50C31.7396 50 32.1927 49.7969 32.4958 49.4188L36.3487 44.6629L42.4014 43.7005C42.7275 43.6486 43.0288 43.4949 43.2623 43.2614C43.4957 43.028 43.6494 42.7266 43.7013 42.4006L44.6637 36.3479L49.4196 32.495C49.9477 32.0669 50.1352 31.3544 49.8946 30.7232L47.701 25.0018Z" fill="#F44336"/><path d="M20.3122 21.8771C17.728 21.8771 15.625 19.7741 15.625 17.1899C15.625 14.6057 17.728 12.5027 20.3122 12.5027C22.8964 12.5027 24.9994 14.6057 24.9994 17.1899C24.9994 19.7741 22.8964 21.8771 20.3122 21.8771ZM20.3122 15.6275C19.4497 15.6275 18.7498 16.3274 18.7498 17.1899C18.7498 18.0523 19.4497 18.7523 20.3122 18.7523C21.1746 18.7523 21.8746 18.0523 21.8746 17.1899C21.8746 16.3274 21.1746 15.6275 20.3122 15.6275ZM29.6865 37.501C27.1023 37.501 24.9994 35.398 24.9994 32.8138C24.9994 30.2296 27.1023 28.1266 29.6865 28.1266C32.2707 28.1266 34.3737 30.2296 34.3737 32.8138C34.3737 35.398 32.2707 37.501 29.6865 37.501ZM29.6865 31.2514C28.8272 31.2514 28.1241 31.9545 28.1241 32.8138C28.1241 33.6731 28.8272 34.3762 29.6865 34.3762C30.5459 34.3762 31.2489 33.6731 31.2489 32.8138C31.2489 31.9545 30.5459 31.2514 29.6865 31.2514ZM17.1874 37.501C16.8718 37.501 16.5562 37.4073 16.2812 37.2104C15.5781 36.7073 15.4156 35.7324 15.9187 35.0293L31.5427 13.1558C32.0458 12.4527 33.0207 12.2902 33.7238 12.7933C34.4268 13.2933 34.5862 14.2713 34.0862 14.9713L18.4623 36.8448C18.153 37.2729 17.6749 37.501 17.1874 37.501Z" fill="#FAFAFA"/></svg>