<svg width="25" height="25" viewBox="0 0 25 25" fill="none" xmlns="http://www.w3.org/2000/svg"><g clip-path="url(#clip0_386_4784)"><path d="M22.082 24.167C21.3917 24.167 20.832 23.6073 20.832 22.917C20.832 22.2267 21.3917 21.667 22.082 21.667C22.7723 21.667 23.332 22.2267 23.332 22.917C23.332 23.6073 22.7723 24.167 22.082 24.167ZM22.082 22.5003C21.9715 22.5003 21.8655 22.5442 21.7874 22.6224C21.7093 22.7005 21.6654 22.8065 21.6654 22.917C21.6654 23.0275 21.7093 23.1335 21.7874 23.2116C21.8655 23.2898 21.9715 23.3337 22.082 23.3337C22.1925 23.3337 22.2985 23.2898 22.3767 23.2116C22.4548 23.1335 22.4987 23.0275 22.4987 22.917C22.4987 22.8065 22.4548 22.7005 22.3767 22.6224C22.2985 22.5442 22.1925 22.5003 22.082 22.5003Z" fill="#6CBDBD"/><path d="M23.75 24.167C23.0597 24.167 22.5 23.6073 22.5 22.917C22.5 22.2267 23.0597 21.667 23.75 21.667C24.4403 21.667 25 22.2267 25 22.917C25 23.6073 24.4403 24.167 23.75 24.167ZM23.75 22.5003C23.6395 22.5003 23.5335 22.5442 23.4554 22.6224C23.3772 22.7005 23.3333 22.8065 23.3333 22.917C23.3333 23.0275 23.3772 23.1335 23.4554 23.2116C23.5335 23.2898 23.6395 23.3337 23.75 23.3337C23.8605 23.3337 23.9665 23.2898 24.0446 23.2116C24.1228 23.1335 24.1667 23.0275 24.1667 22.917C24.1667 22.8065 24.1228 22.7005 24.0446 22.6224C23.9665 22.5442 23.8605 22.5003 23.75 22.5003Z" fill="#6CBDBD"/><path d="M22.918 22.5C22.2277 22.5 21.668 21.9403 21.668 21.25C21.668 20.5597 22.2277 20 22.918 20C23.6083 20 24.168 20.5597 24.168 21.25C24.168 21.9403 23.6083 22.5 22.918 22.5ZM22.918 20.8333C22.8075 20.8333 22.7015 20.8772 22.6233 20.9554C22.5452 21.0335 22.5013 21.1395 22.5013 21.25C22.5013 21.3605 22.5452 21.4665 22.6233 21.5446C22.7015 21.6228 22.8075 21.6667 22.918 21.6667C23.0285 21.6667 23.1345 21.6228 23.2126 21.5446C23.2907 21.4665 23.3346 21.3605 23.3346 21.25C23.3346 21.1395 23.2907 21.0335 23.2126 20.9554C23.1345 20.8772 23.0285 20.8333 22.918 20.8333Z" fill="#6CBDBD"/><path d="M0.417969 24.1663L2.5013 22.083L4.58464 24.1663" fill="#B3B3B3"/><path d="M5.41797 5H6.2513V10.8333H5.41797V5ZM15.418 7.08333H16.2513V14.1667H15.418V7.08333Z" fill="#008FCF"/><path d="M5.83203 6.66699H11.6654V7.50033H5.83203V6.66699ZM5.83203 8.75033H15.4154V9.58366H5.83203V8.75033Z" fill="#008FCF"/><path d="M12.0833 7.91699H12.9167V14.167H12.0833V7.91699ZM8.75 8.33366H9.58333V10.8337H8.75V8.33366Z" fill="#008FCF"/><path d="M12.6727 13.7504L11.006 12.1012H9.58464V10.2783H5.41797V24.5837H16.2513V13.7504H12.6727Z" fill="#E6E6E6"/><path d="M7.08203 13.75H7.91536V14.5833H7.08203V13.75ZM8.7487 13.75H9.58203V14.5833H8.7487V13.75ZM10.4154 13.75H11.2487V14.5833H10.4154V13.75ZM7.08203 15.4167H7.91536V16.25H7.08203V15.4167ZM8.7487 15.4167H9.58203V16.25H8.7487V15.4167ZM10.4154 15.4167H11.2487V16.25H10.4154V15.4167ZM12.082 15.4167H12.9154V16.25H12.082V15.4167ZM13.7487 15.4167H14.582V16.25H13.7487V15.4167ZM7.08203 17.0833H7.91536V17.9167H7.08203V17.0833ZM8.7487 17.0833H9.58203V17.9167H8.7487V17.0833ZM10.4154 17.0833H11.2487V17.9167H10.4154V17.0833ZM12.082 17.0833H12.9154V17.9167H12.082V17.0833ZM13.7487 17.0833H14.582V17.9167H13.7487V17.0833ZM7.08203 18.75H7.91536V19.5833H7.08203V18.75ZM8.7487 18.75H9.58203V19.5833H8.7487V18.75ZM10.4154 18.75H11.2487V19.5833H10.4154V18.75ZM12.082 18.75H12.9154V19.5833H12.082V18.75ZM13.7487 18.75H14.582V19.5833H13.7487V18.75ZM7.08203 20.4167H7.91536V21.25H7.08203V20.4167ZM8.7487 20.4167H9.58203V21.25H8.7487V20.4167ZM10.4154 20.4167H11.2487V21.25H10.4154V20.4167ZM12.082 20.4167H12.9154V21.25H12.082V20.4167ZM13.7487 20.4167H14.582V21.25H13.7487V20.4167ZM7.08203 22.0833H7.91536V22.9167H7.08203V22.0833ZM8.7487 22.0833H9.58203V22.9167H8.7487V22.0833ZM10.4154 22.0833H11.2487V22.9167H10.4154V22.0833ZM12.082 22.0833H12.9154V22.9167H12.082V22.0833ZM13.7487 22.0833H14.582V22.9167H13.7487V22.0833Z" fill="#00C9DD"/><path d="M0.417969 14.583H3.7513V16.2497L2.91797 17.083H1.2513L0.417969 16.2497V14.583Z" fill="#FFCD34"/><path d="M0.417969 14.5837L1.66797 12.917H2.5013L3.7513 14.5837" fill="#B3B3B3"/><path d="M20 3.33301H18.3333C18.2228 3.33301 18.1168 3.37691 18.0387 3.45505C17.9606 3.53319 17.9167 3.63917 17.9167 3.74967V24.1663C17.9167 24.2768 17.9606 24.3828 18.0387 24.461C18.1168 24.5391 18.2228 24.583 18.3333 24.583H20C20.1105 24.583 20.2165 24.5391 20.2946 24.461C20.3728 24.3828 20.4167 24.2768 20.4167 24.1663V3.74967C20.4167 3.63917 20.3728 3.53319 20.2946 3.45505C20.2165 3.37691 20.1105 3.33301 20 3.33301ZM18.8334 21.2497L19.5833 20.1246V22.3748L18.8334 21.2497ZM19.4999 8.74967L18.75 9.87478V7.62457L19.4999 8.74967ZM18.8334 6.24967L19.5833 5.12457V7.37478L18.8334 6.24967ZM18.75 12.6246L19.4999 13.7497L18.75 14.8748V12.6246ZM18.75 17.6246L19.4999 18.7497L18.75 19.8748V17.6246ZM18.8334 16.2497L19.5833 15.1246V17.3748L18.8334 16.2497ZM18.8334 11.2497L19.5833 10.1246V12.3748L18.8334 11.2497ZM19.2208 4.16634L18.75 4.87478V4.16634H19.2208ZM18.75 22.6246L19.4999 23.7497H18.75V22.6246ZM17.0833 0.833008H0.416667C0.30616 0.833008 0.200179 0.876906 0.122039 0.955047C0.0438987 1.03319 0 1.13917 0 1.24967L0 2.91634C0 3.02685 0.0438987 3.13283 0.122039 3.21097C0.200179 3.28911 0.30616 3.33301 0.416667 3.33301H17.0833C17.1938 3.33301 17.2998 3.28911 17.378 3.21097C17.4561 3.13283 17.5 3.02685 17.5 2.91634V1.24967C17.5 1.13917 17.4561 1.03319 17.378 0.955047C17.2998 0.876906 17.1938 0.833008 17.0833 0.833008ZM6.25 1.74978L7.3751 2.49967H5.1249L6.25 1.74978ZM3.75 2.41624L2.6249 1.66634H4.8751L3.75 2.41624ZM7.6249 1.66634H9.8751L8.75 2.41624L7.6249 1.66634ZM11.25 1.74978L12.3751 2.49967H10.1249L11.25 1.74978ZM12.6249 1.66634H14.8751L13.75 2.41624L12.6249 1.66634ZM0.833333 1.66634H1.1251L2.3751 2.49967H0.833333V1.66634ZM16.6667 2.49967H15.1249L16.3749 1.66634H16.6667V2.49967ZM24.5833 0.833008H21.25C21.1395 0.833008 21.0335 0.876906 20.9554 0.955047C20.8772 1.03319 20.8333 1.13917 20.8333 1.24967V2.91634C20.8333 3.02685 20.8772 3.13283 20.9554 3.21097C21.0335 3.28911 21.1395 3.33301 21.25 3.33301H24.5833C24.6938 3.33301 24.7998 3.28911 24.878 3.21097C24.9561 3.13283 25 3.02685 25 2.91634V1.24967C25 1.13917 24.9561 1.03319 24.878 0.955047C24.7998 0.876906 24.6938 0.833008 24.5833 0.833008ZM22.7918 1.66634L21.6667 2.41624V1.66634H22.7918ZM23.0416 2.49967L24.1667 1.74978V2.49967H23.0416Z" fill="#FFCD34"/><path d="M2.08203 13.3337C1.39172 13.3337 0.832031 12.774 0.832031 12.0837H1.66536C1.66536 12.1661 1.6898 12.2466 1.73559 12.3151C1.78137 12.3837 1.84644 12.4371 1.92258 12.4686C1.99872 12.5001 2.08249 12.5084 2.16332 12.4923C2.24414 12.4762 2.31839 12.4366 2.37666 12.3783C2.43493 12.32 2.47461 12.2458 2.49069 12.1649C2.50677 12.0841 2.49852 12.0003 2.46698 11.9242C2.43544 11.8481 2.38204 11.783 2.31352 11.7372C2.245 11.6914 2.16444 11.667 2.08203 11.667C1.97152 11.667 1.86554 11.6231 1.7874 11.545C1.70926 11.4668 1.66536 11.3608 1.66536 11.2503V2.91699H2.4987V10.9049C3.07302 11.1075 3.41771 11.6946 3.31474 12.2951C3.21177 12.8952 2.69115 13.3341 2.08203 13.3337Z" fill="#008FCF"/><path d="M17.082 0H21.2487V3.75H17.082V0Z" fill="#226C8A"/><path d="M17.082 0H19.582V2.5H17.082V0Z" fill="#00C9DD"/><path d="M0 23.75H25V24.5833H0V23.75Z" fill="#603813"/><path d="M17.082 2.5C18.3436 2.24771 19.3297 1.26161 19.582 0V2.5H17.082Z" fill="#81D0D3"/></g><defs><clipPath id="clip0_386_4784"><rect width="25" height="25" fill="white"/></clipPath></defs></svg>
