
<svg width="275" height="275" viewBox="0 0 275 275" fill="none" xmlns="http://www.w3.org/2000/svg"><path d="M131.06 92.4121L28.0039 161.116V169.704L131.06 101L234.115 169.704V161.116L131.06 92.4121Z" fill="#656D78"/><path d="M131.06 92.4121L28.0039 161.116V169.704L131.06 101L234.115 169.704V161.116L131.06 92.4121ZM148.235 264.172H113.883L109.59 272.76H152.529L148.235 264.172Z" fill="#656D78"/><path d="M212.646 255.584V155.388L131.06 101L49.4739 155.388V255.584H45.1797V264.172H216.939V255.584H212.646Z" fill="#ED5565"/><path d="M62.3554 36.0287C57.3318 34.3094 53.7676 29.5415 53.7676 23.9179V15.3301C53.7676 20.9536 57.3324 25.7215 62.3554 27.4408V27.4827V36.0287ZM79.5311 15.3301V23.9179C79.5311 29.5415 75.9668 34.3094 70.9433 36.0287V27.4408C75.9674 25.7215 79.5311 20.9536 79.5311 15.3301ZM70.9433 27.4827V36.0287C69.6139 36.5443 68.1508 36.8005 66.6496 36.8005C65.1484 36.8005 63.6842 36.5443 62.3554 36.0287V27.4408C63.6848 27.9564 65.1484 28.2126 66.6496 28.2126C68.1508 28.2126 69.6144 27.9564 70.9433 27.4408V27.4827Z" fill="#F6BB42"/><path d="M53.7676 15.3307C53.7676 8.2022 59.5211 2.44922 66.6496 2.44922C73.7776 2.44922 79.5311 8.2022 79.5311 15.3307C79.5311 20.9542 75.9668 25.7222 70.9433 27.4415C69.6139 27.9571 68.1508 28.2133 66.6496 28.2133C65.1484 28.2133 63.6842 27.9571 62.3554 27.4415C57.3324 25.7222 53.7676 20.9542 53.7676 15.3307Z" fill="#FFCE54"/><path opacity="0.5" d="M66.6496 27.44C61.6255 25.7208 58.0618 20.9528 58.0618 15.3293C58.0618 8.93662 62.6997 3.68638 68.7964 2.66318C68.096 2.54556 67.3833 2.44727 66.6496 2.44727C59.5211 2.44727 53.7676 8.20024 53.7676 15.3288C53.7676 20.9523 57.3324 25.7202 62.3554 27.4395C63.6848 27.9551 65.1484 28.2113 66.6496 28.2113C67.379 28.2113 68.096 28.1463 68.7964 28.0244C68.0631 27.9019 67.3439 27.7061 66.6496 27.44Z" fill="white"/><path opacity="0.2" d="M66.6493 3.21909C71.6729 4.93838 75.2372 9.7063 75.2372 15.3293C75.2372 21.722 70.5992 26.9722 64.502 27.9954C65.2023 28.113 65.9156 28.2113 66.6493 28.2113C73.7773 28.2113 79.5308 22.4578 79.5308 15.3293C79.5308 9.7063 75.9665 4.93838 70.943 3.21909C69.6136 2.70293 68.1505 2.44727 66.6493 2.44727C65.9295 2.44779 65.2111 2.51014 64.502 2.63364C65.2442 2.76201 65.965 2.95269 66.6493 3.21909Z" fill="black"/><path d="M225.528 23.917C229.093 23.917 231.969 26.7938 231.969 30.3581C231.969 33.9223 229.093 36.7991 225.528 36.7991H216.939V17.4766C216.938 18.3227 217.104 19.1609 217.427 19.9429C217.751 20.7249 218.225 21.4354 218.823 22.0337C219.422 22.6321 220.132 23.1065 220.914 23.4297C221.696 23.753 222.534 23.9188 223.38 23.9176L225.528 23.917Z" fill="#6F933D"/><path d="M259.88 11.0371V62.5652H231.968V30.3602C231.97 29.514 231.804 28.676 231.481 27.894C231.157 27.112 230.683 26.4015 230.085 25.8032C229.486 25.2048 228.776 24.7304 227.994 24.4071C227.212 24.0838 226.374 23.918 225.528 23.9191H223.38C219.816 23.9191 216.939 21.0429 216.939 17.4781C216.939 13.9133 219.816 11.0371 223.38 11.0371H259.88Z" fill="#82AF48"/><path d="M169.705 36.8004H225.527C226.373 36.8015 227.211 36.6357 227.993 36.3124C228.775 35.9891 229.485 35.5147 230.084 34.9164C230.682 34.318 231.156 33.6075 231.48 32.8255C231.803 32.0436 231.969 31.2055 231.967 30.3594V81.8875C231.969 82.7336 231.803 83.5717 231.48 84.3537C231.156 85.1356 230.682 85.8461 230.084 86.4445C229.485 87.0428 228.775 87.5172 227.993 87.8405C227.211 88.1638 226.373 88.3296 225.527 88.3285H169.705V36.8004Z" fill="#82AF48"/><path d="M120.325 68.2762C114.4 68.2762 109.59 63.4664 109.59 57.541V48.9531C109.59 54.8785 114.4 59.6883 120.325 59.6883V68.2762ZM131.06 48.9531V57.541C131.06 63.4664 126.25 68.2762 120.325 68.2762V59.6883C126.25 59.6878 131.06 54.878 131.06 48.9531Z" fill="#F6BB42"/><path d="M120.325 59.6867C114.4 59.6867 109.59 54.8769 109.59 48.9515C109.59 43.0266 114.4 38.2168 120.325 38.2168C126.249 38.2168 131.059 43.0266 131.059 48.9515C131.06 54.8769 126.25 59.6867 120.325 59.6867Z" fill="#FFCE54"/><path opacity="0.5" d="M113.883 48.9534C113.883 43.7644 117.573 39.4305 122.471 38.4347C121.765 38.2916 121.046 38.2193 120.325 38.2188C114.4 38.2188 109.59 43.0286 109.59 48.9534C109.59 54.8788 114.4 59.6886 120.325 59.6886C121.058 59.6886 121.775 59.6129 122.471 59.4727C117.573 58.4764 113.883 54.1424 113.883 48.9534Z" fill="white"/><path opacity="0.2" d="M126.758 48.9534C126.758 54.143 123.067 58.4764 118.17 59.4727C118.866 59.6129 119.583 59.6886 120.317 59.6886C126.242 59.6886 131.051 54.8788 131.051 48.9534C131.051 43.0286 126.242 38.2188 120.317 38.2188C119.583 38.2188 118.866 38.2945 118.17 38.4347C123.067 39.4299 126.758 43.7639 126.758 48.9534Z" fill="black"/><path d="M15.1211 90.4746C15.1211 97.1713 18.5129 103.101 23.7089 106.535V115.123C18.5129 111.689 15.1211 105.759 15.1211 99.0625V90.4746ZM34.4441 109.798V118.385C30.4518 118.385 26.8 117.182 23.7095 115.123V106.535C26.7995 108.595 30.4518 109.798 34.4441 109.798ZM53.7666 99.0625C53.7666 105.759 50.3743 111.689 45.1788 115.123V106.535C50.3743 103.101 53.7666 97.1713 53.7666 90.4746V99.0625Z" fill="#F6BB42"/><path d="M34.4453 109.798C38.4376 109.798 42.0895 108.594 45.18 106.535V115.123C42.0895 117.182 38.4371 118.385 34.4453 118.385V109.798Z" fill="#F6BB42"/><path d="M34.445 71.1523C45.1378 71.1523 53.7681 79.7821 53.7681 90.4754C53.7681 97.1721 50.3757 103.102 45.1802 106.536C42.0897 108.595 38.4374 109.798 34.4456 109.798C30.4538 109.798 26.8014 108.595 23.7109 106.536C18.5149 103.102 15.123 97.1721 15.123 90.4754C15.122 79.7821 23.7522 71.1523 34.445 71.1523Z" fill="#FFCE54"/><path opacity="0.5" d="M28.0045 106.536C22.8091 103.102 19.4167 97.1721 19.4167 90.4754C19.4167 80.5185 26.9266 72.4441 36.5929 71.3683C35.8802 71.2888 35.1798 71.1523 34.4461 71.1523C23.7533 71.1523 15.123 79.7821 15.123 90.4754C15.123 97.1721 18.5149 103.102 23.7109 106.536C26.8014 108.595 30.4538 109.798 34.4456 109.798C35.1792 109.798 35.8839 109.717 36.5924 109.637C33.439 109.287 30.529 108.217 28.0045 106.536Z" fill="white"/><path opacity="0.2" d="M40.8853 74.4147C46.0807 77.849 49.4731 83.7787 49.4731 90.4754C49.4731 100.432 41.9627 108.507 32.2969 109.583C33.0096 109.662 33.71 109.798 34.4437 109.798C45.1365 109.798 53.7667 101.169 53.7667 90.4754C53.7667 83.7787 50.3744 77.849 45.1789 74.4147C42.0884 72.356 38.436 71.1523 34.4442 71.1523C33.7105 71.1523 33.0059 71.234 32.2974 71.3135C35.4508 71.6642 38.3608 72.7336 40.8853 74.4147Z" fill="black"/><path d="M231.968 79.7406H182.583L178.293 75.4421V49.678L182.583 45.3887H231.968V79.7406Z" fill="#A0D468"/><path d="M217.375 19.625H246.787L251.077 23.923V49.687L246.787 53.9769H231.968V28.2128L223.38 23.9187L217.375 19.625Z" fill="#A0D468"/><path d="M225.528 53.9766C220.785 53.9766 216.939 57.8217 216.939 62.5644C216.939 67.3071 220.785 71.1522 225.528 71.1522V53.9766Z" fill="#82AF48"/><path d="M62.3555 186.881H101.002V225.527H62.3555V186.881ZM161.118 186.881H199.763V225.527H161.118V186.881Z" fill="#5D9CEC"/><path d="M131.059 178.294C140.545 178.294 148.235 170.604 148.235 161.118C148.235 151.631 140.545 143.941 131.059 143.941C121.573 143.941 113.883 151.631 113.883 161.118C113.883 170.604 121.573 178.294 131.059 178.294Z" fill="#5D9CEC"/><path d="M113.883 212.645H148.235V264.173H113.883V212.645Z" fill="#FFCE54"/><path opacity="0.3" d="M69.7949 225.527H83.134L93.4917 186.88H80.1525L69.7949 225.527ZM168.59 225.527H181.929L192.287 186.88H178.948L168.59 225.527ZM120.731 174.762C123.612 176.946 127.164 178.293 131.059 178.293C131.785 178.293 132.477 178.167 133.181 178.079L141.383 147.472C138.502 145.287 134.954 143.941 131.059 143.941C130.329 143.941 129.638 144.067 128.933 144.154L120.731 174.762ZM169.706 36.8008H174.004V88.3289H169.706V36.8008Z" fill="white"/><path opacity="0.2" d="M255.582 11.0371H259.881V62.5652H255.582V11.0371Z" fill="black"/><path opacity="0.3" d="M45.1797 255.584H49.4739V264.172H45.1797V255.584Z" fill="white"/><path opacity="0.3" d="M54.237 152.215L49.4062 155.389V255.585H54.237V152.215Z" fill="white"/><path opacity="0.2" d="M212.645 255.585H216.939V264.173H212.645V255.585ZM207.814 152.215L212.645 155.389V255.585H207.814V152.215Z" fill="black"/><path opacity="0.3" d="M113.883 212.645H118.177V264.173H113.883V212.645Z" fill="white"/><path opacity="0.2" d="M143.941 212.645H148.235V264.173H143.941V212.645Z" fill="black"/>
<path opacity="0.2" d="M32.2981 158.256L28.0039 161.116V169.703L32.2981 166.844V158.256Z" fill="white"/><path opacity="0.2" d="M229.822 158.256L234.116 161.116V169.703L229.822 166.844V158.256Z" fill="black"/><path d="M120.455 244.849C119.268 244.849 118.287 243.889 118.287 242.702C118.287 241.516 119.226 240.555 120.409 240.555H120.455C121.024 240.556 121.57 240.782 121.972 241.185C122.375 241.587 122.601 242.133 122.602 242.702C122.601 243.272 122.375 243.817 121.972 244.22C121.57 244.622 121.024 244.849 120.455 244.849ZM49.4736 257.732C49.1916 257.732 48.9123 257.677 48.6517 257.569C48.3911 257.461 48.1543 257.303 47.9549 257.103C47.7554 256.904 47.5973 256.667 47.4894 256.407C47.3815 256.146 47.3261 255.867 47.3262 255.585V161.117C47.326 160.835 47.3814 160.556 47.4892 160.295C47.5971 160.034 47.7552 159.798 47.9547 159.598C48.1541 159.399 48.3909 159.24 48.6516 159.133C48.9122 159.025 49.1915 158.969 49.4736 158.97C49.7556 158.969 50.0349 159.025 50.2954 159.133C50.556 159.241 50.7927 159.399 50.9921 159.598C51.1915 159.798 51.3496 160.035 51.4574 160.295C51.5652 160.556 51.6206 160.835 51.6204 161.117V255.585C51.6205 255.867 51.5651 256.146 51.4573 256.407C51.3494 256.667 51.1913 256.904 50.9919 257.103C50.7925 257.303 50.5558 257.461 50.2953 257.569C50.0348 257.676 49.7555 257.732 49.4736 257.732ZM212.645 257.732C212.363 257.732 212.084 257.676 211.824 257.569C211.563 257.461 211.326 257.303 211.127 257.103C210.928 256.904 210.769 256.667 210.662 256.407C210.554 256.146 210.498 255.867 210.498 255.585V161.117C210.498 159.93 211.459 158.97 212.645 158.97C213.832 158.97 214.792 159.93 214.792 161.117V255.585C214.792 255.867 214.737 256.146 214.629 256.407C214.521 256.667 214.363 256.904 214.164 257.103C213.964 257.303 213.727 257.461 213.467 257.569C213.206 257.676 212.927 257.732 212.645 257.732ZM28.0037 163.264C27.5427 163.264 27.0938 163.116 26.7235 162.842C26.3532 162.567 26.0811 162.181 25.9475 161.739C25.814 161.298 25.826 160.826 25.9819 160.392C26.1377 159.958 26.4291 159.586 26.8129 159.331L129.869 90.6262C130.845 89.9677 132.184 90.2298 132.846 91.2213C133.162 91.6951 133.276 92.2748 133.165 92.8331C133.053 93.3914 132.724 93.8825 132.251 94.1985L29.1945 162.903C28.842 163.138 28.4276 163.264 28.0037 163.264Z" fill="#3A3847"/><path d="M234.115 163.263C233.691 163.263 233.277 163.138 232.924 162.902L129.869 94.1986C129.634 94.0422 129.433 93.8411 129.276 93.6069C129.119 93.3726 129.01 93.1097 128.954 92.8333C128.899 92.5568 128.899 92.2722 128.954 91.9956C129.008 91.7191 129.117 91.456 129.274 91.2214C129.43 90.9869 129.631 90.7854 129.865 90.6286C130.1 90.4717 130.362 90.3625 130.639 90.3073C130.915 90.252 131.2 90.2517 131.477 90.3065C131.753 90.3612 132.016 90.4699 132.251 90.6263L235.306 159.33C235.69 159.585 235.982 159.958 236.138 160.392C236.293 160.825 236.305 161.298 236.172 161.739C236.038 162.18 235.766 162.567 235.396 162.841C235.025 163.116 234.576 163.264 234.115 163.263ZM28.0037 171.851C27.5427 171.852 27.0938 171.704 26.7235 171.429C26.3532 171.155 26.0811 170.768 25.9475 170.327C25.814 169.886 25.826 169.413 25.9819 168.979C26.1377 168.545 26.4291 168.173 26.8129 167.918L129.869 99.2142C130.342 98.9131 130.915 98.8095 131.464 98.9256C132.014 99.0417 132.496 99.3682 132.807 99.8352C133.118 100.302 133.235 100.873 133.131 101.424C133.027 101.976 132.711 102.465 132.251 102.786L29.1945 171.49C28.842 171.726 28.4276 171.851 28.0037 171.851Z" fill="#3A3847"/><path d="M234.115 171.852C233.691 171.852 233.276 171.727 232.924 171.491L129.868 102.787C129.634 102.631 129.432 102.43 129.275 102.196C129.118 101.962 129.009 101.699 128.954 101.422C128.899 101.146 128.898 100.861 128.953 100.585C129.008 100.308 129.116 100.045 129.273 99.8103C129.589 99.3371 130.08 99.0087 130.638 98.8972C131.197 98.7856 131.776 98.9 132.25 99.2152L235.306 167.919C235.69 168.174 235.981 168.547 236.137 168.98C236.293 169.414 236.305 169.887 236.171 170.328C236.038 170.769 235.766 171.156 235.395 171.43C235.025 171.705 234.576 171.853 234.115 171.852Z" fill="#3A3847"/><path d="M234.116 171.851C233.834 171.851 233.554 171.795 233.294 171.688C233.033 171.58 232.797 171.422 232.597 171.222C232.398 171.023 232.24 170.786 232.132 170.525C232.024 170.265 231.969 169.985 231.969 169.703V161.116C231.969 160.834 232.024 160.555 232.132 160.294C232.24 160.034 232.398 159.797 232.597 159.597C232.797 159.398 233.033 159.24 233.294 159.132C233.554 159.024 233.834 158.969 234.116 158.969C234.398 158.969 234.677 159.024 234.938 159.132C235.198 159.24 235.435 159.398 235.635 159.597C235.834 159.797 235.992 160.033 236.1 160.294C236.208 160.555 236.263 160.834 236.263 161.116V169.703C236.263 169.985 236.208 170.265 236.1 170.525C235.992 170.786 235.834 171.023 235.635 171.222C235.435 171.422 235.198 171.58 234.938 171.688C234.677 171.796 234.398 171.851 234.116 171.851ZM28.0042 171.851C27.7222 171.851 27.443 171.795 27.1824 171.688C26.9218 171.58 26.6851 171.422 26.4857 171.222C26.2863 171.023 26.1282 170.786 26.0204 170.525C25.9126 170.265 25.8572 169.985 25.8574 169.703V161.116C25.8572 160.834 25.9126 160.555 26.0204 160.294C26.1282 160.034 26.2863 159.797 26.4857 159.597C26.6851 159.398 26.9218 159.24 27.1824 159.132C27.443 159.024 27.7222 158.969 28.0042 158.969C28.2863 158.969 28.5655 159.024 28.8261 159.132C29.0867 159.24 29.3234 159.398 29.5228 159.597C29.7222 159.797 29.8803 160.034 29.9881 160.294C30.0959 160.555 30.1513 160.834 30.1511 161.116V169.703C30.1513 169.985 30.0959 170.265 29.9881 170.525C29.8803 170.786 29.7222 171.023 29.5228 171.222C29.3234 171.422 29.0867 171.58 28.8261 171.688C28.5655 171.795 28.2863 171.851 28.0042 171.851ZM216.939 257.731H204.058C203.776 257.731 203.497 257.676 203.236 257.568C202.976 257.46 202.739 257.302 202.539 257.102C202.34 256.903 202.182 256.666 202.074 256.406C201.966 256.145 201.911 255.866 201.911 255.584C201.911 255.302 201.966 255.023 202.074 254.762C202.182 254.502 202.34 254.265 202.539 254.065C202.739 253.866 202.976 253.708 203.236 253.6C203.497 253.492 203.776 253.437 204.058 253.437H216.939C217.221 253.437 217.501 253.492 217.761 253.6C218.022 253.708 218.259 253.866 218.458 254.065C218.658 254.265 218.816 254.502 218.924 254.762C219.032 255.023 219.087 255.302 219.087 255.584C219.087 255.866 219.032 256.145 218.924 256.406C218.816 256.666 218.658 256.903 218.458 257.103C218.259 257.302 218.022 257.46 217.761 257.568C217.501 257.676 217.221 257.731 216.939 257.731Z" fill="#3A3847"/><path d="M216.94 266.319C216.658 266.319 216.378 266.264 216.118 266.156C215.857 266.048 215.621 265.89 215.421 265.691C215.222 265.491 215.064 265.254 214.956 264.994C214.848 264.733 214.793 264.454 214.793 264.172V255.584C214.793 255.302 214.848 255.023 214.956 254.763C215.064 254.502 215.222 254.265 215.421 254.066C215.62 253.866 215.857 253.708 216.118 253.6C216.378 253.493 216.658 253.437 216.94 253.438C217.222 253.437 217.501 253.493 217.761 253.6C218.022 253.708 218.259 253.866 218.458 254.066C218.658 254.265 218.816 254.502 218.924 254.762C219.032 255.023 219.087 255.302 219.087 255.584V264.172C219.087 264.454 219.032 264.733 218.924 264.994C218.816 265.255 218.658 265.491 218.458 265.691C218.259 265.89 218.022 266.048 217.761 266.156C217.501 266.264 217.222 266.319 216.94 266.319ZM105.296 266.319H45.18C44.8981 266.319 44.6188 266.264 44.3583 266.156C44.0978 266.048 43.8611 265.89 43.6617 265.691C43.4623 265.491 43.3042 265.254 43.1963 264.994C43.0885 264.733 43.0331 264.454 43.0332 264.172C43.033 263.89 43.0884 263.611 43.1962 263.35C43.304 263.09 43.4621 262.853 43.6615 262.653C43.8609 262.454 44.0976 262.296 44.3582 262.188C44.6187 262.08 44.898 262.025 45.18 262.025H105.296C105.578 262.025 105.857 262.08 106.118 262.188C106.378 262.296 106.615 262.454 106.815 262.653C107.014 262.853 107.172 263.09 107.28 263.35C107.388 263.611 107.443 263.89 107.443 264.172C107.443 264.454 107.388 264.733 107.28 264.994C107.172 265.255 107.014 265.491 106.815 265.691C106.615 265.89 106.378 266.048 106.118 266.156C105.857 266.264 105.578 266.319 105.296 266.319Z" fill="#3A3847"/><path d="M216.94 266.319H156.824C156.542 266.319 156.263 266.264 156.002 266.156C155.742 266.048 155.505 265.89 155.306 265.691C155.106 265.491 154.948 265.254 154.84 264.994C154.733 264.733 154.677 264.454 154.677 264.172C154.677 263.89 154.732 263.611 154.84 263.35C154.948 263.09 155.106 262.853 155.306 262.653C155.505 262.454 155.742 262.296 156.002 262.188C156.263 262.08 156.542 262.025 156.824 262.025H216.94C217.222 262.025 217.501 262.08 217.762 262.188C218.022 262.296 218.259 262.454 218.458 262.653C218.658 262.853 218.816 263.09 218.924 263.35C219.032 263.611 219.087 263.89 219.087 264.172C219.087 264.454 219.032 264.733 218.924 264.994C218.816 265.255 218.658 265.491 218.458 265.691C218.259 265.89 218.022 266.048 217.761 266.156C217.501 266.264 217.222 266.319 216.94 266.319ZM45.18 266.319C44.8981 266.319 44.6188 266.264 44.3583 266.156C44.0978 266.048 43.8611 265.89 43.6617 265.691C43.4623 265.491 43.3042 265.254 43.1963 264.994C43.0885 264.733 43.0331 264.454 43.0332 264.172V255.584C43.033 255.302 43.0884 255.023 43.1962 254.763C43.304 254.502 43.4621 254.265 43.6615 254.066C43.8609 253.866 44.0977 253.708 44.3582 253.6C44.6188 253.493 44.898 253.437 45.18 253.438C45.462 253.437 45.7413 253.493 46.0018 253.6C46.2624 253.708 46.4991 253.866 46.6985 254.066C46.8979 254.265 47.0561 254.502 47.1639 254.763C47.2717 255.023 47.3271 255.302 47.3269 255.584V264.172C47.3271 264.454 47.2717 264.733 47.1639 264.994C47.0561 265.255 46.8979 265.491 46.6985 265.691C46.4991 265.89 46.2624 266.048 46.0018 266.156C45.7413 266.264 45.462 266.319 45.18 266.319Z" fill="#3A3847"/><path d="M58.0626 257.731H45.18C44.8981 257.731 44.6188 257.675 44.3583 257.567C44.0978 257.46 43.8611 257.301 43.6617 257.102C43.4623 256.903 43.3042 256.666 43.1963 256.405C43.0885 256.145 43.0331 255.866 43.0332 255.584C43.033 255.302 43.0884 255.022 43.1962 254.762C43.304 254.501 43.4621 254.265 43.6615 254.065C43.8609 253.866 44.0977 253.708 44.3582 253.6C44.6188 253.492 44.898 253.437 45.18 253.437H58.0626C58.3446 253.437 58.6238 253.492 58.8844 253.6C59.145 253.708 59.3817 253.866 59.5811 254.065C59.7805 254.265 59.9386 254.501 60.0464 254.762C60.1543 255.022 60.2096 255.302 60.2094 255.584C60.2096 255.866 60.1541 256.145 60.0463 256.405C59.9385 256.666 59.7803 256.903 59.581 257.102C59.3816 257.301 59.1449 257.46 58.8843 257.567C58.6238 257.675 58.3446 257.731 58.0626 257.731ZM113.884 266.318C113.602 266.319 113.323 266.263 113.062 266.155C112.802 266.047 112.565 265.889 112.365 265.69C112.166 265.491 112.008 265.254 111.9 264.993C111.792 264.733 111.737 264.454 111.737 264.172V212.643C111.737 212.361 111.792 212.082 111.9 211.822C112.008 211.561 112.166 211.324 112.365 211.125C112.565 210.925 112.801 210.767 113.062 210.659C113.323 210.551 113.602 210.496 113.884 210.496C114.166 210.496 114.445 210.551 114.706 210.659C114.966 210.767 115.203 210.925 115.402 211.125C115.602 211.324 115.76 211.561 115.868 211.822C115.975 212.082 116.031 212.361 116.031 212.643V264.172C116.031 264.454 115.975 264.733 115.868 264.993C115.76 265.254 115.602 265.491 115.402 265.69C115.203 265.889 114.966 266.048 114.706 266.155C114.445 266.263 114.166 266.319 113.884 266.318Z" fill="#3A3847"/><path d="M148.235 214.79H113.883C113.601 214.79 113.322 214.735 113.061 214.627C112.801 214.519 112.564 214.361 112.365 214.162C112.165 213.962 112.007 213.726 111.899 213.465C111.792 213.205 111.736 212.925 111.736 212.643C111.736 212.361 111.792 212.082 111.899 211.822C112.007 211.561 112.165 211.324 112.365 211.125C112.564 210.925 112.801 210.767 113.061 210.659C113.322 210.551 113.601 210.496 113.883 210.496H148.235C148.517 210.496 148.796 210.551 149.057 210.659C149.318 210.767 149.555 210.925 149.754 211.125C149.953 211.324 150.112 211.561 150.219 211.821C150.327 212.082 150.383 212.361 150.382 212.643C150.383 212.925 150.327 213.205 150.219 213.465C150.111 213.726 149.953 213.963 149.754 214.162C149.554 214.361 149.318 214.52 149.057 214.627C148.796 214.735 148.517 214.791 148.235 214.79Z" fill="#3A3847"/><path d="M148.235 266.318C147.953 266.318 147.674 266.263 147.414 266.155C147.153 266.047 146.916 265.889 146.717 265.69C146.518 265.49 146.359 265.254 146.252 264.993C146.144 264.733 146.088 264.453 146.088 264.171V212.643C146.088 212.361 146.144 212.082 146.251 211.821C146.359 211.561 146.517 211.324 146.717 211.125C146.916 210.925 147.153 210.767 147.413 210.659C147.674 210.551 147.953 210.496 148.235 210.496C148.517 210.496 148.797 210.551 149.057 210.659C149.318 210.767 149.555 210.925 149.754 211.124C149.954 211.324 150.112 211.561 150.22 211.821C150.327 212.082 150.383 212.361 150.383 212.643V264.171C150.383 264.453 150.327 264.733 150.219 264.993C150.112 265.254 149.953 265.491 149.754 265.69C149.555 265.889 149.318 266.047 149.057 266.155C148.797 266.263 148.517 266.318 148.235 266.318ZM101.002 227.672H62.3558C62.0738 227.672 61.7946 227.617 61.534 227.509C61.2734 227.401 61.0367 227.243 60.8373 227.044C60.6379 226.844 60.4798 226.608 60.372 226.347C60.2642 226.087 60.2088 225.807 60.209 225.525V186.879C60.2088 186.597 60.2643 186.318 60.3721 186.058C60.48 185.797 60.6381 185.56 60.8375 185.361C61.0368 185.162 61.2736 185.003 61.5341 184.896C61.7946 184.788 62.0738 184.732 62.3558 184.732H101.002C101.284 184.732 101.563 184.788 101.824 184.896C102.084 185.003 102.321 185.162 102.52 185.361C102.72 185.56 102.878 185.797 102.986 186.058C103.093 186.318 103.149 186.597 103.149 186.879V225.525C103.149 225.807 103.094 226.087 102.986 226.347C102.878 226.608 102.72 226.844 102.52 227.044C102.321 227.243 102.084 227.401 101.824 227.509C101.563 227.617 101.284 227.672 101.002 227.672ZM64.5026 223.379H98.8545V189.027H64.5026V223.379Z" fill="#3A3847"/><path d="M81.6781 223.379C81.3961 223.379 81.1169 223.324 80.8564 223.216C80.5958 223.108 80.3591 222.95 80.1597 222.751C79.9603 222.551 79.8022 222.314 79.6944 222.054C79.5865 221.793 79.5311 221.514 79.5313 221.232V191.891C79.5311 191.609 79.5865 191.33 79.6944 191.069C79.8022 190.809 79.9603 190.572 80.1597 190.373C80.3591 190.173 80.5958 190.015 80.8564 189.907C81.1169 189.799 81.3961 189.744 81.6781 189.744C81.9601 189.744 82.2394 189.799 82.5 189.907C82.7605 190.015 82.9973 190.173 83.1968 190.372C83.3962 190.572 83.5544 190.809 83.6623 191.069C83.7701 191.33 83.8256 191.609 83.8254 191.891V221.232C83.8255 221.514 83.77 221.793 83.6621 222.054C83.5542 222.314 83.396 222.551 83.1966 222.751C82.9972 222.95 82.7604 223.108 82.4999 223.216C82.2393 223.324 81.9601 223.379 81.6781 223.379Z" fill="#3A3847"/><path d="M96.707 208.349H66.6493C65.4623 208.349 64.502 207.389 64.502 206.202C64.502 205.016 65.4623 204.055 66.6493 204.055H96.707C97.894 204.055 98.8539 205.016 98.8539 206.202C98.8539 207.389 97.894 208.349 96.707 208.349ZM199.763 227.672H161.117C160.835 227.672 160.556 227.617 160.295 227.509C160.035 227.401 159.798 227.243 159.598 227.044C159.399 226.844 159.241 226.608 159.133 226.347C159.025 226.087 158.97 225.807 158.97 225.525V186.879C158.97 186.597 159.025 186.318 159.133 186.057C159.241 185.797 159.399 185.56 159.598 185.361C159.798 185.161 160.035 185.003 160.295 184.895C160.556 184.788 160.835 184.732 161.117 184.732H199.763C200.045 184.732 200.324 184.788 200.585 184.895C200.845 185.003 201.082 185.161 201.281 185.361C201.481 185.56 201.639 185.797 201.747 186.057C201.855 186.318 201.91 186.597 201.91 186.879V225.525C201.91 225.807 201.855 226.087 201.747 226.347C201.639 226.608 201.481 226.844 201.281 227.044C201.082 227.243 200.845 227.401 200.585 227.509C200.324 227.617 200.045 227.672 199.763 227.672ZM163.264 223.379H197.616V189.027H163.264V223.379Z" fill="#3A3847"/><path d="M180.44 223.379C180.158 223.379 179.879 223.324 179.618 223.216C179.357 223.108 179.121 222.95 178.921 222.751C178.722 222.551 178.564 222.315 178.456 222.054C178.348 221.793 178.293 221.514 178.293 221.232V191.891C178.293 190.704 179.253 189.744 180.44 189.744C181.627 189.744 182.587 190.704 182.587 191.891V221.232C182.587 221.514 182.531 221.793 182.423 222.054C182.316 222.314 182.158 222.551 181.958 222.751C181.759 222.95 181.522 223.108 181.262 223.216C181.001 223.324 180.722 223.379 180.44 223.379Z" fill="#3A3847"/><path d="M195.47 208.35H165.411C164.225 208.35 163.264 207.39 163.264 206.204C163.264 205.017 164.225 204.056 165.411 204.056H195.47C196.656 204.056 197.616 205.017 197.616 206.204C197.616 207.39 196.656 208.35 195.47 208.35ZM131.059 180.44C120.404 180.44 111.736 171.772 111.736 161.117C111.736 150.461 120.404 141.793 131.059 141.793C141.715 141.793 150.383 150.461 150.383 161.117C150.382 171.772 141.715 180.44 131.059 180.44ZM131.059 146.088C122.773 146.088 116.031 152.831 116.031 161.117C116.031 169.403 122.774 176.145 131.059 176.145C139.346 176.145 146.088 169.402 146.088 161.117C146.088 152.831 139.346 146.088 131.059 146.088Z" fill="#3A3847"/><path d="M131.059 171.851C130.777 171.851 130.498 171.796 130.237 171.688C129.977 171.58 129.74 171.422 129.54 171.223C129.341 171.023 129.183 170.786 129.075 170.526C128.967 170.265 128.912 169.986 128.912 169.704V152.528C128.912 152.246 128.967 151.966 129.075 151.706C129.183 151.445 129.341 151.209 129.541 151.009C129.74 150.81 129.977 150.652 130.237 150.544C130.498 150.436 130.777 150.381 131.059 150.381C131.341 150.381 131.62 150.436 131.881 150.544C132.141 150.652 132.378 150.81 132.577 151.009C132.777 151.209 132.935 151.445 133.043 151.706C133.151 151.966 133.206 152.246 133.206 152.528V169.704C133.206 169.986 133.151 170.265 133.043 170.526C132.935 170.786 132.777 171.023 132.577 171.223C132.378 171.422 132.141 171.58 131.881 171.688C131.62 171.796 131.341 171.851 131.059 171.851Z" fill="#3A3847"/><path d="M139.648 163.263H122.471C122.189 163.263 121.91 163.208 121.65 163.1C121.389 162.992 121.152 162.834 120.953 162.635C120.754 162.435 120.595 162.199 120.488 161.938C120.38 161.678 120.324 161.398 120.325 161.117C120.324 160.834 120.38 160.555 120.487 160.295C120.595 160.034 120.753 159.797 120.953 159.598C121.152 159.398 121.389 159.24 121.649 159.132C121.91 159.024 122.189 158.969 122.471 158.969H139.648C139.93 158.969 140.209 159.024 140.469 159.132C140.73 159.24 140.967 159.398 141.166 159.598C141.365 159.797 141.524 160.034 141.631 160.295C141.739 160.555 141.795 160.834 141.794 161.117C141.795 161.398 141.739 161.678 141.631 161.938C141.524 162.199 141.365 162.436 141.166 162.635C140.967 162.834 140.73 162.993 140.469 163.1C140.209 163.208 139.93 163.264 139.648 163.263ZM152.53 274.907H109.59C109.308 274.907 109.029 274.852 108.768 274.744C108.507 274.636 108.271 274.478 108.071 274.279C107.872 274.079 107.714 273.842 107.606 273.582C107.498 273.321 107.442 273.042 107.442 272.76C107.442 272.478 107.498 272.199 107.606 271.938C107.714 271.678 107.872 271.441 108.071 271.242C108.271 271.042 108.507 270.884 108.768 270.776C109.029 270.668 109.308 270.613 109.59 270.613H152.53C152.812 270.613 153.091 270.668 153.351 270.776C153.612 270.884 153.849 271.042 154.048 271.242C154.247 271.441 154.406 271.678 154.513 271.938C154.621 272.199 154.677 272.478 154.676 272.76C154.677 273.042 154.621 273.321 154.513 273.582C154.406 273.842 154.247 274.079 154.048 274.279C153.849 274.478 153.612 274.636 153.351 274.744C153.091 274.852 152.812 274.907 152.53 274.907ZM34.445 111.735C22.6071 111.735 12.9746 102.103 12.9746 90.2648C12.9746 78.4269 22.6071 68.7949 34.445 68.7949C46.2829 68.7949 55.9149 78.4269 55.9149 90.2648C55.9149 102.103 46.2829 111.735 34.445 111.735ZM34.445 73.0891C24.972 73.0891 17.2688 80.7945 17.2688 90.2653C17.2688 99.7362 24.972 107.442 34.445 107.442C43.918 107.442 51.6212 99.7362 51.6212 90.2653C51.6207 80.7945 43.918 73.0891 34.445 73.0891Z" fill="#3A3847"/><path d="M34.445 120.322C22.6071 120.322 12.9746 110.69 12.9746 98.8519C12.9745 98.5699 13.0299 98.2906 13.1378 98.0301C13.2457 97.7695 13.4038 97.5328 13.6033 97.3334C13.8027 97.134 14.0395 96.9759 14.3001 96.868C14.5607 96.7602 14.84 96.7049 15.122 96.7051C15.4039 96.7049 15.6832 96.7604 15.9437 96.8682C16.2042 96.976 16.4409 97.1342 16.6403 97.3336C16.8397 97.5329 16.9978 97.7697 17.1057 98.0302C17.2135 98.2907 17.2689 98.5699 17.2688 98.8519C17.2688 108.323 24.972 116.028 34.445 116.028C43.918 116.028 51.6212 108.323 51.6212 98.8519C51.6211 98.5699 51.6765 98.2907 51.7844 98.0302C51.8922 97.7697 52.0503 97.5329 52.2497 97.3336C52.4491 97.1342 52.6858 96.976 52.9463 96.8682C53.2069 96.7604 53.4861 96.7049 53.7681 96.7051C54.0501 96.7049 54.3293 96.7603 54.5899 96.8681C54.8504 96.9759 55.0872 97.134 55.2866 97.3334C55.486 97.5328 55.6441 97.7695 55.7519 98.0301C55.8597 98.2907 55.9151 98.5699 55.9149 98.8519C55.9149 110.69 46.2829 120.322 34.445 120.322Z" fill="#3A3847"/><path d="M15.122 101C14.8399 101 14.5606 100.945 14.3 100.837C14.0393 100.729 13.8025 100.571 13.6031 100.372C13.4036 100.172 13.2455 99.9355 13.1376 99.6749C13.0298 99.4142 12.9744 99.1349 12.9746 98.8528V90.265C12.9745 89.983 13.0299 89.7037 13.1378 89.4432C13.2457 89.1826 13.4038 88.9458 13.6033 88.7465C13.8027 88.5471 14.0395 88.3889 14.3001 88.2811C14.5607 88.1733 14.84 88.118 15.122 88.1182C15.4039 88.118 15.6832 88.1735 15.9437 88.2813C16.2042 88.3891 16.4409 88.5473 16.6403 88.7466C16.8397 88.946 16.9978 89.1827 17.1057 89.4433C17.2135 89.7038 17.2689 89.983 17.2688 90.265V98.8528C17.269 99.1348 17.2136 99.4141 17.1058 99.6747C16.998 99.9353 16.8399 100.172 16.6405 100.372C16.4411 100.571 16.2044 100.729 15.9438 100.837C15.6833 100.945 15.404 101 15.122 101ZM53.7675 101C53.4855 101 53.2062 100.945 52.9457 100.837C52.6851 100.729 52.4484 100.571 52.249 100.372C52.0496 100.172 51.8915 99.9353 51.7837 99.6747C51.6759 99.4141 51.6205 99.1348 51.6207 98.8528V90.265C51.6206 89.983 51.676 89.7038 51.7838 89.4433C51.8917 89.1827 52.0498 88.946 52.2492 88.7466C52.4486 88.5473 52.6853 88.3891 52.9458 88.2813C53.2063 88.1735 53.4856 88.118 53.7675 88.1182C54.0495 88.118 54.3288 88.1733 54.5893 88.2812C54.8499 88.389 55.0866 88.5471 55.286 88.7465C55.4854 88.9459 55.6436 89.1826 55.7514 89.4432C55.8592 89.7038 55.9146 89.983 55.9144 90.265V98.8528C55.9147 99.1349 55.8594 99.4142 55.7517 99.6749C55.6439 99.9355 55.4858 100.172 55.2864 100.372C55.087 100.571 54.8502 100.729 54.5895 100.837C54.3289 100.945 54.0496 101 53.7675 101ZM34.445 120.323C34.163 120.323 33.8837 120.268 33.6232 120.16C33.3626 120.052 33.1259 119.894 32.9265 119.695C32.7271 119.495 32.569 119.258 32.4612 118.998C32.3534 118.737 32.298 118.458 32.2982 118.176V109.588C32.298 109.306 32.3534 109.027 32.4612 108.766C32.569 108.506 32.7271 108.269 32.9265 108.069C33.1259 107.87 33.3626 107.712 33.6232 107.604C33.8837 107.496 34.163 107.441 34.445 107.441C34.727 107.441 35.0063 107.496 35.2669 107.604C35.5274 107.712 35.7642 107.87 35.9636 108.069C36.1629 108.269 36.3211 108.506 36.4289 108.766C36.5367 109.027 36.5921 109.306 36.5918 109.588V118.176C36.5921 118.458 36.5367 118.737 36.4289 118.998C36.3211 119.258 36.1629 119.495 35.9636 119.695C35.7642 119.894 35.5274 120.052 35.2669 120.16C35.0063 120.268 34.727 120.323 34.445 120.323ZM45.1797 117.069C44.8977 117.07 44.6185 117.014 44.358 116.906C44.0974 116.798 43.8607 116.64 43.6613 116.441C43.462 116.242 43.3038 116.005 43.196 115.744C43.0882 115.484 43.0327 115.205 43.0329 114.923V106.335C43.0326 106.053 43.088 105.773 43.1958 105.513C43.3036 105.252 43.4618 105.016 43.6611 104.816C43.8605 104.617 44.0973 104.458 44.3578 104.351C44.6184 104.243 44.8977 104.187 45.1797 104.187C45.4617 104.187 45.741 104.243 46.0015 104.351C46.2621 104.458 46.4988 104.617 46.6982 104.816C46.8976 105.016 47.0557 105.252 47.1635 105.513C47.2713 105.773 47.3267 106.053 47.3265 106.335V114.923C47.3267 115.205 47.2713 115.484 47.1635 115.744C47.0557 116.005 46.8976 116.242 46.6982 116.441C46.4988 116.641 46.2621 116.799 46.0015 116.906C45.7409 117.014 45.4617 117.07 45.1797 117.069ZM23.7104 117.069C23.4283 117.07 23.1491 117.014 22.8885 116.906C22.6279 116.799 22.3911 116.641 22.1917 116.441C21.9922 116.242 21.834 116.005 21.7262 115.744C21.6183 115.484 21.5628 115.205 21.563 114.923V106.335C21.5628 106.053 21.6182 105.773 21.726 105.513C21.8339 105.252 21.992 105.015 22.1915 104.816C22.3909 104.616 22.6277 104.458 22.8883 104.35C23.149 104.243 23.4283 104.187 23.7104 104.187C23.9924 104.187 24.2716 104.243 24.5322 104.351C24.7928 104.458 25.0295 104.617 25.2289 104.816C25.4283 105.016 25.5864 105.252 25.6942 105.513C25.802 105.773 25.8574 106.053 25.8572 106.335V114.923C25.8573 115.205 25.8019 115.484 25.694 115.744C25.5862 116.005 25.4281 116.242 25.2287 116.441C25.0293 116.64 24.7926 116.798 24.5321 116.906C24.2715 117.014 23.9923 117.07 23.7104 117.069ZM34.445 98.8534C34.163 98.8536 33.8838 98.7982 33.6232 98.6904C33.3627 98.5826 33.1259 98.4244 32.9265 98.2251C32.7271 98.0257 32.569 97.7889 32.4612 97.5284C32.3534 97.2678 32.298 96.9885 32.2982 96.7065V83.8245C32.298 83.5425 32.3534 83.2632 32.4612 83.0026C32.569 82.742 32.7271 82.5052 32.9265 82.3058C33.1259 82.1064 33.3626 81.9482 33.6232 81.8403C33.8837 81.7325 34.163 81.677 34.445 81.6772C34.727 81.677 35.0063 81.7325 35.2669 81.8403C35.5274 81.9482 35.7642 82.1064 35.9636 82.3058C36.1629 82.5052 36.3211 82.742 36.4289 83.0026C36.5367 83.2632 36.5921 83.5425 36.5918 83.8245V96.7065C36.592 96.9885 36.5366 97.2677 36.4287 97.5283C36.3209 97.7888 36.1628 98.0255 35.9634 98.2249C35.764 98.4243 35.5273 98.5824 35.2667 98.6902C35.0062 98.7981 34.727 98.8535 34.445 98.8534ZM225.528 38.7374H169.706C168.519 38.7374 167.559 37.7771 167.559 36.5906C167.559 35.4041 168.519 34.4437 169.706 34.4437H225.528C226.715 34.4437 227.675 35.4041 227.675 36.5906C227.675 37.7771 226.715 38.7374 225.528 38.7374ZM225.083 25.8559H223.381C222.194 25.8559 221.234 24.8956 221.234 23.7085C221.234 22.5215 222.194 21.5612 223.381 21.5612H225.083C226.27 21.5612 227.23 22.5215 227.23 23.7085C227.23 24.8956 226.269 25.8559 225.083 25.8559ZM259.88 12.9733H223.381C222.194 12.9733 221.234 12.013 221.234 10.8265C221.234 9.64004 222.194 8.67969 223.381 8.67969H259.88C261.066 8.67969 262.027 9.64004 262.027 10.8265C262.027 12.013 261.066 12.9733 259.88 12.9733ZM225.528 90.2655H169.706C168.519 90.2655 167.559 89.3052 167.559 88.1187C167.559 86.9322 168.519 85.9719 169.706 85.9719H225.528C226.715 85.9719 227.675 86.9322 227.675 88.1187C227.675 89.3052 226.715 90.2655 225.528 90.2655Z" fill="#3A3847"/><path d="M225.528 38.7368C224.341 38.7368 223.381 37.7764 223.381 36.5899C223.381 35.4035 224.341 34.4431 225.528 34.4431C227.897 34.4431 229.822 32.516 229.822 30.1489C229.822 27.7819 227.897 25.8553 225.528 25.8553C224.341 25.8553 223.381 24.8949 223.381 23.7079C223.381 22.5209 224.341 21.5605 225.528 21.5605C230.262 21.5605 234.116 25.4122 234.116 30.1484C234.116 34.8846 230.262 38.7368 225.528 38.7368Z" fill="#3A3847"/><path d="M223.381 25.8554C218.647 25.8554 214.793 22.0038 214.793 17.2675C214.793 12.5313 218.647 8.67969 223.381 8.67969C224.567 8.67969 225.528 9.64004 225.528 10.8265C225.528 12.013 224.567 12.9733 223.381 12.9733C221.012 12.9733 219.087 14.9005 219.087 17.2675C219.087 19.6346 221.012 21.5612 223.381 21.5612C224.567 21.5612 225.528 22.5215 225.528 23.7085C225.528 24.8956 224.567 25.8554 223.381 25.8554ZM225.528 90.265C224.341 90.265 223.381 89.3046 223.381 88.1182C223.381 86.9317 224.341 85.9713 225.528 85.9713C227.897 85.9713 229.822 84.0442 229.822 81.6772C229.822 81.3952 229.877 81.116 229.985 80.8554C230.093 80.5949 230.251 80.3582 230.45 80.1588C230.65 79.9594 230.886 79.8013 231.147 79.6935C231.407 79.5856 231.687 79.5302 231.969 79.5303C232.251 79.5301 232.53 79.5855 232.79 79.6933C233.051 79.8011 233.288 79.9592 233.487 80.1586C233.687 80.358 233.845 80.5948 233.953 80.8553C234.06 81.1159 234.116 81.3952 234.115 81.6772C234.115 86.4134 230.262 90.265 225.528 90.265Z" fill="#3A3847"/><path d="M231.969 83.8245C231.687 83.8247 231.408 83.7692 231.147 83.6613C230.887 83.5535 230.65 83.3953 230.451 83.1959C230.251 82.9964 230.093 82.7596 229.985 82.499C229.878 82.2384 229.822 81.9592 229.822 81.6772V30.1496C229.822 29.8676 229.878 29.5884 229.985 29.3278C230.093 29.0673 230.251 28.8306 230.451 28.6312C230.65 28.4318 230.887 28.2737 231.147 28.1659C231.408 28.058 231.687 28.0026 231.969 28.0027C232.251 28.0025 232.53 28.0579 232.791 28.1657C233.052 28.2735 233.288 28.4317 233.488 28.6311C233.687 28.8304 233.845 29.0672 233.953 29.3278C234.061 29.5883 234.116 29.8676 234.116 30.1496V81.6777C234.116 81.9597 234.061 82.2389 233.953 82.4995C233.845 82.7601 233.687 82.9968 233.488 83.1962C233.288 83.3956 233.052 83.5537 232.791 83.6615C232.53 83.7693 232.251 83.8247 231.969 83.8245ZM216.94 38.7374C216.658 38.7375 216.379 38.6821 216.118 38.5743C215.858 38.4664 215.621 38.3083 215.421 38.1089C215.222 37.9095 215.064 37.6728 214.956 37.4123C214.848 37.1518 214.793 36.8725 214.793 36.5906V17.2675C214.793 16.9855 214.848 16.7062 214.956 16.4456C215.064 16.1851 215.222 15.9483 215.421 15.7488C215.621 15.5494 215.857 15.3912 216.118 15.2833C216.379 15.1755 216.658 15.12 216.94 15.1202C217.222 15.12 217.501 15.1754 217.762 15.2832C218.022 15.391 218.259 15.5492 218.459 15.7486C218.658 15.9481 218.816 16.1849 218.924 16.4455C219.032 16.7061 219.087 16.9855 219.087 17.2675V36.5906C219.087 36.8726 219.032 37.1519 218.924 37.4124C218.816 37.673 218.658 37.9097 218.458 38.1091C218.259 38.3085 218.022 38.4666 217.762 38.5744C217.501 38.6822 217.222 38.7376 216.94 38.7374ZM259.881 64.5015C259.599 64.5017 259.319 64.4463 259.059 64.3385C258.798 64.2307 258.561 64.0726 258.362 63.8732C258.162 63.6738 258.004 63.4371 257.896 63.1765C257.789 62.9159 257.733 62.6367 257.733 62.3546V10.8265C257.733 10.5445 257.789 10.2652 257.896 10.0047C258.004 9.74411 258.162 9.50736 258.362 9.30797C258.561 9.10859 258.798 8.95047 259.059 8.84266C259.319 8.73486 259.599 8.67948 259.881 8.67969C260.163 8.67955 260.442 8.73498 260.702 8.84282C260.963 8.95066 261.2 9.10879 261.399 9.30816C261.598 9.50754 261.756 9.74426 261.864 10.0048C261.972 10.2653 262.028 10.5446 262.027 10.8265V62.3546C262.028 62.6366 261.972 62.9158 261.864 63.1764C261.756 63.4369 261.598 63.6736 261.399 63.873C261.2 64.0724 260.963 64.2305 260.702 64.3383C260.442 64.4462 260.163 64.5016 259.881 64.5015Z" fill="#3A3847"/><path d="M259.88 64.501H231.968C230.782 64.501 229.821 63.5406 229.821 62.3542C229.821 61.1677 230.782 60.2073 231.968 60.2073H259.88C261.066 60.2073 262.026 61.1677 262.026 62.3542C262.026 63.5406 261.066 64.501 259.88 64.501ZM169.705 90.265C169.423 90.2653 169.144 90.2099 168.884 90.1021C168.623 89.9942 168.386 89.8361 168.187 89.6367C167.988 89.4373 167.829 89.2006 167.722 88.94C167.614 88.6795 167.558 88.4002 167.559 88.1182V36.5901C167.558 36.3081 167.614 36.0288 167.722 35.7683C167.829 35.5077 167.988 35.271 168.187 35.0716C168.386 34.8722 168.623 34.7141 168.884 34.6062C169.144 34.4984 169.423 34.443 169.705 34.4433C169.987 34.4431 170.267 34.4986 170.527 34.6064C170.788 34.7142 171.024 34.8724 171.224 35.0717C171.423 35.2711 171.581 35.5078 171.689 35.7684C171.797 36.0289 171.852 36.3081 171.852 36.5901V88.1182C171.852 88.4002 171.797 88.6794 171.689 88.9399C171.581 89.2005 171.423 89.4372 171.224 89.6366C171.024 89.8359 170.788 89.9941 170.527 90.1019C170.267 90.2097 169.987 90.2652 169.705 90.265ZM251.291 51.6189C251.009 51.6191 250.729 51.5636 250.469 51.4558C250.208 51.3479 249.972 51.1897 249.772 50.9903C249.573 50.7908 249.415 50.5541 249.307 50.2935C249.199 50.0329 249.144 49.7536 249.144 49.4716V23.7081C249.144 23.4261 249.199 23.1468 249.307 22.8863C249.415 22.6257 249.573 22.3889 249.772 22.1895C249.972 21.9901 250.208 21.8319 250.469 21.724C250.729 21.6161 251.009 21.5606 251.291 21.5607C251.573 21.5605 251.852 21.6159 252.113 21.7237C252.373 21.8316 252.61 21.9897 252.81 22.1892C253.009 22.3886 253.167 22.6254 253.275 22.886C253.383 23.1467 253.438 23.426 253.438 23.7081V49.4721C253.438 49.7541 253.383 50.0334 253.275 50.294C253.167 50.5545 253.009 50.7913 252.809 50.9907C252.61 51.19 252.373 51.3482 252.113 51.456C251.852 51.5638 251.573 51.6192 251.291 51.6189ZM246.997 21.5612H234.115C232.929 21.5612 231.968 20.6009 231.968 19.4144C231.968 18.2279 232.929 17.2676 234.115 17.2676H246.997C248.184 17.2676 249.144 18.2279 249.144 19.4144C249.144 20.6009 248.184 21.5612 246.997 21.5612ZM246.997 55.9131H234.115C232.929 55.9131 231.968 54.9528 231.968 53.7663C231.968 52.5798 232.929 51.6195 234.115 51.6195H246.997C248.184 51.6195 249.144 52.5798 249.144 53.7663C249.144 54.9528 248.184 55.9131 246.997 55.9131Z" fill="#3A3847"/><path d="M251.291 25.8554C247.74 25.8554 244.851 22.9663 244.851 19.4144C244.851 18.2279 245.811 17.2676 246.998 17.2676C248.184 17.2676 249.144 18.2279 249.144 19.4144C249.145 19.9836 249.372 20.5292 249.774 20.9317C250.177 21.3341 250.722 21.5605 251.291 21.5612C252.478 21.5612 253.439 22.5216 253.439 23.7086C253.439 24.8956 252.478 25.8554 251.291 25.8554ZM246.998 55.9131C246.716 55.9133 246.436 55.8578 246.176 55.75C245.915 55.6422 245.679 55.484 245.479 55.2847C245.28 55.0853 245.122 54.8486 245.014 54.588C244.906 54.3275 244.851 54.0483 244.851 53.7663C244.851 50.2144 247.74 47.3253 251.291 47.3253C252.478 47.3253 253.439 48.2856 253.439 49.4727C253.439 50.6597 252.478 51.62 251.291 51.62C250.722 51.6209 250.177 51.8473 249.774 52.2498C249.372 52.6522 249.145 53.1977 249.144 53.7668C249.145 54.0488 249.089 54.3279 248.981 54.5884C248.873 54.8489 248.715 55.0855 248.516 55.2848C248.316 55.4842 248.08 55.6423 247.819 55.7501C247.559 55.8579 247.28 55.9133 246.998 55.9131ZM178.294 77.383C178.012 77.3832 177.732 77.3278 177.472 77.22C177.211 77.1121 176.974 76.954 176.775 76.7545C176.576 76.5551 176.417 76.3183 176.31 76.0577C176.202 75.797 176.146 75.5177 176.146 75.2356V49.4721C176.146 49.1901 176.202 48.9108 176.31 48.6502C176.418 48.3896 176.576 48.1528 176.775 47.9534C176.975 47.754 177.211 47.5958 177.472 47.4879C177.733 47.3801 178.012 47.3246 178.294 47.3248C178.576 47.3246 178.855 47.3801 179.116 47.4879C179.376 47.5958 179.613 47.754 179.812 47.9534C180.012 48.1529 180.17 48.3896 180.278 48.6502C180.386 48.9108 180.441 49.1901 180.441 49.4721V75.2362C180.441 75.5181 180.385 75.7974 180.278 76.0579C180.17 76.3184 180.012 76.5552 179.812 76.7545C179.613 76.9539 179.376 77.112 179.116 77.2199C178.855 77.3277 178.576 77.3831 178.294 77.383ZM225.528 81.6767H182.588C181.402 81.6767 180.441 80.7163 180.441 79.5298C180.441 78.3434 181.402 77.383 182.588 77.383H225.528C226.715 77.383 227.675 78.3434 227.675 79.5298C227.675 80.7163 226.715 81.6767 225.528 81.6767ZM225.528 47.3248H182.588C181.402 47.3248 180.441 46.3644 180.441 45.1779C180.441 43.9915 181.402 43.0311 182.588 43.0311H225.528C226.715 43.0311 227.675 43.9915 227.675 45.1779C227.675 46.3644 226.715 47.3248 225.528 47.3248Z" fill="#3A3847"/><path d="M182.587 81.6771C182.305 81.6772 182.026 81.6218 181.765 81.514C181.505 81.4061 181.268 81.248 181.069 81.0486C180.869 80.8493 180.711 80.6125 180.603 80.352C180.496 80.0915 180.44 79.8122 180.44 79.5303C180.44 78.9611 180.213 78.4155 179.811 78.013C179.408 77.6106 178.863 77.3842 178.294 77.3834C177.106 77.3834 176.146 76.4231 176.146 75.2361C176.146 74.0491 177.106 73.0887 178.294 73.0887C181.845 73.0887 184.735 75.9778 184.735 79.5297C184.735 79.8118 184.679 80.0911 184.572 80.3518C184.464 80.6124 184.305 80.8492 184.106 81.0486C183.907 81.2481 183.67 81.4062 183.409 81.5141C183.149 81.6219 182.869 81.6773 182.587 81.6771ZM178.294 51.6194C177.106 51.6194 176.146 50.659 176.146 49.472C176.146 48.285 177.106 47.3247 178.294 47.3247C178.863 47.3238 179.408 47.0974 179.811 46.6949C180.213 46.2925 180.439 45.7469 180.44 45.1778C180.44 44.8959 180.496 44.6166 180.603 44.3561C180.711 44.0956 180.869 43.8589 181.069 43.6595C181.268 43.4601 181.505 43.302 181.765 43.1941C182.026 43.0863 182.305 43.0309 182.587 43.031C182.869 43.0308 183.148 43.0862 183.409 43.194C183.67 43.3018 183.906 43.4599 184.106 43.6593C184.305 43.8587 184.463 44.0954 184.571 44.356C184.679 44.6166 184.735 44.8958 184.735 45.1778C184.735 48.7303 181.845 51.6194 178.294 51.6194ZM225.519 73.0936C219.598 73.0936 214.784 68.2757 214.784 62.3546C214.784 56.4356 219.598 51.6199 225.519 51.6199C226.706 51.6199 227.666 52.5803 227.666 53.7668C227.666 54.9532 226.706 55.9136 225.519 55.9136C221.967 55.9136 219.078 58.8027 219.078 62.3546C219.078 65.9086 221.967 68.7999 225.519 68.7999C226.706 68.7999 227.666 69.7603 227.666 70.9467C227.666 72.1332 226.706 73.0936 225.519 73.0936ZM66.6499 30.1495C58.3634 30.1495 51.6211 23.4066 51.6211 15.1207C51.6211 6.83467 58.364 0.0917969 66.6499 0.0917969C74.9359 0.0917969 81.6783 6.83467 81.6783 15.1207C81.6783 23.4066 74.9359 30.1495 66.6499 30.1495ZM66.6499 4.38545C60.7289 4.38545 55.9147 9.20171 55.9147 15.1207C55.9147 21.0396 60.7289 25.8559 66.6499 25.8559C72.5705 25.8559 77.3846 21.0396 77.3846 15.1207C77.3846 9.20171 72.5705 4.38545 66.6499 4.38545Z" fill="#3A3847"/><path d="M66.6499 38.7368C58.3634 38.7368 51.6211 31.9939 51.6211 23.7079C51.621 23.4259 51.6764 23.1467 51.7842 22.8861C51.892 22.6255 52.0502 22.3888 52.2495 22.1894C52.4489 21.9899 52.6856 21.8318 52.9462 21.7239C53.2067 21.616 53.4859 21.5605 53.7679 21.5605C54.0499 21.5604 54.3292 21.6159 54.5898 21.7237C54.8503 21.8316 55.0871 21.9898 55.2865 22.1892C55.4858 22.3886 55.644 22.6254 55.7518 22.886C55.8596 23.1466 55.915 23.4259 55.9147 23.7079C55.9147 29.6269 60.7289 34.4431 66.6499 34.4431C72.5705 34.4431 77.3846 29.6269 77.3846 23.7079C77.3845 23.4259 77.4399 23.1467 77.5477 22.8861C77.6556 22.6255 77.8137 22.3888 78.0131 22.1894C78.2124 21.9899 78.4491 21.8318 78.7097 21.7239C78.9702 21.616 79.2495 21.5605 79.5314 21.5605C79.8135 21.5604 80.0927 21.6159 80.3533 21.7237C80.6139 21.8316 80.8506 21.9898 81.05 22.1892C81.2494 22.3886 81.4075 22.6254 81.5153 22.886C81.6231 23.1466 81.6785 23.4259 81.6783 23.7079C81.6783 31.9939 74.9359 38.7368 66.6499 38.7368Z" fill="#3A3847"/><path d="M53.7679 25.8559C53.4859 25.8561 53.2066 25.8006 52.9461 25.6927C52.6855 25.5849 52.4488 25.4267 52.2494 25.2272C52.05 25.0278 51.8919 24.791 51.7841 24.5304C51.6763 24.2698 51.6209 23.9906 51.6211 23.7085V15.1207C51.621 14.8387 51.6764 14.5595 51.7842 14.2989C51.892 14.0383 52.0502 13.8016 52.2495 13.6022C52.4489 13.4027 52.6856 13.2446 52.9462 13.1367C53.2067 13.0288 53.4859 12.9733 53.7679 12.9733C54.0499 12.9732 54.3292 13.0286 54.5898 13.1365C54.8503 13.2444 55.0871 13.4026 55.2865 13.602C55.4858 13.8014 55.644 14.0382 55.7518 14.2988C55.8596 14.5594 55.915 14.8387 55.9147 15.1207V23.7085C55.915 23.9906 55.8597 24.2699 55.7519 24.5305C55.6441 24.7911 55.486 25.028 55.2866 25.2274C55.0872 25.4269 54.8504 25.585 54.5898 25.6929C54.3293 25.8007 54.0499 25.8561 53.7679 25.8559ZM79.532 25.8559C79.25 25.8561 78.9707 25.8006 78.7101 25.6927C78.4496 25.5849 78.2128 25.4267 78.0134 25.2272C77.8141 25.0278 77.6559 24.791 77.5481 24.5304C77.4403 24.2698 77.3849 23.9906 77.3852 23.7085V15.1207C77.385 14.8387 77.4404 14.5595 77.5483 14.2989C77.6561 14.0383 77.8142 13.8016 78.0136 13.6022C78.213 13.4027 78.4497 13.2446 78.7102 13.1367C78.9707 13.0288 79.25 12.9733 79.532 12.9733C79.814 12.9732 80.0933 13.0286 80.3538 13.1365C80.6144 13.2444 80.8511 13.4026 81.0505 13.602C81.2499 13.8014 81.408 14.0382 81.5158 14.2988C81.6236 14.5594 81.679 14.8387 81.6788 15.1207V23.7085C81.679 23.9906 81.6236 24.2698 81.5158 24.5304C81.408 24.791 81.2499 25.0278 81.0505 25.2272C80.8511 25.4267 80.6144 25.5849 80.3538 25.6927C80.0933 25.8006 79.814 25.8561 79.532 25.8559ZM66.6505 21.5617C66.3685 21.5619 66.0892 21.5066 65.8286 21.3987C65.568 21.2909 65.3312 21.1328 65.1318 20.9334C64.9324 20.734 64.7742 20.4973 64.6663 20.2367C64.5584 19.9762 64.503 19.6969 64.5031 19.4149V10.8265C64.503 10.5445 64.5584 10.2652 64.6663 10.0047C64.7742 9.74411 64.9324 9.50736 65.1318 9.30797C65.3312 9.10859 65.568 8.95047 65.8286 8.84266C66.0892 8.73486 66.3685 8.67948 66.6505 8.67969C66.9325 8.67955 67.2117 8.73498 67.4722 8.84282C67.7327 8.95066 67.9695 9.10879 68.1688 9.30816C68.3682 9.50754 68.5263 9.74426 68.6342 10.0048C68.742 10.2653 68.7975 10.5446 68.7973 10.8265V19.4144C68.7975 19.6964 68.7421 19.9757 68.6343 20.2362C68.5265 20.4968 68.3684 20.7336 68.169 20.9331C67.9696 21.1325 67.7329 21.2907 67.4723 21.3985C67.2118 21.5064 66.9325 21.5619 66.6505 21.5617ZM70.9441 37.9994C70.6622 37.9996 70.3829 37.9441 70.1224 37.8363C69.8619 37.7284 69.6252 37.5703 69.4258 37.3709C69.2264 37.1716 69.0683 36.9348 68.9604 36.6743C68.8526 36.4138 68.7972 36.1346 68.7973 35.8526V27.2647C68.7972 26.9828 68.8526 26.7036 68.9604 26.443C69.0683 26.1825 69.2264 25.9458 69.4258 25.7464C69.6252 25.547 69.8619 25.3889 70.1224 25.2811C70.3829 25.1732 70.6622 25.1178 70.9441 25.1179C71.2261 25.1177 71.5054 25.1731 71.7659 25.2809C72.0265 25.3887 72.2633 25.5468 72.4626 25.7462C72.662 25.9456 72.8202 26.1824 72.928 26.4429C73.0358 26.7035 73.0912 26.9828 73.091 27.2647V35.8526C73.0912 36.1346 73.0358 36.4138 72.928 36.6744C72.8202 36.935 72.662 37.1717 72.4626 37.3711C72.2633 37.5705 72.0265 37.7286 71.7659 37.8364C71.5054 37.9442 71.2261 37.9996 70.9441 37.9994ZM62.3644 37.9994C62.0824 37.9996 61.8032 37.9441 61.5426 37.8363C61.2821 37.7284 61.0454 37.5703 60.846 37.3709C60.6466 37.1716 60.4885 36.9348 60.3807 36.6743C60.2728 36.4138 60.2174 36.1346 60.2175 35.8526V27.2647C60.2174 26.9828 60.2728 26.7036 60.3807 26.443C60.4885 26.1825 60.6466 25.9458 60.846 25.7464C61.0454 25.547 61.2821 25.3889 61.5426 25.2811C61.8032 25.1732 62.0824 25.1178 62.3644 25.1179C62.6463 25.1177 62.9256 25.1731 63.1862 25.2809C63.4467 25.3887 63.6835 25.5468 63.8829 25.7462C64.0823 25.9456 64.2404 26.1824 64.3482 26.4429C64.456 26.7035 64.5114 26.9828 64.5112 27.2647V35.8526C64.5114 36.1346 64.456 36.4138 64.3482 36.6744C64.2404 36.935 64.0823 37.1717 63.8829 37.3711C63.6835 37.5705 63.4467 37.7286 63.1862 37.8364C62.9256 37.9442 62.6463 37.9996 62.3644 37.9994ZM120.317 61.6167C113.213 61.6167 107.435 55.8379 107.435 48.7346C107.435 41.6308 113.214 35.8526 120.317 35.8526C127.42 35.8526 133.198 41.6308 133.198 48.7346C133.198 55.8379 127.42 61.6167 120.317 61.6167ZM120.317 40.1468C115.583 40.1468 111.729 43.9984 111.729 48.7346C111.729 53.4709 115.583 57.3225 120.317 57.3225C125.051 57.3225 128.905 53.4709 128.905 48.7346C128.905 43.9979 125.051 40.1468 120.317 40.1468Z" fill="#3A3847"/><path d="M120.316 70.1996C113.212 70.1996 107.434 64.4209 107.434 57.3176C107.433 57.0355 107.489 56.7562 107.597 56.4957C107.705 56.2351 107.863 55.9983 108.062 55.7989C108.262 55.5994 108.498 55.4413 108.759 55.3334C109.02 55.2255 109.299 55.1701 109.581 55.1702C109.863 55.1701 110.142 55.2255 110.403 55.3334C110.663 55.4413 110.9 55.5994 111.099 55.7989C111.299 55.9983 111.457 56.2351 111.565 56.4957C111.673 56.7563 111.728 57.0356 111.728 57.3176C111.728 62.0538 115.582 65.9054 120.316 65.9054C125.05 65.9054 128.903 62.0538 128.903 57.3176C128.903 57.0356 128.959 56.7563 129.067 56.4958C129.174 56.2352 129.333 55.9985 129.532 55.799C129.731 55.5996 129.968 55.4414 130.229 55.3335C130.489 55.2256 130.768 55.1701 131.05 55.1702C131.332 55.1701 131.612 55.2255 131.872 55.3334C132.133 55.4413 132.369 55.5994 132.569 55.7989C132.768 55.9983 132.926 56.2351 133.034 56.4957C133.142 56.7563 133.197 57.0356 133.197 57.3176C133.197 64.4209 127.419 70.1996 120.316 70.1996ZM120.316 53.0277C120.034 53.0279 119.754 52.9725 119.494 52.8647C119.233 52.7569 118.997 52.5988 118.797 52.3994C118.598 52.2 118.44 51.9632 118.332 51.7027C118.224 51.4421 118.169 51.1628 118.169 50.8809V46.5824C118.169 46.3004 118.224 46.0211 118.332 45.7606C118.44 45.5 118.598 45.2633 118.797 45.0639C118.997 44.8645 119.233 44.7063 119.494 44.5985C119.754 44.4907 120.034 44.4353 120.316 44.4355C120.598 44.4354 120.877 44.4908 121.137 44.5987C121.398 44.7065 121.635 44.8646 121.834 45.064C122.033 45.2634 122.191 45.5001 122.299 45.7607C122.407 46.0212 122.463 46.3004 122.462 46.5824V50.8809C122.463 51.1628 122.407 51.4421 122.299 51.7026C122.191 51.9631 122.033 52.1998 121.834 52.3992C121.635 52.5986 121.398 52.7567 121.137 52.8646C120.877 52.9724 120.598 53.0278 120.316 53.0277Z" fill="#3A3847"/><path d="M131.05 59.4662C130.768 59.4663 130.489 59.4109 130.228 59.303C129.968 59.1951 129.731 59.0369 129.532 58.8375C129.332 58.6381 129.174 58.4013 129.066 58.1407C128.959 57.8801 128.903 57.6008 128.903 57.3188V48.7353C128.903 48.4533 128.959 48.174 129.067 47.9135C129.174 47.6529 129.333 47.4161 129.532 47.2167C129.731 47.0173 129.968 46.8591 130.229 46.7512C130.489 46.6433 130.768 46.5878 131.05 46.5879C131.332 46.5877 131.612 46.6432 131.872 46.7511C132.133 46.8589 132.369 47.0171 132.569 47.2166C132.768 47.416 132.926 47.6528 133.034 47.9134C133.142 48.174 133.197 48.4532 133.197 48.7353V57.3188C133.197 57.6008 133.142 57.8801 133.034 58.1407C132.926 58.4013 132.768 58.6381 132.569 58.8375C132.369 59.0369 132.133 59.1951 131.872 59.303C131.612 59.4109 131.332 59.4663 131.05 59.4662ZM109.581 59.4662C109.299 59.4664 109.02 59.411 108.759 59.3031C108.498 59.1953 108.262 59.0371 108.062 58.8377C107.863 58.6382 107.704 58.4014 107.597 58.1408C107.489 57.8802 107.433 57.6009 107.434 57.3188V48.7353C107.433 48.4532 107.489 48.1739 107.597 47.9133C107.705 47.6527 107.863 47.416 108.062 47.2165C108.262 47.0171 108.498 46.8589 108.759 46.7511C109.02 46.6432 109.299 46.5877 109.581 46.5879C109.863 46.5877 110.142 46.6432 110.403 46.7511C110.663 46.8589 110.9 47.0171 111.099 47.2166C111.299 47.416 111.457 47.6528 111.565 47.9134C111.673 48.174 111.728 48.4532 111.728 48.7353V57.3188C111.728 57.6008 111.673 57.8801 111.565 58.1407C111.457 58.4013 111.299 58.6381 111.099 58.8375C110.9 59.0369 110.663 59.1951 110.403 59.303C110.142 59.4109 109.863 59.4663 109.581 59.4662ZM120.316 70.2008C120.034 70.201 119.754 70.1457 119.494 70.0378C119.233 69.93 118.997 69.7719 118.797 69.5725C118.598 69.3731 118.44 69.1364 118.332 68.8758C118.224 68.6152 118.169 68.336 118.169 68.054V59.4705C118.169 59.1884 118.224 58.9092 118.332 58.6486C118.44 58.388 118.598 58.1512 118.797 57.9518C118.996 57.7523 119.233 57.5942 119.494 57.4863C119.754 57.3784 120.034 57.323 120.316 57.3231C120.598 57.323 120.877 57.3784 121.137 57.4863C121.398 57.5942 121.635 57.7523 121.834 57.9518C122.034 58.1512 122.192 58.388 122.299 58.6486C122.407 58.9092 122.463 59.1884 122.462 59.4705V68.054C122.463 68.336 122.407 68.6152 122.299 68.8757C122.191 69.1363 122.033 69.373 121.834 69.5724C121.635 69.7717 121.398 69.9299 121.137 70.0377C120.877 70.1455 120.598 70.201 120.316 70.2008Z" fill="#3A3847"/>
</svg>