<svg width="50" height="50" viewBox="0 0 50 50" fill="none" xmlns="http://www.w3.org/2000/svg"><g clip-path="url(#clip0_99_21784)"><path d="M27.7226 40.3398L19.2579 43.358L18.9369 44.4797C18.4812 46.0763 16.7498 47.3821 15.0898 47.3821V48.1366H32.6452L27.7226 40.3398Z" fill="#ADACA7"/><path d="M31.0616 44.4822L29.8785 40.3423L24.9993 37.3242L20.12 40.3423L19.2578 43.3604H27.7226L28.0435 44.4822C28.4993 46.0787 30.2307 47.3846 31.8906 47.3846L33.3997 48.1391L34.9087 47.3846C33.2488 47.3846 31.5174 46.0787 31.0616 44.4822Z" fill="#8F8F8B"/><path d="M43.9648 40.3405H46.983C48.6429 40.3405 50.0011 38.9824 50.0011 37.3224V31.2862L43.9648 25.25V40.3405Z" fill="#ADACA7"/><path d="M0 37.3235C0 38.9835 1.35815 40.3416 3.01811 40.3416H43.9638C45.6237 40.3416 46.9819 38.9835 46.9819 37.3235V19.2148L0 31.2873V37.3235Z" fill="#CBC9C2"/><path d="M46.983 1.10547H43.9648L46.983 31.2866H50.0011V4.12358C50.0011 2.46362 48.6429 1.10547 46.983 1.10547Z" fill="#404242"/><path d="M46.9819 4.12358C46.9819 2.46362 45.6237 1.10547 43.9638 1.10547H3.01811C1.35815 1.10547 0 2.46362 0 4.12358V31.2866H46.9819V28.2684L25 16.1947L46.9819 4.12358Z" fill="#565959"/><path d="M46.9819 4.12321L43.9644 4.12109C43.9644 4.1216 25 16.1948 25 16.1948C25 16.1948 43.964 28.2684 43.9638 28.2686L46.9818 28.2666C46.9819 28.2666 46.9816 4.12361 46.9819 4.12321Z" fill="#4B88D5"/><path d="M43.9652 4.12331L3.02838 4.12109C3.02587 4.1223 3.02376 28.2682 3.01953 28.2687L43.9642 28.2667C43.9647 28.2667 43.961 4.12371 43.9652 4.12331Z" fill="#69A7FF"/><path d="M25.0012 37.3228C25.8347 37.3228 26.5103 36.6472 26.5103 35.8137C26.5103 34.9803 25.8347 34.3047 25.0012 34.3047C24.1678 34.3047 23.4922 34.9803 23.4922 35.8137C23.4922 36.6472 24.1678 37.3228 25.0012 37.3228Z" fill="white"/><path d="M40.594 48.8919H9.40687C8.99017 48.8919 8.65234 48.5541 8.65234 48.1373C8.65234 47.7205 8.99017 47.3828 9.40687 47.3828H40.594C41.0107 47.3828 41.3485 47.7205 41.3485 48.1373C41.3485 48.5541 41.0107 48.8919 40.594 48.8919Z" fill="#8F8F8B"/></g><defs><clipPath id="clip0_99_21784"><rect width="50" height="50" fill="white"/></clipPath></defs></svg>