<svg width="25" height="25" viewBox="0 0 25 25" fill="none" xmlns="http://www.w3.org/2000/svg"><g clip-path="url(#clip0_386_5029)"><path d="M15.4637 17.4277H15.9442C16.7932 17.4277 17.4814 16.7394 17.4814 15.8905C17.4814 15.0415 16.7932 14.3532 15.9442 14.3532H12.5021L7.69607 12.5868C6.10718 13.7998 5.08203 15.7137 5.08203 17.8671C5.08203 21.5337 8.05444 24.5061 11.7211 24.5061H16.2844C16.2844 24.4724 16.2835 24.4389 16.2818 24.4055C16.2438 23.582 15.7421 22.8798 15.0318 22.5535H15.4637V17.4277ZM19.4015 8.03648C19.6375 8.08131 19.8773 8.10381 20.1175 8.1037C22.2205 8.1037 23.9253 6.39892 23.9253 4.29599C23.9253 2.19306 22.2205 0.488281 20.1175 0.488281C18.4595 0.488281 17.0489 1.54804 16.5263 3.02719L19.4015 8.03648Z" fill="#A7BDCD"/><path d="M20.1168 6.05289C21.0874 6.05289 21.8742 5.26608 21.8742 4.29549C21.8742 3.3249 21.0874 2.53809 20.1168 2.53809C19.1462 2.53809 18.3594 3.3249 18.3594 4.29549C18.3594 5.26608 19.1462 6.05289 20.1168 6.05289Z" fill="white"/><path d="M5.60188 8.03648C5.36584 8.08131 5.1261 8.10381 4.88583 8.1037C2.7829 8.1037 1.07812 6.39892 1.07812 4.29599C1.07812 2.19306 2.7829 0.488281 4.88583 0.488281C6.5439 0.488281 7.95446 1.54804 8.47704 3.02719L5.60188 8.03648Z" fill="#A7BDCD"/><path d="M4.88631 6.05289C5.8569 6.05289 6.64371 5.26608 6.64371 4.29549C6.64371 3.3249 5.8569 2.53809 4.88631 2.53809C3.91572 2.53809 3.12891 3.3249 3.12891 4.29549C3.12891 5.26608 3.91572 6.05289 4.88631 6.05289Z" fill="white"/><path d="M12.501 14.3534C16.3114 14.3534 19.4004 11.5555 19.4004 8.10397C19.4004 4.65248 16.3114 1.85449 12.501 1.85449C8.69054 1.85449 5.60156 4.65248 5.60156 8.10397C5.60156 11.5555 8.69054 14.3534 12.501 14.3534Z" fill="#A7BDCD"/><path d="M12.5007 10.9354C11.8121 10.9354 11.2539 10.3772 11.2539 9.68864V8.89522C11.2539 8.20666 11.8121 7.64844 12.5007 7.64844C13.1892 7.64844 13.7475 8.20666 13.7475 8.89522V9.68864C13.7475 10.3772 13.1892 10.9354 12.5007 10.9354Z" fill="#6D92AC"/><path d="M21.1048 6.70609L19.6574 6.30105C19.2493 6.18682 18.8259 6.4251 18.7116 6.83326L16.5699 14.4865C17.1062 14.7265 17.4801 15.2644 17.4801 15.89C17.4801 16.739 16.7919 17.4272 15.9429 17.4272H15.7469L14.3125 22.553H15.0304C15.7407 22.8793 16.2425 23.5815 16.2805 24.4051C16.2822 24.4384 16.283 24.4719 16.283 24.5057H16.2515C16.6191 24.5473 16.973 24.3184 17.0759 23.9507L21.637 7.65196C21.7513 7.2438 21.5129 6.82032 21.1048 6.70609Z" fill="#89DF8F"/><path d="M19.6518 15.1885C19.6518 15.1885 19.0195 16.5028 17.5892 16.9176C16.7461 17.162 16.2246 18.0283 16.4261 18.8826C16.7249 20.1498 18.2744 19.8915 18.2744 19.8915C18.2744 19.8915 21.5903 19.3873 19.6518 15.1885Z" fill="#A7BDCD"/><path d="M9.40223 6.63867C9.27384 6.63867 9.1479 6.69091 9.0571 6.78175C8.9663 6.8725 8.91406 6.99845 8.91406 7.12684C8.91406 7.25523 8.9663 7.38118 9.0571 7.47197C9.1479 7.56277 9.27384 7.61501 9.40223 7.61501C9.53062 7.61501 9.65657 7.56282 9.74737 7.47197C9.83816 7.38118 9.8904 7.25523 9.8904 7.12684C9.8904 6.99845 9.83816 6.8725 9.74737 6.78175C9.65562 6.69051 9.53162 6.63911 9.40223 6.63867ZM15.602 6.63867C15.4736 6.63867 15.3476 6.69091 15.2568 6.78175C15.166 6.8725 15.1138 6.99845 15.1138 7.12684C15.1138 7.25523 15.166 7.38118 15.2568 7.47197C15.3476 7.56277 15.4736 7.61501 15.602 7.61501C15.7303 7.61501 15.8563 7.56282 15.9471 7.47197C16.0379 7.38118 16.0901 7.25523 16.0901 7.12684C16.0901 6.99845 16.0379 6.8725 15.9471 6.78175C15.8554 6.69051 15.7313 6.63911 15.602 6.63867ZM12.5021 7.15945C11.5454 7.15945 10.7671 7.93774 10.7671 8.8944V9.68782C10.7671 10.6445 11.5454 11.4228 12.5021 11.4228C13.4588 11.4228 14.237 10.6445 14.237 9.68782V8.8944C14.237 7.93774 13.4587 7.15945 12.5021 7.15945ZM13.2607 9.68782C13.2607 10.1061 12.9204 10.4464 12.5021 10.4464C12.0838 10.4464 11.7435 10.1061 11.7435 9.68782V8.8944C11.7435 8.47614 12.0838 8.13579 12.5021 8.13579C12.9204 8.13579 13.2607 8.47614 13.2607 8.8944V9.68782Z" fill="black"/><path d="M20.1166 0C18.4972 0 17.0292 0.913801 16.2997 2.32422C15.156 1.69614 13.8576 1.36599 12.5011 1.36599C11.1135 1.36599 9.81397 1.71684 8.70358 2.32622C7.97446 0.914631 6.5058 0 4.88572 0C2.51698 0 0.589844 1.92714 0.589844 4.29588C0.589844 6.66461 2.51698 8.59175 4.88572 8.59175C4.96803 8.59149 5.05032 8.58889 5.13249 8.58394C5.25033 10.1021 5.9223 11.4829 6.96429 12.5589C6.06831 13.361 5.39127 14.3706 4.99238 15.5087C4.9032 15.7632 5.0372 16.0417 5.29158 16.1309C5.34347 16.1491 5.39807 16.1585 5.45307 16.1585C5.65463 16.1585 5.84331 16.0326 5.91375 15.8317C6.26958 14.8165 6.88238 13.9197 7.69532 13.2164C8.98809 14.2287 10.6676 14.8413 12.5011 14.8413H15.9432C16.5217 14.8413 16.9923 15.3119 16.9923 15.8903C16.9923 16.4688 16.5216 16.9394 15.9432 16.9394H15.0396C14.7699 16.9394 14.5514 17.158 14.5514 17.4276C14.5514 17.6972 14.7699 17.9158 15.0396 17.9158H15.1037L14.6576 19.5096C14.2707 18.3794 13.1986 17.5643 11.939 17.5643C11.6694 17.5643 11.4508 17.7829 11.4508 18.0524C11.4508 18.322 11.6694 18.5406 11.939 18.5406C12.985 18.5406 13.8359 19.3916 13.8359 20.4375C13.8359 20.9983 13.5964 21.5146 13.1748 21.8757H12.6482C12.3786 21.8757 12.16 22.0943 12.16 22.3638C12.16 22.6334 12.3786 22.852 12.6482 22.852H14.1352C14.8806 22.852 15.5128 23.3459 15.7218 24.0236H11.7201C9.09665 24.0236 6.75936 22.3585 5.90409 19.8802C5.81612 19.6254 5.53821 19.49 5.28338 19.578C5.02851 19.666 4.89324 19.9439 4.98116 20.1988C5.97228 23.0705 8.68044 25 11.7201 25L16.3374 25C16.8944 25 17.3943 24.6258 17.5463 24.0826L18.6002 20.3167C19.0348 20.1951 19.92 19.8448 20.4115 18.9316C20.949 17.9326 20.8423 16.6045 20.0942 14.9843C20.0939 14.9835 20.0934 14.9829 20.0931 14.9822L22.0035 8.15543C22.7267 7.80291 23.3361 7.25403 23.7621 6.57152C24.1881 5.88901 24.4135 5.10042 24.4125 4.29588C24.4124 1.92714 22.4853 0 20.1166 0ZM5.1339 7.60536C5.05133 7.61177 4.96854 7.61512 4.88572 7.61542C3.05534 7.61542 1.56618 6.12626 1.56618 4.29588C1.56618 2.46549 3.05534 0.976336 4.88572 0.976336C6.16819 0.976336 7.32798 1.71767 7.87633 2.85383C7.57135 3.07751 7.28442 3.32481 7.01818 3.59345C6.7225 2.6983 5.8786 2.0503 4.88572 2.0503C3.64753 2.0503 2.64015 3.05769 2.64015 4.29588C2.64015 5.53407 3.64753 6.54145 4.88572 6.54145C5.03627 6.54145 5.18331 6.52622 5.32566 6.49785C5.22814 6.86041 5.16396 7.23112 5.1339 7.60536ZM4.88572 5.56511C4.18588 5.56511 3.61648 4.99576 3.61648 4.29588C3.61648 3.59599 4.18588 3.02664 4.88572 3.02664C5.58556 3.02664 6.15496 3.59599 6.15496 4.29588C6.15496 4.99576 5.58556 5.56511 4.88572 5.56511ZM16.6128 12.5231C15.4617 13.3889 14.0058 13.8649 12.5011 13.8649C8.96592 13.8649 6.08983 11.2804 6.08983 8.10359C6.08983 4.92683 8.96592 2.34228 12.5011 2.34228C15.2082 2.34228 17.6417 3.90241 18.5422 6.17327C18.4001 6.32212 18.2969 6.50376 18.2419 6.70205L16.6128 12.5231ZM16.6411 23.6943C16.3825 22.9035 15.7594 22.2766 14.9712 22.0123L15.9018 18.6869C15.9105 18.7893 15.9259 18.8922 15.9502 18.995C16.1713 19.9329 16.9073 20.2879 17.5688 20.3794L16.6411 23.6943ZM19.5561 18.4606C19.1387 19.2471 18.2069 19.4082 18.2003 19.4093L18.1934 19.4104C18.1486 19.418 17.0922 19.5842 16.9005 18.771C16.7611 18.1799 17.1306 17.559 17.7243 17.3868C18.5546 17.1461 19.1474 16.6471 19.5322 16.2092C19.8383 17.1414 19.8483 17.9101 19.5561 18.4606ZM21.1672 7.52076L18.9782 15.3431C18.9779 15.344 18.9778 15.345 18.9775 15.346C18.7729 15.6227 18.4297 15.9961 17.9352 16.2542C17.9568 16.1361 17.9686 16.0146 17.9686 15.8903C17.9686 15.2214 17.6425 14.6275 17.1411 14.2585L19.1821 6.96523C19.1918 6.92986 19.2085 6.8968 19.2312 6.86794C19.2539 6.83908 19.282 6.815 19.3141 6.7971C19.346 6.77901 19.3812 6.76743 19.4176 6.76305C19.454 6.75866 19.491 6.76156 19.5263 6.77157L20.9736 7.1766C21.0449 7.19664 21.1053 7.24413 21.1416 7.30865C21.1779 7.37317 21.1871 7.44945 21.1672 7.52076ZM18.8473 4.29588C18.8473 3.59599 19.4167 3.02664 20.1166 3.02664C20.8164 3.02664 21.3858 3.59599 21.3858 4.29588C21.3858 4.99576 20.8164 5.56511 20.1166 5.56511C19.4167 5.56511 18.8473 4.99576 18.8473 4.29588ZM22.0654 6.98436C21.9263 6.63347 21.6316 6.34877 21.2418 6.23791C21.911 5.84864 22.3621 5.12415 22.3621 4.29588C22.3621 3.05769 21.3547 2.0503 20.1165 2.0503C19.1245 2.0503 18.2812 2.69718 17.9849 3.59106C17.719 3.32197 17.4323 3.07433 17.1275 2.85046C17.6765 1.7162 18.8354 0.976336 20.1166 0.976336C21.9469 0.976336 23.4361 2.46549 23.4361 4.29588C23.4361 5.37741 22.9157 6.36888 22.0654 6.98436Z" fill="black"/><path d="M5.08192 18.3552C4.95353 18.3552 4.82758 18.3031 4.73678 18.2122C4.64598 18.1214 4.59375 17.9955 4.59375 17.8671C4.59375 17.7387 4.64598 17.6127 4.73678 17.522C4.82758 17.4312 4.95353 17.3789 5.08192 17.3789C5.21031 17.3789 5.33625 17.4311 5.42705 17.522C5.51827 17.6137 5.56966 17.7377 5.57009 17.8671C5.57009 17.9955 5.51785 18.1214 5.42705 18.2122C5.3353 18.3034 5.2113 18.3548 5.08192 18.3552Z" fill="black"/></g><defs><clipPath id="clip0_386_5029"><rect width="25" height="25" fill="white"/></clipPath></defs></svg>