<svg width="25" height="25" viewBox="0 0 25 25" fill="none" xmlns="http://www.w3.org/2000/svg"><path d="M20.9939 16.6385L22.8316 16.6275C23.1818 16.6254 23.4675 16.9076 23.4697 17.258L23.4914 20.9069C23.4935 21.2571 23.2113 21.5428 22.8609 21.5449L21.0233 21.5559C20.673 21.558 20.3873 21.2758 20.3852 20.9254L20.3634 17.2765C20.3613 16.9262 20.6436 16.6406 20.9939 16.6385ZM2.29375 16.7498L4.1314 16.7388C4.48166 16.7367 4.76734 17.0189 4.76947 17.3693L4.79117 21.0182C4.79323 21.3685 4.51101 21.6542 4.16068 21.6563L2.32303 21.6673C1.97277 21.6694 1.68709 21.3871 1.68496 21.0368L1.6632 17.3879C1.66113 17.0376 1.94342 16.7519 2.29375 16.7498ZM23.0828 7.75131C23.0088 7.7583 22.9401 7.79285 22.8904 7.84811C22.8406 7.90337 22.8134 7.9753 22.8142 8.04966C22.8325 8.19503 22.7969 8.34206 22.7141 8.46298C22.6314 8.5839 22.5072 8.67034 22.3651 8.70597L21.908 8.70879L22.1427 9.39395C22.1427 9.39395 25.0861 9.37627 24.998 8.40951C24.9298 7.6592 23.6523 7.6967 23.0828 7.75131ZM1.91715 7.75131C1.99118 7.7583 2.05988 7.79285 2.10963 7.84811C2.15938 7.90337 2.18656 7.9753 2.18577 8.04966C2.16751 8.19503 2.2031 8.34206 2.28584 8.46298C2.36858 8.5839 2.49274 8.67034 2.63486 8.70597L3.09203 8.70879L2.85726 9.39395C2.85726 9.39395 -0.0860995 9.37627 0.0019362 8.40951C0.0701576 7.6592 1.34768 7.6967 1.91715 7.75131Z" fill="#2F4859"/><path d="M24.3411 13.4925C24.2861 12.7735 24.0782 12.0746 23.7313 11.4424L22.4906 9.16706C22.4906 9.16706 20.2876 4.20145 19.3698 3.80629C18.4824 3.42418 12.8183 3.33827 12.4431 3.33301H12.4223C12.047 3.34291 6.38447 3.49648 5.5018 3.88912C4.58871 4.29513 2.44393 9.28583 2.44393 9.28583L1.23156 11.576C0.892402 12.2122 0.692871 12.9135 0.646289 13.633C0.561025 15.2223 0.732244 16.815 1.15337 18.3499C1.24985 18.7019 1.4601 19.0121 1.75134 19.232C2.04258 19.452 2.39844 19.5695 2.76341 19.566L12.5188 19.5096H12.5395L22.2949 19.4516C22.6598 19.4506 23.0142 19.3288 23.3027 19.1054C23.5912 18.8819 23.7977 18.5693 23.89 18.2162C24.2932 16.6761 24.4455 15.0811 24.3411 13.4925Z" fill="#FE7058"/><path d="M7.75534 16.4435L17.2618 16.3867C17.3434 16.3862 17.422 16.4182 17.4801 16.4756C17.5382 16.533 17.5711 16.6112 17.5716 16.6928L17.5812 18.3115C17.5817 18.3932 17.5497 18.4717 17.4923 18.5298C17.4349 18.5879 17.3568 18.6209 17.2751 18.6214L7.7687 18.6781C7.68702 18.6786 7.6085 18.6466 7.5504 18.5892C7.4923 18.5318 7.45938 18.4537 7.45888 18.372L7.44922 16.7533C7.44874 16.6716 7.48072 16.5931 7.53813 16.535C7.59553 16.4769 7.67367 16.444 7.75534 16.4435Z" fill="#3A556A"/><path d="M19.5479 4.55528C19.4993 4.44934 19.4218 4.35926 19.3243 4.29535C19.2268 4.23143 19.1133 4.19628 18.9967 4.19392L12.4964 4.06055H12.476L5.97761 4.27148C5.86116 4.27529 5.74814 4.31181 5.65149 4.37686C5.55484 4.44191 5.47845 4.53286 5.43108 4.6393L3.56641 8.83354L12.5035 8.78018H12.524L21.4624 8.72681L19.5479 4.55528Z" fill="#2F4859"/><path d="M21.6659 16.1133C21.0393 16.1169 20.5343 16.6278 20.538 17.2544C20.5416 17.881 21.0524 18.386 21.679 18.3824C22.3056 18.3787 22.8106 17.8679 22.807 17.2413V17.2407C22.8031 16.6144 22.2923 16.1097 21.6659 16.1133ZM3.44799 16.2222C2.8214 16.2259 2.31651 16.737 2.32033 17.3635C2.3241 17.9901 2.83513 18.495 3.46173 18.4912C4.08832 18.4874 4.59315 17.9764 4.58939 17.3499C4.58556 16.7233 4.07459 16.2184 3.44799 16.2222Z" fill="#EBF0F3"/><path d="M8.25391 13.5654H16.5283V14.5983H8.25391V13.5654Z" fill="#3A556A"/><path d="M23.2557 11.9416C23.2486 11.8794 23.2284 11.8194 23.1963 11.7656C23.1643 11.7118 23.1211 11.6655 23.0697 11.6297C23.0183 11.5939 22.9599 11.5695 22.8983 11.5581C22.8367 11.5467 22.7734 11.5486 22.7126 11.5636L18.9287 12.4888C18.8724 12.5026 18.8195 12.5274 18.7728 12.5617C18.7261 12.596 18.6867 12.6392 18.6567 12.6888L17.9071 13.9295C17.8668 13.9962 17.8449 14.0724 17.8438 14.1503C17.8426 14.2283 17.8622 14.3051 17.9005 14.373C17.9388 14.4408 17.9945 14.4973 18.0618 14.5366C18.1291 14.5759 18.2056 14.5966 18.2835 14.5966H21.9806C22.0671 14.5973 22.1518 14.5726 22.2244 14.5256C23.0965 13.948 23.3695 13.0483 23.2557 11.9416Z" fill="#E1E6E9"/><path d="M21.4632 12.2927C21.0058 12.3114 20.65 12.6974 20.6688 13.1549C20.6875 13.6124 21.0735 13.9681 21.531 13.9494C21.9884 13.9307 22.3442 13.5447 22.3255 13.0873C22.3067 12.6298 21.9207 12.2741 21.4632 12.2927ZM19.7068 13.0839C19.3589 13.0979 19.0881 13.3913 19.1021 13.7393C19.1161 14.0872 19.4095 14.358 19.7575 14.344C20.1054 14.33 20.3762 14.0365 20.3622 13.6886V13.6881C20.3479 13.3403 20.0546 13.0699 19.7068 13.0839Z" fill="#BDBEC1"/><path d="M1.74323 11.9416C1.75027 11.8794 1.7705 11.8194 1.80257 11.7656C1.83465 11.7118 1.87782 11.6655 1.92922 11.6297C1.98061 11.5939 2.03905 11.5695 2.10063 11.5581C2.16221 11.5467 2.22551 11.5486 2.28631 11.5636L6.07021 12.4888C6.12647 12.5026 6.17946 12.5274 6.22613 12.5617C6.27281 12.596 6.31225 12.6392 6.34222 12.6888L7.09184 13.9295C7.13213 13.9962 7.15397 14.0724 7.15512 14.1503C7.15627 14.2283 7.13669 14.3051 7.09839 14.373C7.06009 14.4408 7.00444 14.4973 6.93714 14.5366C6.86984 14.5759 6.7933 14.5966 6.71537 14.5966H3.01831C2.93185 14.5973 2.8471 14.5726 2.77452 14.5256C1.90231 13.948 1.62942 13.0483 1.74323 11.9416Z" fill="#E1E6E9"/><path d="M3.53487 12.2927C3.99236 12.3114 4.34807 12.6974 4.32933 13.1549C4.31064 13.6124 3.92457 13.9681 3.46709 13.9494C3.00967 13.9307 2.65395 13.5447 2.67257 13.0873C2.69145 12.6298 3.07739 12.2741 3.53487 12.2927ZM5.29132 13.0839C5.63926 13.0979 5.91002 13.3913 5.89603 13.7393C5.88205 14.0872 5.5886 14.358 5.24066 14.344C4.89272 14.33 4.62196 14.0365 4.63595 13.6886V13.6881C4.65018 13.3403 4.94351 13.0699 5.29132 13.0839Z" fill="#BDBEC1"/></svg>