<svg width="24" height="24" viewBox="0 0 24 24" fill="none" xmlns="http://www.w3.org/2000/svg"><path d="M11.9994 1.71387C7.74573 1.71387 4.28516 5.15649 4.28516 9.38809C4.28516 15.6929 11.2316 21.849 11.5274 22.108C11.6623 22.2261 11.8308 22.2853 11.9994 22.2853C12.1681 22.2853 12.3366 22.2262 12.4716 22.108C12.7672 21.8491 19.7137 15.693 19.7137 9.38809C19.7137 5.15649 16.2532 1.71387 11.9994 1.71387ZM11.9994 20.6014C10.4637 19.1215 5.71374 14.1578 5.71374 9.38809C5.71374 5.93986 8.53351 3.13447 11.9994 3.13447C15.4654 3.13447 18.2851 5.93986 18.2851 9.38809C18.2851 14.1577 13.5352 19.1214 11.9994 20.6014Z" fill="#888F9F"/><path d="M11.9994 5.81311C10.0301 5.81311 8.42805 7.41684 8.42805 9.38809C8.42805 11.3594 10.0301 12.9631 11.9994 12.9631C13.9687 12.9631 15.5708 11.3594 15.5708 9.38809C15.5708 7.41684 13.9687 5.81311 11.9994 5.81311ZM11.9994 11.5425C10.8178 11.5425 9.85657 10.576 9.85657 9.38809C9.85657 8.20022 10.8178 7.23371 11.9994 7.23371C13.181 7.23371 14.1423 8.20015 14.1423 9.38809C14.1423 10.576 13.181 11.5425 11.9994 11.5425Z" fill="#888F9F"/></svg>