<svg width="100" height="100" viewBox="0 0 100 100" fill="none" xmlns="http://www.w3.org/2000/svg"><path d="M49.9987 94.7917C25.2904 94.7917 5.20703 74.7084 5.20703 50C5.20703 25.2917 25.2904 5.20837 49.9987 5.20837C74.707 5.20837 94.7904 25.2917 94.7904 50C94.7904 74.7084 74.707 94.7917 49.9987 94.7917ZM49.9987 11.4584C28.7487 11.4584 11.457 28.75 11.457 50C11.457 71.25 28.7487 88.5417 49.9987 88.5417C71.2487 88.5417 88.5404 71.25 88.5404 50C88.5404 28.75 71.2487 11.4584 49.9987 11.4584Z" fill="black"/><path d="M49.9987 57.2917C48.2904 57.2917 46.8737 55.875 46.8737 54.1667V33.3334C46.8737 31.625 48.2904 30.2084 49.9987 30.2084C51.707 30.2084 53.1237 31.625 53.1237 33.3334V54.1667C53.1237 55.875 51.707 57.2917 49.9987 57.2917ZM49.9987 70.8334C49.457 70.8334 48.9154 70.7084 48.4154 70.5C47.9154 70.2917 47.457 70 47.0404 69.625C46.6654 69.2084 46.3737 68.7917 46.1654 68.25C45.957 67.75 45.832 67.2084 45.832 66.6667C45.832 66.125 45.957 65.5834 46.1654 65.0834C46.3737 64.5834 46.6654 64.125 47.0404 63.7084C47.457 63.3334 47.9154 63.0417 48.4154 62.8334C49.4298 62.4166 50.5676 62.4166 51.582 62.8334C52.082 63.0417 52.5404 63.3334 52.957 63.7084C53.332 64.125 53.6237 64.5834 53.832 65.0834C54.0404 65.5834 54.1654 66.125 54.1654 66.6667C54.1654 67.2084 54.0404 67.75 53.832 68.25C53.6237 68.7917 53.332 69.2084 52.957 69.625C52.5404 70 52.082 70.2917 51.582 70.5C51.082 70.7084 50.5404 70.8334 49.9987 70.8334Z" fill="black"/></svg>