<svg width="50" height="50" viewBox="0 0 50 50" fill="none" xmlns="http://www.w3.org/2000/svg"><g clip-path="url(#clip0_400_4599)"><path d="M7.22656 23.7304C7.22656 23.7304 20.07 19.9218 21.9727 10.0585C21.9727 10.0585 26.2695 23.6059 38.0859 23.5351C38.0859 23.5351 22.8516 25.8788 21.9727 41.3085C21.9727 41.3085 22.7539 25.4882 7.22656 23.7304ZM1.46484 8.68262C1.46484 8.68262 6.01699 7.33272 6.69131 3.83691C6.69131 3.83691 8.21426 8.63848 12.4023 8.61338C12.4023 8.61338 7.00283 9.44404 6.69131 14.9128C6.69131 14.9129 6.96816 9.30566 1.46484 8.68262ZM32.7148 38.2392C32.7148 38.2392 39.096 36.3469 40.0412 31.4465C40.0412 31.4465 42.1761 38.1772 48.0469 38.1421C48.0469 38.1421 40.4779 39.3065 40.0412 46.9726C40.0412 46.9726 40.4294 39.1125 32.7148 38.2392Z" fill="#FFDA8F"/><path d="M31.4453 39.1602C35.7531 39.1602 39.2578 42.6648 39.2578 46.9727C39.2578 47.5119 39.6951 47.9492 40.2344 47.9492C40.7736 47.9492 41.2109 47.5119 41.2109 46.9727C41.2109 42.6648 44.7156 39.1602 49.0234 39.1602C49.5627 39.1602 50 38.7229 50 38.1836C50 37.6443 49.5627 37.207 49.0234 37.207C44.7156 37.207 41.2109 33.7023 41.2109 29.3945C41.2109 28.8553 40.7736 28.418 40.2344 28.418C39.6951 28.418 39.2578 28.8553 39.2578 29.3945C39.2578 33.7023 35.7531 37.207 31.4453 37.207C30.9061 37.207 30.4688 37.6443 30.4688 38.1836C30.4688 38.7229 30.9061 39.1602 31.4453 39.1602ZM40.2344 33.6495C41.193 35.6216 42.7963 37.2249 44.7685 38.1836C42.7964 39.1422 41.1931 40.7455 40.2344 42.7177C39.2758 40.7456 37.6725 39.1423 35.7003 38.1836C37.676 37.2215 39.2723 35.6252 40.2344 33.6495ZM0.976562 9.86328C3.66895 9.86328 5.85938 12.0537 5.85938 14.7461C5.85938 15.2854 6.29658 15.7227 6.83594 15.7227C7.37529 15.7227 7.8125 15.2854 7.8125 14.7461C7.8125 12.0537 10.0029 9.86328 12.6953 9.86328C13.2347 9.86328 13.6719 9.42598 13.6719 8.88672C13.6719 8.34746 13.2347 7.91016 12.6953 7.91016C10.0029 7.91016 7.8125 5.71973 7.8125 3.02734C7.8125 2.48809 7.37529 2.05078 6.83594 2.05078C6.29658 2.05078 5.85938 2.48809 5.85938 3.02734C5.85938 5.71973 3.66895 7.91016 0.976562 7.91016C0.437207 7.91016 0 8.34746 0 8.88672C0 9.42598 0.437207 9.86328 0.976562 9.86328ZM6.83594 6.54531C7.41449 7.50446 8.21812 8.30813 9.17725 8.88672C8.21808 9.46525 7.41443 10.2689 6.83594 11.2281C6.25739 10.269 5.45375 9.46531 4.49463 8.88672C5.45375 8.30813 6.25739 7.50446 6.83594 6.54531Z" fill="black"/><path d="M27.2461 29.6875C27.7854 29.6875 28.2227 29.2503 28.2227 28.7109C28.2227 28.1716 27.7854 27.7344 27.2461 27.7344C26.7068 27.7344 26.2695 28.1716 26.2695 28.7109C26.2695 29.2503 26.7068 29.6875 27.2461 29.6875Z" fill="black"/><path d="M29.8514 26.4838C30.1265 26.9476 30.7258 27.1005 31.1896 26.8252C33.7401 25.3117 36.6651 24.5117 39.6484 24.5117C40.1877 24.5117 40.625 24.0744 40.625 23.5352C40.625 22.9959 40.1877 22.5586 39.6484 22.5586C30.4943 22.5586 23.0469 15.1111 23.0469 5.95703C23.0469 5.41777 22.6097 4.98047 22.0703 4.98047C21.531 4.98047 21.0938 5.41777 21.0938 5.95703C21.0938 15.1111 13.6463 22.5586 4.49219 22.5586C3.95283 22.5586 3.51562 22.9959 3.51562 23.5352C3.51562 24.0744 3.95283 24.5117 4.49219 24.5117C13.6463 24.5117 21.0938 31.9592 21.0938 41.1133C21.0938 41.6525 21.531 42.0898 22.0703 42.0898C22.6097 42.0898 23.0469 41.6525 23.0469 41.1133C23.0469 38.13 23.8469 35.205 25.3604 32.6544C25.6355 32.1905 25.4827 31.5914 25.0189 31.3162C24.5548 31.0407 23.9559 31.1938 23.6808 31.6576C23.0223 32.7676 22.4823 33.9437 22.0696 35.1665C20.2188 29.7099 15.8938 25.3855 10.437 23.5352C15.8944 21.6846 20.2197 17.3593 22.0703 11.9019C23.9207 17.3587 28.245 21.6836 33.7016 23.5345C32.4787 23.9472 31.3027 24.4872 30.1927 25.1456C29.729 25.4209 29.5761 26.0199 29.8514 26.4838Z" fill="black"/></g><defs><clipPath id="clip0_400_4599"><rect width="50" height="50" fill="white"/></clipPath></defs></svg>