<svg width="30" height="30" viewBox="0 0 30 30" fill="none" xmlns="http://www.w3.org/2000/svg"><rect x="0.5" y="0.5" width="29" height="29" rx="14.5" stroke="white"/><path d="M15 11.918C13.2973 11.918 11.918 13.298 11.918 15C11.918 16.7026 13.2973 18.0826 15 18.0826C16.7013 18.0826 18.082 16.7026 18.082 15C18.082 13.298 16.7013 11.918 15 11.918ZM15 17.0026C13.894 17.0026 12.9973 16.106 12.9973 15.0006C12.9973 13.8946 13.894 12.9986 15 12.9986C16.106 12.9986 17.0013 13.8946 17.0013 15.0006C17.0013 16.106 16.106 17.0026 15 17.0026Z" fill="white"/><path d="M18.203 12.5233C18.6 12.5233 18.9217 12.2015 18.9217 11.8046C18.9217 11.4077 18.6 11.0859 18.203 11.0859C17.8061 11.0859 17.4844 11.4077 17.4844 11.8046C17.4844 12.2015 17.8061 12.5233 18.203 12.5233Z" fill="white"/><path d="M20.6873 11.0741C20.3747 10.2681 19.738 9.63075 18.932 9.31942C18.466 9.14408 17.9733 9.05008 17.4747 9.03942C16.8327 9.01142 16.6293 9.00342 15.0013 9.00342C13.3733 9.00342 13.1647 9.00342 12.528 9.03942C12.0307 9.04942 11.538 9.14342 11.072 9.31942C10.2653 9.63075 9.62867 10.2681 9.31667 11.0741C9.14133 11.5408 9.04733 12.0328 9.03733 12.5314C9.00867 13.1728 9 13.3761 9 15.0048C9 16.6328 9 16.8401 9.03733 17.4781C9.04733 17.9768 9.14133 18.4688 9.31667 18.9361C9.62933 19.7414 10.266 20.3788 11.0727 20.6908C11.5367 20.8721 12.0293 20.9748 12.5293 20.9908C13.1713 21.0188 13.3747 21.0274 15.0027 21.0274C16.6307 21.0274 16.8393 21.0274 17.476 20.9908C17.974 20.9808 18.4667 20.8861 18.9333 20.7114C19.7393 20.3988 20.376 19.7621 20.6887 18.9561C20.864 18.4894 20.958 17.9974 20.968 17.4988C20.9967 16.8574 21.0053 16.6541 21.0053 15.0254C21.0053 13.3968 21.0053 13.1901 20.968 12.5521C20.9593 12.0468 20.866 11.5461 20.6873 11.0741ZM19.8753 17.4288C19.8707 17.8128 19.8013 18.1934 19.668 18.5541C19.4647 19.0788 19.0507 19.4934 18.5267 19.6948C18.17 19.8274 17.794 19.8968 17.4133 19.9021C16.78 19.9314 16.6013 19.9388 14.9773 19.9388C13.352 19.9388 13.186 19.9388 12.5407 19.9021C12.1613 19.8974 11.784 19.8274 11.428 19.6948C10.902 19.4941 10.4853 19.0794 10.282 18.5541C10.1513 18.1981 10.0807 17.8214 10.0747 17.4414C10.046 16.8081 10.0393 16.6294 10.0393 15.0054C10.0393 13.3808 10.0393 13.2148 10.0747 12.5688C10.0793 12.1848 10.1487 11.8048 10.282 11.4441C10.4853 10.9181 10.902 10.5041 11.428 10.3028C11.784 10.1708 12.1613 10.1008 12.5407 10.0954C13.1747 10.0668 13.3527 10.0588 14.9773 10.0588C16.602 10.0588 16.7687 10.0588 17.4133 10.0954C17.794 10.1001 18.17 10.1701 18.5267 10.3028C19.0507 10.5048 19.4647 10.9194 19.668 11.4441C19.7987 11.8001 19.8693 12.1768 19.8753 12.5568C19.904 13.1908 19.9113 13.3688 19.9113 14.9934C19.9113 16.6174 19.9113 16.7921 19.8827 17.4294H19.8753V17.4288Z" fill="white"/></svg>