<svg width="50" height="50" viewBox="0 0 50 50" fill="none" xmlns="http://www.w3.org/2000/svg"><g clip-path="url(#clip0_400_4742)"><path fill-rule="evenodd" clip-rule="evenodd" d="M48.0566 8.75C46.7676 5.00977 44.3457 2.44141 40.7812 1.04492C35.6445 7.22656 30.752 13.4473 26.084 22.0898C22.6465 28.4668 22.998 31.4355 16.123 30.9863C13.2617 30.8008 10.5078 31.4453 7.91992 32.7832C3.05664 35.293 0.830078 37.8906 0.78125 39.8047C11.709 41.6113 19.6875 41.9238 24.7266 40.7324C33.2422 38.7207 41.7383 13.0371 44.082 22.8711C44.2285 23.4863 44.3359 24.2676 44.4043 25.2051L47.207 22.4023C47.373 20.1758 47.627 18.1055 47.9688 16.2109C48.0957 15.5078 48.2324 14.8145 48.3789 14.1406C48.7793 12.2559 48.6816 10.5566 48.0566 8.75Z" fill="#FD91BA"/><path fill-rule="evenodd" clip-rule="evenodd" d="M25.5 23.2129C22.6582 28.8184 22.5801 31.416 16.125 30.9961C15.0313 30.9277 13.9473 30.9766 12.8828 31.1426C15.8223 33.8965 18.9863 34.6777 21.8672 33.6816C27.2285 31.8164 28.7617 26.1719 30.4219 21.4355C32.3164 16.0352 35.0117 9.11133 37.6094 4.92188C34.4063 8.92578 31.3105 13.1445 28.3027 18.1836C27.5605 19.4336 26.8184 20.7422 26.0762 22.0996C25.8809 22.4805 25.6855 22.8516 25.5 23.2129Z" fill="#FC76A8"/><path fill-rule="evenodd" clip-rule="evenodd" d="M48.6621 16.2695C47.373 12.5293 44.9512 9.96094 41.3867 8.56445C36.25 14.7461 31.3477 20.9668 26.6895 29.6094C23.252 35.9863 23.6035 38.9551 16.7285 38.5059C13.8672 38.3203 11.1133 38.9648 8.52539 40.3027C3.67188 42.8027 1.43555 45.4102 1.38672 47.3145C12.3047 49.1211 20.2832 49.4336 25.332 48.2422C33.8477 46.2305 42.3438 20.5469 44.6875 30.3809C45.3223 33.0371 45.2148 38.6719 44.2383 47.7246C45.5078 48.0273 47.4023 48.0273 47.9688 47.7246C47.2949 38.2617 47.4316 30.0391 48.5742 23.7109C48.7012 23.0078 48.8379 22.3145 48.9844 21.6406C49.3848 19.7754 49.2773 18.0762 48.6621 16.2695Z" fill="#FC76A8"/><path fill-rule="evenodd" clip-rule="evenodd" d="M26.1055 30.7227C23.2637 36.3281 23.1855 38.9258 16.7305 38.5059C15.6367 38.4375 14.5527 38.4863 13.4883 38.6523C16.4277 41.4062 19.5918 42.1875 22.4727 41.1914C27.834 39.3262 29.3672 33.6816 31.0273 28.9453C32.9219 23.5449 35.6172 16.6211 38.2148 12.4316C35.0117 16.4355 31.916 20.6543 28.9082 25.6934C28.166 26.9434 27.4238 28.252 26.6816 29.6094C26.4766 29.9902 26.291 30.3613 26.1055 30.7227Z" fill="#FC5C96"/><path fill-rule="evenodd" clip-rule="evenodd" d="M47.0234 25.9375C46.1152 26.4355 45.2754 27.0801 44.4844 27.8613C44.2793 28.0664 44.084 28.2812 43.8789 28.5059C44.0938 28.7402 44.2793 29.0918 44.4551 29.5605C44.543 29.7949 44.6113 30.0684 44.6895 30.3613C45.1289 32.2168 45.2168 35.498 44.8945 40.3809C44.7578 42.5098 44.5332 44.9512 44.2402 47.7051C45.5098 48.0078 47.4043 48.0078 47.9707 47.7051C47.3555 39.043 47.4238 31.416 48.3125 25.332C47.8633 25.5176 47.4336 25.7129 47.0234 25.9375Z" fill="#FFD54F"/><path fill-rule="evenodd" clip-rule="evenodd" d="M48.2131 21.475C48.0667 22.1586 47.9299 22.8617 47.803 23.5746C46.719 29.6 46.4944 37.5297 47.1487 47.1293C46.6506 47.1879 45.8499 47.1879 45.0979 47.0902C46.0061 38.516 46.1233 32.9887 45.4592 30.2055C45.303 29.5707 44.844 27.6371 43.4182 27.393C41.4846 27.0707 39.6194 29.8441 36.2112 35.1762C32.9592 40.2641 28.926 46.5922 25.1565 47.4809C20.3518 48.6137 12.6663 48.3402 2.29518 46.6703C2.77369 45.2348 4.67799 43.1547 8.88697 40.9965C10.3225 40.2543 11.7776 39.7563 13.2522 39.4828C15.4006 41.3969 17.7346 42.3832 20.0491 42.3832C20.9573 42.3832 21.8557 42.227 22.7444 41.9242C28.0374 40.0883 29.8245 34.9027 31.387 30.3324C31.5237 29.9516 31.6506 29.5707 31.7776 29.1996C33.5745 24.0727 36.2698 17.0805 38.8674 12.8813C39.7854 11.7289 40.7131 10.6059 41.6213 9.50235C44.3362 10.6938 46.26 12.6176 47.471 15.3422C47.471 15.352 47.471 15.3617 47.4807 15.3715C47.6467 15.7426 47.7932 16.1234 47.9299 16.5141C48.4866 18.184 48.5842 19.7563 48.2131 21.475ZM1.68971 39.1605C3.71119 39.4828 5.65455 39.7563 7.46119 39.9809C7.69557 39.8539 7.92018 39.727 8.16432 39.6098C9.844 38.7406 11.5725 38.1742 13.301 37.891C13.3401 37.8813 13.3792 37.8813 13.4085 37.8715C14.5315 37.7055 15.6448 37.6469 16.7776 37.725C21.3284 38.0277 22.2561 36.9145 23.8381 33.643C23.301 33.9457 22.7346 34.1996 22.1292 34.4145C21.2405 34.7172 20.3421 34.8734 19.4436 34.8734C17.1292 34.8734 14.7952 33.8871 12.6467 31.973C11.1721 32.2465 9.71705 32.7445 8.2815 33.4867C4.08229 35.6449 2.16822 37.725 1.68971 39.1605ZM16.0745 31.7777C15.6741 31.7484 15.2639 31.7484 14.8635 31.7582C17.0901 33.3012 19.3948 33.7211 21.6116 32.9496C23.1155 32.432 24.3753 31.5629 25.4495 30.2934C25.6155 29.9516 25.801 29.6098 25.9963 29.2484C26.7288 27.9008 27.4612 26.6117 28.1936 25.3715C28.594 24.3656 28.9456 23.3305 29.2971 22.3148C29.4338 21.934 29.5608 21.5531 29.6975 21.182C30.6448 18.4672 31.846 15.2445 33.1546 12.1586C30.9963 15.2348 28.8479 18.6234 26.7776 22.4711C26.1038 23.7211 25.5764 24.8344 25.1077 25.8207C23.1741 29.9223 22.1096 32.1781 16.0745 31.7777ZM27.3733 29.9906C26.6995 31.2406 26.1721 32.3539 25.7034 33.3402C23.7796 37.432 22.7053 39.6879 16.6702 39.2875C16.2698 39.2582 15.8694 39.2582 15.469 39.2582C17.6956 40.8012 20.0003 41.2211 22.2171 40.4496C26.7874 38.8578 28.3694 34.268 29.9026 29.8246C30.0296 29.4438 30.1663 29.0629 30.2932 28.682C31.2503 25.9672 32.4417 22.7445 33.7503 19.6684C31.5921 22.7543 29.4534 26.1332 27.3733 29.9906ZM41.0159 2.00235C40.1077 3.0961 39.1897 4.21914 38.262 5.38125C36.0061 9.01406 33.6917 14.7465 31.9338 19.5414C34.8928 15.2445 37.8811 11.5434 40.7717 8.0668C40.9866 7.81289 41.3381 7.71524 41.6604 7.84219C44.2776 8.86758 46.3284 10.5082 47.803 12.7348C47.9104 11.475 47.7542 10.2738 47.3147 9.01406C46.1624 5.65469 44.1018 3.35 41.0159 2.00235ZM49.3948 16.016C49.2776 15.6547 49.1409 15.3129 48.9944 14.9711C49.0432 14.7465 49.0823 14.5121 49.1311 14.2875C49.5706 12.2758 49.4534 10.4398 48.7893 8.49649C47.4319 4.55117 44.8245 1.79727 41.0549 0.322658C40.7424 0.205471 40.3811 0.293361 40.1663 0.547267C35.3128 6.38711 30.176 12.8324 25.3811 21.7191C24.6878 22.9984 24.1506 24.141 23.6721 25.1469C21.7776 29.1703 21.1331 30.5277 16.1526 30.2055C15.0198 30.1273 13.8967 30.1859 12.7835 30.352C11.0061 30.6254 9.25807 31.2016 7.53932 32.0805C2.79322 34.5219 0.0393159 37.3246 -0.0192778 39.766C-0.0290435 40.1566 0.244394 40.4887 0.635019 40.557C2.23658 40.8207 3.79908 41.0551 5.28346 41.2602C2.30494 43.2621 0.625253 45.3813 0.576425 47.2758C0.56666 47.6664 0.840097 47.9984 1.23072 48.0668C7.82252 49.1605 13.4085 49.7074 17.9202 49.7074C20.9182 49.7074 23.4475 49.4633 25.4885 48.9848C29.8733 47.9496 33.926 41.602 37.5003 35.9965C38.7991 33.9555 40.0393 32.0219 41.094 30.684C42.5295 28.8676 43.0667 28.8969 43.135 28.9066C43.2717 28.9262 43.6233 29.2973 43.9163 30.5375C44.551 33.184 44.3948 38.9359 43.4475 47.6176C43.4085 48.0082 43.6624 48.3695 44.0432 48.4574C45.2346 48.7406 47.4417 48.848 48.3206 48.3891C48.594 48.2426 48.7503 47.9496 48.7307 47.6469C48.0374 37.8813 48.2424 29.8637 49.3264 23.8285C49.4534 23.1352 49.5901 22.4418 49.7366 21.7777C50.176 19.7953 50.0686 17.9594 49.3948 16.016Z" fill="black"/></g><defs><clipPath id="clip0_400_4742"><rect width="50" height="50" fill="white"/></clipPath></defs></svg>