<svg width="50" height="50" viewBox="0 0 50 50" fill="none" xmlns="http://www.w3.org/2000/svg"><path d="M10.8333 40H43.3333V46.6667H10.8333C8.99333 46.6667 7.5 45.1733 7.5 43.3333C7.5 41.4933 8.99333 40 10.8333 40Z" fill="#D4DDEE"/><path d="M5.83203 43.1413V6.66634C5.83203 3.44134 8.44036 0.833008 11.6654 0.833008L12.4987 1.66634V36.6663L11.6654 38.333L5.83203 43.1413Z" fill="#1E719B"/><path d="M44.1641 2.49967V38.333H11.6641V0.833008H42.4974C43.4141 0.833008 44.1641 1.58301 44.1641 2.49967Z" fill="#23B0E2"/><path d="M9.16536 43.4667C9.24036 44.8167 10.4487 45.8334 11.7987 45.8334H43.332C43.7904 45.8334 44.1654 46.2084 44.1654 46.6667V48.3334C44.1654 48.7917 43.7904 49.1667 43.332 49.1667H11.907C8.65703 49.1667 5.8487 46.5667 5.83203 43.3334V43.1417C5.88203 41.6 6.5237 40.225 7.54036 39.2084C8.08093 38.6651 8.72381 38.2345 9.43184 37.9412C10.1399 37.648 10.899 37.498 11.6654 37.5H44.1654V40C44.1654 40.4584 43.7904 40.8334 43.332 40.8334H11.6654C10.2404 40.8334 9.0987 42.0167 9.16536 43.4667Z" fill="#1F97C1"/><path d="M28.7474 9.16667C29.898 9.16667 30.8307 8.23393 30.8307 7.08333C30.8307 5.93274 29.898 5 28.7474 5C27.5968 5 26.6641 5.93274 26.6641 7.08333C26.6641 8.23393 27.5968 9.16667 28.7474 9.16667Z" fill="white"/><path d="M25.3981 15.446C25.4298 15.351 25.4456 15.251 25.4456 15.151C25.4456 14.5527 24.8873 14.0977 24.3064 14.2402C23.9523 14.3268 23.6398 14.4368 23.4114 14.526C23.3608 14.5464 23.3064 14.5563 23.2518 14.5549C23.1972 14.5535 23.1434 14.541 23.0938 14.518C23.0443 14.495 22.9999 14.4622 22.9635 14.4214C22.9271 14.3807 22.8995 14.3329 22.8823 14.281L22.5173 13.1852C22.4871 13.0964 22.4892 12.9999 22.5232 12.9126C22.5572 12.8253 22.6209 12.7527 22.7031 12.7077C23.3073 12.3735 24.8056 11.666 26.6573 11.666H26.7298C28.7039 11.686 30.1139 13.5968 29.6348 15.5127L27.9581 21.2193C27.9265 21.3145 27.9105 21.4141 27.9106 21.5143C27.9106 22.1127 28.4689 22.5677 29.0498 22.4252C29.4039 22.3385 29.7164 22.2285 29.9448 22.1393C29.9954 22.1189 30.0498 22.1091 30.1044 22.1105C30.159 22.1119 30.2128 22.1244 30.2623 22.1474C30.3119 22.1703 30.3563 22.2032 30.3927 22.244C30.4291 22.2847 30.4567 22.3325 30.4739 22.3843L30.8389 23.4802C30.8691 23.5689 30.867 23.6654 30.833 23.7528C30.799 23.8401 30.7353 23.9127 30.6531 23.9577C30.0489 24.2918 28.5506 24.9993 26.6989 24.9993H26.6264C24.6523 24.9793 23.2423 23.0685 23.7214 21.1527L25.3981 15.446Z" fill="white"/><path d="M34.9974 29.1667H19.9974C19.7764 29.1667 19.5644 29.0789 19.4081 28.9226C19.2519 28.7663 19.1641 28.5543 19.1641 28.3333C19.1641 28.1123 19.2519 27.9004 19.4081 27.7441C19.5644 27.5878 19.7764 27.5 19.9974 27.5H34.9974C35.2184 27.5 35.4304 27.5878 35.5867 27.7441C35.7429 27.9004 35.8307 28.1123 35.8307 28.3333C35.8307 28.5543 35.7429 28.7663 35.5867 28.9226C35.4304 29.0789 35.2184 29.1667 34.9974 29.1667ZM31.6641 33.3333H23.3307C23.1097 33.3333 22.8978 33.2455 22.7415 33.0893C22.5852 32.933 22.4974 32.721 22.4974 32.5C22.4974 32.279 22.5852 32.067 22.7415 31.9107C22.8978 31.7545 23.1097 31.6667 23.3307 31.6667H31.6641C31.8851 31.6667 32.097 31.7545 32.2533 31.9107C32.4096 32.067 32.4974 32.279 32.4974 32.5C32.4974 32.721 32.4096 32.933 32.2533 33.0893C32.097 33.2455 31.8851 33.3333 31.6641 33.3333Z" fill="#2682BC"/></svg>