<svg width="28" height="28" viewBox="0 0 28 28" fill="none" xmlns="http://www.w3.org/2000/svg"><path d="M12.8076 4C7.9512 4 4 7.9512 4 12.8076C4 17.6642 7.9512 21.6151 12.8076 21.6151C17.6642 21.6151 21.6151 17.6642 21.6151 12.8076C21.6151 7.9512 17.6642 4 12.8076 4ZM12.8076 19.9891C8.84768 19.9891 5.62601 16.7675 5.62601 12.8076C5.62601 8.84772 8.84768 5.62601 12.8076 5.62601C16.7674 5.62601 19.9891 8.84768 19.9891 12.8076C19.9891 16.7674 16.7674 19.9891 12.8076 19.9891Z" fill="white"/><path d="M23.7618 22.6121L19.1005 17.9509C18.7829 17.6333 18.2686 17.6333 17.9509 17.9509C17.6333 18.2682 17.6333 18.7832 17.9509 19.1005L22.6122 23.7617C22.771 23.9205 22.9789 23.9999 23.187 23.9999C23.3948 23.9999 23.603 23.9205 23.7618 23.7617C24.0794 23.4444 24.0794 22.9295 23.7618 22.6121Z" fill="white"/></svg>