
<svg width="35" height="35" viewBox="0 0 35 35" fill="none" xmlns="http://www.w3.org/2000/svg"><path d="M20.9297 22.9381L21.7898 23.7986L22.7954 24.7989L23.1828 25.1891L25.1892 23.1813L22.9395 20.9282L20.9297 22.9381Z" fill="#5D6D7E"/><path d="M27.2339 23.168L34.1576 30.0913C34.6785 30.6107 35.0017 31.3317 34.9995 32.1247C34.9995 32.919 34.6784 33.6393 34.1576 34.1608C33.6382 34.6796 32.919 34.9996 32.1246 34.9996C31.747 35.0004 31.373 34.9265 31.0241 34.7823C30.6751 34.638 30.3581 34.4262 30.0913 34.1591L23.168 27.235L27.2339 23.168Z" fill="#FF8E31"/><path d="M26.2773 24.1247L26.8399 23.561L33.7643 30.4854C34.2015 30.9229 34.4419 31.5048 34.4416 32.1241C34.4416 32.7452 34.2004 33.3281 33.7643 33.7663C33.6887 33.8397 33.5876 33.8809 33.4822 33.8813C33.3762 33.8815 33.2745 33.8398 33.1991 33.7653C33.0449 33.609 33.0449 33.3588 33.1991 33.2037C33.4878 32.916 33.6457 32.5307 33.6457 32.1231C33.6466 31.9235 33.6077 31.7256 33.5314 31.5411C33.4551 31.3566 33.3429 31.1891 33.2012 31.0484L26.2773 24.1247Z" fill="#FECE59"/><path d="M23.1681 27.2351L27.2344 23.1677L26.9311 22.8637C26.838 22.7697 26.7272 22.6953 26.605 22.6446C26.4829 22.5938 26.3518 22.5679 26.2196 22.5683C25.9396 22.5683 25.6886 22.6794 25.5073 22.8623L22.8631 25.508C22.7692 25.6011 22.6948 25.712 22.6441 25.8341C22.5935 25.9563 22.5676 26.0873 22.568 26.2195C22.5679 26.3514 22.5938 26.482 22.6445 26.6038C22.6951 26.7255 22.7694 26.8361 22.8631 26.9289L23.1681 27.2351ZM0 12.9991C0 5.821 5.82032 0 12.9999 0C20.1802 0 26.0001 5.82135 26.0001 12.9991C26.0001 20.1794 20.1795 25.9994 12.9999 26.0011C5.82032 25.9994 0 20.1792 0 12.9991Z" fill="#34495E"/><path d="M12.9992 24.5923C19.4 24.5923 24.5917 19.4025 24.5917 12.9987C24.5917 6.59864 19.4001 1.40723 12.9992 1.40723C6.59732 1.40736 1.40625 6.59844 1.40625 12.9989C1.40625 19.4025 6.59732 24.5923 12.9992 24.5923Z" fill="#5D6D7E"/><path d="M13.001 23.6647C18.8899 23.6647 23.6654 18.891 23.6654 12.9991C23.6654 7.11157 18.8897 2.33496 13.001 2.33496C7.11221 2.33496 2.33594 7.11157 2.33594 12.9991C2.33594 18.8906 7.11098 23.6647 13.001 23.6647Z" fill="#CEE2F2"/><path d="M13.2804 4.0857C13.0988 3.81622 12.7866 3.64751 12.443 3.66706C10.9709 3.75648 9.57964 4.17108 8.30829 4.90922C7.86068 5.17104 7.70714 5.74799 7.96793 6.19773C8.22865 6.64186 8.80636 6.7999 9.25261 6.53563C10.2667 5.95061 11.3767 5.61824 12.5535 5.54654C13.0704 5.5196 13.4681 5.07369 13.436 4.5571C13.4301 4.37807 13.37 4.21708 13.2804 4.0857ZM7.24202 7.17759C7.19199 7.10253 7.1267 7.03287 7.05513 6.97354C6.6514 6.64329 6.05941 6.70755 5.73299 7.11094C4.77227 8.29041 4.1111 9.70552 3.8192 11.2115C3.47392 13.0002 3.65452 14.8316 4.34037 16.5097C4.54026 16.9934 5.09041 17.2205 5.5703 17.0228C6.05155 16.8278 6.28082 16.2797 6.08374 15.796C5.53687 14.4578 5.39495 12.9963 5.6727 11.5687C5.89986 10.3665 6.428 9.23774 7.19431 8.29643C7.46077 7.96871 7.46782 7.50886 7.24202 7.17759Z" fill="white"/></svg>
