<svg width="50" height="50" viewBox="0 0 50 50" fill="none" xmlns="http://www.w3.org/2000/svg"><path d="M42.3594 22.3076V31.1436C42.3584 31.5888 42.2696 32.0295 42.0983 32.4405C41.9269 32.8515 41.6763 33.2247 41.3608 33.5388C41.0452 33.8529 40.6708 34.1018 40.2591 34.2713C39.8473 34.4407 39.4062 34.5274 38.9609 34.5264H8.6875C7.789 34.526 6.9272 34.1699 6.2904 33.5361C5.65361 32.9022 5.2936 32.042 5.28906 31.1436V22.3076H42.3594Z" fill="#DD636E"/><path d="M38.9594 35.3072H8.68906C7.58272 35.3085 6.52108 34.8707 5.73717 34.09C4.95326 33.3093 4.51112 32.2495 4.50781 31.1432V22.3057C4.50781 22.0985 4.59012 21.8997 4.73664 21.7532C4.88315 21.6067 5.08186 21.5244 5.28906 21.5244H42.3578C42.565 21.5244 42.7637 21.6067 42.9102 21.7532C43.0568 21.8997 43.1391 22.0985 43.1391 22.3057V31.1432C43.1358 32.2492 42.6938 33.3088 41.9103 34.0895C41.1267 34.8701 40.0654 35.3081 38.9594 35.3072ZM6.06875 23.0885V31.1432C6.07206 31.8354 6.34979 32.498 6.84101 32.9857C7.33224 33.4734 7.99685 33.7464 8.68906 33.7447H38.9594C39.651 33.7456 40.3149 33.4722 40.8054 32.9846C41.296 32.497 41.5733 31.8348 41.5766 31.1432V23.0869L6.06875 23.0885Z" fill="black"/><path d="M25.1445 3.54375V19.6672H22.5039V3.54375C22.5204 3.2047 22.6667 2.88498 22.9125 2.65085C23.1583 2.41673 23.4848 2.28613 23.8242 2.28613C24.1637 2.28613 24.4901 2.41673 24.7359 2.65085C24.9817 2.88498 25.128 3.2047 25.1445 3.54375Z" fill="#E7ECF1"/><path d="M25.1445 20.4482H22.5039C22.2967 20.4482 22.098 20.3659 21.9515 20.2194C21.805 20.0729 21.7227 19.8742 21.7227 19.667V3.54355C21.7436 3.00021 21.9742 2.4861 22.366 2.10909C22.7579 1.73208 23.2805 1.52148 23.8242 1.52148C24.368 1.52148 24.8906 1.73208 25.2824 2.10909C25.6742 2.4861 25.9048 3.00021 25.9258 3.54355V19.667C25.9258 19.8742 25.8435 20.0729 25.697 20.2194C25.5504 20.3659 25.3517 20.4482 25.1445 20.4482ZM23.2852 18.8857H24.3633V3.55137C24.3633 3.48422 24.3491 3.41784 24.3216 3.35658C24.2941 3.29533 24.2539 3.2406 24.2037 3.19602C24.1535 3.15143 24.0944 3.11799 24.0304 3.0979C23.9663 3.07781 23.8987 3.07154 23.832 3.07949C23.764 3.07187 23.6951 3.07853 23.6298 3.09904C23.5645 3.11955 23.5042 3.15346 23.4527 3.19861C23.4012 3.24375 23.3597 3.29914 23.3309 3.36122C23.302 3.42331 23.2865 3.49073 23.2852 3.55918V18.8857Z" fill="black"/><path d="M41.2195 19.6674V10.7518L34.0273 3.54395H25.1445V19.6674H41.2195Z" fill="#DD636E"/><path d="M41.2227 20.4486H25.1445C24.9373 20.4486 24.7386 20.3663 24.5921 20.2198C24.4456 20.0733 24.3633 19.8746 24.3633 19.6674V3.54395C24.3633 3.33675 24.4456 3.13803 24.5921 2.99152C24.7386 2.84501 24.9373 2.7627 25.1445 2.7627H34.0289C34.1317 2.76255 34.2335 2.78277 34.3285 2.82219C34.4234 2.86161 34.5096 2.91946 34.582 2.99238L41.7742 10.2002C41.9208 10.3464 42.0034 10.5447 42.0039 10.7518V19.6674C42.0039 19.8746 41.9216 20.0733 41.7751 20.2198C41.6286 20.3663 41.4299 20.4486 41.2227 20.4486ZM25.9258 18.8861H40.4414V11.0752L33.707 4.3252H25.9258V18.8861Z" fill="black"/><path d="M44.3516 20.9951C44.352 21.1676 44.3183 21.3385 44.2525 21.4979C44.1867 21.6573 44.09 21.8022 43.9681 21.9241C43.8461 22.0461 43.7012 22.1427 43.5418 22.2085C43.3824 22.2744 43.2115 22.308 43.0391 22.3076H4.60938C4.25921 22.3076 3.92338 22.1685 3.67577 21.9209C3.42817 21.6733 3.28906 21.3375 3.28906 20.9873C3.28906 20.6371 3.42817 20.3013 3.67577 20.0537C3.92338 19.8061 4.25921 19.667 4.60938 19.667H43.0375C43.2112 19.667 43.3831 19.7014 43.5434 19.7684C43.7037 19.8353 43.8491 19.9334 43.9711 20.0569C44.0932 20.1805 44.1896 20.327 44.2546 20.488C44.3196 20.6491 44.3536 20.8214 44.3516 20.9951Z" fill="#E7ECF1"/><path d="M43.0391 23.0869H4.60938C4.05201 23.0869 3.51747 22.8655 3.12335 22.4714C2.72923 22.0773 2.50781 21.5427 2.50781 20.9854C2.50781 20.428 2.72923 19.8934 3.12335 19.4993C3.51747 19.1052 4.05201 18.8838 4.60938 18.8838H43.0375C43.5949 18.8838 44.1294 19.1052 44.5235 19.4993C44.9177 19.8934 45.1391 20.428 45.1391 20.9854C45.1391 21.5427 44.9177 22.0773 44.5235 22.4714C44.1294 22.8655 43.5964 23.0869 43.0391 23.0869ZM4.60938 20.4463C4.46641 20.4463 4.32929 20.5031 4.2282 20.6042C4.12711 20.7053 4.07031 20.8424 4.07031 20.9854C4.07031 21.1283 4.12711 21.2654 4.2282 21.3665C4.32929 21.4676 4.46641 21.5244 4.60938 21.5244H43.0375C43.1805 21.5244 43.3176 21.4676 43.4187 21.3665C43.5198 21.2654 43.5766 21.1283 43.5766 20.9854C43.5766 20.8424 43.5198 20.7053 43.4187 20.6042C43.3176 20.5031 43.1805 20.4463 43.0375 20.4463H4.60938Z" fill="black"/><path d="M25.1451 20.4484C25.0099 20.447 24.8773 20.4107 24.7602 20.3431C24.6431 20.2755 24.5454 20.1788 24.4765 20.0624C24.4077 19.946 24.3701 19.8138 24.3674 19.6785C24.3646 19.5433 24.3968 19.4097 24.4608 19.2905L33.3451 3.16555C33.4489 2.99138 33.6163 2.86437 33.812 2.81136C34.0077 2.75835 34.2163 2.78349 34.3938 2.88147C34.5713 2.97944 34.7038 3.14259 34.7632 3.33642C34.8226 3.53026 34.8044 3.73961 34.7123 3.92024L27.1373 17.6687L40.8436 10.0687C40.9334 10.0177 41.0325 9.98502 41.1351 9.97258C41.2376 9.96014 41.3416 9.96816 41.4411 9.99618C41.5405 10.0242 41.6334 10.0717 41.7144 10.1358C41.7953 10.2 41.8628 10.2796 41.9128 10.37C41.9628 10.4604 41.9944 10.5598 42.0057 10.6625C42.017 10.7652 42.0079 10.8691 41.9788 10.9682C41.9496 11.0674 41.9012 11.1597 41.8361 11.24C41.7711 11.3203 41.6908 11.3868 41.5998 11.4359L25.5233 20.3499C25.4076 20.4142 25.2775 20.4481 25.1451 20.4484Z" fill="black"/><path d="M15.1562 43.6729C15.1562 44.7461 14.7299 45.7755 13.9709 46.5344C13.212 47.2934 12.1827 47.7197 11.1094 47.7197C10.0361 47.7197 9.00674 47.2934 8.2478 46.5344C7.48887 45.7755 7.0625 44.7461 7.0625 43.6729C7.0625 42.5996 7.48887 41.5702 8.2478 40.8113C9.00674 40.0523 10.0361 39.626 11.1094 39.626C12.1827 39.626 13.212 40.0523 13.9709 40.8113C14.7299 41.5702 15.1562 42.5996 15.1562 43.6729ZM40.5906 43.6729C40.5906 44.7461 40.1643 45.7755 39.4053 46.5344C38.6464 47.2934 37.617 47.7197 36.5438 47.7197C35.4705 47.7197 34.4411 47.2934 33.6822 46.5344C32.9232 45.7755 32.4969 44.7461 32.4969 43.6729C32.4969 42.5996 32.9232 41.5702 33.6822 40.8113C34.4411 40.0523 35.4705 39.626 36.5438 39.626C37.617 39.626 38.6464 40.0523 39.4053 40.8113C40.1643 41.5702 40.5906 42.5996 40.5906 43.6729Z" fill="#454045"/><path d="M11.1094 48.4574C9.84048 48.4576 8.62347 47.9538 7.72608 47.0567C6.82869 46.1596 6.32443 44.9427 6.32422 43.6738C6.32401 42.4049 6.82788 41.1879 7.72498 40.2905C8.62208 39.3931 9.83892 38.8889 11.1078 38.8887C12.3767 38.8885 13.5937 39.3923 14.4911 40.2894C15.3885 41.1865 15.8928 42.4034 15.893 43.6723C15.8932 44.9412 15.3893 46.1582 14.4922 47.0556C13.5951 47.9529 12.3783 48.4572 11.1094 48.4574ZM11.1 40.4512C10.6769 40.4524 10.2582 40.537 9.86776 40.7C9.47733 40.8631 9.12284 41.1014 8.82454 41.4015C8.52623 41.7015 8.28994 42.0574 8.12916 42.4487C7.96839 42.8401 7.88627 43.2593 7.8875 43.6824C7.88873 44.1055 7.97329 44.5242 8.13634 44.9147C8.29939 45.3051 8.53774 45.6596 8.83779 45.9579C9.13784 46.2562 9.49371 46.4925 9.88508 46.6533C10.2764 46.814 10.6956 46.8962 11.1188 46.8949C11.5419 46.8937 11.9606 46.8091 12.351 46.6461C12.7414 46.483 13.0959 46.2447 13.3942 45.9446C13.6925 45.6446 13.9288 45.2887 14.0896 44.8973C14.2504 44.506 14.3325 44.0868 14.3312 43.6637C14.33 43.2406 14.2455 42.8219 14.0824 42.4314C13.9194 42.041 13.681 41.6865 13.381 41.3882C13.0809 41.0899 12.725 40.8536 12.3337 40.6928C11.9423 40.5321 11.5231 40.4499 11.1 40.4512Z" fill="black"/><path d="M12.8047 43.6681C12.7913 44.1078 12.6073 44.525 12.2915 44.8313C11.9758 45.1376 11.5532 45.3089 11.1133 45.3089C10.6734 45.3089 10.2508 45.1376 9.93504 44.8313C9.6193 44.525 9.43524 44.1078 9.42188 43.6681C9.43524 43.2284 9.6193 42.8112 9.93504 42.5049C10.2508 42.1986 10.6734 42.0273 11.1133 42.0273C11.5532 42.0273 11.9758 42.1986 12.2915 42.5049C12.6073 42.8112 12.7913 43.2284 12.8047 43.6681ZM38.225 43.6681C38.2116 44.1078 38.0276 44.525 37.7118 44.8313C37.3961 45.1376 36.9735 45.3089 36.5336 45.3089C36.0937 45.3089 35.6711 45.1376 35.3554 44.8313C35.0396 44.525 34.8556 44.1078 34.8422 43.6681C34.8556 43.2284 35.0396 42.8112 35.3554 42.5049C35.6711 42.1986 36.0937 42.0273 36.5336 42.0273C36.9735 42.0273 37.3961 42.1986 37.7118 42.5049C38.0276 42.8112 38.2116 43.2284 38.225 43.6681Z" fill="#E7ECF1"/><path d="M11.1134 46.1169C10.7783 46.1267 10.4449 46.0662 10.1346 45.9393C9.82428 45.8125 9.54394 45.6222 9.31158 45.3805C9.07922 45.1389 8.89999 44.8513 8.78539 44.5363C8.6708 44.2213 8.62339 43.8858 8.64619 43.5513C8.69032 42.9151 8.97846 42.3206 9.45048 41.8917C9.92249 41.4629 10.5419 41.233 11.1794 41.2499C11.8169 41.2668 12.4232 41.5293 12.8718 41.9826C13.3204 42.4359 13.5765 43.0449 13.5868 43.6826C13.591 44.0067 13.5295 44.3284 13.4062 44.6281C13.2828 44.9279 13.1002 45.1997 12.8691 45.4271C12.6381 45.6545 12.3634 45.8328 12.0617 45.9514C11.76 46.0699 11.4374 46.1262 11.1134 46.1169ZM11.1134 42.7826C10.8784 42.7826 10.6531 42.8759 10.4869 43.0421C10.3208 43.2082 10.2274 43.4335 10.2274 43.6685C10.2274 43.9035 10.3208 44.1288 10.4869 44.295C10.6531 44.4611 10.8784 44.5544 11.1134 44.5544C11.3483 44.5544 11.5737 44.4611 11.7398 44.295C11.906 44.1288 11.9993 43.9035 11.9993 43.6685C11.9993 43.4335 11.906 43.2082 11.7398 43.0421C11.5737 42.8759 11.3483 42.7826 11.1134 42.7826Z" fill="black"/><path d="M25.1602 30.3214C25.1468 30.7611 24.9627 31.1783 24.647 31.4846C24.3312 31.7909 23.9086 31.9622 23.4688 31.9622C23.0289 31.9622 22.6063 31.7909 22.2905 31.4846C21.9748 31.1783 21.7907 30.7611 21.7773 30.3214C21.7907 29.8817 21.9748 29.4645 22.2905 29.1583C22.6063 28.852 23.0289 28.6807 23.4688 28.6807C23.9086 28.6807 24.3312 28.852 24.647 29.1583C24.9627 29.4645 25.1468 29.8817 25.1602 30.3214Z" fill="#E7ECF1"/><path d="M23.4656 32.7701C22.8158 32.7701 22.1927 32.512 21.7332 32.0525C21.2738 31.5931 21.0156 30.9699 21.0156 30.3201C21.0156 29.6703 21.2738 29.0472 21.7332 28.5877C22.1927 28.1282 22.8158 27.8701 23.4656 27.8701C24.1154 27.8701 24.7386 28.1282 25.198 28.5877C25.6575 29.0472 25.9156 29.6703 25.9156 30.3201C25.9156 30.9699 25.6575 31.5931 25.198 32.0525C24.7386 32.512 24.1154 32.7701 23.4656 32.7701ZM23.4641 29.4326C23.3475 29.4328 23.2321 29.456 23.1246 29.5008C23.017 29.5456 22.9192 29.6111 22.837 29.6937C22.7547 29.7762 22.6895 29.8742 22.6451 29.9819C22.6007 30.0897 22.5779 30.2051 22.5781 30.3217C22.5783 30.4382 22.6015 30.5536 22.6463 30.6612C22.6911 30.7688 22.7566 30.8665 22.8392 30.9488C22.9217 31.031 23.0197 31.0962 23.1274 31.1407C23.2352 31.1851 23.3506 31.2078 23.4672 31.2076C23.5837 31.2074 23.6991 31.1843 23.8067 31.1395C23.9143 31.0947 24.012 31.0291 24.0943 30.9466C24.1766 30.864 24.2418 30.7661 24.2862 30.6583C24.3306 30.5506 24.3533 30.4351 24.3531 30.3186C24.3529 30.202 24.3298 30.0866 24.285 29.979C24.2402 29.8714 24.1746 29.7737 24.0921 29.6915C24.0095 29.6092 23.9116 29.544 23.8038 29.4996C23.6961 29.4552 23.5806 29.4324 23.4641 29.4326ZM36.5406 48.4576C35.2869 48.4346 34.0924 47.9202 33.214 47.0253C32.3357 46.1304 31.8438 44.9264 31.8443 43.6725C31.8447 42.4186 32.3373 41.2149 33.2162 40.3206C34.0951 39.4262 35.29 38.9127 36.5438 38.8904C37.7975 38.9135 38.992 39.4278 39.8703 40.3227C40.7486 41.2177 41.2405 42.4216 41.2401 43.6756C41.2397 44.9295 40.747 46.1331 39.8681 47.0275C38.9892 47.9218 37.7944 48.4354 36.5406 48.4576ZM36.5438 40.4529C36.1148 40.4427 35.6882 40.5182 35.2888 40.6751C34.8895 40.832 34.5255 41.067 34.2182 41.3665C33.9109 41.6659 33.6666 42.0237 33.4994 42.4189C33.3323 42.814 33.2458 43.2386 33.245 43.6676C33.2441 44.0967 33.329 44.5216 33.4946 44.9174C33.6602 45.3132 33.9032 45.6719 34.2093 45.9726C34.5154 46.2732 34.8785 46.5097 35.2772 46.6681C35.6759 46.8265 36.1023 46.9037 36.5312 46.8951C36.9602 46.9054 37.3868 46.8298 37.7862 46.673C38.1855 46.5161 38.5495 46.281 38.8568 45.9816C39.1641 45.6821 39.4084 45.3243 39.5756 44.9292C39.7427 44.534 39.8292 44.1095 39.83 43.6804C39.8309 43.2514 39.746 42.8265 39.5804 42.4307C39.4148 42.0349 39.1718 41.6761 38.8657 41.3755C38.5596 41.0748 38.1965 40.8384 37.7978 40.68C37.3991 40.5215 36.9727 40.4444 36.5438 40.4529Z" fill="black"/><path d="M36.5344 46.1166C35.885 46.1166 35.2622 45.8586 34.8031 45.3995C34.3439 44.9403 34.0859 44.3175 34.0859 43.6682C34.0859 43.0188 34.3439 42.396 34.8031 41.9369C35.2622 41.4777 35.885 41.2197 36.5344 41.2197C37.1837 41.2197 37.8065 41.4777 38.2657 41.9369C38.7249 42.396 38.9828 43.0188 38.9828 43.6682C38.9828 44.3175 38.7249 44.9403 38.2657 45.3995C37.8065 45.8586 37.1837 46.1166 36.5344 46.1166ZM36.5344 42.7822C36.4138 42.7748 36.2929 42.793 36.1798 42.8354C36.0667 42.8779 35.9637 42.9437 35.8778 43.0287C35.7918 43.1136 35.7247 43.2157 35.6809 43.3283C35.6371 43.4409 35.6175 43.5615 35.6234 43.6822C35.635 43.9172 35.7369 44.1385 35.908 44.3C36.079 44.4614 36.3059 44.5504 36.5411 44.5484C36.7763 44.5464 37.0016 44.4535 37.1698 44.2891C37.3381 44.1248 37.4362 43.9017 37.4438 43.6666C37.4474 43.5473 37.4262 43.4286 37.3815 43.318C37.3368 43.2073 37.2695 43.1072 37.1839 43.024C37.0984 42.9408 36.9964 42.8764 36.8846 42.8347C36.7728 42.7931 36.6535 42.7752 36.5344 42.7822Z" fill="black"/><path d="M32.4961 43.6729C32.4964 44.1197 32.5714 44.5633 32.718 44.9854H14.9336C15.2333 44.1297 15.2277 43.1968 14.918 42.3447H32.7195C32.5717 42.7719 32.4951 43.2208 32.4961 43.6729Z" fill="#E7ECF1"/><path d="M32.7141 45.7674H14.9328C14.8081 45.766 14.6855 45.735 14.5752 45.677C14.4648 45.619 14.3698 45.5356 14.2979 45.4337C14.226 45.3318 14.1794 45.2143 14.1619 45.0909C14.1443 44.9674 14.1563 44.8415 14.1969 44.7236C14.4331 44.0469 14.4304 43.3096 14.1891 42.6346C14.1433 42.516 14.127 42.3882 14.1415 42.262C14.1561 42.1357 14.2009 42.0149 14.2724 41.9099C14.3438 41.8048 14.4396 41.7186 14.5517 41.6587C14.6637 41.5988 14.7886 41.5669 14.9156 41.5658H32.7141C33.9797 41.7002 33.2516 42.8846 33.275 43.6752C33.2547 44.4533 33.9781 45.6346 32.7141 45.7674ZM15.9047 44.2049H31.7406C31.7014 43.8465 31.7019 43.485 31.7422 43.1268H15.9047C15.9437 43.4851 15.9437 43.8466 15.9047 44.2049ZM36.5406 40.4143C36.3743 40.4143 36.2122 40.3612 36.0781 40.2627L24.4922 31.7736C24.325 31.651 24.2133 31.4669 24.1818 31.2619C24.1503 31.057 24.2016 30.8479 24.3242 30.6807C24.4469 30.5135 24.6309 30.4018 24.8359 30.3703C25.0409 30.3388 25.25 30.39 25.4172 30.5127L37.0031 39.0018C37.1336 39.1005 37.23 39.2376 37.2789 39.3937C37.3277 39.5499 37.3266 39.7175 37.2757 39.873C37.2248 40.0285 37.1266 40.1642 36.9948 40.2613C36.863 40.3583 36.7043 40.4118 36.5406 40.4143ZM11.1078 40.4143C10.9442 40.4118 10.7854 40.3583 10.6536 40.2613C10.5219 40.1642 10.4237 40.0285 10.3727 39.873C10.3218 39.7175 10.3207 39.5499 10.3696 39.3937C10.4184 39.2376 10.5148 39.1005 10.6453 39.0018L21.7734 30.8611C21.9409 30.7451 22.1471 30.6991 22.348 30.733C22.549 30.7668 22.7287 30.8778 22.849 31.0423C22.9692 31.2068 23.0204 31.4117 22.9917 31.6134C22.963 31.8151 22.8567 31.9977 22.6953 32.1221L11.5672 40.2627C11.4337 40.3613 11.2737 40.4144 11.1078 40.4143ZM22.6781 29.6018C22.5583 29.6019 22.44 29.5746 22.3324 29.5217C22.2249 29.4689 22.1309 29.392 22.0578 29.2971L9.02969 12.3877H3.29688C3.08967 12.3877 2.89096 12.3054 2.74445 12.1589C2.59794 12.0124 2.51563 11.8136 2.51562 11.6064C2.51562 11.3992 2.59794 11.2005 2.74445 11.054C2.89096 10.9075 3.08967 10.8252 3.29688 10.8252H9.41406C9.5339 10.825 9.65218 10.8524 9.75974 10.9052C9.86731 10.9581 9.96127 11.0349 10.0344 11.1299L23.2953 28.3439C23.3819 28.4602 23.4347 28.5981 23.448 28.7424C23.4612 28.8867 23.4344 29.0319 23.3704 29.162C23.3064 29.292 23.2078 29.4019 23.0854 29.4795C22.9629 29.5571 22.8215 29.5994 22.6766 29.6018H22.6781Z" fill="black"/></svg>