<svg width="35" height="35" viewBox="0 0 35 35" fill="none" xmlns="http://www.w3.org/2000/svg"><path d="M31.9238 14.4238H20.5762V3.07617C20.5762 1.37724 19.1989 0 17.5 0C15.8011 0 14.4238 1.37724 14.4238 3.07617V14.4238H3.07617C1.37724 14.4238 0 15.8011 0 17.5C0 19.1989 1.37724 20.5762 3.07617 20.5762H14.4238V31.9238C14.4238 33.6228 15.8011 35 17.5 35C19.1989 35 20.5762 33.6228 20.5762 31.9238V20.5762H31.9238C33.6228 20.5762 35 19.1989 35 17.5C35 15.8011 33.6228 14.4238 31.9238 14.4238Z" fill="#1544AB"/></svg>