<svg width="50" height="50" viewBox="0 0 50 50" fill="none" xmlns="http://www.w3.org/2000/svg"><path d="M48.166 15.6264H25.0004C19.823 15.6213 15.6217 19.8143 15.6165 24.9917C15.6149 26.5998 16.0271 28.1812 16.8132 29.584L5.23047 9.70992C13.6669 -1.20902 29.3576 -3.22143 40.2766 5.21501C43.7832 7.92438 46.5061 11.5177 48.166 15.6264Z" fill="#F44336"/><path d="M49.9987 24.9996C49.9872 38.8013 38.8016 49.9869 24.9999 49.9985C23.9546 50.0024 22.9105 49.9328 21.875 49.7902L33.1245 29.6869C35.7028 25.1984 34.1659 19.4701 29.6871 16.875C28.2691 16.054 26.6592 15.6227 25.0207 15.625H48.1654C49.382 18.6004 50.0048 21.7851 49.9987 24.9996Z" fill="#FFC107"/><path d="M33.1255 29.6892L21.876 49.7925H21.8552C8.16558 48.0629 -1.52988 35.5631 0.199729 21.8735C0.759571 17.4425 2.49693 13.2426 5.23095 9.71094L16.8137 29.585L16.8762 29.6892C19.4592 34.1763 25.1906 35.7199 29.6777 33.137C31.111 32.312 32.3005 31.1225 33.1255 29.6892Z" fill="#4CAF50"/><path d="M33.1273 29.687C30.5444 34.1741 24.813 35.7177 20.3259 33.1348C18.8926 32.3097 17.7031 31.1202 16.8781 29.687L16.8156 29.5828C14.2843 25.0663 15.8938 19.353 20.4103 16.8217C21.8132 16.0356 23.3946 15.6234 25.0027 15.625H25.0235C26.662 15.6227 28.272 16.054 29.69 16.875C34.1688 19.4701 35.7056 25.1985 33.1273 29.687Z" fill="#F44336"/><path d="M33.1273 29.687C30.5444 34.1741 24.813 35.7177 20.3259 33.1348C18.8926 32.3097 17.7031 31.1202 16.8781 29.687L16.8156 29.5828C14.2843 25.0663 15.8938 19.353 20.4103 16.8217C21.8132 16.0356 23.3946 15.6234 25.0027 15.625H25.0235C26.662 15.6227 28.272 16.054 29.69 16.875C34.1688 19.4701 35.7056 25.1985 33.1273 29.687Z" fill="#2196F3"/><path d="M24.9667 35.4183C23.1505 35.4181 21.3664 34.9395 19.7939 34.0309C18.2084 33.1138 16.8915 31.7963 15.9754 30.2102C13.099 25.2282 14.806 18.8578 19.788 15.9815C21.3732 15.0663 23.1716 14.5849 25.0021 14.5859C30.7548 14.5814 35.4219 19.2414 35.4263 24.9941C35.4278 26.8252 34.9464 28.6244 34.0308 30.2102C33.1084 31.7961 31.7856 33.1119 30.1949 34.0259C28.6041 34.9399 26.8013 35.42 24.9667 35.4183ZM25.0208 16.6691C23.5523 16.6613 22.108 17.0428 20.8349 17.7747C19.5618 18.5066 18.5053 19.5627 17.7731 20.8357C15.4721 24.8257 16.8412 29.9258 20.8313 32.2268C24.8213 34.5279 29.9214 33.1587 32.2225 29.1687C34.5235 25.1831 33.158 20.0868 29.1724 17.7856C27.9106 17.0571 26.4798 16.6722 25.0228 16.6692L25.0208 16.6691Z" fill="#FAFAFA"/></svg>