<svg width="25" height="25" viewBox="0 0 25 25" fill="none" xmlns="http://www.w3.org/2000/svg"><g clip-path="url(#clip0_386_4404)"><path d="M8.32432 7.77012L5.85444 7.77359L5.84766 3.61148C5.84762 3.58379 5.85303 3.55636 5.86359 3.53077C5.87415 3.50517 5.88965 3.48191 5.9092 3.4623C5.92875 3.4427 5.95198 3.42713 5.97754 3.4165C6.00311 3.40587 6.03052 3.40038 6.0582 3.40034L8.1064 3.39746C8.13408 3.39742 8.16151 3.40284 8.1871 3.4134C8.2127 3.42396 8.23596 3.43946 8.25557 3.45901C8.27517 3.47856 8.29074 3.50178 8.30137 3.52735C8.312 3.55291 8.31749 3.58032 8.31753 3.60801L8.32432 7.77012Z" fill="#FFB125"/><path d="M8.31855 3.60801C8.31852 3.58032 8.31302 3.55291 8.30239 3.52735C8.29176 3.50178 8.2762 3.47856 8.25659 3.45901C8.23699 3.43946 8.21372 3.42396 8.18813 3.4134C8.16253 3.40284 8.13511 3.39742 8.10742 3.39746L6.88623 3.39917C6.99453 3.40786 7.08003 3.49746 7.08022 3.60801L7.08701 7.77012L5.85547 7.77183V7.77354L8.32534 7.77007L8.31855 3.60801Z" fill="#FF901D"/><path d="M12.409 3.32227L5.79297 9.55478L5.8062 19.0297C5.80637 19.1497 5.85421 19.2648 5.93919 19.3495C6.02418 19.4343 6.13935 19.4818 6.25937 19.4816L18.6037 19.4644C18.7237 19.4642 18.8387 19.4164 18.9235 19.3314C19.0082 19.2464 19.0558 19.1313 19.0556 19.0112L19.0424 9.53633L12.409 3.32227Z" fill="#E1EFFB"/><path d="M19.0407 9.53628L12.4074 3.32227L11.3164 4.35L16.8527 9.53628L16.866 19.0112C16.8661 19.0706 16.8544 19.1295 16.8318 19.1844C16.8091 19.2393 16.7758 19.2893 16.7339 19.3314C16.6919 19.3734 16.6421 19.4068 16.5872 19.4297C16.5323 19.4525 16.4735 19.4643 16.4141 19.4644H18.6021C18.7221 19.4642 18.8372 19.4163 18.9219 19.3314C19.0067 19.2464 19.0542 19.1312 19.0541 19.0112L19.0407 9.53628Z" fill="#CCDFED"/><path d="M21.3776 11.6246C21.1461 11.6252 20.9232 11.5373 20.7545 11.3788L12.4105 3.56237L4.08837 11.4021C3.7226 11.7466 3.14677 11.7294 2.80229 11.3637C2.45771 10.998 2.47489 10.4221 2.84067 10.0776L11.7849 1.65187C12.1346 1.32243 12.6802 1.3217 13.0308 1.65012L21.9985 10.0508C22.3652 10.3944 22.384 10.9701 22.0404 11.3368C21.9556 11.4276 21.8529 11.5 21.7389 11.5496C21.6249 11.5991 21.5019 11.6246 21.3776 11.6246Z" fill="#FF4C4C"/><path d="M22.0399 10.2423C21.955 10.3331 21.8524 10.4055 21.7384 10.455C21.6244 10.5045 21.5014 10.5301 21.3771 10.5301C21.1456 10.5307 20.9227 10.4427 20.754 10.2842L12.41 2.46777L4.08786 10.3075C3.72209 10.6521 3.14626 10.6348 2.80178 10.2691C2.77908 10.2449 2.75772 10.2195 2.73781 10.1929C2.47565 10.5404 2.49323 11.0359 2.80178 11.3634C3.14621 11.7291 3.72209 11.7463 4.08786 11.4018L12.41 3.56211L20.754 11.3785C20.9227 11.537 21.1456 11.625 21.3771 11.6244C21.5014 11.6244 21.6244 11.5988 21.7384 11.5493C21.8524 11.4998 21.955 11.4274 22.0399 11.3366C22.3469 11.0089 22.3637 10.5147 22.1023 10.168C22.0828 10.1938 22.062 10.2186 22.0399 10.2423Z" fill="#F33939"/><path d="M14.1193 11.1338L10.7182 11.1385C10.6416 11.1386 10.5681 11.1692 10.514 11.2235C10.4599 11.2777 10.4296 11.3513 10.4297 11.4279L10.4409 19.4762L14.4199 19.4707L14.4087 11.4223C14.4086 11.3457 14.378 11.2722 14.3238 11.2181C14.2695 11.164 14.196 11.1337 14.1193 11.1338Z" fill="#2D5871"/><path d="M14.4102 11.4223C14.41 11.3457 14.3795 11.2722 14.3252 11.2181C14.271 11.164 14.1974 11.1337 14.1208 11.1338L12.1992 11.1365C12.2579 11.1549 12.3092 11.1915 12.3456 11.241C12.382 11.2905 12.4017 11.3504 12.4018 11.4119L12.413 19.4735L14.4214 19.4707L14.4102 11.4223Z" fill="#1D4859"/><path d="M22.799 15.4078L17.786 18.7627L16.292 18.6789L16.2335 18.0909C16.1465 17.2155 15.4725 16.513 14.6015 16.3897L10.5986 15.9289C9.67524 15.7982 8.78618 15.4888 7.9812 15.0179C6.88219 14.375 5.63189 14.0361 4.35864 14.0361H1.47266V20.6238L9.10024 23.5123C9.38853 23.5937 9.69126 23.618 9.98711 23.5712L9.99243 23.5704L17.6716 22.4635C18.2632 22.369 18.8193 22.1199 19.2836 21.7412L24.2468 17.2774C24.6922 16.8819 24.7748 16.2172 24.4396 15.7247C24.073 15.1859 23.34 15.0443 22.799 15.4078Z" fill="#FED9A8"/><path d="M24.5052 15.834L19.5995 19.9634C19.1352 20.3421 18.3634 20.5912 17.7718 20.6857L9.99248 21.2418C9.99071 21.2421 9.98894 21.2424 9.98716 21.2426C9.69131 21.2894 9.38853 21.265 9.10029 21.1836L1.47266 18.2952V20.6237L9.10024 23.5122C9.24407 23.553 9.3917 23.579 9.54082 23.5897C9.578 23.5923 9.61523 23.5939 9.65249 23.5945C9.76629 23.5964 9.88004 23.5883 9.99243 23.5703L17.6716 22.4634C17.8926 22.4281 18.1095 22.371 18.3192 22.2932C18.6688 22.1633 18.9947 21.9768 19.2836 21.7411L24.2468 17.2773C24.6601 16.9103 24.7604 16.3119 24.5052 15.834Z" fill="#F4C892"/><path d="M2.44326 22.8616H1.30137C0.778955 22.8616 0.355469 22.4381 0.355469 21.9157V13.4654C0.355469 12.943 0.778955 12.5195 1.30137 12.5195H2.44326C2.96567 12.5195 3.38916 12.943 3.38916 13.4654V21.9157C3.38916 22.4381 2.96567 22.8616 2.44326 22.8616Z" fill="#2D5871"/><path d="M2.44653 12.5195H1.30464C1.24043 12.5195 1.17778 12.5261 1.11719 12.5383C1.54976 12.6253 1.87559 13.0072 1.87559 13.4654V21.9157C1.87559 22.3739 1.54976 22.7558 1.11719 22.8428C1.17778 22.855 1.24048 22.8616 1.30464 22.8616H2.44653C2.96895 22.8616 3.39243 22.4381 3.39243 21.9157V13.4654C3.39243 12.943 2.96895 12.5195 2.44653 12.5195Z" fill="#1D4859"/><path d="M24.734 15.524C24.2584 14.8252 23.3008 14.6402 22.5999 15.1113L19.4094 17.2465L19.4001 10.6005L20.5085 11.6388C20.7429 11.8591 21.0526 11.9815 21.3742 11.9811H21.3761C21.5491 11.9806 21.7201 11.9448 21.8788 11.8759C22.0375 11.807 22.1804 11.7065 22.2989 11.5804C22.5302 11.3335 22.6515 11.0113 22.6405 10.6731C22.6294 10.335 22.4874 10.0213 22.2404 9.79004L20.1391 7.82158C20.0696 7.75926 19.9785 7.72663 19.8853 7.73068C19.792 7.73472 19.7041 7.77513 19.6403 7.84325C19.5765 7.91136 19.5419 8.00175 19.5439 8.09506C19.5459 8.18837 19.5845 8.27717 19.6512 8.34243L21.7525 10.3109C21.8056 10.3604 21.8485 10.42 21.8784 10.4861C21.9084 10.5523 21.925 10.6238 21.9271 10.6964C21.9297 10.769 21.9178 10.8414 21.8922 10.9094C21.8666 10.9773 21.8278 11.0396 21.778 11.0924C21.7265 11.1478 21.6642 11.192 21.5948 11.2221C21.5255 11.2522 21.4506 11.2676 21.375 11.2673H21.3742C21.2334 11.2673 21.0993 11.2143 20.9964 11.1179L19.2862 9.51582L19.2861 9.51572L12.6525 3.30151C12.5863 3.23945 12.4989 3.20498 12.4081 3.2051C12.3173 3.20523 12.23 3.23995 12.1639 3.3022L5.54805 9.53452L5.54795 9.53462L3.84175 11.1419C3.78897 11.1918 3.72683 11.2308 3.65893 11.2565C3.59102 11.2823 3.51869 11.2944 3.44609 11.2921C3.37347 11.2901 3.30195 11.2738 3.2357 11.244C3.16944 11.2142 3.10976 11.1715 3.06011 11.1185C3.01015 11.0657 2.97115 11.0036 2.94537 10.9357C2.91959 10.8678 2.90754 10.7955 2.90991 10.7229C2.91188 10.6502 2.92823 10.5787 2.95802 10.5125C2.9878 10.4462 3.03044 10.3865 3.08345 10.3369L12.0276 1.91123C12.2396 1.71148 12.5723 1.71099 12.7848 1.91021L18.0176 6.81216C18.0518 6.8442 18.092 6.86919 18.1358 6.8857C18.1797 6.90221 18.2263 6.90992 18.2732 6.9084C18.32 6.90687 18.3661 6.89613 18.4088 6.87679C18.4515 6.85746 18.4899 6.8299 18.522 6.7957C18.554 6.76151 18.579 6.72133 18.5955 6.67747C18.612 6.63362 18.6197 6.58694 18.6182 6.5401C18.6167 6.49326 18.6059 6.44718 18.5866 6.4045C18.5673 6.36181 18.5397 6.32335 18.5055 6.29131L13.2728 1.38936C12.7858 0.933107 12.024 0.934132 11.5383 1.39175L8.67505 4.08902L8.67427 3.60791C8.67438 3.53333 8.65968 3.45947 8.63104 3.39061C8.6024 3.32174 8.56038 3.25925 8.50742 3.20674C8.45486 3.15402 8.39237 3.11224 8.32358 3.0838C8.25478 3.05535 8.18104 3.04081 8.10659 3.04102H8.10576L6.05757 3.0439C5.98299 3.0438 5.90913 3.05849 5.84027 3.08713C5.7714 3.11577 5.70891 3.15778 5.6564 3.21074C5.60359 3.26342 5.56176 3.32605 5.53332 3.395C5.50488 3.46395 5.4904 3.53787 5.49072 3.61245L5.49639 7.0835L2.59409 9.81753C2.3478 10.0495 2.20664 10.3635 2.19653 10.7017C2.18643 11.0399 2.30864 11.3618 2.54063 11.608C2.77256 11.8542 3.08657 11.9955 3.4248 12.0056C3.43774 12.006 3.45068 12.0062 3.46362 12.0062C3.7876 12.0062 4.09439 11.8846 4.33115 11.6614L5.43706 10.6196L5.44146 13.7588C5.08268 13.7063 4.72057 13.6797 4.35796 13.6794H3.74736V13.4654C3.74736 12.7471 3.16294 12.1627 2.44463 12.1627H1.30273C0.584424 12.1626 0 12.747 0 13.4654V19.0571C0 19.1517 0.0375951 19.2425 0.104515 19.3094C0.171435 19.3763 0.262197 19.4139 0.356836 19.4139C0.451475 19.4139 0.542237 19.3763 0.609157 19.3094C0.676077 19.2425 0.713672 19.1517 0.713672 19.0571V13.4654C0.713672 13.1406 0.97793 12.8763 1.30273 12.8763H2.44458C2.76938 12.8763 3.03364 13.1406 3.03364 13.4654V21.9156C3.03364 22.2404 2.76938 22.5047 2.44458 22.5047H1.30273C0.97793 22.5047 0.713672 22.2404 0.713672 21.9156V21.2912C0.713672 21.1966 0.676077 21.1058 0.609157 21.0389C0.542237 20.972 0.451475 20.9344 0.356836 20.9344C0.262197 20.9344 0.171435 20.972 0.104515 21.0389C0.0375951 21.1058 0 21.1966 0 21.2912L0 21.9156C0 22.6339 0.584424 23.2184 1.30273 23.2184H2.44458C3.16289 23.2184 3.74731 22.634 3.74731 21.9156V21.8671L8.9731 23.846C8.98276 23.8497 8.99258 23.8529 9.00254 23.8557C9.22974 23.9199 9.45684 23.9521 9.68106 23.9521C9.80234 23.9521 9.9228 23.9426 10.042 23.9238L17.7218 22.8167L17.7271 22.8159C18.3808 22.7113 18.9953 22.436 19.5084 22.0178C19.5128 22.0142 19.5172 22.0104 19.5215 22.0065L24.483 17.5442C25.0607 17.0313 25.1686 16.1628 24.734 15.524ZM7.96079 3.75493L7.96245 4.7603L6.20894 6.41216L6.20459 3.75733L7.96079 3.75493ZM6.15532 13.8973L6.1498 9.94815L12.4092 4.05151L18.6855 9.93101L18.6964 17.7236L17.6861 18.3998L16.6162 18.3398L16.5879 18.0556C16.5407 17.5715 16.3385 17.1156 16.0114 16.7556C15.6843 16.3956 15.2499 16.1508 14.7725 16.0575L14.7661 11.4215C14.7656 11.0657 14.4759 10.7766 14.1202 10.7766H14.1193L10.7183 10.7814C10.6334 10.7813 10.5494 10.798 10.471 10.8306C10.3927 10.8631 10.3216 10.9109 10.2619 10.9712C10.2018 11.0311 10.1542 11.1023 10.1218 11.1807C10.0895 11.2592 10.073 11.3432 10.0733 11.4281L10.079 15.4701C9.40452 15.3161 8.75758 15.0597 8.16064 14.71C8.08564 14.6662 8.00988 14.6237 7.9334 14.5825C7.90361 14.5664 7.87334 14.5513 7.84331 14.5356C7.79683 14.5114 7.75044 14.487 7.70347 14.4637C7.66606 14.4451 7.62822 14.4275 7.59053 14.4096C7.55054 14.3906 7.5106 14.3714 7.47031 14.3531C7.4293 14.3345 7.38794 14.3168 7.34663 14.2989C7.30889 14.2826 7.27114 14.2662 7.23315 14.2505C7.19067 14.233 7.14795 14.2162 7.10518 14.1994C7.06724 14.1846 7.02925 14.1698 6.99111 14.1556C6.94878 14.1397 6.90625 14.1245 6.86362 14.1095C6.73973 14.0658 6.61471 14.0253 6.48867 13.9882C6.45083 13.9771 6.41304 13.966 6.375 13.9554C6.3253 13.9417 6.27546 13.9285 6.22549 13.9159C6.2021 13.9099 6.17886 13.9031 6.15532 13.8973ZM10.7872 11.495L14.0525 11.4904L14.0587 15.9682L11.0741 15.6246L10.7929 15.5922L10.7872 11.495ZM24.0075 17.0122L19.0509 21.4701C18.6372 21.8053 18.1429 22.0262 17.6172 22.1108L9.94082 23.2173L9.93604 23.2181L9.93071 23.2189C9.69814 23.2557 9.45596 23.2402 9.21079 23.1729L3.74736 21.104V14.393H4.35796C4.89518 14.3932 5.43048 14.4569 5.95273 14.5829C6.0145 14.5978 6.07612 14.6131 6.13745 14.6297L6.15352 14.6342C6.21499 14.651 6.27622 14.6687 6.33726 14.6872C6.34819 14.6905 6.35918 14.6938 6.37007 14.6972C6.43501 14.7172 6.49966 14.7382 6.56396 14.7602L6.58384 14.7671C6.72519 14.8159 6.8649 14.8693 7.00273 14.9273C7.0698 14.9555 7.13641 14.9848 7.20254 15.0151C7.26484 15.0437 7.32671 15.0734 7.38818 15.1039C7.39541 15.1075 7.40269 15.111 7.40991 15.1146C7.46997 15.1446 7.52954 15.1757 7.58877 15.2076C7.59995 15.2136 7.61108 15.2197 7.62227 15.2258C7.68203 15.2584 7.74146 15.2916 7.80029 15.326C8.64946 15.8227 9.57388 16.1444 10.5479 16.2823C10.551 16.2827 10.554 16.2831 10.5571 16.2834L14.5552 16.7438C14.8539 16.7863 15.1338 16.9152 15.3602 17.1147C15.5866 17.3142 15.7498 17.5755 15.8296 17.8665C15.8527 17.9504 15.8689 18.0372 15.8778 18.1262L15.8937 18.2859L8.40049 17.6294C8.35381 17.6253 8.30678 17.6304 8.26208 17.6445C8.21739 17.6586 8.17591 17.6814 8.14001 17.7115C8.0675 17.7723 8.02213 17.8594 8.01387 17.9537C8.0056 18.048 8.03513 18.1417 8.09595 18.2142C8.15677 18.2867 8.24391 18.3321 8.33818 18.3403L16.2602 19.0344C16.2621 19.0346 16.2639 19.0345 16.2658 19.0347C16.2676 19.0348 16.2694 19.0351 16.2713 19.0353L17.7653 19.1191C17.772 19.1195 17.7787 19.1196 17.7853 19.1196C17.7924 19.1196 17.7994 19.1185 17.8064 19.1181C17.8144 19.1176 17.8223 19.1173 17.8302 19.1163C17.8409 19.1149 17.8513 19.1126 17.8617 19.1104C17.8692 19.1087 17.8767 19.1075 17.884 19.1053C17.8955 19.1021 17.9064 19.0976 17.9175 19.0932C17.9235 19.0908 17.9296 19.089 17.9355 19.0862C17.9521 19.0785 17.9684 19.0696 17.9838 19.0593L19.252 18.2106L19.2521 18.2105L22.9973 15.704C23.3741 15.4507 23.8885 15.5501 24.1439 15.9255C24.3774 16.2686 24.3194 16.7351 24.0075 17.0122Z" fill="black"/></g><defs><clipPath id="clip0_386_4404"><rect width="25" height="25" fill="white"/></clipPath></defs></svg>