<svg width="35" height="35" viewBox="0 0 35 35" fill="none" xmlns="http://www.w3.org/2000/svg"><path d="M34.9062 12.7329C34.7943 12.3854 34.5828 12.0785 34.298 11.8507C34.0133 11.6228 33.6679 11.4839 33.305 11.4514L23.2037 10.5322L19.2094 1.16444C18.9148 0.477938 18.2441 0.0336914 17.4989 0.0336914C16.7537 0.0336914 16.0829 0.478006 15.7884 1.16616L11.7941 10.5323L1.69125 11.4514C1.3287 11.4846 0.983871 11.6238 0.699513 11.8516C0.415154 12.0794 0.203775 12.3858 0.0915815 12.7329C-0.138847 13.443 0.0739456 14.2218 0.635492 14.7128L8.27088 21.4224L6.01936 31.3601C5.85462 32.0907 6.13762 32.8461 6.74271 33.2843C7.06788 33.5198 7.44842 33.6396 7.8321 33.6396C8.16294 33.6396 8.49105 33.5503 8.78567 33.3737L17.4989 28.1556L26.209 33.3737C26.8463 33.7579 27.6498 33.7228 28.2535 33.2843C28.5491 33.0699 28.7752 32.7732 28.9038 32.4311C29.0324 32.089 29.0578 31.7165 28.9769 31.3601L26.7254 21.4224L34.3607 14.7142C34.6354 14.4738 34.8335 14.1579 34.9305 13.8056C35.0275 13.4534 35.019 13.0803 34.9062 12.7329Z" fill="#FFC107"/></svg>