<svg width="25" height="25" viewBox="0 0 25 25" fill="none" xmlns="http://www.w3.org/2000/svg"><mask id="mask0_386_5087" style="mask-type:luminance" maskUnits="userSpaceOnUse" x="0" y="0" width="25" height="25"><path d="M0 7.43866e-05H24.9999V25H0V7.43866e-05Z" fill="white"/></mask><g mask="url(#mask0_386_5087)"><path d="M11.3398 16.4676L12.6292 17.3169C13.0003 17.5613 13.4177 17.7269 13.8554 17.8035C14.2931 17.88 14.7419 17.8658 15.1739 17.7618L21.9238 24.5117L24.5132 17.6675L20.3375 13.4916C20.3375 12.7175 20.2439 11.9531 20.063 11.2134L11.3398 16.4676Z" fill="#FFBF9E"/><path d="M21.1823 8.43574C20.7249 7.97837 19.9834 7.97837 19.5261 8.43574C19.9834 7.97837 19.9834 7.23687 19.5261 6.77954C19.0687 6.32217 18.3272 6.32217 17.8699 6.77954C18.3272 6.32217 18.3272 5.58067 17.8699 5.1233C17.4125 4.66598 16.671 4.66598 16.2137 5.1233C16.671 4.66598 16.671 3.92448 16.2137 3.4671C15.7563 3.00973 15.0148 3.00973 14.5575 3.4671L12.529 5.49557L6.33641 12.6096L0.5 18.446L2.81474 24.4863L10.3637 16.9373C10.788 16.5131 11.3634 16.2748 11.9633 16.2748C12.9259 16.2748 13.8791 16.0852 14.7684 15.7168C15.6577 15.3484 16.4657 14.8085 17.1464 14.1279L21.1823 10.0919C21.6397 9.63462 21.6397 8.89306 21.1823 8.43574Z" fill="#FFD4BE"/><path d="M4.56641 14.3781L8.74393 18.5557L10.3625 16.9371C10.4127 16.887 10.4652 16.8393 10.5199 16.7941L6.33515 12.6094L4.56641 14.3781Z" fill="#91DEF5"/><path d="M17.7687 20.3574L22.4856 15.6405L20.7168 13.8718L16 18.5887L17.7687 20.3574Z" fill="#F6838D"/><path d="M7.9921 10.9538L6.23365 9.1954C5.77628 8.73803 5.77628 7.99653 6.23365 7.53921C6.69098 7.08184 7.43253 7.08184 7.88985 7.53921L9.64829 9.29765C10.1057 9.75497 10.1057 10.4965 9.64829 10.9538C9.19097 11.4112 8.44947 11.4112 7.9921 10.9538Z" fill="#FFBF9E"/><path d="M9.64835 9.2976L7.8899 7.53915C7.43253 7.08178 7.43253 6.34028 7.8899 5.88296C8.34723 5.42559 9.08878 5.42559 9.5461 5.88296L11.3045 7.6414C11.7619 8.09872 11.7619 8.84022 11.3045 9.2976C10.8472 9.75497 10.1057 9.75497 9.64835 9.2976Z" fill="#FFBF9E"/><path d="M11.3046 7.64135L9.54615 5.8829C9.08878 5.42553 9.08878 4.68403 9.54615 4.22671C10.0035 3.76934 10.745 3.76934 11.2024 4.22671L12.9608 5.98515C13.4182 6.44247 13.4182 7.18397 12.9608 7.64135C12.5035 8.09872 11.762 8.09872 11.3046 7.64135Z" fill="#FFBF9E"/><path d="M6.33648 12.6101L5.30006 11.5737C4.84269 11.1163 4.84269 10.3748 5.30006 9.91743C5.75738 9.46011 6.49888 9.46011 6.95626 9.91743L7.99268 10.9539C8.45005 11.4112 8.45005 12.1527 7.99268 12.6101C7.53536 13.0675 6.79385 13.0675 6.33648 12.6101Z" fill="#FFBF9E"/><path d="M15.5175 17.4165C15.4584 17.3573 15.3851 17.3143 15.3046 17.2917C15.2241 17.269 15.1392 17.2674 15.0579 17.2871C14.3189 17.4649 13.531 17.3273 12.8962 16.9091L12.6318 16.7349C14.468 16.5804 16.1737 15.7915 17.4916 14.4736L19.9284 12.0368C20.1383 12.5441 20.2513 13.0863 20.2614 13.6352L15.9989 17.8979L15.5175 17.4165ZM5.25818 14.3788L6.33635 13.3006L9.82335 16.7876L8.74513 17.8658L5.25818 14.3788ZM5.64519 10.2627C5.70856 10.1993 5.78384 10.149 5.8667 10.1147C5.94956 10.0804 6.03838 10.0629 6.12805 10.063C6.30265 10.063 6.47736 10.1294 6.61037 10.2623L7.64728 11.2992C7.71088 11.3624 7.76136 11.4377 7.79569 11.5205C7.83002 11.6034 7.84757 11.6923 7.84733 11.782C7.84733 11.9643 7.77628 12.1358 7.64728 12.2648C7.58402 12.3284 7.50878 12.3789 7.42591 12.4132C7.34303 12.4475 7.25417 12.4651 7.16447 12.4648C7.07482 12.4651 6.98601 12.4475 6.90318 12.4133C6.82035 12.379 6.74514 12.3286 6.6819 12.265L6.68166 12.2648L5.64519 11.2284C5.37898 10.9621 5.37898 10.5289 5.64519 10.2627ZM6.57941 7.88448C6.64267 7.82087 6.71791 7.77045 6.80079 7.73612C6.88366 7.70179 6.97252 7.68423 7.06222 7.68447C7.24464 7.68447 7.41613 7.75552 7.54508 7.88448L9.30352 9.64292C9.56973 9.90918 9.56973 10.3424 9.30352 10.6086C9.03727 10.8748 8.60411 10.8748 8.3378 10.6086H8.33785L6.57941 8.85019C6.31315 8.58393 6.31315 8.15069 6.57941 7.88448ZM8.23561 6.22828C8.29897 6.16482 8.37424 6.11451 8.45711 6.08024C8.53997 6.04597 8.6288 6.02841 8.71847 6.02857C8.89327 6.02857 9.06817 6.09517 9.20128 6.22828L10.9597 7.98667C11.226 8.25293 11.2259 8.68618 10.9597 8.95239C10.8965 9.016 10.8212 9.06642 10.7383 9.10075C10.6555 9.13508 10.5666 9.15263 10.4769 9.15239C10.3872 9.15264 10.2984 9.1351 10.2156 9.10079C10.1327 9.06649 10.0575 9.0161 9.99425 8.95254L9.99405 8.95239L8.23561 7.19395C8.17201 7.13068 8.12158 7.05543 8.08725 6.97255C8.05292 6.88967 8.03537 6.8008 8.03561 6.71109C8.03561 6.52872 8.10665 6.35723 8.23561 6.22828ZM9.89185 4.57203C9.95511 4.50843 10.0304 4.45801 10.1132 4.42369C10.1961 4.38937 10.285 4.37183 10.3747 4.37208C10.4644 4.37184 10.5532 4.38938 10.6361 4.42371C10.719 4.45804 10.7942 4.50847 10.8575 4.57208L12.616 6.33052C12.6796 6.39378 12.73 6.46903 12.7643 6.5519C12.7986 6.63478 12.8162 6.72364 12.8159 6.81334C12.8159 6.99576 12.7449 7.16719 12.6159 7.2962C12.5527 7.3598 12.4774 7.41022 12.3945 7.44456C12.3117 7.47888 12.2228 7.49644 12.1331 7.4962C12.0434 7.49644 11.9546 7.4789 11.8718 7.44459C11.7889 7.41029 11.7137 7.3599 11.6504 7.29634L11.6503 7.29615L9.8918 5.5377C9.8282 5.47445 9.77778 5.39921 9.74345 5.31633C9.70912 5.23346 9.69156 5.1446 9.6918 5.05489C9.6918 4.87252 9.76285 4.70104 9.89185 4.57203ZM14.9027 3.81281C14.966 3.7492 15.0412 3.69878 15.1241 3.66445C15.207 3.63012 15.2958 3.61257 15.3855 3.61281C15.5679 3.61281 15.7394 3.68385 15.8683 3.81281C15.932 3.87607 15.9824 3.95132 16.0167 4.0342C16.0511 4.11709 16.0686 4.20596 16.0683 4.29567C16.0683 4.47809 15.9974 4.64952 15.8683 4.77848L14.7954 5.85147C14.6047 6.04219 14.6047 6.35137 14.7954 6.54205C14.986 6.73272 15.2952 6.73272 15.4859 6.54205L16.5589 5.46905C16.6222 5.40544 16.6974 5.355 16.7803 5.32067C16.8632 5.28634 16.952 5.2688 17.0417 5.26905C17.2242 5.26905 17.3956 5.34005 17.5245 5.46905C17.7908 5.73531 17.7908 6.16846 17.5245 6.43472L15.8861 8.07315C15.6954 8.26387 15.6954 8.57305 15.8861 8.76372C15.9314 8.80914 15.9852 8.84515 16.0445 8.86969C16.1037 8.89424 16.1672 8.90683 16.2314 8.90674C16.3563 8.90674 16.4813 8.85908 16.5766 8.76372L18.2151 7.12525C18.2784 7.06165 18.3536 7.01122 18.4365 6.97689C18.5194 6.94256 18.6082 6.92501 18.6979 6.92525C18.8804 6.92525 19.0518 6.99629 19.1808 7.12525C19.2444 7.18851 19.2948 7.26376 19.3292 7.34664C19.3635 7.42953 19.381 7.5184 19.3808 7.60811C19.381 7.69781 19.3635 7.78667 19.3292 7.86955C19.2948 7.95243 19.2444 8.02767 19.1808 8.09092L17.5423 9.72934C17.3516 9.92006 17.3516 10.2292 17.5423 10.4199C17.5876 10.4653 17.6414 10.5013 17.7007 10.5259C17.76 10.5504 17.8235 10.563 17.8876 10.5629C18.0126 10.5629 18.1375 10.5153 18.2329 10.4199L19.8713 8.78144C20.1375 8.51524 20.5708 8.51524 20.837 8.78144C21.1032 9.04766 21.1032 9.48091 20.837 9.74712L16.8011 13.783C15.5089 15.0753 13.7908 15.7869 11.9633 15.7869C11.4684 15.7869 10.9938 15.9173 10.5776 16.1608L7.75143 13.3346C7.97165 13.2513 8.17156 13.1221 8.3378 12.9554C8.65069 12.6425 8.8232 12.2266 8.82379 11.7843C9.24771 11.7835 9.67135 11.6218 9.99405 11.2991C10.3168 10.9764 10.4784 10.5528 10.4792 10.1289C10.9216 10.1283 11.3374 9.95581 11.6503 9.64292C11.9729 9.32021 12.1347 8.89658 12.1354 8.47266C12.5778 8.47207 12.9936 8.29956 13.3064 7.98672C13.6199 7.67329 13.7925 7.2566 13.7925 6.81334C13.7925 6.37012 13.6199 5.95338 13.3065 5.63995L13.191 5.52447L14.9027 3.81281ZM21.2394 13.7047C21.2373 12.8696 21.0405 12.0464 20.6646 11.3006L21.5276 10.4376C22.1745 9.79067 22.1745 8.73789 21.5275 8.09092C21.2048 7.76822 20.7812 7.60655 20.3573 7.60576C20.3567 7.16338 20.1842 6.74756 19.8714 6.43472C19.5485 6.11182 19.1245 5.95016 18.7003 5.94957C18.6997 5.5254 18.538 5.10143 18.2151 4.77848C17.9024 4.46583 17.4869 4.29337 17.0449 4.29254C17.044 3.8505 16.8716 3.43498 16.5589 3.12228C16.2455 2.80886 15.8288 2.63625 15.3855 2.63625C14.9423 2.63625 14.5256 2.80886 14.2122 3.12228L12.5005 4.83395L11.548 3.88156C11.2346 3.56813 10.8179 3.39552 10.3747 3.39552C9.9314 3.39552 9.51471 3.56813 9.20133 3.88151C8.88844 4.1944 8.71593 4.61022 8.71534 5.05255C8.29142 5.05338 7.86779 5.21505 7.54508 5.53775C7.23239 5.8504 7.05993 6.26593 7.0591 6.70797C6.61706 6.7088 6.20153 6.88126 5.88884 7.19395C5.35456 7.72823 5.26198 8.53901 5.61008 9.16973C5.36293 9.25033 5.13835 9.38822 4.95466 9.57217C4.30764 10.2192 4.30764 11.2719 4.95466 11.9189L5.64582 12.6101L0.154724 18.1012C-0.0359496 18.2919 -0.0359496 18.6011 0.154724 18.7918C0.200019 18.8372 0.253838 18.8732 0.313088 18.8977C0.372339 18.9223 0.435854 18.9349 0.499987 18.9348C0.56412 18.9349 0.627638 18.9223 0.686889 18.8977C0.74614 18.8732 0.799957 18.8372 0.845249 18.7918L4.5676 15.0694L8.05455 18.5564L2.46941 24.1415C2.27874 24.3322 2.27879 24.6414 2.46941 24.8321C2.51472 24.8775 2.56855 24.9135 2.62781 24.938C2.68706 24.9626 2.75059 24.9752 2.81473 24.9751C2.93968 24.9751 3.06463 24.9274 3.15999 24.8321L10.709 17.2831C10.8458 17.1461 11.0041 17.0324 11.1776 16.9465L12.3591 17.7247C13.1405 18.2394 14.0932 18.4404 15.0117 18.2917L21.5769 24.857C21.6222 24.9024 21.676 24.9384 21.7353 24.9629C21.7945 24.9875 21.8581 25.0001 21.9222 25C21.9863 25.0001 22.0498 24.9875 22.1091 24.9629C22.1683 24.9384 22.2222 24.9024 22.2675 24.857C22.4582 24.6663 22.4582 24.3571 22.2675 24.1664L18.4582 20.3571L18.9187 19.8966C19.1094 19.706 19.1094 19.3968 18.9187 19.2061C18.728 19.0154 18.4188 19.0154 18.2282 19.2061L17.7677 19.6666L16.6894 18.5884L20.7157 14.5621L21.794 15.6403L21.3345 16.0998C21.1438 16.2905 21.1438 16.5996 21.3345 16.7904C21.3798 16.8358 21.4336 16.8718 21.4929 16.8963C21.5521 16.9208 21.6156 16.9334 21.6798 16.9333C21.7439 16.9334 21.8074 16.9208 21.8667 16.8963C21.9259 16.8718 21.9797 16.8358 22.025 16.7904L22.4845 16.3308L24.1664 18.0127C24.2117 18.0581 24.2655 18.0941 24.3247 18.1187C24.384 18.1432 24.4475 18.1558 24.5116 18.1557C24.5758 18.1558 24.6393 18.1432 24.6985 18.1187C24.7578 18.0941 24.8116 18.0581 24.8569 18.0127C25.0476 17.822 25.0476 17.5129 24.8569 17.3221L21.2394 13.7047Z" fill="black"/><path d="M19.7798 17.6538C19.6885 17.7455 19.6371 17.8696 19.6367 17.999C19.6367 18.1274 19.689 18.2534 19.7798 18.3442C19.8706 18.4351 19.9966 18.4873 20.125 18.4873C20.2539 18.4873 20.3794 18.4351 20.4702 18.3442C20.561 18.2534 20.6133 18.1274 20.6133 17.999C20.6133 17.8701 20.561 17.7446 20.4702 17.6538C20.3784 17.5626 20.2544 17.5112 20.125 17.5107C19.9966 17.5107 19.8706 17.563 19.7798 17.6538Z" fill="black"/><path d="M3.29689 3.98882C3.34218 4.03423 3.396 4.07024 3.45525 4.09478C3.5145 4.11933 3.57802 4.13192 3.64215 4.13184C3.7063 4.13192 3.76982 4.11933 3.82908 4.09479C3.88834 4.07024 3.94217 4.03423 3.98747 3.98882C4.17814 3.79815 4.17814 3.48897 3.98747 3.29824L1.68904 0.999862C1.49836 0.809189 1.18918 0.809189 0.99851 0.999862C0.807788 1.19054 0.807788 1.49971 0.99851 1.69044L3.29689 3.98882Z" fill="black"/><path d="M5.95703 2.66113C6.22671 2.66113 6.44531 2.44253 6.44531 2.17285V0.487506C6.44531 0.217829 6.22671 -0.00077343 5.95703 -0.00077343C5.68735 -0.00077343 5.46875 0.217829 5.46875 0.487506V2.17285C5.46875 2.44253 5.68735 2.66113 5.95703 2.66113Z" fill="black"/><path d="M0.48828 6.44434H2.17363C2.4433 6.44434 2.66191 6.22573 2.66191 5.95606C2.66191 5.68638 2.4433 5.46778 2.17363 5.46778H0.48828C0.218603 5.46778 0 5.68638 0 5.95606C0 6.22573 0.218603 6.44434 0.48828 6.44434Z" fill="black"/><path d="M21.3555 4.13184C21.4804 4.13184 21.6054 4.08418 21.7008 3.98882L23.9992 1.69044C24.1899 1.49976 24.1899 1.19058 23.9992 0.999863C23.8085 0.809189 23.4993 0.809189 23.3086 0.999863L21.0102 3.29829C20.8195 3.48897 20.8195 3.79815 21.0102 3.98882C21.0555 4.03423 21.1093 4.07025 21.1686 4.09479C21.2278 4.11934 21.2914 4.13193 21.3555 4.13184Z" fill="black"/><path d="M19.043 2.66113C19.3126 2.66113 19.5312 2.44253 19.5312 2.17285V0.487506C19.5312 0.217829 19.3126 -0.00077343 19.043 -0.00077343C18.7733 -0.00077343 18.5547 0.217829 18.5547 0.487506V2.17285C18.5547 2.44253 18.7733 2.66113 19.043 2.66113Z" fill="black"/><path d="M22.3398 5.95606C22.3398 6.22573 22.5584 6.44434 22.8281 6.44434H24.5135C24.7831 6.44434 25.0017 6.22573 25.0017 5.95606C25.0017 5.68638 24.7831 5.46778 24.5135 5.46778H22.8281C22.5584 5.46778 22.3398 5.68638 22.3398 5.95606Z" fill="black"/></g></svg>