<svg width="50" height="50" viewBox="0 0 50 50" fill="none" xmlns="http://www.w3.org/2000/svg"><g clip-path="url(#clip0_400_4727)"><path d="M37.7082 50H12.293C11.3222 50 10.5352 49.213 10.5352 48.2422V1.75783C10.5352 0.787018 11.3222 0 12.293 0H37.7082C38.679 0 39.466 0.787018 39.466 1.75783V48.2422C39.466 49.213 38.679 50 37.7082 50Z" fill="#695E66"/><path d="M37.7078 0H35.719V44.4947C35.719 45.4658 34.9318 46.2529 33.9608 46.2529H10.5352V48.2417C10.5352 49.2128 11.3224 49.9999 12.2934 49.9999H37.7077C38.6788 49.9999 39.466 49.2127 39.466 48.2417V1.75822C39.466 0.787213 38.6788 0 37.7078 0Z" fill="#453E43"/><path d="M35.5051 41.127H14.3438C14.1366 41.127 13.9378 41.0447 13.7913 40.8982C13.6448 40.7517 13.5625 40.553 13.5625 40.3458V6.08497C13.5625 5.87776 13.6448 5.67905 13.7913 5.53254C13.9378 5.38602 14.1366 5.30371 14.3438 5.30371H35.5051C35.7123 5.30371 35.911 5.38602 36.0575 5.53254C36.204 5.67905 36.2863 5.87776 36.2863 6.08497V40.3459C36.2863 40.5531 36.204 40.7518 36.0574 40.8982C35.9109 41.0447 35.7122 41.127 35.5051 41.127Z" fill="#62D8F9"/><path d="M35.5049 5.30371H34.1625V38.2217C34.1625 38.429 34.0801 38.6278 33.9336 38.7743C33.787 38.9209 33.5883 39.0032 33.381 39.0032H13.5625V40.3457C13.5625 40.5529 13.6448 40.7517 13.7914 40.8983C13.9379 41.0448 14.1367 41.1271 14.344 41.1271H35.5049C35.7121 41.1271 35.9109 41.0448 36.0574 40.8983C36.204 40.7517 36.2863 40.5529 36.2863 40.3457V6.08516C36.2863 5.87791 36.204 5.67914 36.0574 5.53259C35.9109 5.38604 35.7121 5.30371 35.5049 5.30371Z" fill="#00BEF7"/><path d="M24.9987 46.892C25.7725 46.892 26.3998 46.2647 26.3998 45.4909C26.3998 44.7171 25.7725 44.0898 24.9987 44.0898C24.2249 44.0898 23.5977 44.7171 23.5977 45.4909C23.5977 46.2647 24.2249 46.892 24.9987 46.892Z" fill="#453E43"/><path d="M21.4656 15.1802H17.3904C17.2258 15.1802 17.0679 15.1148 16.9514 14.9983C16.835 14.8819 16.7696 14.724 16.7695 14.5593V10.4842C16.7696 10.3195 16.835 10.1616 16.9514 10.0452C17.0679 9.92873 17.2258 9.86331 17.3904 9.86328H21.4656C21.6302 9.86331 21.7881 9.92873 21.9046 10.0452C22.021 10.1616 22.0864 10.3195 22.0865 10.4842V14.5593C22.0865 14.6409 22.0704 14.7216 22.0392 14.7969C22.008 14.8723 21.9623 14.9407 21.9046 14.9984C21.847 15.056 21.7785 15.1018 21.7032 15.133C21.6279 15.1642 21.5471 15.1802 21.4656 15.1802Z" fill="#FCE25C"/><path d="M29.0359 23.935H24.9607C24.7961 23.935 24.6382 23.8696 24.5217 23.7531C24.4053 23.6367 24.3399 23.4788 24.3398 23.3141V19.2391C24.3399 19.0744 24.4053 18.9165 24.5217 18.8001C24.6382 18.6836 24.7961 18.6182 24.9607 18.6182H29.0359C29.2005 18.6182 29.3585 18.6836 29.4749 18.8001C29.5913 18.9165 29.6568 19.0744 29.6568 19.2391V23.3142C29.6568 23.3957 29.6407 23.4765 29.6095 23.5518C29.5783 23.6271 29.5326 23.6956 29.4749 23.7532C29.4173 23.8109 29.3488 23.8566 29.2735 23.8878C29.1981 23.919 29.1174 23.935 29.0359 23.935Z" fill="#F1FAFF"/><path d="M21.4656 23.9419H17.3904C17.2258 23.9419 17.0679 23.8765 16.9514 23.76C16.835 23.6436 16.7696 23.4857 16.7695 23.321V19.2459C16.7696 19.0812 16.835 18.9233 16.9514 18.8069C17.0679 18.6905 17.2258 18.625 17.3904 18.625H21.4656C21.6302 18.625 21.7881 18.6905 21.9046 18.8069C22.021 18.9233 22.0864 19.0812 22.0865 19.2459V23.321C22.0865 23.4857 22.021 23.6436 21.9046 23.7601C21.7882 23.8765 21.6302 23.9419 21.4656 23.9419Z" fill="#FB636F"/><path d="M26.9983 15.6293C28.4665 15.6293 29.6567 14.4391 29.6567 12.9709C29.6567 11.5027 28.4665 10.3125 26.9983 10.3125C25.5301 10.3125 24.3398 11.5027 24.3398 12.9709C24.3398 14.4391 25.5301 15.6293 26.9983 15.6293Z" fill="#FA989E"/><path d="M19.428 32.5991C20.8962 32.5991 22.0864 31.4088 22.0864 29.9406C22.0864 28.4724 20.8962 27.2822 19.428 27.2822C17.9597 27.2822 16.7695 28.4724 16.7695 29.9406C16.7695 31.4088 17.9597 32.5991 19.428 32.5991Z" fill="#E0DDE2"/><path d="M26.3774 37.6586H23.6271C23.2224 37.6586 22.8945 37.3306 22.8945 36.926C22.8945 36.5214 23.2224 36.1934 23.6271 36.1934H26.3774C26.7821 36.1934 27.11 36.5214 27.11 36.926C27.11 37.3306 26.7821 37.6586 26.3774 37.6586ZM31.872 37.6586H29.1217C28.717 37.6586 28.389 37.3306 28.389 36.926C28.389 36.5214 28.717 36.1934 29.1217 36.1934H31.872C32.0663 36.1934 32.2526 36.2705 32.39 36.4079C32.5274 36.5453 32.6046 36.7317 32.6046 36.926C32.6046 37.1203 32.5274 37.3066 32.39 37.444C32.2526 37.5814 32.0663 37.6586 31.872 37.6586ZM20.8033 37.6586H18.0529C17.6482 37.6586 17.3203 37.3306 17.3203 36.926C17.3203 36.5214 17.6482 36.1934 18.0529 36.1934H20.8033C20.9976 36.1934 21.1839 36.2705 21.3213 36.4079C21.4587 36.5453 21.5359 36.7317 21.5359 36.926C21.5359 37.1203 21.4587 37.3066 21.3213 37.444C21.1839 37.5814 20.9976 37.6586 20.8033 37.6586Z" fill="#F1FAFF"/></g><defs><clipPath id="clip0_400_4727"><rect width="50" height="50" fill="white"/></clipPath></defs></svg>