<svg width="40" height="40" viewBox="0 0 40 40" fill="none" xmlns="http://www.w3.org/2000/svg"><g clip-path="url(#clip0_178_11447)"><path d="M0.7425 30.5079C1.23696 31.0028 1.82308 31.25 2.50032 31.25H37.4998C38.1773 31.25 38.763 31.0028 39.2579 30.5079C39.7528 30.0125 40 29.4268 40 28.7497C40 28.0727 39.7528 27.487 39.2579 26.992L21.7581 9.49218C21.2627 8.99731 20.677 8.74954 20 8.74954C19.323 8.74954 18.7368 8.99731 18.2423 9.49218L0.7425 26.9921C0.248184 27.487 -3.8147e-06 28.0727 -3.8147e-06 28.7498C-3.8147e-06 29.4268 0.248184 30.0125 0.7425 30.5079Z" fill="#04AD3D" fill-opacity="0.25"/></g><defs><clipPath id="clip0_178_11447"><rect width="40" height="40" fill="white" transform="matrix(-1 0 0 -1 40 40)"/></clipPath></defs></svg>