<svg width="24" height="24" viewBox="0 0 24 24" fill="none" xmlns="http://www.w3.org/2000/svg"><g clip-path="url(#clip0_255_59219)"><path d="M23.9355 9.19077C23.7506 8.62166 23.1982 8.23048 22.42 8.11746L16.2489 7.22063L13.4891 1.62864C13.141 0.923487 12.5983 0.519043 12 0.519043C11.4017 0.519043 10.8589 0.923487 10.5109 1.62864L7.75122 7.22059L1.57999 8.11741C0.801754 8.23043 0.249417 8.62166 0.0644925 9.19068C-0.120385 9.75975 0.0965555 10.4009 0.65958 10.9497L5.1251 15.3024L4.07092 21.4488C3.9323 22.2573 4.16771 22.7408 4.38967 23.004C4.64927 23.3119 5.02798 23.4815 5.45605 23.4815C5.77968 23.4815 6.12435 23.3866 6.48028 23.1994L12 20.2974L17.5197 23.1993C17.8757 23.3864 18.2204 23.4814 18.544 23.4814H18.5441C18.9722 23.4814 19.351 23.3119 19.6106 23.0039C19.8325 22.7408 20.0679 22.2572 19.9293 21.4487L18.8749 15.3025L23.3404 10.9498C23.9035 10.401 24.1204 9.7598 23.9355 9.19077Z" fill="#1544AB"/></g><defs><clipPath id="clip0_255_59219"><rect width="24" height="24" fill="white"/></clipPath></defs></svg>