<svg width="20" height="20" viewBox="0 0 20 20" fill="none" xmlns="http://www.w3.org/2000/svg"><g clip-path="url(#clip0_141_3771)"><path d="M0.372853 15.2532C0.620059 15.5007 0.913098 15.6243 1.25169 15.6243H18.75C19.0887 15.6243 19.3816 15.5007 19.629 15.2532C19.8764 15.0056 20 14.7127 20 14.3742C20 14.0357 19.8764 13.7429 19.629 13.4954L10.8798 4.74623C10.6321 4.49882 10.3393 4.37494 10.0008 4.37494C9.66236 4.37494 9.36925 4.49882 9.12204 4.74623L0.372853 13.4955C0.125713 13.7429 0.00163018 14.0357 0.00163018 14.3743C0.00163018 14.7127 0.125713 15.0056 0.372853 15.2532Z" fill="#1544AB"/></g><defs><clipPath id="clip0_141_3771"><rect width="19.7718" height="19.7718" fill="white" transform="matrix(-1.01146 0 0 -1.01146 20 19.998)"/></clipPath></defs></svg>