<svg width="20" height="20" viewBox="0 0 20 20" fill="none" xmlns="http://www.w3.org/2000/svg"><g clip-path="url(#clip0_22_1056)"><path d="M19.6271 4.74577C19.3799 4.49836 19.0869 4.37475 18.7483 4.37475H1.24999C0.911262 4.37475 0.618429 4.49836 0.371017 4.74577C0.123604 4.99346 0 5.28629 0 5.62481C0 5.96327 0.123604 6.2561 0.371017 6.50358L9.12021 15.2528C9.3679 15.5002 9.66073 15.6241 9.99918 15.6241C10.3376 15.6241 10.6307 15.5002 10.878 15.2528L19.6271 6.50352C19.8743 6.2561 19.9984 5.96327 19.9984 5.62475C19.9984 5.28629 19.8743 4.99346 19.6271 4.74577Z" fill="#1544AB"/></g><defs><clipPath id="clip0_22_1056"><rect width="19.7718" height="19.7718" fill="white" transform="scale(1.01146)"/></clipPath></defs></svg>