<svg width="50" height="50" viewBox="0 0 50 50" fill="none" xmlns="http://www.w3.org/2000/svg"><g clip-path="url(#clip0_243_37518)"><path d="M49.3008 27.1547C49.2274 25.6703 48.6758 24.2484 47.7695 23.0687C45.7257 20.4077 45.3273 18.2951 45.3273 18.2951C43.7226 14.0903 42.296 11.2887 41.2475 9.51055C40.1443 7.64328 38.2365 6.38551 36.0849 6.10896C31.7583 5.54962 18.236 5.54962 13.9094 6.10896C12.8474 6.24696 11.8307 6.62498 10.9364 7.21435C10.0422 7.80372 9.29393 8.58897 8.74832 9.51055C7.69983 11.2887 6.27488 14.0903 4.66855 18.2951C4.66855 18.2951 4.27014 20.4077 2.22633 23.0687C1.32165 24.2484 0.768449 25.6703 0.696643 27.1547C0.541952 30.3751 1.47483 31.0829 2.30921 38.3706C2.34084 38.6474 2.47337 38.903 2.68148 39.0883C2.88959 39.2736 3.1587 39.3758 3.43737 39.3753H46.5618C47.14 39.3753 47.6243 38.9424 47.6899 38.3706C47.9243 36.3268 48.6197 32.1813 48.6197 32.1813C49.2289 30.1204 49.3617 28.4406 49.3008 27.1547Z" fill="#E95353"/><path d="M44.4219 18.1268C43.1563 14.9596 41.8656 12.1939 40.5812 9.98911C39.6078 8.32186 37.8906 7.15785 35.9906 6.90315C31.6545 6.3281 18.3183 6.33283 14.0135 6.90315C12.1135 7.15785 10.3962 8.32196 9.4227 9.98911C8.12112 12.222 6.8133 15.0251 5.56641 18.1268C18.4983 19.144 31.49 19.144 44.4219 18.1268Z" fill="#168DE2"/><path d="M42.5829 21.7888C42.0892 21.9435 41.6298 22.1607 41.2454 22.3764C40.5454 22.767 39.8266 23.1311 39.0766 23.4155C37.8328 23.8874 37.6219 24.5921 37.6219 24.5921C37.5844 24.6405 37.5484 24.689 37.514 24.7389C36.5702 26.1405 37.8093 28.0062 39.4828 27.7687C41.9031 27.4265 43.8969 26.7249 44.9094 26.3187C45.4891 26.0858 45.9422 25.6015 46.0907 24.9936C46.1048 24.9358 46.1173 24.878 46.1281 24.8217C46.5002 22.8155 44.5314 21.181 42.5829 21.7888Z" fill="white"/><path d="M45.1713 33.0186H42.479C42.0743 33.0186 41.8712 33.5076 42.1571 33.7951L44.8494 36.4874C45.1353 36.7733 45.626 36.5702 45.626 36.1655V33.4733C45.626 33.4135 45.6143 33.3544 45.5915 33.2992C45.5687 33.244 45.5352 33.1938 45.4929 33.1516C45.4507 33.1094 45.4006 33.0759 45.3454 33.053C45.2902 33.0302 45.231 33.0185 45.1713 33.0186Z" fill="#FFE21F"/><path d="M47.6923 38.3678C47.6607 38.6452 47.5281 38.9013 47.3198 39.0872C47.1114 39.2731 46.8419 39.3757 46.5626 39.3756H41.3828V42.3819C41.3828 43.446 42.2453 44.3101 43.311 44.3101H46.5643C47.6284 44.3101 48.4924 43.4476 48.4924 42.3819V32.9707C48.2783 34.2739 47.8627 36.8787 47.6923 38.3678Z" fill="#454545"/><path d="M49.9619 16.0217C49.8056 15.3216 49.1478 14.8467 48.4306 14.8467H47.1305C46.2976 14.8467 45.6227 15.5217 45.6227 16.3545V17.281H44.9336L45.3289 18.2202H46.8446C47.629 18.2202 48.4056 18.0514 49.1181 17.7249C49.433 17.5811 49.6887 17.3333 49.8424 17.0231C49.996 16.7129 50.0382 16.3593 49.9619 16.0217Z" fill="#ED6262"/><path d="M43.4383 26.113C44.4851 26.113 45.3337 25.2644 45.3337 24.2176C45.3337 23.1709 44.4851 22.3223 43.4383 22.3223C42.3916 22.3223 41.543 23.1709 41.543 24.2176C41.543 25.2644 42.3916 26.113 43.4383 26.113Z" fill="#FFBD49"/><path d="M39.6266 27.1047C40.3955 27.1047 41.0188 26.4814 41.0188 25.7125C41.0188 24.9436 40.3955 24.3203 39.6266 24.3203C38.8577 24.3203 38.2344 24.9436 38.2344 25.7125C38.2344 26.4814 38.8577 27.1047 39.6266 27.1047Z" fill="#FFDB6F"/><path d="M36.0193 25.7139L33.8426 29.5045H16.161L13.9844 25.7139H36.0193Z" fill="#6F6F6F"/><path d="M12.4814 24.7394C12.4478 24.6888 12.4118 24.6398 12.3735 24.5926C12.3735 24.5926 12.1625 23.8879 10.9187 23.416C10.1687 23.1316 9.45149 22.7675 8.74994 22.3769C8.36402 22.1613 7.90619 21.944 7.41241 21.7893C5.46548 21.1799 3.49519 22.8159 3.8655 24.8222C3.87648 24.88 3.88897 24.9363 3.90145 24.9941C4.0499 25.6019 4.503 26.0863 5.08268 26.3192C6.09522 26.7254 8.08898 27.427 10.511 27.7692C12.186 28.0067 13.4251 26.141 12.4814 24.7394Z" fill="white"/><path d="M7.52199 33.0186H4.82971C4.76998 33.0185 4.71082 33.0302 4.65562 33.053C4.60042 33.0759 4.55027 33.1094 4.50803 33.1516C4.4658 33.1938 4.43231 33.244 4.40948 33.2992C4.38665 33.3544 4.37493 33.4135 4.375 33.4733V36.1655C4.375 36.5702 4.86566 36.7733 5.15158 36.4874L7.84386 33.7951C8.12978 33.5092 7.92665 33.0186 7.52199 33.0186Z" fill="#FFE21F"/><path d="M42.9243 37.7176C40.1211 32.8675 36.8976 33.0191 36.8976 33.0191H13.0986C13.0986 33.0191 9.87671 32.8675 7.07193 37.7176H2.22656L2.28598 38.3426C2.31182 38.6251 2.44238 38.8877 2.65199 39.0788C2.8616 39.27 3.13511 39.3758 3.41877 39.3755H46.5791C46.8628 39.3758 47.1363 39.27 47.3459 39.0789C47.5555 38.8878 47.6861 38.6252 47.712 38.3427L47.7714 37.7177L42.9243 37.7176Z" fill="#777777"/><path d="M3.43752 39.3764C3.15836 39.3764 2.88898 39.2736 2.68067 39.0878C2.47236 38.9019 2.33967 38.646 2.30785 38.3686C2.13755 36.8795 1.72031 34.2733 1.50781 32.9717V42.3828C1.50781 43.447 2.37029 44.311 3.43601 44.311H6.68915C7.75325 44.311 8.61735 43.4486 8.61735 42.3828V39.3765H3.43752V39.3764Z" fill="#454545"/><path d="M4.37444 17.281V16.3545C4.37444 15.5216 3.69938 14.8467 2.86812 14.8467H1.56815C0.850996 14.8467 0.193157 15.3217 0.0368546 16.0217C-0.0391704 16.359 0.00319238 16.7123 0.156831 17.0222C0.310469 17.332 0.566029 17.5796 0.880605 17.7233C1.5941 18.0497 2.36952 18.2186 3.15414 18.2186H4.66983L5.06511 17.2794H4.37444V17.281Z" fill="#ED6262"/><path d="M6.55943 26.113C7.60621 26.113 8.45479 25.2644 8.45479 24.2176C8.45479 23.1709 7.60621 22.3223 6.55943 22.3223C5.51265 22.3223 4.66406 23.1709 4.66406 24.2176C4.66406 25.2644 5.51265 26.113 6.55943 26.113Z" fill="#FFBD49"/><path d="M10.3766 27.1047C11.1455 27.1047 11.7688 26.4814 11.7688 25.7125C11.7688 24.9436 11.1455 24.3203 10.3766 24.3203C9.60769 24.3203 8.98438 24.9436 8.98438 25.7125C8.98438 26.4814 9.60769 27.1047 10.3766 27.1047Z" fill="#FFDB6F"/><path d="M35.0755 34.3457H14.9219C14.7706 34.3457 14.6256 34.4058 14.5186 34.5128C14.4117 34.6197 14.3516 34.7648 14.3516 34.916C14.3515 34.9909 14.3661 35.0652 14.3948 35.1344C14.4234 35.2036 14.4654 35.2666 14.5184 35.3195C14.5713 35.3725 14.6343 35.4145 14.7035 35.4432C14.7727 35.4718 14.847 35.4865 14.9219 35.4863H35.0739C35.2251 35.4863 35.3702 35.4262 35.4771 35.3193C35.5841 35.2123 35.6442 35.0673 35.6442 34.916C35.6458 34.6004 35.3895 34.3457 35.0755 34.3457ZM35.0755 36.6224H14.9219C14.7706 36.6224 14.6256 36.6825 14.5186 36.7894C14.4117 36.8964 14.3516 37.0414 14.3516 37.1927C14.3515 37.2676 14.3661 37.3418 14.3948 37.4111C14.4234 37.4803 14.4654 37.5432 14.5184 37.5962C14.5713 37.6492 14.6343 37.6912 14.7035 37.7198C14.7727 37.7484 14.847 37.7631 14.9219 37.763H35.0739C35.2251 37.763 35.3702 37.7029 35.4771 37.5959C35.5841 37.489 35.6442 37.3439 35.6442 37.1927C35.6458 36.8771 35.3895 36.6224 35.0755 36.6224Z" fill="#6F6F6F"/><path d="M42.3069 13.295V13.4903C42.3069 14.2762 41.6616 14.906 40.86 14.8731C40.1209 14.8263 39.5553 14.1654 39.5553 13.4106V10.6075C39.5553 9.9465 39.0053 9.44335 38.3444 9.46057H38.2975C37.6366 9.44496 37.0866 9.94811 37.0866 10.6075V13.1434C37.0866 13.9294 36.41 14.5591 35.6241 14.5107C34.885 14.4795 34.3194 13.8029 34.3194 13.0638V10.859C34.3194 10.1981 33.7694 9.6481 33.0928 9.6481H32.9991C32.3693 9.6481 31.8506 10.1669 31.8506 10.7966V13.6638C31.8506 14.4498 31.1896 15.0779 30.3881 15.0467C29.649 14.9998 29.099 14.3389 29.099 13.5842V9.74025C29.099 9.12773 28.5646 8.60897 27.9349 8.6558H27.8411C27.1958 8.6558 26.6786 9.17456 26.6786 9.8043V13.7341C26.6786 14.4888 26.0661 15.117 25.2958 15.117C24.5566 15.117 23.9441 14.5201 23.9285 13.781V10.4826C23.9285 9.72786 23.3629 9.06851 22.6238 9.02007C21.8223 8.98885 21.1769 9.61698 21.1769 10.4029L21.1613 13.4499C21.1613 14.2358 20.5176 14.864 19.7144 14.8328C18.9894 14.7874 18.4394 14.1499 18.4175 13.4281V9.85274C18.4175 9.11051 17.8596 8.44642 17.1174 8.40271C16.3221 8.36837 15.6657 8.99489 15.6657 9.78244V13.5279C15.6439 14.2951 15.0002 14.906 14.211 14.8748C13.4719 14.8279 12.9219 14.167 12.9219 13.4122V10.6075C12.9219 9.9465 12.3563 9.44335 11.6953 9.46057H11.6641C10.9876 9.44496 10.4376 9.94811 10.4376 10.6075V13.1434C10.4376 13.9294 9.77662 14.5591 8.99068 14.5107C8.30625 14.4841 7.79686 13.9123 7.70944 13.2497C6.98282 14.7544 6.26254 16.3841 5.5625 18.1248C18.4943 19.1436 31.4862 19.1436 44.418 18.1248C43.721 16.3795 43.0147 14.77 42.3069 13.295Z" fill="#3AA2EB"/></g><defs><clipPath id="clip0_243_37518"><rect width="50" height="50" fill="white"/></clipPath></defs></svg>