<svg width="50" height="50" viewBox="0 0 50 50" fill="none" xmlns="http://www.w3.org/2000/svg"><g clip-path="url(#clip0_400_4695)"><path d="M44.1838 20.4428V49.6877H5.81641V20.4428L25.1083 1.72852L44.1838 20.4428Z" fill="#E9EAEF"/><path d="M44.3887 6.1209V19.2516L37.8581 13.0321L34.7969 10.1168V6.1209C34.7969 5.34434 35.4264 4.71484 36.2029 4.71484H42.9827C43.7592 4.71475 44.3887 5.34434 44.3887 6.1209Z" fill="#9EB1B7"/><path d="M37.8581 4.71484V13.0322L34.7969 10.1169V6.121C34.7969 5.34443 35.4264 4.71494 36.2029 4.71494L37.8581 4.71484Z" fill="#879BA0"/><path d="M50 45.183V49.6871H26.8367V45.183C26.8367 44.286 27.5643 43.5596 28.4612 43.5596H48.3755C49.2725 43.5596 50 44.2861 50 45.183ZM8.11943 45.183V49.6871H0V45.183C0 44.286 0.726563 43.5596 1.62344 43.5596H6.49482C7.39287 43.5596 8.11943 44.2861 8.11943 45.183Z" fill="#9CCE21"/><path d="M50 46.7133V49.6867H26.8367V46.7133C26.8367 45.8163 27.5643 45.0898 28.4612 45.0898H48.3755C49.2725 45.0897 50 45.8163 50 46.7133ZM8.11943 46.7133V49.6867H0V46.7133C0 45.8163 0.726563 45.0898 1.62344 45.0898H6.49482C7.39287 45.0897 8.11943 45.8163 8.11943 46.7133Z" fill="#85C10D"/><path d="M44.1838 21.5902V27.0565L25.0001 8.74023L5.81641 27.0565V21.5902L23.4767 4.7709L25.0001 3.35547L26.5226 4.7709L44.1838 21.5902Z" fill="#D2D4D8"/><path d="M25.0015 5.69834L3.15947 26.5517L0.105469 23.9877L23.4786 1.72822L25.0015 0.313477L26.5243 1.72822L49.8974 23.9877L46.8433 26.5517L25.0015 5.69834Z" fill="#EA4756"/><path d="M10.5117 27.7754H23.1647V49.6866H10.5117V27.7754Z" fill="#C97523"/><path d="M26.8359 27.7754H41.2451V40.4284H26.8359V27.7754Z" fill="#A0D9F2"/><path d="M26.8359 27.7754H41.2451V31.6203H26.8359V27.7754Z" fill="#C97523"/><path d="M20.6685 39.4271H18.8317C18.409 39.4271 18.0664 39.0845 18.0664 38.6618C18.0664 38.2392 18.409 37.8965 18.8317 37.8965H20.6685C21.0912 37.8965 21.4338 38.2392 21.4338 38.6618C21.4338 39.0845 21.0912 39.4271 20.6685 39.4271Z" fill="#8E480E"/><path d="M25.0007 21.5199C26.9448 21.5199 28.5209 19.9439 28.5209 17.9997C28.5209 16.0555 26.9448 14.4795 25.0007 14.4795C23.0565 14.4795 21.4805 16.0555 21.4805 17.9997C21.4805 19.9439 23.0565 21.5199 25.0007 21.5199Z" fill="#413740"/><path d="M23.1646 27.0107H10.5114C10.3084 27.0107 10.1138 27.0914 9.97025 27.2349C9.82673 27.3784 9.74609 27.5731 9.74609 27.7761V49.6873H11.2767V28.5413H22.3991V49.6872H23.9297V27.776C23.9297 27.6755 23.91 27.576 23.8716 27.4831C23.8331 27.3902 23.7768 27.3059 23.7057 27.2348C23.6346 27.1637 23.5503 27.1074 23.4574 27.0689C23.3646 27.0305 23.265 27.0107 23.1646 27.0107ZM41.2468 27.0107H26.838C26.635 27.0107 26.4403 27.0914 26.2968 27.2349C26.1533 27.3784 26.0727 27.5731 26.0727 27.7761V40.4291C26.0727 40.6321 26.1533 40.8267 26.2968 40.9703C26.4403 41.1138 26.635 41.1944 26.838 41.1944H41.2468C41.4498 41.1944 41.6444 41.1138 41.7879 40.9703C41.9315 40.8267 42.0121 40.6321 42.0121 40.4291V27.776C42.0121 27.6755 41.9923 27.576 41.9539 27.4831C41.9154 27.3902 41.859 27.3059 41.788 27.2348C41.7169 27.1637 41.6325 27.1074 41.5397 27.0689C41.4468 27.0305 41.3473 27.0107 41.2468 27.0107ZM40.4814 28.5413V30.8556H27.6033V28.5413H40.4814ZM27.6033 39.6638V32.3862H40.4814V39.6638H27.6033Z" fill="#8E480E"/><path d="M25.0004 22.2851C22.6373 22.2851 20.7148 20.3626 20.7148 17.9995C20.7148 15.6364 22.6373 13.7139 25.0004 13.7139C27.3635 13.7139 29.2859 15.6363 29.2859 17.9995C29.2859 20.3625 27.3635 22.2851 25.0004 22.2851ZM25.0004 15.2445C23.4813 15.2445 22.2455 16.4804 22.2455 17.9995C22.2455 19.5186 23.4813 20.7544 25.0004 20.7544C26.5194 20.7544 27.7553 19.5186 27.7553 17.9995C27.7553 16.4804 26.5194 15.2445 25.0004 15.2445Z" fill="#EA4756"/></g><defs><clipPath id="clip0_400_4695"><rect width="50" height="50" fill="white"/></clipPath></defs></svg>