<svg width="25" height="25" viewBox="0 0 25 25" fill="none" xmlns="http://www.w3.org/2000/svg"><path d="M20.957 8.20312C20.9332 8.28151 20.9018 8.35739 20.8633 8.42969L21.7891 9.35547L21.7695 9.375H15.7305L15.7109 9.35547L16.6367 8.42969C16.5982 8.35739 16.5668 8.28151 16.543 8.20312H15.2344V6.64062H16.543C16.5668 6.56224 16.5982 6.48636 16.6367 6.41406L15.7109 5.48828L16.8164 4.38281L17.7422 5.30859C17.8145 5.27006 17.8904 5.23866 17.9688 5.21484V3.90625H19.5312V5.21484C19.6096 5.23866 19.6855 5.27006 19.7578 5.30859L20.6836 4.38281L21.7891 5.48828L20.8633 6.41406C20.9018 6.48636 20.9332 6.56224 20.957 6.64062H22.2656V8.20312H20.957Z" fill="#ED1C24"/><path d="M18.75 8.59375C19.3972 8.59375 19.9219 8.06908 19.9219 7.42188C19.9219 6.77467 19.3972 6.25 18.75 6.25C18.1028 6.25 17.5781 6.77467 17.5781 7.42188C17.5781 8.06908 18.1028 8.59375 18.75 8.59375Z" fill="#E6E7E8"/><path d="M8.98438 8.98438H15.625V19.5312H8.98438V8.98438Z" fill="#C49A6C"/><path d="M15.625 8.98438H22.2656V19.5312H15.625V8.98438Z" fill="#A97C50"/><path d="M15.625 18.75V19.9219L22.2656 19.5312V12.1094C22.2656 13.8706 21.566 15.5596 20.3206 16.805C19.0753 18.0504 17.3862 18.75 15.625 18.75Z" fill="#8B5E3C"/><path d="M23.5469 17.7344C23.4702 17.6013 23.3681 17.4845 23.2463 17.3909C23.1245 17.2972 22.9854 17.2285 22.8371 17.1886C22.6887 17.1487 22.5339 17.1384 22.3816 17.1583C22.2292 17.1783 22.0823 17.228 21.9492 17.3047L17.7812 19.711H17.7793C17.7238 19.5178 17.6193 19.3422 17.476 19.2012C17.3327 19.0603 17.1554 18.9587 16.9613 18.9063L11.1332 17.3438C10.7487 17.2408 10.3443 17.2375 9.9582 17.334L7.42188 17.9688V22.6563L8.48945 23.1903C8.81491 23.3528 9.17371 23.4375 9.5375 23.4376H15.3879C15.7992 23.4381 16.2034 23.3304 16.5598 23.1251L23.1223 19.336C23.3909 19.1799 23.5865 18.9235 23.6662 18.6231C23.7458 18.3228 23.7029 18.0031 23.5469 17.7344Z" fill="#FFBCAB"/><path d="M17.7776 19.7108C17.7706 19.6878 17.7655 19.6639 17.7573 19.6413C17.7492 19.6653 17.7402 19.689 17.7303 19.7124C17.6214 19.9727 17.4219 20.1849 17.1687 20.3095C16.9155 20.4342 16.6258 20.4629 16.353 20.3905L14.276 19.8342L12.26 19.2921C12.2108 19.2789 12.1595 19.2759 12.1091 19.2831C12.0587 19.2903 12.0103 19.3077 11.9667 19.3341C11.9232 19.3605 11.8855 19.3955 11.8558 19.4368C11.8261 19.4782 11.8051 19.5252 11.794 19.5749C11.7731 19.6698 11.7895 19.7691 11.84 19.8522C11.8904 19.9352 11.9709 19.9957 12.0647 20.021L16.2889 21.1538C16.5578 21.2317 16.8452 21.215 17.1032 21.1065C17.3612 20.998 17.5741 20.8043 17.7065 20.5577C17.8373 20.2948 17.8628 19.9918 17.7776 19.7108Z" fill="#FF9478"/><path d="M12.4997 1.39844V4.29688L11.3278 5.07812L10.156 4.29688V1.39844C9.6634 1.59775 9.22979 1.91936 8.89611 2.3329C8.56244 2.74643 8.33972 3.23821 8.249 3.76177C8.15829 4.28534 8.20257 4.82339 8.37768 5.32507C8.55278 5.82675 8.85291 6.2755 9.24972 6.62891C9.41284 6.77397 9.54319 6.95211 9.63209 7.15148C9.721 7.35085 9.76642 7.56687 9.76534 7.78516V8.98438H12.8903V7.78516C12.8893 7.56687 12.9347 7.35085 13.0236 7.15148C13.1125 6.95211 13.2428 6.77397 13.406 6.62891C13.8028 6.2755 14.1029 5.82675 14.278 5.32507C14.4531 4.82339 14.4974 4.28534 14.4067 3.76177C14.316 3.23821 14.0932 2.74643 13.7596 2.3329C13.4259 1.91936 12.9923 1.59775 12.4997 1.39844Z" fill="#FF9811"/><path d="M4.29688 16.7969V23.8281H7.42188V16.7969H4.29688Z" fill="#006DF0"/><path d="M1.17188 17.5781H4.29688V23.0469H1.17188V17.5781Z" fill="#005ECE"/><path d="M11.3281 8.98438H8.98438L7.42188 12.1094H14.0625L15.625 8.98438H12.8906H11.3281Z" fill="#A97C50"/><path d="M21.7695 8.98438H15.625L17.1875 12.1094H23.8281L22.2656 8.98438H21.7695Z" fill="#8B5E3C"/><path d="M3.51562 17.5781H4.29688V23.0469H3.51562V17.5781Z" fill="#004FAC"/></svg>