<svg width="50" height="50" viewBox="0 0 50 50" fill="none" xmlns="http://www.w3.org/2000/svg"><g clip-path="url(#clip0_400_4565)"><path d="M8.78906 31.9531H37.7148V35.8301H8.78906V31.9531Z" fill="#5B5B5B"/><path d="M8.04688 17.041V18.8965H4.13086C2.46094 18.877 1.11328 17.9785 1.11328 16.8848C1.11328 15.7715 2.49023 14.873 4.19922 14.873C4.77539 14.873 5.30273 14.9707 5.76172 15.1562C5.9082 15.2148 6.00586 15.3613 6.00586 15.5176V16.6895C6.00586 16.8945 6.17187 17.0508 6.36719 17.0508L8.04688 17.041ZM48.6328 20.0195C48.1641 20.9277 46.748 21.1328 45.3516 20.5566C45.2539 20.5176 45.1367 20.4687 45.0293 20.4102L41.5527 18.6035L42.4023 16.9629L43.8867 17.7344C44.0723 17.832 44.2871 17.7637 44.3848 17.5879L44.9219 16.5527C45 16.4062 45.1562 16.3281 45.3125 16.3477C45.8008 16.3965 46.3184 16.5527 46.8262 16.8164C46.9336 16.875 47.041 16.9238 47.1289 16.9824C48.4473 17.8027 49.1113 19.1113 48.6328 20.0195Z" fill="#EA4E4E"/><path d="M8.23242 30.6826V39.7354C8.23242 40.585 7.54883 41.2686 6.69922 41.2686H1.80664C0.957031 41.2686 0.273438 40.585 0.273438 39.7354V30.6826H8.23242ZM39.7168 32.0498L42.3145 40.7217C42.5586 41.5322 43.4082 41.9912 44.2188 41.7471L48.9062 40.3408C49.7168 40.0967 50.1758 39.2471 49.9316 38.4365L47.334 29.7646L39.7168 32.0498Z" fill="#5B5B5B"/><path d="M49.3066 26.7671V32.812C49.3066 35.6636 47.0117 37.978 44.1602 38.0171L14.5508 42.353L17.5977 40.5269C19.0918 39.6284 20.7324 39.0132 22.4414 38.6909L37.7148 35.8296V31.9526C27.5 28.9937 21.3574 35.9663 8.78906 31.9526V38.0073H5.12695C2.29492 37.978 0 35.6636 0 32.812V26.7769C0 22.9976 2.56836 19.814 6.07422 18.8862L8.68164 11.1226C9.58008 9.16943 11.4941 7.89014 13.6328 7.82178C20.9766 7.57764 28.3301 7.57764 35.6738 7.82178C37.8125 7.89014 39.7363 9.16943 40.6152 11.1226L43.2227 18.8862C44.6973 19.2769 46.0156 20.0581 47.0312 21.1226C48.4473 22.5874 49.3066 24.5796 49.3066 26.7671Z" fill="#F96464"/><path d="M49.3066 26.7676V32.8125C49.3066 35.6641 47.0117 37.9785 44.1602 38.0176L14.5508 42.3633L16.0547 41.4551L39.5215 38.0176C42.373 37.9883 44.668 35.6641 44.668 32.8125V26.7676C44.668 24.5801 43.7988 22.5879 42.3926 21.123C41.3672 20.0684 40.0586 19.2773 38.584 18.8867L35.9766 11.123C35.0879 9.16992 33.1738 7.89063 31.0254 7.82227H35.6738C37.8125 7.90039 39.7363 9.16992 40.625 11.123L43.2227 18.8867C44.6973 19.2773 46.0156 20.0586 47.041 21.123C48.4375 22.5977 49.3066 24.5801 49.3066 26.7676Z" fill="black" fill-opacity="0.03"/><path d="M12.4629 28.1152C10.3242 29.9999 7.15039 30.5077 3.15625 29.912C2.83398 29.8632 2.60938 29.5898 2.60938 29.2675V26.3085C2.60938 25.9374 2.92187 25.6347 3.30273 25.6542C6.75 25.8593 9.96289 26.1913 12.2578 27.0019C12.7266 27.1679 12.8438 27.7831 12.4629 28.1152Z" fill="white"/><path d="M6.96094 27.9004C6.96094 28.7988 6.23828 29.5215 5.33984 29.5215C4.44141 29.5215 3.71875 28.7988 3.71875 27.9004C3.71875 27.002 4.44141 26.2793 5.33984 26.2793C6.23828 26.2891 6.96094 27.0117 6.96094 27.9004Z" fill="#F2F0F0"/><path d="M37.0691 29.4039C39.6374 30.6442 42.8308 30.2731 46.5124 28.6227C46.8054 28.486 46.9519 28.1637 46.8737 27.8512L46.073 24.9997C45.9753 24.6383 45.5847 24.4332 45.2331 24.5602C41.9714 25.6832 38.9636 26.8747 36.9714 28.2711C36.5612 28.5641 36.6198 29.1891 37.0691 29.4039Z" fill="#5B5B5B"/><path d="M41.5625 18.6124C41.5332 18.6026 41.5137 18.6026 41.4844 18.6026C29.8535 18.1241 19.4531 18.1241 7.82227 18.6026C7.80273 18.6026 7.77344 18.6026 7.75391 18.6124L10.0879 11.6788C10.7617 10.2725 12.1289 9.3741 13.6914 9.31551C20.1855 9.0909 27.8613 9.07137 35.6348 9.31551C36.377 9.3448 37.0801 9.56941 37.6758 9.93074C38.3496 10.3409 38.8965 10.9366 39.248 11.6788L41.5625 18.6124Z" fill="#66D5F2"/><path d="M22.0586 10.8008C22.0293 10.8594 19.7734 15.7715 19.9199 15.459L20.8672 11.4746C20.8184 11.4648 17.6641 11.1035 17.8691 11.123C17.8984 11.0742 18.8945 9.07227 18.8359 9.19922C19.5293 9.17969 20.2227 9.16992 20.916 9.16992L20.125 10.1758C20.1836 10.1953 22.1855 10.8398 22.0586 10.8008ZM30.1445 14.2285C30.4961 14.6289 30.8086 15.0781 31.0332 15.5957C30.5254 15.3516 30.0762 15.0391 29.6758 14.707C29.627 15.2344 29.5391 15.7715 29.334 16.2891C29.1387 15.7617 29.0312 15.2246 28.9824 14.707C28.582 15.0488 28.1328 15.3516 27.625 15.5957C27.8594 15.0684 28.1621 14.6289 28.5137 14.2285C27.9766 14.1797 27.4492 14.0918 26.9121 13.8867C27.4492 13.6914 27.9766 13.584 28.5137 13.5449C28.1621 13.1445 27.8496 12.6953 27.625 12.1777C28.1328 12.4121 28.5918 12.7344 28.9922 13.0859C29.0215 12.5488 29.1289 12.0117 29.334 11.4746C29.5293 12.0117 29.627 12.5391 29.6758 13.0762C30.0762 12.7246 30.5254 12.4121 31.0332 12.1875C30.7988 12.7148 30.4961 13.1543 30.1445 13.5547C30.6816 13.584 31.209 13.6914 31.7461 13.8965C31.209 14.0918 30.6914 14.1797 30.1445 14.2285ZM16.5508 14.4629C17.0098 14.9805 17.4102 15.5566 17.7031 16.2305C17.0488 15.9082 16.4727 15.5176 15.9551 15.0781C15.8965 15.752 15.7793 16.4551 15.5156 17.1289C15.252 16.4551 15.1152 15.752 15.0566 15.0781C14.5391 15.5176 13.9629 15.918 13.3086 16.2305C13.6113 15.5566 14.002 14.9805 14.4609 14.4629C13.7676 14.4043 13.084 14.2871 12.3906 14.0234C13.084 13.7598 13.7676 13.623 14.4609 13.584C14.002 13.0664 13.6016 12.4902 13.3086 11.8164C13.9629 12.1191 14.5586 12.5293 15.0762 12.9883C15.1152 12.2949 15.252 11.5918 15.5156 10.8984C15.7793 11.5918 15.8965 12.2754 15.9551 12.9688C16.4727 12.5098 17.0488 12.1094 17.7031 11.8164C17.4004 12.4902 17.0098 13.0664 16.5508 13.584C17.2441 13.623 17.9277 13.7598 18.6211 14.0234C17.918 14.2871 17.2441 14.4043 16.5508 14.4629Z" fill="#4EC5D8"/><path d="M16.1417 27.2458C15.8585 27.1774 15.6827 26.8844 15.7608 26.6012C15.9464 25.859 15.3507 25.0973 14.7159 24.6969C13.2022 23.7497 10.2237 23.6423 9.70613 21.1618C9.64753 20.8786 9.83308 20.5954 10.1163 20.5368C10.3995 20.4782 10.6827 20.6637 10.7413 20.9469C11.1026 22.6755 13.7491 22.8415 15.2725 23.7985C16.2589 24.4137 17.0987 25.6051 16.7862 26.8649C16.7178 27.1481 16.4249 27.3239 16.1417 27.2458ZM25.253 24.4235C25.0089 24.4235 24.794 24.2575 24.7354 24.0133C24.2178 21.8649 26.1905 18.9743 30.8096 19.7458C33.085 20.1169 35.9171 21.3669 38.046 20.1364C38.2999 19.9899 38.6221 20.0778 38.7686 20.3317C38.9151 20.5856 38.8272 20.9079 38.5733 21.0544C36.0147 22.529 32.88 21.1618 30.6241 20.7907C27.001 20.195 25.38 22.1969 25.7608 23.7594C25.8292 24.0426 25.6534 24.3356 25.3702 24.404C25.3311 24.4235 25.2921 24.4235 25.253 24.4235Z" fill="#EA4E4E"/><path d="M19.1594 24.5312C19.9797 25.2051 20.302 26.582 19.677 27.7539C18.5344 29.7168 19.6965 30.4004 19.9309 31.4746C20.1653 32.4219 19.843 33.457 19.1594 34.0137C19.8528 32.1582 18.6711 31.0449 18.4953 30.7227C17.4602 28.8477 18.8469 27.4512 19.1399 26.8262C19.4328 26.1523 19.4719 25.3418 19.1594 24.5312ZM23.2512 24.5312C23.9348 25.0879 24.2571 26.1133 24.0227 27.0605C23.7688 28.1836 22.636 28.8281 23.7688 30.7813C24.3938 31.9531 24.0813 33.3301 23.2512 34.0039C24.1789 31.5234 22.2258 31.3965 22.216 29.2676C22.2258 27.9297 22.9289 27.4609 23.2317 26.8164C23.5246 26.1523 23.5539 25.3418 23.2512 24.5312ZM27.3332 24.5312C28.1535 25.2051 28.4758 26.582 27.8508 27.7539C26.718 29.707 27.8508 30.332 28.1047 31.4746C28.3391 32.4219 28.0168 33.457 27.3332 34.0137C28.4758 30.9668 24.6574 30.4199 27.05 27.2852C27.6262 26.3867 27.6848 25.459 27.3332 24.5312Z" fill="#F2F0F0"/><path opacity="0.4" d="M5.57759 22.0307L4.11275 23.6128C3.81002 23.9448 3.3022 23.9643 2.97017 23.6616C2.63814 23.3588 2.61861 22.851 2.92134 22.519L4.38619 20.937C4.68892 20.6049 5.19673 20.5854 5.52877 20.8881C5.8608 21.1909 5.88033 21.6987 5.57759 22.0307Z" fill="white"/></g><defs><clipPath id="clip0_400_4565"><rect width="50" height="50" fill="white"/></clipPath></defs></svg>