<svg width="50" height="50" viewBox="0 0 50 50" fill="none" xmlns="http://www.w3.org/2000/svg"><path d="M1.5625 6.25H32.8125V48.4375H1.5625V6.25Z" fill="#E2E7F6"/><path d="M1.5625 6.25H29.6875V45.3125H1.5625V6.25Z" fill="#F2F2F2"/><path d="M4.6875 27.3438H29.6875V45.3125H4.6875V27.3438Z" fill="#5E87CA"/><path d="M27.3438 40.625V27.3438H4.6875V42.1875H25.7812C26.1957 42.1875 26.5931 42.0229 26.8861 41.7299C27.1791 41.4368 27.3438 41.0394 27.3438 40.625Z" fill="#78A0D4"/><path d="M32.8125 43.75H37.5V1.5625H6.25V6.25H32.8125V43.75Z" fill="#C8CDED"/><path d="M27.3438 28.125L44.6656 10.8031C44.8708 10.598 45.1144 10.4353 45.3825 10.3243C45.6506 10.2133 45.938 10.1562 46.2281 10.1563C46.5183 10.1563 46.8056 10.2134 47.0736 10.3244C47.3417 10.4355 47.5852 10.5982 47.7904 10.8034C47.9956 11.0085 48.1583 11.2521 48.2693 11.5201C48.3804 11.7882 48.4375 12.0755 48.4375 12.3656C48.4376 12.6558 48.3805 12.9431 48.2695 13.2112C48.1585 13.4793 47.9958 13.7229 47.7906 13.9281L30.4688 31.25L25 33.5938L27.3438 28.125Z" fill="#474747"/><path d="M39.8398 15.6279L42.1836 13.2842L45.3086 16.4092L42.9648 18.7529L39.8398 15.6279Z" fill="#B5B5B5"/><path d="M30.4688 31.25L27.3438 28.125L25 33.5938L30.4688 31.25Z" fill="#686868"/><path d="M17.1875 25C21.5022 25 25 21.5022 25 17.1875C25 12.8728 21.5022 9.375 17.1875 9.375C12.8728 9.375 9.375 12.8728 9.375 17.1875C9.375 21.5022 12.8728 25 17.1875 25Z" fill="#F4A93C"/><path d="M23.439 16.4066C23.4393 15.1069 23.1147 13.8277 22.4949 12.6853C21.875 11.5429 20.9795 10.5735 19.8898 9.86518C18.0888 9.19859 16.1052 9.21935 14.3186 9.92348C12.5319 10.6276 11.0675 11.9657 10.2055 13.6818C9.34351 15.3978 9.14439 17.3715 9.64625 19.2251C10.1481 21.0788 11.3157 22.6824 12.9257 23.7292C14.1059 24.1687 15.3751 24.3156 16.6245 24.1574C17.8739 23.9991 19.0663 23.5405 20.0997 22.8207C21.1331 22.1009 21.9767 21.1414 22.5583 20.0244C23.1398 18.9073 23.442 17.666 23.439 16.4066Z" fill="#F6B940"/><path d="M17.1875 16.4062C16.8785 16.4062 16.5764 16.3146 16.3194 16.1429C16.0625 15.9712 15.8622 15.7272 15.7439 15.4417C15.6257 15.1562 15.5947 14.842 15.655 14.5389C15.7153 14.2358 15.8641 13.9574 16.0826 13.7389C16.3012 13.5204 16.5796 13.3716 16.8827 13.3113C17.1858 13.251 17.4999 13.2819 17.7854 13.4002C18.071 13.5185 18.315 13.7187 18.4867 13.9757C18.6584 14.2326 18.75 14.5347 18.75 14.8438H20.3125C20.3099 14.153 20.0785 13.4825 19.6545 12.9372C19.2304 12.3918 18.6376 12.0024 17.9688 11.8297V10.9375H16.4062V11.8297C15.6706 12.019 15.0293 12.4703 14.6028 13.0989C14.1763 13.7275 13.9939 14.4902 14.0898 15.2437C14.1857 15.9973 14.5533 16.6899 15.1237 17.1916C15.694 17.6934 16.4279 17.9697 17.1875 17.9688C17.4965 17.9688 17.7986 18.0604 18.0556 18.2321C18.3125 18.4038 18.5128 18.6478 18.6311 18.9333C18.7493 19.2188 18.7803 19.533 18.72 19.8361C18.6597 20.1392 18.5109 20.4176 18.2924 20.6361C18.0738 20.8546 17.7954 21.0034 17.4923 21.0637C17.1892 21.124 16.8751 21.0931 16.5896 20.9748C16.304 20.8566 16.06 20.6563 15.8883 20.3993C15.7166 20.1424 15.625 19.8403 15.625 19.5312H14.0625C14.0651 20.222 14.2965 20.8925 14.7205 21.4378C15.1446 21.9832 15.7374 22.3726 16.4062 22.5453V23.4375H17.9688V22.5453C18.7044 22.356 19.3457 21.9047 19.7722 21.2761C20.1987 20.6475 20.3811 19.8848 20.2852 19.1313C20.1893 18.3777 19.8217 17.6851 19.2513 17.1834C18.681 16.6816 17.9471 16.4053 17.1875 16.4062Z" fill="#D5883E"/><path d="M10.1562 32.0312H19.5312V33.5938H10.1562V32.0312ZM21.0938 32.0312H24.5539V33.5938H21.0938V32.0312ZM7.03125 35.1562H27.3438V36.7188H7.03125V35.1562ZM7.03125 38.2812H27.3438V39.8438H7.03125V38.2812Z" fill="#C0DAFC"/><path d="M49.2187 12.3664C49.219 11.7747 49.0436 11.1962 48.715 10.7042C48.3864 10.2122 47.9191 9.82871 47.3725 9.6023C46.8258 9.37589 46.2243 9.31672 45.644 9.4323C45.0637 9.54787 44.5307 9.83299 44.1125 10.2516L38.2812 16.0828V1.5625C38.2812 1.3553 38.1989 1.15659 38.0524 1.01007C37.9059 0.86356 37.7072 0.78125 37.5 0.78125H6.25C6.0428 0.78125 5.84409 0.86356 5.69757 1.01007C5.55106 1.15659 5.46875 1.3553 5.46875 1.5625V5.46875H1.5625C1.3553 5.46875 1.15659 5.55106 1.01007 5.69757C0.86356 5.84409 0.78125 6.0428 0.78125 6.25V48.4375C0.78125 48.6447 0.86356 48.8434 1.01007 48.9899C1.15659 49.1364 1.3553 49.2188 1.5625 49.2188H32.8125C33.0197 49.2188 33.2184 49.1364 33.3649 48.9899C33.5114 48.8434 33.5937 48.6447 33.5937 48.4375V44.5312H37.5C37.7072 44.5312 37.9059 44.4489 38.0524 44.3024C38.1989 44.1559 38.2812 43.9572 38.2812 43.75V24.5422L48.3422 14.4812C48.621 14.2043 48.842 13.8748 48.9925 13.5117C49.143 13.1487 49.2199 12.7594 49.2187 12.3664ZM30.4687 30.1453L28.4484 28.125L39.8437 16.7297L41.8641 18.75L30.4687 30.1453ZM26.4844 32.1094L27.6039 29.4961L29.0969 30.9891L26.4844 32.1094ZM24.8203 32.0312H21.0937V33.5938H24.2266C24.2256 33.7226 24.2567 33.8497 24.3171 33.9635C24.3776 34.0772 24.4655 34.1742 24.5728 34.2454C24.6802 34.3167 24.8036 34.3601 24.9319 34.3717C25.0603 34.3832 25.1894 34.3626 25.3078 34.3117L28.9062 32.7695V44.5312H5.46875V28.125H26.4937L24.8203 32.0312ZM40.9484 15.625L42.1875 14.3859L44.2078 16.4062L42.9687 17.6453L40.9484 15.625ZM7.03125 2.34375H36.7187V17.6453L33.5937 20.7703V6.25C33.5937 6.0428 33.5114 5.84409 33.3649 5.69757C33.2184 5.55106 33.0197 5.46875 32.8125 5.46875H7.03125V2.34375ZM2.34375 47.6562V7.03125H32.0312V22.3328L27.8016 26.5625H4.6875C4.4803 26.5625 4.28159 26.6448 4.13507 26.7913C3.98856 26.9378 3.90625 27.1365 3.90625 27.3438V45.3125C3.90625 45.5197 3.98856 45.7184 4.13507 45.8649C4.28159 46.0114 4.4803 46.0938 4.6875 46.0938H29.6875C29.8947 46.0938 30.0934 46.0114 30.2399 45.8649C30.3864 45.7184 30.4687 45.5197 30.4687 45.3125V32.1L30.7766 31.968C30.8679 31.9288 30.9509 31.8726 31.0211 31.8023L32.0312 30.7922V47.6562H2.34375ZM36.7187 42.9688H33.5937V29.2297L36.7187 26.1047V42.9688ZM47.2375 13.3766L45.3125 15.3016L43.2922 13.2812L45.2172 11.3562C45.3488 11.2189 45.5065 11.1092 45.681 11.0335C45.8556 10.9579 46.0435 10.9179 46.2337 10.9159C46.4239 10.9138 46.6126 10.9498 46.7888 11.0217C46.9649 11.0935 47.1249 11.1998 47.2594 11.3343C47.3939 11.4688 47.5002 11.6288 47.5721 11.805C47.6439 11.9811 47.6799 12.1698 47.6779 12.3601C47.6758 12.5503 47.6358 12.7382 47.5602 12.9127C47.4846 13.0873 47.3749 13.245 47.2375 13.3766Z" fill="black"/><path d="M17.1875 25.7813C18.8872 25.7813 20.5487 25.2772 21.9619 24.3329C23.3752 23.3887 24.4766 22.0465 25.1271 20.4762C25.7775 18.9059 25.9477 17.178 25.6161 15.5109C25.2845 13.8439 24.4661 12.3127 23.2642 11.1108C22.0623 9.90895 20.5311 9.09047 18.8641 8.75888C17.197 8.42729 15.4691 8.59747 13.8988 9.24791C12.3285 9.89835 10.9864 10.9998 10.0421 12.4131C9.09776 13.8263 8.59375 15.4878 8.59375 17.1875C8.59644 19.4659 9.50271 21.6502 11.1138 23.2612C12.7248 24.8723 14.9091 25.7786 17.1875 25.7813ZM17.1875 10.1563C18.5781 10.1563 19.9376 10.5686 21.0939 11.3412C22.2501 12.1138 23.1513 13.212 23.6835 14.4968C24.2157 15.7816 24.3549 17.1953 24.0836 18.5592C23.8123 19.9232 23.1427 21.176 22.1593 22.1593C21.176 23.1427 19.9232 23.8123 18.5592 24.0836C17.1953 24.355 15.7815 24.2157 14.4968 23.6835C13.212 23.1514 12.1138 22.2501 11.3412 21.0939C10.5686 19.9376 10.1562 18.5782 10.1562 17.1875C10.1585 15.3234 10.9 13.5363 12.2182 12.2182C13.5363 10.9 15.3234 10.1585 17.1875 10.1563Z" fill="black"/><path d="M17.1875 21.0938C16.7731 21.0938 16.3757 20.9291 16.0826 20.6361C15.7896 20.3431 15.625 19.9457 15.625 19.5312H14.0625C14.0651 20.222 14.2965 20.8925 14.7205 21.4378C15.1446 21.9832 15.7374 22.3726 16.4062 22.5453V23.4375H17.9688V22.5453C18.7044 22.356 19.3457 21.9047 19.7722 21.2761C20.1987 20.6475 20.3811 19.8848 20.2852 19.1313C20.1893 18.3777 19.8217 17.6851 19.2513 17.1834C18.681 16.6816 17.9471 16.4053 17.1875 16.4062C16.8785 16.4062 16.5764 16.3146 16.3194 16.1429C16.0625 15.9712 15.8622 15.7272 15.7439 15.4417C15.6257 15.1562 15.5947 14.842 15.655 14.5389C15.7153 14.2358 15.8641 13.9574 16.0826 13.7389C16.3012 13.5204 16.5796 13.3716 16.8827 13.3113C17.1858 13.251 17.4999 13.2819 17.7854 13.4002C18.071 13.5185 18.315 13.7187 18.4867 13.9757C18.6584 14.2326 18.75 14.5347 18.75 14.8438H20.3125C20.3099 14.153 20.0785 13.4825 19.6545 12.9372C19.2304 12.3918 18.6376 12.0024 17.9688 11.8297V10.9375H16.4062V11.8297C15.6706 12.019 15.0293 12.4703 14.6028 13.0989C14.1763 13.7275 13.9939 14.4902 14.0898 15.2437C14.1857 15.9973 14.5533 16.6899 15.1237 17.1916C15.694 17.6934 16.4279 17.9697 17.1875 17.9688C17.6019 17.9688 17.9993 18.1334 18.2924 18.4264C18.5854 18.7194 18.75 19.1168 18.75 19.5312C18.75 19.9457 18.5854 20.3431 18.2924 20.6361C17.9993 20.9291 17.6019 21.0938 17.1875 21.0938ZM10.1562 32.0312H19.5312V33.5938H10.1562V32.0312ZM7.03125 35.1562H27.3438V36.7188H7.03125V35.1562ZM7.03125 38.2812H27.3438V39.8438H7.03125V38.2812Z" fill="black"/></svg>