<svg width="50" height="50" viewBox="0 0 50 50" fill="none" xmlns="http://www.w3.org/2000/svg">
<g clip-path="url(#clip0_400_4753)"><path d="M4.5224 44.0793C6.05365 45.6105 7.66205 47.0412 9.21283 48.2531C6.56635 48.7668 3.831 48.714 1.20209 48.0969C0.857366 48.0158 0.586858 47.7453 0.505803 47.4006C-0.111083 44.7713 -0.164333 42.0412 0.349553 39.3898C1.56147 40.9406 2.99115 42.548 4.5224 44.0793ZM18.872 29.7306C20.708 31.5666 22.3788 33.4963 23.7109 35.3107C22.8222 38.1349 21.2587 40.7931 19.0195 43.0314C16.7861 45.2658 14.1347 46.8273 11.3173 47.718C9.50287 46.3967 7.5644 44.7238 5.72162 42.881C3.87983 41.0392 2.20697 39.1008 0.884709 37.2853C1.77533 34.468 3.33686 31.8166 5.57123 29.5832C7.80951 27.3449 10.4667 25.7805 13.291 24.8918C15.1064 26.2248 17.0361 27.8947 18.872 29.7306ZM24.2519 33.1672C23.0371 31.6232 21.6132 30.0285 20.0937 28.509C18.5742 26.9894 16.9794 25.5656 15.4355 24.3508C18.0644 23.8498 20.7783 23.9055 23.3876 24.5187C23.7324 24.5998 24.0029 24.8703 24.0839 25.215C24.6972 27.8244 24.7529 30.5383 24.2519 33.1672Z" fill="#FCA863"/><path d="M19.0182 43.0315C14.1843 47.8654 7.39805 49.5532 1.2 48.0969C1.0307 48.057 0.875874 47.9707 0.752884 47.8477C0.629894 47.7247 0.543609 47.5699 0.503711 47.4006C0.37684 46.8605 0.27394 46.315 0.195312 45.7658C6.02461 47.0869 12.3838 45.476 16.9232 40.9366C21.4613 36.3985 23.0722 30.0394 21.7512 24.21C22.3004 24.2885 22.8458 24.3914 23.3859 24.5184C23.5552 24.5583 23.7101 24.6445 23.8331 24.7675C23.956 24.8905 24.0423 25.0454 24.0822 25.2146C25.5385 31.4128 23.8507 38.199 19.0182 43.0315Z" fill="#FC9744"/><path d="M24.4046 32.2386C23.3501 30.8326 22.0716 29.3684 20.653 27.9498C19.2345 26.5313 17.7702 25.2526 16.3643 24.1982C14.909 24.4013 13.4823 24.7734 12.1133 25.307C12.3853 25.4613 12.6528 25.6232 12.9157 25.7925C14.6002 26.8722 16.5234 28.4624 18.3318 30.2709C20.1402 32.0794 21.7312 34.0032 22.8103 35.687C22.9797 35.9505 23.142 36.2186 23.297 36.4908C23.8296 35.1211 24.2013 33.6941 24.4046 32.2386Z" fill="#F2EFF2"/><path d="M24.4041 32.2379C23.7363 31.3473 22.9783 30.4327 22.1506 29.5215C22.0492 30.9272 21.7823 32.316 21.3555 33.6591C21.9046 34.3567 22.3946 35.0392 22.8099 35.6864C22.9793 35.9499 23.1416 36.218 23.2966 36.4902C23.8291 35.1204 24.2007 33.6934 24.4041 32.2379Z" fill="#E1DDE1"/><path d="M11.6724 46.823C9.98857 45.7439 8.06465 44.153 6.25625 42.3445C4.44775 40.536 2.85752 38.6128 1.77783 36.9284C1.60852 36.6655 1.44664 36.398 1.29238 36.126C0.759126 37.4952 0.387026 38.9217 0.183594 40.377C1.23809 41.7829 2.5166 43.2472 3.93516 44.6657C5.35371 46.0843 6.81797 47.3629 8.22393 48.4173C9.67942 48.2139 11.1064 47.8422 12.4762 47.3098C12.2039 47.1548 11.9359 46.9924 11.6724 46.823Z" fill="#F2EFF2"/><path d="M11.6728 46.8226C11.0255 46.4074 10.3431 45.9173 9.64541 45.3682C8.30211 45.7943 6.91339 46.0612 5.50781 46.1633C6.41904 46.9909 7.3335 47.7489 8.22422 48.4168C9.67971 48.2134 11.1067 47.8417 12.4765 47.3093C12.2042 47.1543 11.9362 46.992 11.6728 46.8226Z" fill="#E1DDE1"/><path d="M9.16212 40.188C9.01416 40.188 8.86953 40.1442 8.74651 40.062C8.62349 39.9798 8.52761 39.8629 8.47099 39.7262C8.41438 39.5895 8.39957 39.4391 8.42845 39.294C8.45732 39.1489 8.52858 39.0156 8.63322 38.911L14.8983 32.6458C14.9677 32.5764 15.0502 32.5213 15.141 32.4837C15.2317 32.4461 15.329 32.4268 15.4272 32.4268C15.5255 32.4268 15.6228 32.4461 15.7135 32.4837C15.8043 32.5213 15.8868 32.5764 15.9562 32.6459C16.0257 32.7154 16.0808 32.7978 16.1184 32.8886C16.156 32.9794 16.1753 33.0766 16.1753 33.1749C16.1753 33.2731 16.1559 33.3704 16.1183 33.4612C16.0807 33.5519 16.0256 33.6344 15.9562 33.7039L9.69113 39.969C9.62172 40.0385 9.53925 40.0937 9.44847 40.1313C9.35769 40.1689 9.26038 40.1882 9.16212 40.188Z" fill="#F2671F"/><path d="M15.5763 36.4698C15.4648 36.4699 15.3547 36.4451 15.254 36.3972C15.1534 36.3492 15.0648 36.2793 14.9947 36.1926C14.6753 35.7984 14.2372 35.3191 13.7613 34.8431C13.2856 34.3674 12.8063 33.9294 12.4118 33.6096C12.3354 33.5478 12.272 33.4715 12.2252 33.3851C12.1783 33.2988 12.149 33.2041 12.1387 33.1064C12.1285 33.0087 12.1376 32.9099 12.1655 32.8157C12.1934 32.7215 12.2397 32.6338 12.3015 32.5575C12.3633 32.4811 12.4396 32.4177 12.5259 32.3708C12.6123 32.324 12.707 32.2946 12.8047 32.2843C12.9024 32.2741 13.0012 32.2832 13.0954 32.3112C13.1896 32.3391 13.2773 32.3853 13.3537 32.4472C13.7874 32.7987 14.3078 33.2739 14.8192 33.7851C15.3309 34.2968 15.8061 34.8173 16.1573 35.2507C16.2191 35.3271 16.2653 35.4148 16.2932 35.509C16.3212 35.6032 16.3302 35.702 16.32 35.7997C16.3098 35.8974 16.2804 35.9921 16.2335 36.0784C16.1866 36.1648 16.1232 36.241 16.0469 36.3029C15.9139 36.411 15.7477 36.47 15.5763 36.4698ZM13.6128 38.4332C13.5013 38.4334 13.3912 38.4086 13.2906 38.3607C13.1899 38.3127 13.1013 38.2428 13.0312 38.1561C12.7117 37.7617 12.2736 37.2824 11.7978 36.8066C11.3216 36.3303 10.8423 35.8923 10.4483 35.573C10.3711 35.5114 10.3068 35.4352 10.2593 35.3487C10.2117 35.2622 10.1817 35.1672 10.171 35.069C10.1603 34.9709 10.1692 34.8716 10.197 34.7769C10.2249 34.6822 10.2713 34.5939 10.3334 34.5172C10.3956 34.4405 10.4723 34.3769 10.5592 34.3299C10.646 34.283 10.7413 34.2538 10.8395 34.2439C10.9378 34.2339 11.037 34.2436 11.1315 34.2722C11.226 34.3008 11.3139 34.3478 11.3901 34.4106C11.8233 34.7616 12.3438 35.2368 12.8557 35.7486C13.3672 36.26 13.8424 36.7805 14.1938 37.2142C14.2828 37.324 14.3388 37.4567 14.3555 37.597C14.3721 37.7373 14.3487 37.8795 14.2879 38.007C14.2271 38.1346 14.1315 38.2423 14.012 38.3177C13.8925 38.3932 13.7541 38.4332 13.6128 38.4332ZM11.6494 40.3967C11.5379 40.3969 11.4278 40.3721 11.3271 40.3241C11.2265 40.2762 11.1379 40.2063 11.0678 40.1196C10.7483 39.7253 10.3102 39.246 9.83432 38.7702C9.35853 38.2943 8.87933 37.8563 8.4848 37.5366C8.40761 37.475 8.34337 37.3988 8.29578 37.3123C8.24819 37.2258 8.21819 37.1307 8.20751 37.0326C8.19684 36.9344 8.20569 36.8352 8.23357 36.7404C8.26145 36.6457 8.3078 36.5575 8.36995 36.4808C8.4321 36.4041 8.50882 36.3404 8.59569 36.2935C8.68255 36.2466 8.77785 36.2173 8.87607 36.2074C8.9743 36.1975 9.07352 36.2071 9.168 36.2358C9.26249 36.2644 9.35038 36.3114 9.4266 36.3742C9.86029 36.7256 10.3808 37.2008 10.8922 37.7122C11.4037 38.2237 11.8789 38.7441 12.2301 39.1777C12.3191 39.2874 12.3751 39.4201 12.3918 39.5604C12.4085 39.7007 12.3851 39.8429 12.3243 39.9704C12.2635 40.0979 12.1679 40.2057 12.0484 40.2811C11.929 40.3566 11.7906 40.3966 11.6494 40.3967Z" fill="#F2EFF2"/><path d="M36.982 28.6982C42.8591 25.3051 44.3476 16.8805 40.3067 9.88138C36.2658 2.88229 28.2256 -0.0409079 22.3485 3.35225C16.4714 6.7454 14.9829 15.17 19.0238 22.1691C23.0647 29.1682 31.1049 32.0914 36.982 28.6982Z" fill="#CBE5E7"/><path d="M40.3096 9.88118C44.351 16.8812 42.8619 25.3057 36.9851 28.6988C36.1836 29.1618 35.324 29.5163 34.4291 29.7528C40.049 26.3933 41.4465 18.2538 37.5368 11.4821C33.6283 4.71233 25.8832 1.85266 20.1641 5.03577C20.8157 4.38056 21.5511 3.81454 22.3514 3.35247C28.2283 -0.0405991 36.2687 2.88216 40.3096 9.88118Z" fill="#A9D3D8"/><path d="M42.298 23.5557C43.9769 19.4049 43.6348 14.1466 40.9567 9.50771C38.9145 5.9705 35.8309 3.31025 32.274 2.01699C28.6707 0.707027 25.0137 0.951363 21.9766 2.70478C15.7517 6.29882 14.1374 15.1984 18.3782 22.5435C21.0556 27.181 25.4366 30.1054 29.8694 30.7279C33.0586 31.7385 35.9295 33.5626 38.1993 36.0205C38.2692 36.0966 38.3542 36.1572 38.4489 36.1987C38.5436 36.2401 38.6458 36.2615 38.7492 36.2613C38.8945 36.2613 39.0368 36.2189 39.1584 36.1393C39.2801 36.0597 39.3759 35.9464 39.4342 35.8132C39.4925 35.6801 39.5107 35.5328 39.4867 35.3894C39.4626 35.246 39.3973 35.1128 39.2987 35.006C37.673 33.2442 35.7536 31.785 33.6408 30.6842C34.9318 30.4631 36.1858 30.0233 37.3581 29.3465C38.5289 28.6706 39.5365 27.8068 40.3727 26.8012C40.2709 29.1796 40.5766 31.5698 41.289 33.8567C41.3365 34.009 41.4313 34.1421 41.5598 34.2367C41.6882 34.3313 41.8435 34.3824 42.003 34.3825C42.1203 34.3826 42.236 34.355 42.3407 34.3021C42.4454 34.2492 42.5362 34.1724 42.6057 34.0779C42.6753 33.9834 42.7216 33.8739 42.741 33.7582C42.7604 33.6425 42.7523 33.5238 42.7174 33.4118C41.7241 30.2186 41.5796 26.8217 42.298 23.5557ZM36.6101 28.0509C35.068 28.9412 33.363 29.3626 31.6224 29.3625C27.1431 29.3623 22.4306 26.5707 19.6737 21.7955C15.8455 15.1647 17.2141 7.18193 22.7246 4.00048C24.2413 3.1249 25.9418 2.68359 27.7163 2.68359C29.0395 2.68359 30.4039 2.9291 31.7626 3.42314C34.9894 4.59638 37.7945 7.02285 39.661 10.2559C43.4892 16.8866 42.1205 24.8694 36.6101 28.0509Z" fill="#5169CD"/><path d="M49.3267 47.2054L46.8414 48.6403C46.2206 48.9987 45.4269 48.786 45.0685 48.1652L38.3465 36.5225C38.2954 36.4339 38.2622 36.3362 38.2488 36.2348C38.2355 36.1334 38.2423 36.0304 38.2687 35.9316C38.2952 35.8328 38.3409 35.7402 38.4031 35.6591C38.4654 35.5779 38.543 35.5099 38.6316 35.4587L42.0161 33.5047C42.1046 33.4536 42.2024 33.4204 42.3038 33.4071C42.4052 33.3937 42.5082 33.4005 42.607 33.4269C42.7058 33.4534 42.7984 33.4991 42.8795 33.5613C42.9606 33.6236 43.0287 33.7012 43.0798 33.7898L49.8018 45.4326C50.1601 46.0533 49.9475 46.847 49.3267 47.2054Z" fill="#27D1B3"/><path d="M43.0355 33.7165L49.8707 45.5552C50.1903 46.1087 49.8941 46.8764 49.2081 47.2724L46.9863 48.5551C47.6711 48.1598 47.9686 47.3914 47.6489 46.8379L40.8138 34.9992C40.6219 34.6668 40.1333 34.5913 39.7227 34.8283L41.9444 33.5456C42.3563 33.3078 42.8437 33.3841 43.0355 33.7165Z" fill="#20B69F"/><path d="M39.6484 38.7773L44.3809 36.0449L45.8789 38.6395L41.1465 41.3719L39.6484 38.7773Z" fill="#FDDD45"/><path d="M42.1562 37.3276L44.3779 36.0449L45.876 38.6395L43.6542 39.9222L42.1562 37.3276Z" fill="#F8C52D"/><path d="M26.2747 26.2597C26.1433 26.2598 26.0141 26.2253 25.9003 26.1597C25.7864 26.094 25.6919 25.9994 25.6262 25.8856L19.4869 15.252C19.3877 15.0802 19.3609 14.876 19.4122 14.6843C19.4636 14.4927 19.5889 14.3293 19.7608 14.2301C19.9326 14.1309 20.1368 14.104 20.3284 14.1554C20.5201 14.2067 20.6834 14.3321 20.7826 14.5039L26.9219 25.1375C26.9875 25.2512 27.0221 25.3801 27.0222 25.5114C27.0222 25.6427 26.9877 25.7716 26.9221 25.8854C26.8566 25.9991 26.7622 26.0935 26.6486 26.1592C26.5349 26.2249 26.406 26.2596 26.2747 26.2597ZM30.8698 28.0734C30.7383 28.0735 30.6091 28.039 30.4953 27.9733C30.3814 27.9076 30.2869 27.8131 30.2212 27.6992L19.8947 9.81301C19.8456 9.72793 19.8138 9.63402 19.8009 9.53662C19.7881 9.43922 19.7946 9.34025 19.82 9.24536C19.8455 9.15047 19.8893 9.06152 19.9491 8.98358C20.0089 8.90565 20.0835 8.84025 20.1686 8.79114C20.3404 8.69194 20.5446 8.66506 20.7362 8.71641C20.8311 8.74184 20.9201 8.78571 20.998 8.84551C21.0759 8.90532 21.1413 8.97989 21.1905 9.06496L31.517 26.9512C31.5827 27.0649 31.6173 27.1938 31.6173 27.3251C31.6173 27.4564 31.5828 27.5854 31.5172 27.6991C31.4516 27.8128 31.3573 27.9072 31.2436 27.9729C31.13 28.0386 31.001 28.0733 30.8698 28.0734ZM34.0535 27.4426C33.9221 27.4428 33.7929 27.4082 33.6791 27.3426C33.5652 27.2769 33.4707 27.1823 33.405 27.0685L21.9407 7.21174C21.8415 7.03992 21.8147 6.83573 21.866 6.64409C21.9174 6.45245 22.0428 6.28906 22.2146 6.18987C22.3864 6.09067 22.5906 6.06379 22.7822 6.11514C22.9739 6.1665 23.1373 6.29187 23.2364 6.46369L34.7007 26.3205C34.7663 26.4342 34.8009 26.5631 34.8009 26.6944C34.801 26.8256 34.7664 26.9546 34.7009 27.0683C34.6353 27.182 34.541 27.2764 34.4273 27.3421C34.3137 27.4078 34.1848 27.4425 34.0535 27.4426ZM36.7146 25.9064C36.5831 25.9065 36.454 25.872 36.3401 25.8063C36.2262 25.7407 36.1317 25.6461 36.066 25.5322L24.6017 5.67541C24.5025 5.50359 24.4756 5.2994 24.527 5.10776C24.5783 4.91613 24.7037 4.75274 24.8755 4.65354C25.0473 4.55434 25.2515 4.52746 25.4432 4.57882C25.6348 4.63017 25.7982 4.75555 25.8974 4.92737L37.3617 24.7842C37.4274 24.8979 37.462 25.0268 37.462 25.1581C37.4621 25.2894 37.4276 25.4183 37.362 25.532C37.2964 25.6458 37.202 25.7402 37.0884 25.8059C36.9748 25.8716 36.8458 25.9063 36.7146 25.9064ZM38.8526 23.4644C38.7211 23.4645 38.5919 23.43 38.4781 23.3643C38.3642 23.2987 38.2697 23.2041 38.204 23.0903L27.8775 5.20412C27.7783 5.0323 27.7514 4.82811 27.8027 4.63648C27.8541 4.44484 27.9795 4.28145 28.1513 4.18225C28.3231 4.08305 28.5273 4.05617 28.7189 4.10753C28.9106 4.15888 29.074 4.28426 29.1732 4.45608L39.4997 22.3422C39.5654 22.4559 39.6 22.5848 39.6 22.7161C39.6 22.8474 39.5655 22.9763 39.5 23.09C39.4344 23.2038 39.34 23.2982 39.2264 23.3639C39.1128 23.4296 38.9838 23.4643 38.8526 23.4644ZM39.1683 17.8661C39.0368 17.8663 38.9077 17.8318 38.7938 17.7661C38.68 17.7004 38.5854 17.6059 38.5198 17.492L32.7917 7.57053C32.6925 7.39871 32.6656 7.19452 32.717 7.00288C32.7684 6.81124 32.8937 6.64785 33.0655 6.54866C33.2374 6.44946 33.4416 6.42258 33.6332 6.47393C33.8248 6.52528 33.9882 6.65066 34.0874 6.82248L39.8155 16.744C39.8812 16.8576 39.9158 16.9866 39.9158 17.1179C39.9159 17.2492 39.8814 17.3781 39.8158 17.4918C39.7502 17.6056 39.6558 17.7 39.5422 17.7657C39.4285 17.8314 39.2996 17.866 39.1683 17.8661Z" fill="#27D1B3"/><path d="M20.7884 13.0997C20.6236 13.0999 20.4634 13.0457 20.3326 12.9455C20.2018 12.8453 20.1077 12.7047 20.065 12.5456C20.0223 12.3865 20.0333 12.2177 20.0964 12.0655C20.1594 11.9132 20.271 11.7861 20.4137 11.7037L30.5524 5.85022C30.6374 5.8011 30.7314 5.76922 30.8288 5.7564C30.9262 5.74358 31.0251 5.75007 31.12 5.77549C31.2149 5.80092 31.3039 5.84479 31.3818 5.90459C31.4597 5.9644 31.5251 6.03897 31.5742 6.12404C31.6234 6.20912 31.6552 6.30304 31.6681 6.40044C31.6809 6.49784 31.6744 6.5968 31.649 6.69169C31.6235 6.78658 31.5797 6.87554 31.5199 6.95347C31.4601 7.03141 31.3855 7.0968 31.3004 7.14592L21.1617 12.9994C21.0483 13.0651 20.9195 13.0997 20.7884 13.0997ZM19.7255 17.2614C19.5607 17.2616 19.4005 17.2074 19.2697 17.1072C19.1389 17.007 19.0449 16.8665 19.0021 16.7073C18.9594 16.5482 18.9704 16.3794 19.0335 16.2272C19.0965 16.0749 19.2081 15.9478 19.3508 15.8655L34.6878 7.01057C34.8596 6.91137 35.0638 6.88449 35.2555 6.93584C35.4471 6.9872 35.6105 7.11258 35.7097 7.2844C35.8089 7.45622 35.8358 7.66041 35.7844 7.85205C35.7331 8.04368 35.6077 8.20707 35.4359 8.30627L20.0988 17.1612C19.9854 17.2269 19.8566 17.2615 19.7255 17.2614ZM20.6748 20.2613C20.5101 20.2614 20.3498 20.2072 20.219 20.107C20.0882 20.0068 19.9942 19.8663 19.9515 19.7071C19.9087 19.548 19.9198 19.3792 19.9828 19.227C20.0459 19.0747 20.1574 18.9476 20.3001 18.8653L36.8112 9.33254C36.9831 9.23334 37.1873 9.20646 37.3789 9.25782C37.5705 9.30917 37.7339 9.43455 37.8331 9.60637C37.9323 9.77819 37.9592 9.98238 37.9078 10.174C37.8565 10.3657 37.7311 10.529 37.5593 10.6282L21.0482 20.161C20.9347 20.2266 20.8059 20.2612 20.6748 20.2613ZM22.2111 22.9222C22.0463 22.9224 21.8861 22.8682 21.7553 22.768C21.6245 22.6678 21.5304 22.5272 21.4877 22.3681C21.445 22.2089 21.456 22.0401 21.519 21.8879C21.5821 21.7357 21.6936 21.6085 21.8363 21.5262L38.3475 11.9936C38.5191 11.8977 38.7215 11.8733 38.911 11.9255C39.1005 11.9778 39.2619 12.1025 39.3601 12.2727C39.4584 12.443 39.4857 12.645 39.4362 12.8353C39.3867 13.0255 39.2643 13.1886 39.0955 13.2893L22.5844 22.8219C22.4709 22.8876 22.3422 22.9222 22.2111 22.9222ZM24.3344 25.2443C24.1696 25.2445 24.0094 25.1902 23.8786 25.09C23.7478 24.9899 23.6537 24.8493 23.611 24.6901C23.5683 24.531 23.5793 24.3622 23.6424 24.21C23.7054 24.0578 23.817 23.9306 23.9597 23.8483L39.2967 14.9935C39.3818 14.9444 39.4757 14.9125 39.5731 14.8997C39.6705 14.8868 39.7695 14.8933 39.8643 14.9188C39.9592 14.9442 40.0482 14.988 40.1261 15.0479C40.2041 15.1077 40.2695 15.1822 40.3186 15.2673C40.3677 15.3524 40.3996 15.4463 40.4124 15.5437C40.4252 15.6411 40.4187 15.7401 40.3933 15.835C40.3679 15.9298 40.324 16.0188 40.2642 16.0967C40.2044 16.1747 40.1298 16.2401 40.0447 16.2892L24.7077 25.1439C24.5943 25.2096 24.4655 25.2442 24.3344 25.2443ZM29.6684 25.7125C29.5036 25.7127 29.3434 25.6585 29.2126 25.5583C29.0818 25.4581 28.9877 25.3175 28.945 25.1584C28.9023 24.9993 28.9133 24.8305 28.9764 24.6782C29.0394 24.526 29.1509 24.3989 29.2937 24.3165L38.2338 19.155C38.4054 19.0592 38.6079 19.0347 38.7974 19.087C38.9869 19.1392 39.1482 19.2639 39.2465 19.4342C39.3447 19.6044 39.3721 19.8065 39.3226 19.9967C39.273 20.1869 39.1507 20.35 38.9819 20.4507L30.0417 25.6122C29.9283 25.6779 29.7995 25.7125 29.6684 25.7125Z" fill="#20B69F"/><path d="M28.8716 48.6025C35.1951 48.6025 40.3213 43.4763 40.3213 37.1528C40.3213 30.8293 35.1951 25.7031 28.8716 25.7031C22.5481 25.7031 17.4219 30.8293 17.4219 37.1528C17.4219 43.4763 22.5481 48.6025 28.8716 48.6025Z" fill="#FB7722"/><path d="M40.3206 37.1526C40.3206 43.4768 35.1938 48.6024 28.8708 48.6024C27.9428 48.603 27.0182 48.4909 26.1172 48.2687C31.8601 47.8165 36.3792 43.0115 36.3792 37.1526C36.3792 31.2938 31.8601 26.4899 26.1172 26.0378C27.0182 25.8156 27.9428 25.7036 28.8708 25.7041C35.1938 25.7041 40.3206 30.8297 40.3206 37.1526Z" fill="#F2671F"/><path d="M39.4652 39.892C39.5739 39.8361 39.7864 39.7634 40.0377 39.6975L39.4452 41.5536C38.3331 42.0423 36.096 42.8931 34.0015 42.8931C32.653 42.8931 31.3644 42.539 30.4707 41.5087C29.4892 41.6828 28.4943 41.7703 27.4975 41.77C27.0157 41.77 26.538 41.7491 26.0662 41.7102C27.0626 46.2054 29.3007 47.9887 29.3267 48.0087C29.4443 48.0994 29.7386 48.3029 30.0558 48.5423C29.6668 48.5812 29.2718 48.6021 28.8719 48.6021C28.4869 48.6021 28.1068 48.5832 27.7318 48.5463C26.8162 47.5489 25.2324 45.3497 24.4943 41.5048C23.3952 41.3073 22.338 41.0011 21.3416 40.5962C20.9796 41.7063 20.3003 42.6289 19.3129 43.3439C19.2955 43.3556 19.2776 43.3662 19.2591 43.3759L18.526 42.0633C19.2471 41.5147 19.7309 40.8076 19.9722 39.9548C19.0636 39.47 18.2237 38.8936 17.4728 38.2343C17.4387 37.8749 17.4217 37.5141 17.4219 37.1531C17.4219 36.821 17.4358 36.4919 17.4638 36.1667C17.6297 36.3187 17.7923 36.4743 17.9515 36.6335C18.6048 37.2878 19.3528 37.8633 20.1727 38.352C20.1746 35.8545 18.7953 34.0582 18.0861 33.3032C18.2616 32.8101 18.4712 32.3299 18.7135 31.866H18.7145C18.7982 31.9148 18.865 31.9628 18.909 32.0057C19.659 32.7338 21.9779 35.32 21.6349 39.098C22.4607 39.4551 23.3394 39.7354 24.255 39.9328C23.6954 35.1064 24.7896 31.4021 25.8209 29.1281C26.554 27.5113 27.3519 26.3754 27.8496 25.749C28.1867 25.7181 28.5269 25.7031 28.872 25.7031C29.22 25.7031 29.5642 25.719 29.9032 25.75C29.6708 25.9734 29.4823 26.1489 29.4075 26.2258C29.3846 26.2497 28.1907 27.4994 27.1544 29.8094C26.198 31.9438 25.1815 35.4525 25.775 40.0465C25.781 40.0924 25.788 40.1362 25.7949 40.1821C26.3534 40.243 26.922 40.2739 27.4975 40.2739C28.2396 40.2739 28.9696 40.219 29.6817 40.1153C29.4554 39.4241 29.4234 38.6791 29.591 37.8912C30.4428 33.8827 36.3413 29.8723 37.2061 29.3027C37.5512 29.6681 37.8717 30.0559 38.1655 30.4637L38.1106 30.4996C38.0857 30.5155 36.4859 31.5499 34.8123 33.0399C32.6649 34.952 31.3653 36.7373 31.0542 38.2024C30.9285 38.7969 30.9654 39.3314 31.1679 39.8231C34.92 38.8836 37.9641 36.5447 39.0991 33.5037C39.141 33.383 39.2547 33.021 39.3964 32.637C39.714 33.3746 39.9521 34.144 40.1065 34.932C39.1869 36.7732 37.6301 38.4079 35.6383 39.6027C34.609 40.2211 33.4939 40.7118 32.318 41.0688C34.7237 42.2498 39.4114 39.9188 39.4652 39.892Z" fill="#554E55"/><path d="M29.0293 26.668C28.5303 26.4863 28.0137 26.3398 27.4844 26.2314C27.6172 26.0469 27.7393 25.8857 27.8477 25.749C28.1855 25.7188 28.5254 25.7031 28.8701 25.7031C29.2187 25.7031 29.5625 25.7197 29.9014 25.75C29.6689 25.9736 29.4805 26.1494 29.4062 26.2266C29.3984 26.2344 29.2559 26.3838 29.0293 26.668ZM29.3252 48.0088C29.4424 48.0996 29.7373 48.3027 30.0547 48.543C29.665 48.5811 29.2705 48.6025 28.8701 48.6025C28.4854 48.6025 28.1055 48.583 27.7305 48.5469C27.6133 48.4189 27.4844 48.2715 27.3477 48.1025C27.9014 47.9961 28.4395 47.8486 28.9609 47.6641C29.1807 47.8936 29.3193 48.0039 29.3252 48.0088ZM35.3848 32.5439C35.1729 32.0771 34.9297 31.6279 34.6582 31.1992C35.8584 30.207 36.8809 29.5156 37.2041 29.3027C37.5497 29.6679 37.8704 30.0558 38.1641 30.4639C38.1436 30.4766 38.126 30.4893 38.1094 30.5C38.0869 30.5137 36.833 31.3242 35.3848 32.5439ZM39.0977 33.5039C39.1396 33.3838 39.2529 33.0215 39.3945 32.6377C39.709 33.3662 39.9482 34.1348 40.1045 34.9326C39.2705 36.6025 37.9111 38.1035 36.1797 39.2598C36.3078 38.5925 36.3742 37.9148 36.3779 37.2354C37.6201 36.1924 38.5674 34.9248 39.0977 33.5039ZM39.4639 39.8926C39.5723 39.8369 39.7852 39.7637 40.0361 39.6982L39.4434 41.5537C38.4746 41.9795 36.6523 42.6807 34.8135 42.8535C35.1231 42.3334 35.3899 41.7889 35.6113 41.2256C37.5801 40.8291 39.4297 39.9092 39.4639 39.8926Z" fill="#433F43"/></g><defs><clipPath id="clip0_400_4753"><rect width="50" height="50" fill="white"/></clipPath></defs>
</svg>