<svg width="275" height="275" viewBox="0 0 275 275" fill="none" xmlns="http://www.w3.org/2000/svg"><g clip-path="url(#clip0_173_6353)"><path d="M270.703 260.827H262.759V137.276C262.759 135.659 261.852 134.176 260.412 133.446L194.46 99.8982V36.4013C194.46 34.0273 192.538 32.1044 190.164 32.1044H182.096V9.8789C182.096 7.50488 180.173 5.58203 177.799 5.58203H87.7153C85.3413 5.58203 83.4185 7.50488 83.4185 9.8789V32.0991H75.3511C72.9771 32.0991 71.0542 34.0219 71.0542 36.3959V84.3436H26.4204C24.0464 84.3436 22.1235 86.2664 22.1235 88.6404V184.928L1.42334 200.021C1.05565 200.288 0.744362 200.626 0.507278 201.014C0.270193 201.403 0.11196 201.834 0.0416252 202.283C-0.0287098 202.733 -0.00976735 203.192 0.0973696 203.634C0.204507 204.076 0.397737 204.493 0.666013 204.86L8.98584 216.247C10.1138 217.788 12.2783 218.126 13.8198 216.999L22.5049 210.661V260.81H14.1797C11.8057 260.81 9.88281 262.733 9.88281 265.107C9.88281 267.481 11.8057 269.404 14.1797 269.404H270.703C273.077 269.404 275 267.481 275 265.107C275 262.749 273.077 260.827 270.703 260.827Z" fill="#E1EFFB"/><path d="M260.414 133.44L194.463 99.8916V184.723L215.163 199.81C215.53 200.078 215.842 200.416 216.079 200.804C216.316 201.192 216.474 201.624 216.545 202.073C216.615 202.523 216.596 202.981 216.489 203.424C216.382 203.866 216.188 204.282 215.92 204.65L207.6 216.036C207.059 216.777 206.246 217.272 205.34 217.414C204.434 217.556 203.508 217.333 202.766 216.794L194.463 210.741V260.611H262.762V137.275C262.762 135.652 261.854 134.175 260.414 133.44ZM71.3405 84.3477H26.4219C24.0479 84.3477 22.125 86.2705 22.125 88.6445V184.932L71.3405 149.043V84.3477Z" fill="#8AC9FE"/><path d="M238.158 145.52H210.48C208.106 145.52 206.184 147.442 206.184 149.816V177.445C206.184 179.819 208.106 181.742 210.48 181.742H238.158C240.532 181.742 242.455 179.819 242.455 177.445V149.816C242.455 147.442 240.526 145.52 238.158 145.52Z" fill="#ECEFF1"/><path d="M73.3052 147.616C73.8971 147.184 74.6108 146.951 75.3435 146.951C76.0762 146.951 76.79 147.184 77.3819 147.616L108.137 170.035L139.182 147.401C139.774 146.969 140.488 146.736 141.22 146.736C141.953 146.736 142.667 146.969 143.259 147.401L194.461 184.725V36.4023C194.461 34.0283 192.538 32.1055 190.164 32.1055H75.3516C72.9775 32.1055 71.0547 34.0283 71.0547 36.4023V149.259L73.3052 147.616Z" fill="#81A7C6"/><path d="M215.161 199.812L143.258 147.395C142.666 146.963 141.953 146.73 141.22 146.73C140.487 146.73 139.773 146.963 139.182 147.395L108.137 170.029L125.974 183.032L141.217 171.914L202.759 216.784C204.3 217.912 206.465 217.574 207.593 216.027L215.913 204.64C217.046 203.11 216.708 200.94 215.161 199.812Z" fill="#FF4C4C"/><path d="M238.158 189.574H210.48C208.3 189.574 206.506 191.196 206.227 193.296L215.164 199.812C215.532 200.079 215.843 200.417 216.08 200.805C216.317 201.194 216.475 201.625 216.546 202.074C216.616 202.524 216.597 202.983 216.49 203.425C216.383 203.867 216.19 204.283 215.921 204.651L207.602 216.038C207.226 216.553 206.731 216.929 206.184 217.171V221.5C206.184 223.874 208.106 225.797 210.48 225.797H238.158C240.532 225.797 242.455 223.874 242.455 221.5V193.871C242.455 191.497 240.526 189.574 238.158 189.574Z" fill="#ECEFF1"/><path d="M96.5214 260.828V226.56C96.5214 225.499 96.0999 224.481 95.3494 223.731C94.599 222.98 93.5812 222.559 92.52 222.559H58.1772C57.6518 222.559 57.1314 222.662 56.6459 222.863C56.1605 223.064 55.7194 223.359 55.3478 223.731C54.9762 224.102 54.6815 224.543 54.4804 225.029C54.2793 225.514 54.1758 226.035 54.1758 226.56V260.828H96.5214Z" fill="#F1BA84"/><path d="M75.3452 226.556V260.824H96.5181V226.556C96.5181 225.495 96.0965 224.477 95.3461 223.727C94.5957 222.976 93.5779 222.555 92.5166 222.555H71.3438C73.5513 222.555 75.3452 224.349 75.3452 226.556Z" fill="#DE9252"/><path d="M73.3045 147.615L1.42333 200.031C1.05564 200.299 0.74436 200.637 0.507276 201.025C0.270193 201.413 0.11196 201.844 0.0416251 202.294C-0.0287098 202.743 -0.00976732 203.202 0.0973694 203.644C0.204506 204.086 0.397736 204.503 0.666011 204.87L8.98581 216.257C10.1137 217.799 12.2783 218.137 13.8198 217.009L75.3401 172.139L136.882 217.009C138.423 218.137 140.588 217.799 141.716 216.252L150.036 204.865C150.304 204.498 150.497 204.081 150.604 203.639C150.711 203.197 150.73 202.738 150.66 202.288C150.59 201.839 150.432 201.408 150.194 201.019C149.957 200.631 149.646 200.294 149.278 200.026L77.3811 147.609C76.7882 147.179 76.0743 146.948 75.3419 146.949C74.6095 146.95 73.8963 147.183 73.3045 147.615Z" fill="#FF4C4C"/><path d="M149.285 200.031L147.986 199.086L141.712 207.674C141.171 208.415 140.358 208.91 139.452 209.052C138.546 209.194 137.62 208.971 136.878 208.432L75.3363 163.551L13.8105 208.421C13.0698 208.962 12.1443 209.187 11.2378 209.046C10.3313 208.905 9.5179 208.41 8.97654 207.669L2.70849 199.091L1.41943 200.031C1.05174 200.299 0.740454 200.637 0.50337 201.025C0.266287 201.413 0.108054 201.845 0.0377189 202.294C-0.032616 202.743 -0.0136736 203.202 0.0934632 203.644C0.2006 204.087 0.39383 204.503 0.662105 204.871L8.98191 216.257C10.1098 217.799 12.2744 218.137 13.8159 217.009L75.3363 172.139L136.878 217.009C138.42 218.137 140.584 217.799 141.712 216.252L150.032 204.865C150.302 204.5 150.497 204.084 150.606 203.642C150.715 203.201 150.735 202.742 150.666 202.293C150.596 201.843 150.439 201.412 150.202 201.024C149.965 200.636 149.653 200.299 149.285 200.031Z" fill="#F33939"/><path d="M75.3506 213.523C82.3572 213.523 88.0372 207.848 88.0372 200.848C88.0372 193.847 82.3572 188.172 75.3506 188.172C68.344 188.172 62.6641 193.847 62.6641 200.848C62.6641 207.848 68.344 213.523 75.3506 213.523Z" fill="#CCDFED"/><path d="M128.841 61.6992V89.3282C128.841 91.7022 126.918 93.6251 124.544 93.6251H96.8672C94.4932 93.6251 92.5703 91.7022 92.5703 89.3282V61.6992C92.5703 59.3252 94.4932 57.4023 96.8672 57.4023H124.544C126.918 57.4023 128.841 59.3306 128.841 61.6992ZM168.652 57.4023H140.991C138.617 57.4023 136.694 59.3252 136.694 61.6992V89.3282C136.694 91.7022 138.617 93.6251 140.991 93.6251H168.652C171.026 93.6251 172.949 91.7022 172.949 89.3282V61.6992C172.949 59.3306 171.026 57.4023 168.652 57.4023ZM124.544 101.456H96.8672C94.4932 101.456 92.5703 103.379 92.5703 105.753V133.382C92.5703 135.756 94.4932 137.679 96.8672 137.679H124.544C126.918 137.679 128.841 135.756 128.841 133.382V105.753C128.841 103.379 126.918 101.456 124.544 101.456ZM168.652 101.456H140.991C138.617 101.456 136.694 103.379 136.694 105.753V133.382C136.694 135.756 138.617 137.679 140.991 137.679H168.652C171.026 137.679 172.949 135.756 172.949 133.382V105.753C172.949 103.379 171.026 101.456 168.652 101.456Z" fill="#ECEFF1"/><path d="M238.154 145.52H230.27C232.644 145.52 234.566 147.442 234.566 149.816V177.445C234.566 179.819 232.644 181.742 230.27 181.742H238.154C240.528 181.742 242.451 179.819 242.451 177.445V149.816C242.451 147.442 240.523 145.52 238.154 145.52ZM238.154 189.573H230.27C232.644 189.573 234.566 191.496 234.566 193.87V221.499C234.566 223.873 232.644 225.796 230.27 225.796H238.154C240.528 225.796 242.451 223.873 242.451 221.499V193.87C242.451 191.496 240.523 189.573 238.154 189.573Z" fill="#CCDFED"/><path d="M128.806 133.382V105.753C128.806 105.624 128.816 105.501 128.827 105.377C128.634 103.18 126.797 101.456 124.552 101.456H116.667C119.041 101.456 120.964 103.379 120.964 105.753V133.382C120.964 135.756 119.041 137.679 116.667 137.679H124.552C125.626 137.679 126.661 137.276 127.452 136.55C128.244 135.824 128.734 134.828 128.827 133.758C128.811 133.634 128.806 133.506 128.806 133.382ZM120.953 61.6992V89.3282C120.953 91.7022 119.03 93.6251 116.656 93.6251H124.541C125.615 93.6251 126.65 93.2223 127.442 92.4964C128.233 91.7705 128.724 90.7742 128.816 89.7042C128.804 89.5792 128.797 89.4538 128.795 89.3282V61.6992C128.795 61.5703 128.806 61.4468 128.816 61.3233C128.623 59.1265 126.786 57.4023 124.541 57.4023H116.656C119.03 57.4023 120.953 59.3306 120.953 61.6992ZM168.654 57.4023H160.769C163.143 57.4023 165.066 59.3252 165.066 61.6992V89.3282C165.066 91.7022 163.143 93.6251 160.769 93.6251H168.654C171.028 93.6251 172.951 91.7022 172.951 89.3282V61.6992C172.951 59.3306 171.028 57.4023 168.654 57.4023ZM168.654 101.456H160.769C163.143 101.456 165.066 103.379 165.066 105.753V133.382C165.066 135.756 163.143 137.679 160.769 137.679H168.654C171.028 137.679 172.951 135.756 172.951 133.382V105.753C172.951 103.379 171.028 101.456 168.654 101.456Z" fill="#CCDFED"/><path d="M270.703 269.422H14.1797C11.8057 269.422 9.88281 267.499 9.88281 265.125C9.88281 262.751 11.8057 260.828 14.1797 260.828H270.703C273.077 260.828 275 262.751 275 265.125C275 267.499 273.077 269.422 270.703 269.422Z" fill="#2D5871"/><path d="M120.06 260.828H128.176V210.662L75.3457 172.141L71.2852 175.1L120.06 210.662V260.828ZM185.937 260.608H194.052V210.447L141.217 171.926L137.162 174.885L185.937 210.447V260.608Z" fill="#CCDFED"/><path d="M215.164 199.811L213.864 198.866L207.59 207.454C207.049 208.194 206.236 208.69 205.33 208.832C204.424 208.973 203.498 208.75 202.756 208.211L141.214 163.336L120.09 178.74L125.982 183.037L141.225 171.919L202.767 216.789C204.309 217.917 206.473 217.578 207.601 216.032L215.921 204.645C217.049 203.109 216.71 200.939 215.164 199.811Z" fill="#F33939"/><path d="M182.099 32.1045V9.8789C182.099 7.50488 180.177 5.58203 177.803 5.58203H87.7187C85.3447 5.58203 83.4219 7.50488 83.4219 9.8789V32.0991H182.099V32.1045Z" fill="#5C90B9"/><path d="M185.938 36.4184V178.51L194.461 184.725V36.4023C194.461 34.0283 192.539 32.1055 190.165 32.1055H181.641C184.015 32.1055 185.938 34.0337 185.938 36.4184Z" fill="#79A3BF"/><path d="M71.0566 101.457H45.125C42.751 101.457 40.8281 103.38 40.8281 105.754V133.383C40.8281 135.757 42.751 137.68 45.125 137.68H71.062V101.457H71.0566Z" fill="#ECEFF1"/><path d="M61.8164 84.3477H71.0547V101.455H61.8164V84.3477Z" fill="#60B7FF"/><path d="M61.8164 101.457H71.0547V137.502H61.8164V101.457Z" fill="#E1EFFB"/><path d="M71.0547 149.254V137.68H61.8164V155.99L71.0547 149.254ZM253.521 260.608H262.759V137.277C262.759 135.66 261.852 134.178 260.412 133.447L252.345 129.344C253.104 130.178 253.523 131.267 253.521 132.395V260.608Z" fill="#60B7FF"/></g><defs><clipPath id="clip0_173_6353"><rect width="275" height="275" fill="white"/></clipPath></defs></svg>