<svg width="25" height="25" viewBox="0 0 25 25" fill="none" xmlns="http://www.w3.org/2000/svg"><path d="M0.572314 16.2501C0.200439 15.0663 0 13.8066 0 12.5C0 5.59644 5.59644 0 12.5 0C19.4036 0 25 5.59644 25 12.5C25 19.4036 19.4036 25 12.5 25C8.71836 25 5.32891 23.3207 3.03677 20.6671L0.572314 16.2501Z" fill="#FE8205"/><path d="M3.03516 20.667L4.3313 21.9631C6.52192 23.8554 9.37651 24.9999 12.4984 24.9999C19.402 24.9999 24.9984 19.4035 24.9984 12.4999C24.9984 12.4284 24.9978 12.3571 24.9966 12.2859L16.6541 3.94336L4.95483 12.2888L6.56445 13.8984L5.99541 14.2607L7.85034 16.1156L3.03516 20.667Z" fill="#F24500"/><path d="M5.99609 10.6094H8.29932V14.2608H5.99609V10.6094Z" fill="#636978"/><path d="M16.6992 10.6094H19.0024V14.2608H16.6992V10.6094Z" fill="#414952"/><path d="M18.8753 8.3647H6.12109L8.34253 3.94336H16.6539L18.8753 8.3647Z" fill="#7584F2"/><path d="M16.6538 3.94336H12.5156V8.3647H18.8752L16.6538 3.94336Z" fill="#606AEA"/><path d="M17.3205 8.36504H7.67578L9.35562 4.9873H15.6406L17.3205 8.36504Z" fill="white"/><path d="M15.6406 4.9873H12.5156V8.36504H17.3204L15.6406 4.9873Z" fill="#E9EDF5"/><path d="M20.0442 12.2887H4.95703V9.71587C4.95703 8.6145 5.84985 7.72168 6.95122 7.72168H18.05C19.1514 7.72168 20.0442 8.6145 20.0442 9.71587V12.2887Z" fill="#7584F2"/><path d="M20.0417 9.71587C20.0417 8.6145 19.1489 7.72168 18.0475 7.72168H12.5156V12.2887H20.0417V9.71587Z" fill="#606AEA"/><path d="M5.99609 9.45312H9.08408V10.6095H5.99609V9.45312Z" fill="white"/><path d="M15.9141 9.45312H19.0021V10.6095H15.9141V9.45312Z" fill="#E9EDF5"/><path d="M18.3947 15.9573L13.8705 18.7851L10.6796 17.0163L14.22 16.0656C14.6819 15.8354 14.9161 15.3101 14.7788 14.8125C14.6349 14.291 14.1272 13.9568 13.5915 14.0307L9.05859 14.1602C8.45078 14.1776 7.84696 14.2647 7.25898 14.4197L0.574219 16.2499C1.09087 17.8947 1.93828 19.393 3.03862 20.6668C4.63594 19.7934 6.06504 18.9985 6.06504 18.9985L11.9429 21.2177C12.4539 21.4088 13.0035 21.4733 13.5448 21.4056C14.0861 21.3379 14.6029 21.1401 15.051 20.8291L20.5412 16.9122L20.2065 16.3573C19.8218 15.7392 19.0039 15.5587 18.3947 15.9573Z" fill="#FFDECF"/><path d="M14.2163 16.0656C14.6781 15.8354 14.9124 15.3102 14.775 14.8126C14.6311 14.2911 14.1234 13.9568 13.5877 14.0307L12.5156 14.0613V16.5222L14.2163 16.0656ZM20.2027 16.3574C19.818 15.7393 19.0001 15.5587 18.3909 15.9573L13.8667 18.7852L12.5157 18.0362V21.3767C12.9529 21.4565 13.4016 21.4493 13.836 21.3553C14.2705 21.2613 14.6821 21.0825 15.0472 20.8292L20.5374 16.9123L20.2027 16.3574Z" fill="#FFCDBE"/></svg>