<svg width="200" height="200" viewBox="0 0 200 200" fill="none" xmlns="http://www.w3.org/2000/svg"><g clip-path="url(#clip0_230_10992)"><path d="M30.7719 85.9937L45.9281 59.4719C48.1147 55.6452 51.2741 52.4646 55.086 50.2524C58.898 48.0402 63.227 46.875 67.6344 46.875H119.866C124.271 46.8767 128.598 48.0426 132.409 50.2547C136.219 52.4668 139.377 55.6466 141.562 59.4719L156.422 85.4719C157.342 87.0819 158.608 88.467 160.13 89.5269C161.651 90.5868 163.39 91.295 165.219 91.6L175.975 93.3937C181.814 94.3645 187.119 97.3756 190.947 101.891C194.774 106.407 196.874 112.134 196.875 118.053V128.125C196.875 131.44 195.558 134.62 193.214 136.964C190.87 139.308 187.69 140.625 184.375 140.625H15.625C12.3098 140.625 9.13037 139.308 6.78617 136.964C4.44196 134.62 3.125 131.44 3.125 128.125V106.634C3.12542 103.847 4.05752 101.14 5.77316 98.9427C7.48879 96.7458 9.88951 95.1853 12.5938 94.5094L22.95 91.9187C24.586 91.5098 26.1224 90.7741 27.4666 89.7559C28.8109 88.7376 29.9352 87.4579 30.7719 85.9937Z" fill="#FF938D"/><path d="M193.75 131.25H46.4906C37.4757 131.25 28.8301 127.669 22.4556 121.294C16.0811 114.92 12.5 106.274 12.5 97.2594C12.5128 96.3111 12.6345 95.3674 12.8625 94.4469L12.5969 94.5125C9.89257 95.1878 7.49154 96.7475 5.77535 98.9438C4.05916 101.14 3.12629 103.847 3.125 106.634V128.125C3.125 131.44 4.44196 134.62 6.78617 136.964C9.13037 139.308 12.3098 140.625 15.625 140.625H184.375C187.202 140.62 189.943 139.657 192.152 137.893C194.361 136.129 195.907 133.668 196.537 130.913C195.624 131.13 194.689 131.243 193.75 131.25Z" fill="#F27875"/><path d="M3.125 106.625V115.625H12.5L15.625 103.125H3.625C3.29942 104.263 3.13119 105.441 3.125 106.625Z" fill="#A7D0E1"/><path d="M14.3469 108.238C13.7776 106.57 13.3409 104.861 13.0406 103.125H3.66562C3.57614 103.424 3.49796 103.726 3.43125 104.031C3.38438 104.25 3.325 104.469 3.29062 104.691C3.18493 105.333 3.12955 105.983 3.125 106.634V115.625H12.5L14.3469 108.238Z" fill="#80BBCE"/><path d="M121.047 56.25H100V87.5H146.875L131.766 62.3187C130.655 60.4678 129.084 58.936 127.206 57.8725C125.327 56.8089 123.205 56.25 121.047 56.25Z" fill="#A7D0E1"/><path d="M128.339 71.8751C127.799 71.876 127.267 71.7369 126.797 71.4713C126.327 71.2056 125.933 70.8226 125.655 70.3594L123.727 67.1407C123.3 66.43 123.174 65.579 123.375 64.7749C123.576 63.9709 124.088 63.2796 124.798 62.8532C125.509 62.4268 126.36 62.3001 127.164 62.5012C127.968 62.7022 128.66 63.2144 129.086 63.9251L131.014 67.1407C131.299 67.6146 131.453 68.1555 131.46 68.7083C131.467 69.2611 131.328 69.806 131.056 70.2873C130.784 70.7687 130.389 71.1692 129.912 71.4482C129.435 71.7271 128.892 71.8744 128.339 71.8751Z" fill="white"/><path d="M109.375 65.625V56.25H100V87.5H146.875L141.25 78.125H121.875C118.56 78.125 115.38 76.808 113.036 74.4638C110.692 72.1196 109.375 68.9402 109.375 65.625Z" fill="#80BBCE"/><path d="M40.625 87.5H87.5V56.25H66.4531C64.2945 56.25 62.1728 56.8089 60.2943 57.8725C58.4159 58.936 56.845 60.4678 55.7344 62.3187L40.625 87.5Z" fill="#A7D0E1"/><path d="M67.6094 59.1937L69.375 56.25H66.4531C64.2945 56.25 62.1728 56.8089 60.2943 57.8725C58.4159 58.936 56.845 60.4678 55.7344 62.3187L40.625 87.5H87.5V78.125H78.3281C76.1161 78.125 73.9436 77.538 72.0326 76.424C70.1216 75.3099 68.5404 73.7087 67.4505 71.7838C66.3606 69.8588 65.8011 67.6792 65.829 65.4673C65.8569 63.2554 66.4713 61.0906 67.6094 59.1937Z" fill="#80BBCE"/><path d="M178.125 103.125C178.123 104.767 178.445 106.393 179.072 107.911C179.7 109.428 180.62 110.807 181.782 111.968C182.943 113.13 184.322 114.05 185.839 114.678C187.357 115.305 188.983 115.627 190.625 115.625H196.75C196.326 111.084 194.637 106.754 191.875 103.125H178.125Z" fill="#A7D0E1"/><path d="M165.625 137.5C165.64 134.896 165.112 132.318 164.076 129.93C163.04 127.541 161.518 125.394 159.606 123.626C157.695 121.859 155.436 120.508 152.974 119.661C150.512 118.814 147.901 118.489 145.306 118.707C142.712 118.925 140.191 119.681 137.905 120.926C135.618 122.172 133.616 123.88 132.027 125.942C130.437 128.004 129.294 130.374 128.67 132.902C128.047 135.43 127.957 138.06 128.406 140.625H165.343C165.524 139.593 165.618 138.548 165.625 137.5Z" fill="#F27875"/><path d="M153.125 153.125C163.48 153.125 171.875 144.73 171.875 134.375C171.875 124.02 163.48 115.625 153.125 115.625C142.77 115.625 134.375 124.02 134.375 134.375C134.375 144.73 142.77 153.125 153.125 153.125Z" fill="#7A838B"/><path d="M153.125 140.625C156.577 140.625 159.375 137.827 159.375 134.375C159.375 130.923 156.577 128.125 153.125 128.125C149.673 128.125 146.875 130.923 146.875 134.375C146.875 137.827 149.673 140.625 153.125 140.625Z" fill="#A7D0E1"/><path d="M46.875 153.125C57.2303 153.125 65.625 144.73 65.625 134.375C65.625 124.02 57.2303 115.625 46.875 115.625C36.5197 115.625 28.125 124.02 28.125 134.375C28.125 144.73 36.5197 153.125 46.875 153.125Z" fill="#7A838B"/><path d="M56.2482 143.75C53.1147 143.754 50.0304 142.971 47.2778 141.474C44.5251 139.977 42.1921 137.813 40.4925 135.18C38.7929 132.548 37.7809 129.531 37.5493 126.406C37.3178 123.281 37.874 120.148 39.167 117.294C36.3972 118.538 33.9711 120.437 32.0973 122.826C30.2235 125.216 28.958 128.024 28.4097 131.011C27.8615 133.998 28.0468 137.073 28.9497 139.972C29.8526 142.871 31.4462 145.508 33.5933 147.655C35.7405 149.802 38.377 151.396 41.2762 152.298C44.1754 153.201 47.2505 153.387 50.2371 152.838C53.2237 152.29 56.0325 151.025 58.4219 149.151C60.8114 147.277 62.71 144.851 63.9545 142.081C61.5338 143.18 58.9065 143.749 56.2482 143.75ZM162.083 143.75C158.949 143.754 155.864 142.972 153.111 141.475C150.358 139.978 148.025 137.814 146.325 135.182C144.625 132.549 143.612 129.532 143.381 126.407C143.149 123.282 143.705 120.148 144.998 117.294C142.228 118.538 139.802 120.437 137.929 122.826C136.055 125.216 134.789 128.024 134.241 131.011C133.693 133.998 133.878 137.073 134.781 139.972C135.684 142.871 137.277 145.508 139.425 147.655C141.572 149.802 144.208 151.396 147.107 152.298C150.007 153.201 153.082 153.387 156.068 152.838C159.055 152.29 161.864 151.025 164.253 149.151C166.643 147.277 168.541 144.851 169.786 142.081C167.366 143.179 164.74 143.748 162.083 143.75Z" fill="#5D6972"/><path d="M46.875 140.625C50.3268 140.625 53.125 137.827 53.125 134.375C53.125 130.923 50.3268 128.125 46.875 128.125C43.4232 128.125 40.625 130.923 40.625 134.375C40.625 137.827 43.4232 140.625 46.875 140.625Z" fill="#A7D0E1"/><path d="M176.5 90.3125L165.741 88.5219C164.368 88.295 163.064 87.7646 161.922 86.9693C160.781 86.174 159.832 85.134 159.144 83.925L144.284 57.925C141.82 53.6235 138.265 50.048 133.978 47.5592C129.691 45.0705 124.823 43.7566 119.866 43.75H67.6344C62.6774 43.7562 57.8098 45.0697 53.5225 47.5579C49.2353 50.0461 45.6801 53.621 43.2156 57.9219L28.0594 84.4437C27.429 85.5406 26.5842 86.4994 25.5754 87.2628C24.5666 88.0263 23.4144 88.5788 22.1875 88.8875L11.8313 91.475C9.25274 92.1205 6.88227 93.415 4.94538 95.2353C3.00849 97.0557 1.5696 99.3414 0.765625 101.875C0.73125 101.956 0.728125 102.053 0.7 102.137C0.247569 103.594 0.011714 105.109 0 106.634L0 128.125C0.00496206 132.267 1.65276 136.239 4.58194 139.168C7.51112 142.097 11.4825 143.745 15.625 143.75H27.1406C28.908 147.489 31.7013 150.649 35.195 152.862C38.6888 155.075 42.7394 156.25 46.875 156.25C51.0106 156.25 55.0612 155.075 58.555 152.862C62.0487 150.649 64.842 147.489 66.6094 143.75H133.391C135.158 147.489 137.951 150.649 141.445 152.862C144.939 155.075 148.989 156.25 153.125 156.25C157.261 156.25 161.311 155.075 164.805 152.862C168.299 150.649 171.092 147.489 172.859 143.75H184.375C188.517 143.745 192.489 142.097 195.418 139.168C198.347 136.239 199.995 132.267 200 128.125V118.053C200.017 111.391 197.661 104.941 193.355 99.8582C189.049 94.7752 183.074 91.3912 176.5 90.3125ZM190.294 106.25C191.53 108.177 192.455 110.286 193.034 112.5H190.625C188.146 112.499 185.767 111.52 184.006 109.775C183.016 108.777 182.259 107.574 181.788 106.25H190.294ZM6.28125 106.25H11.6219L10.0594 112.5H6.25V106.634C6.25 106.503 6.27812 106.378 6.28125 106.25ZM46.875 150C43.7847 150 40.7637 149.084 38.1942 147.367C35.6247 145.65 33.622 143.21 32.4394 140.354C31.2568 137.499 30.9473 134.358 31.5502 131.327C32.1531 128.296 33.6413 125.512 35.8265 123.326C38.0117 121.141 40.7958 119.653 43.8267 119.05C46.8577 118.447 49.9993 118.757 52.8544 119.939C55.7095 121.122 58.1498 123.125 59.8667 125.694C61.5836 128.264 62.5 131.285 62.5 134.375C62.495 138.517 60.8472 142.489 57.9181 145.418C54.9889 148.347 51.0175 149.995 46.875 150ZM153.125 150C150.035 150 147.014 149.084 144.444 147.367C141.875 145.65 139.872 143.21 138.689 140.354C137.507 137.499 137.197 134.358 137.8 131.327C138.403 128.296 139.891 125.512 142.076 123.326C144.262 121.141 147.046 119.653 150.077 119.05C153.108 118.447 156.249 118.757 159.104 119.939C161.96 121.122 164.4 123.125 166.117 125.694C167.834 128.264 168.75 131.285 168.75 134.375C168.745 138.517 167.097 142.489 164.168 145.418C161.239 148.347 157.267 149.995 153.125 150ZM184.375 137.5H174.75C175.225 134.385 175.021 131.203 174.153 128.174C173.284 125.144 171.772 122.338 169.718 119.948C167.664 117.557 165.118 115.639 162.255 114.323C159.391 113.008 156.276 112.327 153.125 112.327C149.974 112.327 146.859 113.008 143.995 114.323C141.132 115.639 138.586 117.557 136.532 119.948C134.478 122.338 132.966 125.144 132.097 128.174C131.229 131.203 131.025 134.385 131.5 137.5H68.5C68.9751 134.385 68.7714 131.203 67.9029 128.174C67.0344 125.144 65.5216 122.338 63.468 119.948C61.4144 117.557 58.8685 115.639 56.0046 114.323C53.1407 113.008 50.0265 112.327 46.875 112.327C43.7235 112.327 40.6093 113.008 37.7454 114.323C34.8815 115.639 32.3356 117.557 30.282 119.948C28.2284 122.338 26.7156 125.144 25.8471 128.174C24.9786 131.203 24.7749 134.385 25.25 137.5H15.625C13.1386 137.5 10.754 136.512 8.99587 134.754C7.23772 132.996 6.25 130.611 6.25 128.125V118.75H12.5C13.1967 118.75 13.8733 118.517 14.4225 118.089C14.9717 117.66 15.362 117.06 15.5312 116.384L18.6562 103.884C18.7717 103.424 18.7805 102.943 18.6822 102.478C18.5838 102.013 18.3808 101.577 18.0885 101.202C17.7963 100.828 17.4225 100.525 16.9957 100.317C16.5688 100.108 16.1 100 15.625 100H9.02812C10.2195 98.804 11.7133 97.954 13.35 97.5406L23.7094 94.95C25.7522 94.4342 27.6703 93.5127 29.3496 92.2404C31.0289 90.968 32.4351 89.3708 33.4844 87.5438L48.6406 61.0219C50.5579 57.6769 53.3234 54.8967 56.6581 52.9616C59.9928 51.0265 63.7789 50.0049 67.6344 50H119.866C123.721 50.0049 127.507 51.0265 130.842 52.9616C134.177 54.8967 136.942 57.6769 138.859 61.0219L153.716 87.0219C154.862 89.0383 156.444 90.7731 158.346 92.0994C160.249 93.4257 162.424 94.31 164.712 94.6875L175.472 96.4813C178.618 97.0018 181.613 98.2026 184.247 100H178.125C177.296 100 176.501 100.329 175.915 100.915C175.329 101.501 175 102.296 175 103.125C174.998 105.177 175.401 107.21 176.185 109.107C176.97 111.004 178.121 112.727 179.572 114.178C181.023 115.629 182.746 116.78 184.643 117.565C186.54 118.349 188.573 118.752 190.625 118.75H193.75V128.125C193.75 130.611 192.762 132.996 191.004 134.754C189.246 136.512 186.861 137.5 184.375 137.5Z" fill="black"/><path d="M142.056 73.3906C141.629 72.6799 140.938 72.1679 140.133 71.9672C139.329 71.7665 138.478 71.8935 137.767 72.3203C137.056 72.7471 136.544 73.4388 136.344 74.2432C136.143 75.0475 136.27 75.8987 136.697 76.6094L141.356 84.375H103.125V59.375H121.047C122.665 59.3794 124.255 59.8007 125.664 60.5982C127.072 61.3957 128.251 62.5425 129.088 63.9281L131.069 67.2344C131.496 67.9451 132.187 68.4571 132.992 68.6578C133.796 68.8586 134.647 68.7315 135.358 68.3047C136.069 67.8779 136.581 67.1862 136.781 66.3818C136.982 65.5775 136.855 64.7263 136.428 64.0156L134.444 60.7094C133.05 58.401 131.085 56.4905 128.739 55.162C126.392 53.8336 123.743 53.1321 121.047 53.125H100C99.1712 53.125 98.3763 53.4542 97.7903 54.0403C97.2042 54.6263 96.875 55.4212 96.875 56.25V87.5C96.875 88.3288 97.2042 89.1237 97.7903 89.7097C98.3763 90.2958 99.1712 90.625 100 90.625H146.875C147.428 90.6249 147.971 90.478 148.449 90.1993C148.927 89.9206 149.322 89.5201 149.594 89.0386C149.867 88.5572 150.006 88.0121 149.999 87.4591C149.992 86.906 149.838 86.3647 149.553 85.8906L142.056 73.3906ZM87.5 53.125H66.4531C63.7567 53.1321 61.1076 53.8336 58.7611 55.162C56.4146 56.4905 54.4498 58.401 53.0563 60.7094L37.9469 85.8906C37.662 86.3647 37.5081 86.906 37.5009 87.4591C37.4936 88.0121 37.6333 88.5572 37.9056 89.0386C38.178 89.5201 38.5732 89.9206 39.051 90.1993C39.5287 90.478 40.0719 90.6249 40.625 90.625H87.5C88.3288 90.625 89.1237 90.2958 89.7097 89.7097C90.2958 89.1237 90.625 88.3288 90.625 87.5V56.25C90.625 55.4212 90.2958 54.6263 89.7097 54.0403C89.1237 53.4542 88.3288 53.125 87.5 53.125ZM84.375 84.375H46.1438L58.4125 63.9281C59.2488 62.5425 60.428 61.3957 61.8363 60.5982C63.2447 59.8007 64.8347 59.3794 66.4531 59.375H84.375V84.375ZM106.25 93.75H100C99.1712 93.75 98.3763 94.0792 97.7903 94.6653C97.2042 95.2513 96.875 96.0462 96.875 96.875C96.875 97.7038 97.2042 98.4987 97.7903 99.0847C98.3763 99.6708 99.1712 100 100 100H106.25C107.079 100 107.874 99.6708 108.46 99.0847C109.046 98.4987 109.375 97.7038 109.375 96.875C109.375 96.0462 109.046 95.2513 108.46 94.6653C107.874 94.0792 107.079 93.75 106.25 93.75ZM46.875 93.75H40.625C39.7962 93.75 39.0013 94.0792 38.4153 94.6653C37.8292 95.2513 37.5 96.0462 37.5 96.875C37.5 97.7038 37.8292 98.4987 38.4153 99.0847C39.0013 99.6708 39.7962 100 40.625 100H46.875C47.7038 100 48.4987 99.6708 49.0847 99.0847C49.6708 98.4987 50 97.7038 50 96.875C50 96.0462 49.6708 95.2513 49.0847 94.6653C48.4987 94.0792 47.7038 93.75 46.875 93.75ZM153.125 125C151.271 125 149.458 125.55 147.917 126.58C146.375 127.61 145.173 129.074 144.464 130.787C143.754 132.5 143.568 134.385 143.93 136.204C144.292 138.023 145.185 139.693 146.496 141.004C147.807 142.315 149.477 143.208 151.296 143.57C153.115 143.932 155 143.746 156.713 143.036C158.426 142.327 159.89 141.125 160.92 139.583C161.95 138.042 162.5 136.229 162.5 134.375C162.5 131.889 161.512 129.504 159.754 127.746C157.996 125.988 155.611 125 153.125 125ZM153.125 137.5C152.507 137.5 151.903 137.317 151.389 136.973C150.875 136.63 150.474 136.142 150.238 135.571C150.001 135 149.939 134.372 150.06 133.765C150.181 133.159 150.478 132.602 150.915 132.165C151.352 131.728 151.909 131.431 152.515 131.31C153.122 131.189 153.75 131.251 154.321 131.488C154.892 131.724 155.38 132.125 155.723 132.639C156.067 133.153 156.25 133.757 156.25 134.375C156.25 135.204 155.921 135.999 155.335 136.585C154.749 137.171 153.954 137.5 153.125 137.5ZM46.875 125C45.0208 125 43.2082 125.55 41.6665 126.58C40.1248 127.61 38.9232 129.074 38.2136 130.787C37.5041 132.5 37.3184 134.385 37.6801 136.204C38.0419 138.023 38.9348 139.693 40.2459 141.004C41.557 142.315 43.2275 143.208 45.046 143.57C46.8646 143.932 48.7496 143.746 50.4627 143.036C52.1757 142.327 53.6399 141.125 54.67 139.583C55.7002 138.042 56.25 136.229 56.25 134.375C56.25 131.889 55.2623 129.504 53.5041 127.746C51.746 125.988 49.3614 125 46.875 125ZM46.875 137.5C46.2569 137.5 45.6528 137.317 45.1388 136.973C44.6249 136.63 44.2244 136.142 43.9879 135.571C43.7514 135 43.6895 134.372 43.8101 133.765C43.9306 133.159 44.2283 132.602 44.6653 132.165C45.1023 131.728 45.6592 131.431 46.2653 131.31C46.8715 131.189 47.4999 131.251 48.0709 131.488C48.6419 131.724 49.13 132.125 49.4733 132.639C49.8167 133.153 50 133.757 50 134.375C50 135.204 49.6708 135.999 49.0847 136.585C48.4987 137.171 47.7038 137.5 46.875 137.5Z" fill="black"/></g><defs><clipPath id="clip0_230_10992"><rect width="200" height="200" fill="white"/></clipPath></defs></svg>