<svg width="200" height="200" viewBox="0 0 200 200" fill="none" xmlns="http://www.w3.org/2000/svg"><path d="M115.625 184.375H9.375L15.625 59.375H109.375L115.625 184.375Z" fill="#EB423F"/><path d="M140.625 184.375H115.625L109.375 59.375H134.375L140.625 184.375Z" fill="#D13330"/><path d="M190.625 184.375H165.625L165.234 179.324V179.32L159.375 103.125H184.375L190.137 178.004V178.008L190.625 184.375Z" fill="#EBA72E"/><path d="M50 115.625H31.25V90.625L40.625 84.375L50 90.625V115.625ZM165.625 184.375H84.375L90.625 103.125H159.375L165.625 184.375Z" fill="#F7B030"/><path d="M187.491 102.885C187.431 102.1 187.076 101.367 186.498 100.832C185.921 100.297 185.162 100 184.375 100H139.535L137.496 59.2188C137.456 58.418 137.11 57.6633 136.529 57.1108C135.948 56.5582 135.177 56.25 134.375 56.25H112.5V40.625C112.502 36.1252 111.423 31.6906 109.355 27.6941C107.287 23.6976 104.29 20.2558 100.615 17.6581C96.9411 15.0603 92.6969 13.3825 88.2395 12.7655C83.7821 12.1486 79.2418 12.6105 75 14.1125C70.7582 12.6105 66.2178 12.1486 61.7604 12.7655C57.303 13.3825 53.0588 15.0603 49.3845 17.6581C45.7102 20.2558 42.7131 23.6976 40.645 27.6941C38.577 31.6906 37.4984 36.1252 37.5 40.625V56.25H15.625C14.8232 56.25 14.0522 56.5582 13.4712 57.1108C12.8903 57.6633 12.544 58.418 12.5039 59.2188L6.25391 184.219C6.23273 184.642 6.29776 185.065 6.44505 185.462C6.59234 185.859 6.81882 186.222 7.11072 186.529C7.40263 186.836 7.75387 187.08 8.14311 187.247C8.53235 187.414 8.95146 187.5 9.375 187.5H190.625C191.056 187.5 191.482 187.411 191.876 187.239C192.271 187.066 192.625 186.814 192.918 186.498C193.211 186.182 193.435 185.809 193.576 185.403C193.718 184.996 193.774 184.565 193.741 184.135L187.491 102.885ZM178.125 171.259L184.786 181.25H171.466L178.125 171.259ZM186.592 172.692L181.157 164.539L175.328 106.25H181.481L186.592 172.692ZM169.047 106.25L174.906 164.823L168.047 175.109L162.75 106.25H169.047ZM133.277 100H127.396L125.189 62.5H131.4L133.277 100ZM118.928 62.5L121.135 100H114.533L112.658 62.5H118.928ZM84.375 18.75C90.1745 18.7567 95.7347 21.0635 99.8356 25.1644C103.937 29.2653 106.243 34.8255 106.25 40.625V56.25H93.75V40.625C93.75 36.4351 92.8124 32.2983 91.0058 28.5179C89.1993 24.7374 86.5697 21.4091 83.3097 18.777C83.6646 18.7596 84.0197 18.7506 84.375 18.75ZM75 20.8649C78.7374 22.6413 81.8952 25.4402 84.1075 28.9374C86.3197 32.4345 87.496 36.4869 87.5 40.625V56.25H62.5V40.625C62.504 36.4869 63.6802 32.4345 65.8925 28.9374C68.1047 25.4402 71.2625 22.6413 75 20.8649ZM43.75 40.625C43.7566 34.8255 46.0634 29.2653 50.1643 25.1644C54.2653 21.0635 59.8254 18.7567 65.625 18.75C65.9824 18.75 66.3371 18.7602 66.6902 18.777C63.4302 21.4091 60.8005 24.7373 58.994 28.5178C57.1875 32.2983 56.2499 36.4351 56.25 40.625V56.25H43.75V40.625ZM81.4812 181.25H12.6602L18.5977 62.5H37.5V82.7028L29.5164 88.025C29.0884 88.3104 28.7375 88.697 28.4947 89.1506C28.252 89.6042 28.125 90.1106 28.125 90.625V115.625C28.125 116.454 28.4542 117.249 29.0403 117.835C29.6263 118.421 30.4212 118.75 31.25 118.75H50C50.8288 118.75 51.6236 118.421 52.2097 117.835C52.7957 117.249 53.125 116.454 53.125 115.625V90.625C53.125 90.1106 52.998 89.6042 52.7553 89.1506C52.5125 88.697 52.1616 88.3104 51.7336 88.025L43.75 82.7028V62.5H87.5V71.875C87.5 72.7038 87.8292 73.4987 88.4153 74.0848C89.0013 74.6708 89.7962 75 90.625 75C91.4538 75 92.2486 74.6708 92.8347 74.0848C93.4207 73.4987 93.75 72.7038 93.75 71.875V62.5H106.402L108.277 100H90.625C89.8376 100 89.0793 100.297 88.5016 100.832C87.9239 101.367 87.5694 102.1 87.5089 102.885L81.4812 181.25ZM40.625 88.1309L46.875 92.2973V112.5H34.375V92.2973L40.625 88.1309ZM93.5187 106.25H156.481L162.25 181.25H87.7496L93.5187 106.25Z" fill="black"/><path d="M140.625 118.75C139.796 118.75 139.001 119.079 138.415 119.665C137.829 120.251 137.5 121.046 137.5 121.875V146.875C137.497 149.361 136.509 151.743 134.751 153.501C132.993 155.259 130.611 156.247 128.125 156.25H121.875C119.389 156.247 117.007 155.259 115.249 153.501C113.491 151.743 112.503 149.361 112.5 146.875V121.875C112.5 121.046 112.171 120.251 111.585 119.665C110.999 119.079 110.204 118.75 109.375 118.75C108.546 118.75 107.751 119.079 107.165 119.665C106.579 120.251 106.25 121.046 106.25 121.875V146.875C106.255 151.018 107.902 154.989 110.832 157.918C113.761 160.848 117.732 162.495 121.875 162.5H128.125C132.268 162.495 136.239 160.848 139.168 157.918C142.098 154.989 143.745 151.018 143.75 146.875V121.875C143.75 121.046 143.421 120.251 142.835 119.665C142.249 119.079 141.454 118.75 140.625 118.75Z" fill="black"/></svg>