<svg width="50" height="50" viewBox="0 0 50 50" fill="none" xmlns="http://www.w3.org/2000/svg"><path d="M16.4033 15.2655L11.3187 15.2726L11.3047 6.7042C11.3045 6.58909 11.3501 6.47863 11.4314 6.39712C11.5127 6.31561 11.623 6.26971 11.7381 6.26953L15.9547 6.26367C16.0698 6.26352 16.1802 6.30909 16.2618 6.39036C16.3433 6.47164 16.3892 6.58196 16.3893 6.69707L16.4033 15.2655Z" fill="#FFB125"/><path d="M16.3871 6.69707C16.387 6.64007 16.3757 6.58363 16.3539 6.531C16.332 6.47836 16.2999 6.43055 16.2596 6.39031C16.2192 6.35006 16.1713 6.31816 16.1186 6.29643C16.0659 6.2747 16.0094 6.26357 15.9524 6.26367L13.4385 6.26719C13.6614 6.28516 13.8375 6.46953 13.8378 6.69707L13.8518 15.2654L11.3164 15.2689V15.2724L16.4011 15.2653L16.3871 6.69707Z" fill="#FF901D"/><path d="M24.8117 6.10742L11.1914 18.9382L11.2187 38.4439C11.2193 38.9584 11.6371 39.3749 12.1517 39.3743L37.5645 39.3388C38.0791 39.3381 38.4956 38.9203 38.4949 38.4058L38.4676 18.9001L24.8117 6.10742Z" fill="#E1EFFB"/><path d="M38.4643 18.9001L24.8084 6.10742L22.5625 8.22314L33.9599 18.9L33.9872 38.4057C33.9875 38.6528 33.8897 38.8899 33.7152 39.0649C33.5407 39.2399 33.3039 39.3384 33.0568 39.3387H37.5612C38.0757 39.3379 38.4923 38.9203 38.4916 38.4057L38.4643 18.9001Z" fill="#CCDFED"/><path d="M43.2696 23.1986C42.7931 23.1999 42.3342 23.0188 41.9869 22.6925L24.8093 6.60101L7.67682 22.7404C6.92389 23.4498 5.73835 23.4144 5.02927 22.6614C4.31989 21.9085 4.35525 20.7231 5.10827 20.0139L23.5214 2.66791C24.2412 1.98969 25.3645 1.98812 26.0862 2.6643L44.5478 19.9587C45.3028 20.6658 45.3415 21.8512 44.6342 22.6061C44.4594 22.793 44.2481 22.9421 44.0134 23.044C43.7787 23.146 43.5255 23.1986 43.2696 23.1986Z" fill="#FF4C4C"/><path d="M44.637 20.3538C44.4623 20.5407 44.251 20.6898 44.0162 20.7917C43.7815 20.8936 43.5283 20.9462 43.2724 20.9463C42.7959 20.9474 42.337 20.7664 41.9897 20.4401L24.8122 4.34863L7.6797 20.488C6.92677 21.1973 5.74122 21.1619 5.03214 20.4089C4.98543 20.3591 4.94145 20.3068 4.90041 20.2522C4.36076 20.9675 4.39689 21.9877 5.03214 22.6618C5.74122 23.4147 6.92677 23.4502 7.6797 22.7408L24.8122 6.60146L41.9897 22.6929C42.337 23.0192 42.7959 23.2003 43.2724 23.1991C43.5283 23.1991 43.7815 23.1465 44.0162 23.0445C44.251 22.9426 44.4623 22.7936 44.637 22.6066C45.2691 21.932 45.3036 20.9145 44.7654 20.2008C44.7253 20.2541 44.6825 20.3051 44.637 20.3538Z" fill="#F33939"/><path d="M28.3341 22.1885L21.3323 22.1982C21.1746 22.1985 21.0233 22.2614 20.9119 22.3731C20.8005 22.4848 20.7381 22.6362 20.7383 22.7939L20.7614 39.3628L28.9529 39.3514L28.9298 22.7825C28.9297 22.7044 28.9142 22.6271 28.8842 22.5549C28.8542 22.4828 28.8103 22.4173 28.755 22.3621C28.6996 22.3069 28.634 22.2632 28.5618 22.2334C28.4896 22.2036 28.4122 22.1884 28.3341 22.1885Z" fill="#2D5871"/><path d="M28.9305 22.7825C28.9302 22.6248 28.8673 22.4735 28.7556 22.3621C28.6439 22.2507 28.4925 22.1883 28.3348 22.1885L24.3789 22.194C24.4997 22.2319 24.6052 22.3073 24.6802 22.4092C24.7552 22.5112 24.7958 22.6344 24.796 22.7609L24.8191 39.3572L28.9536 39.3514L28.9305 22.7825Z" fill="#1D4859"/><path d="M46.2008 30.9879L35.8807 37.8946L32.805 37.7221L32.6846 36.5114C32.5054 34.7094 31.1179 33.2631 29.3249 33.0094L21.0842 32.0605C19.1833 31.7916 17.353 31.1546 15.6959 30.1852C13.4334 28.8616 10.8594 28.1641 8.23827 28.1641H2.29688V41.726L17.9996 47.6723C18.593 47.8399 19.2163 47.89 19.8254 47.7938L19.8363 47.7921L35.6452 45.5133C36.8632 45.3188 38.008 44.8058 38.9638 44.0263L49.1814 34.8368C50.0983 34.0226 50.2684 32.6541 49.5784 31.6402C48.8235 30.5311 47.3145 30.2395 46.2008 30.9879Z" fill="#FED9A8"/><path d="M49.7132 31.8652L39.614 40.3664C38.6582 41.1459 37.0694 41.6589 35.8515 41.8533L19.8364 42.9981L19.8255 42.9999C19.2164 43.0962 18.593 43.046 17.9997 42.8784L2.29688 36.932V41.7257L17.9996 47.672C18.2957 47.7562 18.5996 47.8097 18.9066 47.8317C18.9831 47.8371 19.0598 47.8404 19.1365 47.8416C19.3671 47.8454 19.5975 47.8293 19.8254 47.7935L19.8363 47.7918L35.6453 45.513C36.5558 45.3677 37.4285 45.0438 38.2133 44.5598C38.4749 44.3986 38.7256 44.2202 38.9638 44.026L49.1814 34.8364C50.0322 34.0811 50.2386 32.849 49.7132 31.8652Z" fill="#F4C892"/><path d="M34.0016 37.7916L16.6058 37.0955C16.5228 37.0922 16.442 37.0678 16.371 37.0246L15.447 36.4617C14.9976 36.1879 15.2385 35.4949 15.7608 35.5588L34.0016 37.7916Z" fill="#F4C892"/><path d="M4.29804 46.3329H1.94726C0.871775 46.3329 0 45.461 0 44.3856V26.9893C0 25.9138 0.871873 25.042 1.94726 25.042H4.29804C5.37352 25.042 6.2453 25.9139 6.2453 26.9893V44.3856C6.2453 45.4611 5.37352 46.3329 4.29804 46.3329Z" fill="#2D5871"/><path d="M4.29921 25.042H1.94844C1.81621 25.042 1.6873 25.0555 1.5625 25.0806C2.45303 25.2597 3.12382 26.046 3.12382 26.9893V44.3856C3.12382 45.3289 2.45303 46.1152 1.5625 46.2943C1.6873 46.3194 1.81631 46.3329 1.94844 46.3329H4.29921C5.3747 46.3329 6.24647 45.461 6.24647 44.3856V26.9893C6.24647 25.9139 5.3747 25.042 4.29921 25.042Z" fill="#1D4859"/></svg>