<svg width="25" height="25" viewBox="0 0 25 25" fill="none" xmlns="http://www.w3.org/2000/svg"><g clip-path="url(#clip0_386_4930)"><path fill-rule="evenodd" clip-rule="evenodd" d="M9.63679 20.0792H1.61101C0.717633 20.0792 0 19.3616 0 18.4829V2.40203C0 1.5233 0.717633 0.805664 1.61101 0.805664H17.6772C18.5706 0.805664 19.2882 1.5233 19.2882 2.40203V18.4829C19.2882 19.3616 18.5706 20.0792 17.6772 20.0792H9.63679Z" fill="#EBF0F3"/><path fill-rule="evenodd" clip-rule="evenodd" d="M1.61101 0.805664C0.717633 0.805664 0 1.5233 0 2.40203V3.92517H19.2882V2.40203C19.2882 1.5233 18.5706 0.805664 17.6772 0.805664H1.61101Z" fill="#3A556A"/><path fill-rule="evenodd" clip-rule="evenodd" d="M4.56901 2.7684H3.32414C3.10446 2.7684 2.91406 2.59265 2.91406 2.35832C2.91406 2.13864 3.10446 1.96289 3.32414 1.96289H4.56901C4.7887 1.96289 4.97909 2.13864 4.97909 2.35832C4.97909 2.59265 4.7887 2.7684 4.56901 2.7684Z" fill="#FFD54F"/><path fill-rule="evenodd" clip-rule="evenodd" d="M7.08854 2.7684H5.84367C5.62399 2.7684 5.43359 2.59265 5.43359 2.35832C5.43359 2.13864 5.62399 1.96289 5.84367 1.96289H7.08854C7.30823 1.96289 7.49862 2.13864 7.49862 2.35832C7.49862 2.59265 7.30823 2.7684 7.08854 2.7684Z" fill="#EF5350"/><path fill-rule="evenodd" clip-rule="evenodd" d="M9.60808 2.7684H8.3632C8.12887 2.7684 7.95312 2.59265 7.95312 2.35832C7.95312 2.13864 8.12887 1.96289 8.3632 1.96289H9.60808C9.82776 1.96289 10.0035 2.13864 10.0035 2.35832C10.0035 2.59265 9.82776 2.7684 9.60808 2.7684Z" fill="#33CC66"/><path fill-rule="evenodd" clip-rule="evenodd" d="M19.2866 3.9255H11.4805C11.4805 3.11999 12.1395 2.46094 12.945 2.46094H19.2866V3.9255Z" fill="#708392"/><path fill-rule="evenodd" clip-rule="evenodd" d="M13.0495 9.31485H11.9072C11.7168 9.31485 11.5703 9.1684 11.5703 8.99265V6.69329C11.5703 6.51755 11.7168 6.35645 11.9072 6.35645H13.0495C13.8697 6.35645 14.5287 7.03014 14.5287 7.83565C14.5287 8.6558 13.8697 9.31485 13.0495 9.31485ZM12.244 8.6558H13.0495C13.5035 8.6558 13.8697 8.28966 13.8697 7.83565C13.8697 7.39628 13.5035 7.03014 13.0495 7.03014H12.244V8.6558Z" fill="#5C9CEE"/><path fill-rule="evenodd" clip-rule="evenodd" d="M13.4901 11.6142H11.9084C11.718 11.6142 11.5715 11.4678 11.5715 11.2774V8.99265C11.5715 8.80226 11.718 8.6558 11.9084 8.6558H13.4901C14.3103 8.6558 14.9693 9.31485 14.9693 10.135C14.9693 10.9552 14.3103 11.6142 13.4901 11.6142ZM12.2452 10.9552H13.4901C13.9441 10.9552 14.3103 10.589 14.3103 10.135C14.3103 9.68099 13.9441 9.31485 13.4901 9.31485H12.2452V10.9552ZM8.89139 11.6142H8.701C7.79298 11.6142 7.0607 10.8819 7.0607 9.98855V7.99675C7.0607 7.08872 7.79298 6.35645 8.701 6.35645H8.89139C9.78477 6.35645 10.5171 7.08872 10.5171 7.99675V9.98855C10.5171 10.8819 9.78477 11.6142 8.89139 11.6142ZM8.701 7.03014C8.15912 7.03014 7.73439 7.45486 7.73439 7.99675V9.98855C7.73439 10.5158 8.15912 10.9552 8.701 10.9552H8.89139C9.41863 10.9552 9.858 10.5158 9.858 9.98855V7.99675C9.858 7.45486 9.41863 7.03014 8.89139 7.03014H8.701ZM4.30733 11.6142C3.48718 11.6142 2.82812 10.9405 2.82812 10.135C2.82812 9.94461 2.97458 9.79816 3.16497 9.79816C3.35537 9.79816 3.50182 9.94461 3.50182 10.135C3.50182 10.5744 3.86796 10.9405 4.30733 10.9405C4.76134 10.9405 5.11284 10.5744 5.11284 10.135V6.70794C5.11284 6.51755 5.27394 6.37109 5.44968 6.37109C5.64008 6.37109 5.78653 6.51755 5.78653 6.70794V10.135C5.78653 10.9405 5.12748 11.6142 4.30733 11.6142Z" fill="#5C9CEE"/><path fill-rule="evenodd" clip-rule="evenodd" d="M14.8053 13.6649H3.23529C3.04489 13.6649 2.89844 13.5185 2.89844 13.3281C2.89844 13.1377 3.04489 12.9912 3.23529 12.9912H14.8053C14.981 12.9912 15.1275 13.1377 15.1275 13.3281C15.1275 13.5185 14.981 13.6649 14.8053 13.6649ZM14.8053 15.7006H3.23529C3.04489 15.7006 2.89844 15.5542 2.89844 15.3784C2.89844 15.188 3.04489 15.0416 3.23529 15.0416H14.8053C14.981 15.0416 15.1275 15.188 15.1275 15.3784C15.1275 15.5542 14.981 15.7006 14.8053 15.7006ZM14.8053 17.751H3.23529C3.04489 17.751 2.89844 17.6046 2.89844 17.4142C2.89844 17.2384 3.04489 17.0773 3.23529 17.0773H14.8053C14.981 17.0773 15.1275 17.2384 15.1275 17.4142C15.1275 17.6046 14.981 17.751 14.8053 17.751Z" fill="#D5D6DB"/><path fill-rule="evenodd" clip-rule="evenodd" d="M22.4668 24.1949C22.3789 24.1949 22.291 24.1657 22.2325 24.0924L18.9079 20.7825L18.0438 21.6466C17.9559 21.7345 17.8388 21.7638 17.7216 21.7345C17.6044 21.6906 17.5166 21.6027 17.4873 21.4855L16.1399 15.7298C16.1106 15.6273 16.1399 15.5101 16.2278 15.4222C16.301 15.349 16.4182 15.3051 16.5353 15.3344L22.291 16.6818C22.4082 16.7111 22.4961 16.7989 22.5254 16.9161C22.5547 17.0333 22.5254 17.1651 22.4375 17.2529L21.5734 18.117L24.8979 21.4269C24.9565 21.4855 25.0005 21.5734 25.0005 21.6613C25.0005 21.7491 24.9565 21.837 24.8979 21.8956L22.7011 24.0924C22.6279 24.1657 22.54 24.1949 22.4668 24.1949Z" fill="#EF5350"/></g><defs><clipPath id="clip0_386_4930"><rect width="25" height="25" fill="white"/></clipPath></defs></svg>