<svg width="13" height="13" viewBox="0 0 13 13" fill="none" xmlns="http://www.w3.org/2000/svg"><path d="M2.90991 12.9997H0.214732V4.32047H2.90991V12.9997ZM1.56087 3.13654C0.69904 3.13654 0 2.4227 0 1.56087C6.16861e-09 1.1469 0.164448 0.749888 0.457168 0.457168C0.749888 0.164448 1.1469 0 1.56087 0C1.97484 0 2.37185 0.164448 2.66457 0.457168C2.95729 0.749888 3.12174 1.1469 3.12174 1.56087C3.12174 2.4227 2.42241 3.13654 1.56087 3.13654ZM12.9971 12.9997H10.3077V8.77471C10.3077 7.76779 10.2874 6.4765 8.90645 6.4765C7.50518 6.4765 7.29045 7.57047 7.29045 8.70217V12.9997H4.59817V4.32047H7.18308V5.5044H7.2208C7.58062 4.82248 8.45958 4.10283 9.77089 4.10283C12.4986 4.10283 13 5.89904 13 8.23208V12.9997H12.9971Z" fill="white"/></svg>