<svg width="20" height="20" viewBox="0 0 20 20" fill="none" xmlns="http://www.w3.org/2000/svg"><g clip-path="url(#clip0_23_950)"><path d="M0.372853 15.2527C0.620059 15.5002 0.913098 15.6238 1.25169 15.6238H18.75C19.0887 15.6238 19.3816 15.5002 19.629 15.2527C19.8764 15.0051 20 14.7122 20 14.3737C20 14.0352 19.8764 13.7424 19.629 13.4949L10.8798 4.74574C10.6321 4.49833 10.3393 4.37445 10.0008 4.37445C9.66236 4.37445 9.36925 4.49833 9.12204 4.74574L0.372853 13.495C0.125713 13.7424 0.00163018 14.0352 0.00163018 14.3738C0.00163018 14.7122 0.125713 15.0051 0.372853 15.2527Z" fill="white"/></g><defs><clipPath id="clip0_23_950"><rect width="19.7718" height="19.7718" fill="white" transform="matrix(-1.01146 0 0 -1.01146 20 19.9985)"/></clipPath></defs></svg>