<svg width="50" height="51" viewBox="0 0 50 51" fill="none" xmlns="http://www.w3.org/2000/svg"><g clip-path="url(#clip0_400_4640)"><path d="M29.0105 0.979492H2.98429C1.90337 0.979492 1.02734 1.85552 1.02734 2.93644V47.1634C1.02734 48.2444 1.90337 49.1204 2.98429 49.1204H36.6415C37.7221 49.1204 38.5985 48.2444 38.5985 47.1634V10.5674L29.0105 0.979492Z" fill="white"/><path d="M37.0469 40.3045L45.177 48.4346C46.0909 49.3485 47.5719 49.3485 48.4854 48.4346C49.3993 47.5211 49.3993 46.04 48.4854 45.1262L40.3553 36.9961L37.0469 40.3045Z" fill="#FF5D5D"/><path d="M42.124 30.3335C42.124 36.8181 36.8669 42.0752 30.3823 42.0752C23.8976 42.0752 18.6406 36.8181 18.6406 30.3335C18.6406 23.8488 23.8976 18.5918 30.3823 18.5918C36.8669 18.5918 42.124 23.8488 42.124 30.3335Z" fill="white"/><path d="M38.0142 30.3333C38.0142 34.5483 34.5972 37.9654 30.3821 37.9654C26.167 37.9654 22.75 34.5483 22.75 30.3333C22.75 26.1182 26.167 22.7012 30.3821 22.7012C34.5972 22.7012 38.0142 26.1182 38.0142 30.3333Z" fill="#72D8FF"/><path d="M30.9687 10.567H38.5993L29.0117 0.979492V8.61002C29.0117 9.69094 29.8877 10.567 30.9687 10.567Z" fill="#FFB954"/><path d="M30.384 21.7227C25.6361 21.7227 21.7734 25.5854 21.7734 30.3332C21.7734 35.0811 25.6361 38.9438 30.384 38.9438C35.1319 38.9438 38.9946 35.0811 38.9946 30.3332C38.9946 25.5854 35.1319 21.7227 30.384 21.7227ZM30.384 36.9868C26.7151 36.9868 23.7304 34.0021 23.7304 30.3332C23.7304 26.6643 26.7151 23.6796 30.384 23.6796C34.0529 23.6796 37.0376 26.6643 37.0376 30.3332C37.0376 34.0021 34.0529 36.9868 30.384 36.9868Z" fill="black"/><path d="M49.1766 44.4347L41.4112 36.6689C42.4875 34.8025 43.1039 32.6388 43.1039 30.3337C43.1039 26.9315 41.7612 23.8376 39.5785 21.5526V10.5673H39.5761C39.5761 10.3128 39.4791 10.0628 39.2922 9.87554L29.7043 0.287669C29.517 0.100389 29.2666 0.00361844 29.012 0.00361844C29.012 0.00254212 29.012 0.00215073 29.0124 0.000976562H2.9862C1.36751 0.000976562 0.0507812 1.31771 0.0507812 2.9364V47.1634C0.0507812 48.7821 1.36751 50.0988 2.9862 50.0988H36.6434C38.2617 50.0988 39.5789 48.7821 39.5789 47.1634V44.2211L44.4845 49.1272C45.1313 49.774 45.9809 50.0973 46.8309 50.0973C47.6806 50.0973 48.5303 49.774 49.177 49.1272C50.4705 47.8335 50.4705 45.7286 49.1766 44.4347ZM30.3839 41.0969C24.4492 41.0969 19.6206 36.2683 19.6206 30.3337C19.6206 24.399 24.4492 19.5704 30.3839 19.5704C36.3185 19.5704 41.1471 24.399 41.1471 30.3337C41.1471 36.2683 36.3185 41.0969 30.3839 41.0969ZM29.9909 3.34197L36.2379 9.58923H30.9694C30.4297 9.58923 29.9909 9.1501 29.9909 8.61076V3.34197ZM37.6219 47.1634C37.6219 47.7031 37.1827 48.1419 36.6434 48.1419H2.9862C2.44648 48.1419 2.00773 47.7031 2.00773 47.1634V2.9364C2.00773 2.39667 2.44648 1.95792 2.9862 1.95792H28.034V8.61037C28.034 10.2291 29.3507 11.5458 30.9694 11.5458H37.6215V19.8796C35.5659 18.4517 33.0712 17.6135 30.3838 17.6135C23.3698 17.6135 17.6636 23.3196 17.6636 30.3337C17.6636 31.7031 17.8823 33.0229 18.2848 34.2602H6.32789C5.78777 34.2602 5.34941 34.6981 5.34941 35.2386C5.34941 35.7788 5.78777 36.2171 6.32789 36.2171H18.8226C18.9147 36.2171 19.0041 36.2034 19.0886 36.1793C21.2091 40.2598 25.4762 43.0538 30.3839 43.0538C32.6886 43.0538 34.8523 42.4374 36.7187 41.3611L37.6218 42.2642L37.6219 47.1634ZM47.793 47.7432C47.2625 48.2742 46.3991 48.2742 45.8686 47.7432L38.36 40.2345C39.0678 39.6631 39.7129 39.018 40.2843 38.3102L47.793 45.8184C48.324 46.3493 48.324 47.2127 47.793 47.7432Z" fill="black"/><path d="M30.3825 25.9314C29.842 25.9314 29.404 26.3693 29.404 26.9098C29.404 27.4502 29.842 27.8883 30.3825 27.8883C31.7309 27.8883 32.8283 28.9857 32.8283 30.3341C32.8283 30.8745 33.2663 31.3126 33.8068 31.3126C34.3472 31.3126 34.7852 30.8745 34.7852 30.3341C34.7852 27.9062 32.8103 25.9314 30.3825 25.9314ZM15.1324 27.4763H6.32652C5.7864 27.4763 5.34805 27.9143 5.34805 28.4547C5.34805 28.9952 5.7864 29.4332 6.32652 29.4332H15.1324C15.6729 29.4332 16.1109 28.9952 16.1109 28.4547C16.1109 27.9143 15.6729 27.4763 15.1324 27.4763ZM15.7122 20.6922H6.32652C5.7864 20.6922 5.34805 21.1303 5.34805 21.6707C5.34805 22.2108 5.7864 22.6492 6.32652 22.6492H15.7122C16.2527 22.6492 16.6907 22.2108 16.6907 21.6707C16.6907 21.1303 16.2527 20.6922 15.7122 20.6922ZM18.6404 41.0445C18.3828 41.0445 18.1306 41.1489 17.9486 41.3312C17.7658 41.5151 17.6628 41.7636 17.6619 42.0229C17.6619 42.2803 17.7666 42.5329 17.9486 42.7144C18.1324 42.8975 18.381 43.0007 18.6404 43.0015C18.8977 43.0015 19.1502 42.8968 19.333 42.7144C19.5156 42.5306 19.6183 42.2822 19.6189 42.023C19.6189 41.7654 19.5149 41.5132 19.333 41.3313C19.1488 41.1484 18.9 41.0454 18.6404 41.0446V41.0445ZM14.6218 41.0445H6.32652C5.7864 41.0445 5.34805 41.4826 5.34805 42.0229C5.34805 42.5631 5.7864 43.0014 6.32652 43.0014H14.6218C15.1619 43.0014 15.6003 42.5631 15.6003 42.0229C15.6003 41.4826 15.1622 41.0445 14.6218 41.0445ZM6.32613 15.8653C6.58455 15.8653 6.83601 15.7606 7.01791 15.5786C7.20103 15.3949 7.30409 15.1462 7.3046 14.8868C7.3046 14.6296 7.20108 14.3773 7.01791 14.1943C6.83389 14.0117 6.58535 13.909 6.32613 13.9084C6.06899 13.9084 5.81742 14.0123 5.63435 14.1943C5.45134 14.3784 5.34833 14.6272 5.34766 14.8868C5.34766 15.1445 5.45235 15.3966 5.63435 15.5786C5.81833 15.7613 6.06683 15.8643 6.32613 15.8653ZM25.0983 13.9084H10.4741C9.93396 13.9084 9.4956 14.3463 9.4956 14.8868C9.4956 15.427 9.93396 15.8653 10.4741 15.8653H25.0983C25.6388 15.8653 26.0768 15.427 26.0768 14.8868C26.0768 14.3463 25.6388 13.9084 25.0983 13.9084ZM6.32652 9.08097H25.0983C25.6388 9.08097 26.0768 8.64291 26.0768 8.1025C26.0768 7.56209 25.6388 7.12402 25.0983 7.12402H6.32652C5.7864 7.12402 5.34805 7.56209 5.34805 8.1025C5.34805 8.64291 5.7864 9.08097 6.32652 9.08097Z" fill="black"/></g><defs><clipPath id="clip0_400_4640"><rect width="50" height="50.1" fill="white"/></clipPath></defs></svg>