<svg width="25" height="25" viewBox="0 0 25 25" fill="none" xmlns="http://www.w3.org/2000/svg"><g clip-path="url(#clip0_386_4633)"><path d="M11.1416 4.18457C11.1416 3.9209 10.9219 3.69629 10.6533 3.70117L9.83789 3.70605C9.79395 3.57422 9.74023 3.44727 9.67676 3.3252L10.2529 2.73926C10.4434 2.54883 10.4385 2.24121 10.248 2.05078L9.42285 1.23047C9.24707 1.0498 8.91016 1.04004 8.73438 1.23535L8.1582 1.81641C8.03613 1.75781 7.90918 1.7041 7.77734 1.66016L7.77246 0.844727C7.77734 0.581055 7.54785 0.356445 7.28418 0.356445L6.12207 0.361328C5.85352 0.361328 5.63379 0.581055 5.63379 0.849609L5.63867 1.66504C5.50684 1.70898 5.37988 1.7627 5.25781 1.82617L4.67187 1.25488C4.48145 1.06934 4.17383 1.06934 3.9834 1.25977L3.16309 2.08496C2.97754 2.27539 2.97754 2.58789 3.16797 2.77344L3.74902 3.34961C3.69043 3.47168 3.63672 3.59863 3.59277 3.73047L2.77734 3.73535C2.49414 3.73535 2.28906 3.95996 2.28906 4.22363L2.29395 5.39062C2.29883 5.65918 2.51367 5.87891 2.78711 5.87402L3.60254 5.86914C3.65137 6.00098 3.7002 6.12793 3.76367 6.25L3.1875 6.82617C3.00195 7.01172 3.00195 7.33398 3.19238 7.51465L4.01758 8.33496C4.20313 8.52539 4.52539 8.52051 4.71094 8.33008L5.28223 7.75391C5.4043 7.8125 5.53125 7.86621 5.66309 7.91016L5.66797 8.72559C5.66309 8.98926 5.89746 9.21875 6.15625 9.21387L7.31836 9.20898C7.58203 9.21387 7.81152 8.97461 7.80664 8.71582L7.80176 7.90039C7.93359 7.85645 8.06055 7.80273 8.18262 7.73926L8.75879 8.31543C8.93945 8.50586 9.27148 8.50098 9.45215 8.31055L10.2725 7.48535C10.4629 7.29492 10.458 6.9873 10.2676 6.79199L9.68652 6.2207C9.74512 6.09863 9.79883 5.97168 9.84277 5.83984L10.6582 5.83496C10.9268 5.83496 11.1465 5.61035 11.1416 5.34668C11.1465 5.34668 11.1416 4.18457 11.1416 4.18457ZM9.64746 5.31738C9.53027 5.31738 9.42773 5.40039 9.39844 5.5127C9.33984 5.7373 9.25195 5.95215 9.13965 6.14746C9.08105 6.25 9.10059 6.37695 9.18359 6.45996L9.87695 7.14355L9.10547 7.91992L8.41211 7.23633C8.3291 7.15332 8.20215 7.13867 8.09961 7.19727C7.89941 7.31445 7.68457 7.40234 7.46973 7.46094C7.35742 7.49023 7.2793 7.59277 7.2793 7.70996L7.28418 8.68652L6.19043 8.69141L6.18555 7.71973C6.18555 7.60254 6.10742 7.49512 5.99023 7.4707C5.7168 7.42188 5.4873 7.24121 5.22852 7.17773C5.16016 7.17773 5.0918 7.20215 5.04297 7.25586L4.35938 7.94922L3.58301 7.17773L4.2666 6.48438C4.34961 6.40137 4.36426 6.27441 4.30566 6.17188C4.18848 5.97168 4.10059 5.75684 4.04199 5.54199C4.0127 5.4248 3.90527 5.34668 3.78809 5.34668L2.81641 5.35156L2.81152 4.2627L3.7832 4.25781C3.90039 4.25293 4.00293 4.1748 4.03223 4.0625C4.09082 3.84277 4.17871 3.62793 4.29102 3.42773C4.34961 3.3252 4.33008 3.19336 4.24707 3.11523L3.56348 2.42676L4.33496 1.65039L5.02832 2.33398C5.11133 2.41699 5.23828 2.43164 5.34082 2.37793C5.54102 2.26074 5.75098 2.17285 5.9707 2.11426C6.08301 2.08496 6.16113 1.97754 6.16113 1.86035L6.15625 0.888672L7.25 0.883789L7.25488 1.85547C7.25488 1.97266 7.33789 2.0752 7.4502 2.10449C7.6748 2.16309 7.88965 2.25586 8.08496 2.36328C8.1875 2.42188 8.31445 2.40234 8.39746 2.31934L9.08106 1.62598L9.85742 2.39258L9.17383 3.08594C9.09082 3.16895 9.07617 3.30078 9.13477 3.40332C9.25195 3.60352 9.33984 3.81348 9.39844 4.0332C9.42773 4.14551 9.53516 4.22363 9.65234 4.22363L10.624 4.21875L10.6289 5.3125L9.64746 5.31738Z" fill="black"/><path d="M9.14258 6.14746C9.25488 5.95215 9.33789 5.7373 9.40137 5.5127C9.43066 5.40039 9.5332 5.31738 9.65039 5.31738L10.6221 5.3125L10.6172 4.21875L9.64551 4.22363C9.52832 4.22363 9.4209 4.14551 9.3916 4.0332C9.33301 3.81348 9.24023 3.60352 9.12793 3.40332C9.06934 3.30078 9.08398 3.16895 9.16699 3.08594L9.85059 2.39258L9.08398 1.63086L8.40039 2.32422C8.31738 2.40723 8.19043 2.42676 8.08789 2.36816C7.89258 2.25586 7.67773 2.16797 7.45312 2.10938C7.34082 2.08008 7.25781 1.97754 7.25781 1.86035L7.25293 0.888672L6.15918 0.893555L6.16406 1.86523C6.16406 1.98242 6.08594 2.08984 5.97363 2.11914C5.75391 2.17773 5.54395 2.27051 5.34375 2.38281C5.24121 2.44141 5.11426 2.42676 5.03125 2.33887L4.33789 1.65527L3.56641 2.42676L4.25977 3.11035C4.34277 3.19336 4.3623 3.32031 4.30371 3.42285C4.19141 3.62305 4.10352 3.83789 4.04492 4.05762C4.01563 4.16992 3.91309 4.24805 3.7959 4.25293L2.82422 4.25781L2.8291 5.34668L3.80078 5.3418C3.91797 5.3418 4.02539 5.41992 4.05469 5.53711C4.11328 5.75684 4.20605 5.9668 4.31836 6.16699C4.37695 6.26953 4.3623 6.39648 4.2793 6.47949L3.5957 7.17285L4.37207 7.94434L5.05566 7.25098C5.10449 7.20215 5.17285 7.17285 5.24121 7.17285C5.5 7.23633 5.72949 7.41699 6.00293 7.46582C6.12012 7.49512 6.19824 7.59766 6.19824 7.71484L6.20312 8.68652L7.29687 8.68164L7.29199 7.70508C7.29199 7.58789 7.37012 7.48535 7.48242 7.45605C7.69727 7.39746 7.91211 7.30469 8.1123 7.19238C8.21484 7.13379 8.3418 7.14844 8.4248 7.23145L9.11816 7.91504L9.88965 7.13867L9.19629 6.45508C9.10352 6.37695 9.08887 6.25 9.14258 6.14746ZM6.7207 6.97266C5.51465 6.97266 4.5332 5.99121 4.5332 4.79004C4.64551 1.89453 8.79102 1.89453 8.90332 4.79004C8.9082 5.99121 7.92676 6.97266 6.7207 6.97266Z" fill="#FFD15B"/><path d="M6.71963 2.60254C5.51357 2.60254 4.53213 3.58398 4.53213 4.79004C4.64443 7.68066 8.79482 7.68066 8.90225 4.79004C8.90713 3.58398 7.92568 2.60254 6.71963 2.60254ZM6.71963 6.44531C5.80166 6.44531 5.05947 5.69824 5.05947 4.78516C5.1376 2.58789 8.30654 2.58301 8.37979 4.78516C8.37979 5.70312 7.6376 6.44531 6.71963 6.44531ZM24.7909 15.542L21.0946 14.0723C21.0165 14.0186 4.09268 14.0723 3.99502 14.0527C3.96572 14.0576 3.93154 14.0625 3.89736 14.0723L0.205957 15.542C-0.0577149 15.6445 0.0155273 16.0498 0.303613 16.0449C0.357324 16.0498 2.78896 15.5322 2.84268 15.5273L1.7001 17.1875C1.57803 17.3486 1.70986 17.6025 1.91494 17.5977H3.73623V23.9355C3.73623 24.3262 4.04873 24.6387 4.43936 24.6387H20.5722C20.9579 24.6387 21.2704 24.3262 21.2704 23.9355V17.5977H23.0819C23.287 17.6074 23.4188 17.3535 23.2968 17.1875L22.1493 15.5225L24.6444 16.04C24.9423 16.1035 25.0839 15.6592 24.7909 15.542ZM21.8319 14.9268L21.7245 14.9072L21.705 14.8779L21.8319 14.9268ZM3.29678 14.8779C3.29189 14.8877 3.28213 14.9023 3.27725 14.9072L3.17471 14.9268L3.29678 14.8779ZM20.7431 23.9355C20.7431 24.0332 20.6649 24.1162 20.5673 24.1162H4.43447C4.33682 24.1162 4.25869 24.0332 4.25869 23.9355V17.5977H20.7431V23.9355ZM22.579 17.0752H2.41299L4.13662 14.5752H20.8554L22.579 17.0752Z" fill="black"/><path d="M22.5791 17.0752H2.41797L4.13672 14.5752H20.8555L22.5791 17.0752Z" fill="#8DCCFF"/><path d="M4.25781 17.5977V23.9355C4.25781 24.0332 4.33594 24.1162 4.43359 24.1162H20.5664C20.6641 24.1162 20.7422 24.0332 20.7422 23.9355V17.5977H4.25781ZM18.8965 21.5869C18.8965 21.7285 18.7793 21.8506 18.6328 21.8506H6.36719C6.22559 21.8506 6.10352 21.7334 6.10352 21.5869V19.2627C6.10352 19.1211 6.2207 18.999 6.36719 18.999H18.6328C18.7744 18.999 18.8965 19.1162 18.8965 19.2627V21.5869Z" fill="#0182FC"/><path d="M18.6348 19.0039H6.36914C6.22754 19.0039 6.10547 19.1211 6.10547 19.2676V21.5918C6.10547 21.7334 6.22266 21.8555 6.36914 21.8555H18.6348C18.7764 21.8555 18.8984 21.7383 18.8984 21.5918V19.2676C18.8984 19.1211 18.7764 19.0039 18.6348 19.0039ZM18.3711 21.3281H6.62793V19.5312H18.3711V21.3281Z" fill="black"/><path d="M6.625 19.5312H18.3682V21.3281H6.625V19.5312Z" fill="#FFD15B"/><path d="M24.1984 5.05881C23.8956 4.34592 23.0704 4.01388 22.3575 4.31174L21.5177 4.66818C21.2198 4.24338 20.7071 4.01877 20.1749 4.11154C20.087 4.13595 19.755 4.16037 19.6866 4.22385L18.3878 5.17111C18.0314 5.42502 17.9777 5.89865 18.1876 6.26974L17.5382 6.54806L17.3575 6.12326C17.2062 5.74728 16.7423 5.56174 16.3761 5.72775C16.005 5.87912 15.8146 6.34299 15.9806 6.7092L16.1612 7.134L15.5607 7.39279L15.38 6.96799C15.2286 6.59201 14.7648 6.40646 14.3986 6.57248C14.0226 6.72385 13.837 7.18771 14.003 7.55392L14.1837 7.97873L13.5831 8.23752L13.4025 7.81271C13.2511 7.44162 12.7872 7.25119 12.421 7.4172C12.0402 7.57834 11.8644 8.01779 12.0255 8.39865L12.2062 8.82345L11.6056 9.08224L11.4249 8.65744C11.2638 8.27658 10.8243 8.1008 10.4435 8.26193C10.0626 8.42306 9.88683 8.86252 10.048 9.24338L10.2286 9.66818L9.34484 10.0442L9.25207 9.82443C9.19836 9.6926 9.03722 9.62912 8.91027 9.68771L7.55285 10.2639C6.68859 10.6154 6.25402 11.6897 6.63488 12.5393C6.98644 13.4084 8.06066 13.8381 8.91027 13.4572L10.2677 12.8811C10.3995 12.8274 10.463 12.6711 10.4044 12.5393L10.3116 12.3195L11.1954 11.9436L11.3712 12.3684C11.5226 12.7395 11.9864 12.9299 12.3575 12.7639C12.7335 12.6125 12.9191 12.1486 12.753 11.7824L12.5724 11.3576L13.173 11.0988L13.3536 11.5236C13.5148 11.9094 13.964 12.0754 14.3351 11.9192C14.7208 11.758 14.8917 11.3039 14.7306 10.9377L14.5499 10.5129L15.1554 10.2541L15.3312 10.6789C15.4972 11.0647 15.9415 11.2307 16.3126 11.0744C16.6935 10.9133 16.8693 10.4738 16.7081 10.0881L16.5275 9.6633L17.128 9.40939L17.3087 9.8342C17.4698 10.2151 17.9191 10.3908 18.2902 10.2297C18.671 10.0686 18.8468 9.62912 18.6857 9.24826L18.5099 8.82345L19.1593 8.54513C19.2814 8.95041 19.6671 9.24826 20.0919 9.16037L21.6739 8.88205C21.7667 8.87228 22.0206 8.65744 22.0987 8.60861C22.5284 8.29123 22.7237 7.76388 22.6261 7.25607L23.4659 6.89963C24.1691 6.59689 24.5011 5.7717 24.1984 5.05881ZM8.69543 12.9641C7.20617 13.55 6.2882 11.3967 7.74328 10.7326L8.85656 10.259C8.9884 10.5666 9.67199 12.1828 9.80871 12.4904L8.69543 12.9641ZM10.0968 11.8264L9.54015 10.5178L10.4239 10.1418C10.4532 10.2053 10.9708 11.4309 10.9806 11.4553L10.0968 11.8264ZM12.2599 12.1486C12.1915 12.3293 11.9132 12.3391 11.8448 12.1535L10.5167 9.02853C10.4044 8.75998 10.8146 8.57931 10.9318 8.85275L12.2599 11.9729C12.2843 12.0315 12.2843 12.0901 12.2599 12.1486ZM12.3575 10.8645L11.8009 9.55588L12.4015 9.29709L12.9581 10.6057L12.3575 10.8645ZM14.1202 11.4309C14.003 11.4797 13.8761 11.426 13.8224 11.3088C13.6612 10.9279 12.9191 9.18967 12.7775 8.85275L12.4943 8.18869C12.3771 7.92013 12.7921 7.74435 12.9093 8.01291L14.2374 11.1379C14.2862 11.2502 14.2325 11.382 14.1202 11.4309ZM14.3351 10.0246C14.3058 9.96115 13.7882 8.73556 13.7784 8.71115L14.379 8.45236C14.5206 8.77951 14.7989 9.43869 14.9357 9.76584L14.3351 10.0246ZM16.0978 10.5861C15.9855 10.635 15.8536 10.5813 15.8048 10.469L15.5265 9.8049H15.5216L14.7599 8.01291L14.4767 7.34885C14.4132 7.20724 14.5255 7.02658 14.6818 7.03635C14.7696 7.03635 14.8527 7.09006 14.8868 7.17306L16.215 10.2981C16.2638 10.4055 16.2101 10.5373 16.0978 10.5861ZM16.3126 9.1799L15.756 7.87131L16.3566 7.61252L16.9132 8.92599L16.3126 9.1799ZM18.0802 9.74631C17.9679 9.79513 17.8312 9.74142 17.7823 9.62424L17.1183 8.06174L16.7374 7.16818L16.4542 6.50412C16.4298 6.45041 16.4298 6.38693 16.4493 6.33322C16.5177 6.15256 16.796 6.14767 16.8644 6.32834L17.1476 6.9924L17.6163 8.09592L18.1925 9.45334C18.2462 9.56564 18.1925 9.69748 18.0802 9.74631ZM18.295 8.34006C18.1681 8.03732 17.8702 7.33908 17.7384 7.02658L18.3927 6.75314L18.9493 8.06174L18.295 8.34006ZM19.9894 8.64279C19.8624 8.6672 19.7452 8.59885 19.6915 8.48166L18.6027 5.91818C18.5538 5.80099 18.588 5.66916 18.6905 5.59592L19.7257 4.84396L21.2491 8.42306L19.9894 8.64279ZM21.7814 8.18381L21.7325 8.21799L20.3068 4.86349L20.2091 4.63888C20.6046 4.54611 21.0099 4.74142 21.171 5.1174L22.0548 7.1926C22.2062 7.54904 22.0939 7.95431 21.7814 8.18381ZM23.2511 6.41623L22.4405 6.76291L21.7472 5.14181L22.5577 4.79513C23.6417 4.37033 24.3058 5.93771 23.2511 6.41623Z" fill="black"/><path d="M23.7176 5.26363C23.5272 4.81441 23.0096 4.60445 22.5653 4.79488L21.7547 5.14156L22.4481 6.76265L23.2587 6.41597C23.6981 6.22554 23.9081 5.70796 23.7176 5.26363ZM23.1756 6.25972C22.3016 6.60152 21.7694 5.34663 22.619 4.95113C23.4881 4.61421 24.0253 5.87398 23.1756 6.25972ZM9.71861 12.2753C9.66978 12.163 8.87389 10.288 8.85924 10.2587L7.74596 10.7324C7.14049 10.9765 6.83775 11.7285 7.10631 12.3242C7.35045 12.9296 8.1024 13.2324 8.69811 12.9638L9.81139 12.4853L9.71861 12.2753ZM8.56139 12.6171C7.536 13.0224 6.89635 11.5332 7.90221 11.0742C8.93248 10.664 9.56725 12.1484 8.56139 12.6171Z" fill="#E2DEE2"/><path d="M12.2624 12.1489C12.1941 12.3295 11.9158 12.3393 11.8474 12.1537L10.5193 9.02874C10.407 8.76018 10.8171 8.57952 10.9343 8.85296L12.2624 11.9731C12.2869 12.0317 12.2869 12.0903 12.2624 12.1489ZM14.1228 11.4311C14.0056 11.4799 13.8786 11.4262 13.8249 11.309C13.6638 10.9282 12.9216 9.18987 12.78 8.85296L12.4968 8.18889C12.3796 7.92034 12.7947 7.74456 12.9118 8.01311L14.24 11.1381C14.2888 11.2504 14.2351 11.3823 14.1228 11.4311ZM16.1003 10.5864C15.988 10.6352 15.8562 10.5815 15.8074 10.4692L15.529 9.8051H15.5242L14.7624 8.01311L14.4792 7.34905C14.4158 7.20745 14.5281 7.02678 14.6843 7.03655C14.7722 7.03655 14.8552 7.09026 14.8894 7.17327L16.2175 10.2983C16.2663 10.4057 16.2126 10.5375 16.1003 10.5864ZM18.0827 9.74651C17.9704 9.79534 17.8337 9.74163 17.7849 9.62444L17.1208 8.06194L16.74 7.16839L16.4568 6.50432C16.4324 6.45061 16.4324 6.38713 16.4519 6.33342C16.5202 6.15276 16.7986 6.14788 16.8669 6.32854L17.1501 6.9926L17.6189 8.09612L18.1951 9.45354C18.2488 9.56585 18.1951 9.69768 18.0827 9.74651ZM21.2566 8.42327L19.9968 8.64299C19.8699 8.66741 19.7527 8.59905 19.699 8.48186L18.6101 5.91838C18.5613 5.8012 18.5954 5.66936 18.698 5.59612L19.7331 4.84417L21.2566 8.42327ZM21.7839 8.18401L21.7351 8.21819L20.3093 4.8637L20.2117 4.63909C20.6072 4.54631 21.0124 4.74163 21.1736 5.1176L22.0574 7.1928C22.2087 7.54924 22.0964 7.95452 21.7839 8.18401Z" fill="#FD4755"/><path d="M18.9443 8.06152L18.2949 8.33984C18.168 8.03711 17.8701 7.33887 17.7383 7.02637L18.3926 6.75293L18.9443 8.06152ZM16.918 8.92578L16.3125 9.17969L15.7559 7.87109L16.3613 7.61719L16.918 8.92578ZM14.9355 9.76562L14.335 10.0244C14.3057 9.96094 13.7881 8.73535 13.7783 8.71094L14.3789 8.45215C14.5205 8.7793 14.7988 9.43848 14.9355 9.76562ZM11.7978 9.55625L12.3998 9.2998L12.9567 10.607L12.3548 10.8635L11.7978 9.55625ZM10.9756 11.4502L10.0918 11.8262L9.53516 10.5176L10.4189 10.1416C10.4482 10.2002 10.9658 11.4307 10.9756 11.4502Z" fill="#554E56"/><path d="M9.00646 11.5139C8.55235 10.508 7.05821 11.1428 7.46349 12.1731C7.93224 13.1789 9.40685 12.5393 9.00646 11.5139ZM8.36192 12.134C7.98107 12.2903 7.73693 11.719 8.1129 11.5578C8.49376 11.3967 8.73302 11.9631 8.36192 12.134ZM23.5475 5.33225C23.1568 4.47775 21.902 5.01975 22.2438 5.88889C22.6295 6.7385 23.8942 6.20139 23.5475 5.33225ZM22.9713 5.78147C22.7418 5.86936 22.6051 5.54221 22.8297 5.43967C23.0445 5.3469 23.1959 5.68381 22.9713 5.78147Z" fill="black"/></g><defs><clipPath id="clip0_386_4633"><rect width="25" height="25" fill="white"/></clipPath></defs></svg>