<svg width="50" height="40" viewBox="0 0 50 40" fill="none" xmlns="http://www.w3.org/2000/svg"><path d="M40.0416 22.0341L8.85492 32.4947C8.27453 32.6892 7.64101 32.6442 7.09368 32.3693C6.54636 32.0945 6.13006 31.6125 5.93634 31.0292L0.118797 13.5138C-0.0750177 12.9305 -0.0303382 12.2937 0.243007 11.7435C0.516351 11.1933 0.995971 10.7748 1.57636 10.58L32.7613 0.119394C33.3417 -0.0753947 33.9753 -0.0304906 34.5228 0.244228C35.0702 0.518946 35.4867 1.00098 35.6805 1.58428L41.4992 19.1003C41.693 19.6836 41.6483 20.3204 41.375 20.8706C41.1016 21.4208 40.622 21.8393 40.0416 22.0341Z" fill="#27BDF3"/><path d="M40.0448 22.034L8.85749 32.4975C8.27703 32.6921 7.64343 32.6469 7.09609 32.372C6.54876 32.097 6.13251 31.6148 5.93891 31.0315L4.17969 25.7383V11.188C4.17984 10.5513 4.42352 9.93905 4.8603 9.4779L7.19632 8.69531H38.0433L41.4983 19.1008C41.6921 19.6835 41.6479 20.3197 41.3754 20.8697C41.1028 21.4196 40.6243 21.8384 40.0448 22.034Z" fill="#2A93F2"/><path d="M1.21875 16.8176L36.7983 4.87305L38.1763 9.01785L2.59671 20.9636L1.21875 16.8176Z" fill="#374F68"/><path d="M38.1529 9.02574L4.17969 20.4225V15.8197L25.423 8.69531H38.0433L38.1529 9.02574Z" fill="#30455C"/><path d="M9.04546 9.27539H41.9227C42.5346 9.27539 43.1215 9.51969 43.5542 9.95454C43.9868 10.3894 44.2299 10.9792 44.2299 11.5942V30.1443C44.2299 30.7593 43.9868 31.3491 43.5542 31.784C43.1215 32.2188 42.5346 32.4631 41.9227 32.4631H9.04546C8.43356 32.4631 7.84672 32.2188 7.41404 31.784C6.98136 31.3491 6.73828 30.7593 6.73828 30.1443V11.5942C6.73828 10.9792 6.98136 10.3894 7.41404 9.95454C7.84672 9.51969 8.43356 9.27539 9.04546 9.27539Z" fill="#374F68"/><path d="M44.2296 11.5942V30.1443C44.2296 30.7593 43.9865 31.3491 43.5539 31.784C43.1212 32.2188 42.5343 32.4631 41.9224 32.4631H26.9258C31.0753 29.2099 34.4293 25.0459 36.7313 20.2896C40.1921 12.7535 39.0385 9.27539 39.0385 9.27539H41.9224C42.5343 9.27539 43.1212 9.51969 43.5539 9.95454C43.9865 10.3894 44.2296 10.9792 44.2296 11.5942Z" fill="#30455C"/><path d="M39.6157 25.1633V27.9342H44.23V30.1428C44.23 30.7578 43.987 31.3476 43.5543 31.7824C43.1216 32.2173 42.5348 32.4616 41.9229 32.4616H35.5781V30.253C35.5781 29.638 35.8212 29.0482 36.2539 28.6134C36.6866 28.1785 37.2734 27.9342 37.8853 27.9342V25.0357C37.9482 21.7796 40.6257 19.1919 43.8655 19.255C43.9872 19.2574 44.1089 19.2637 44.23 19.2736V21.0243C43.902 20.9709 43.5685 20.9611 43.238 20.9953C42.2286 21.1179 41.3002 21.6115 40.6314 22.381C39.9626 23.1506 39.6008 24.1416 39.6157 25.1633Z" fill="#293D4F"/><path d="M14.2368 24.927H10.776C10.623 24.927 10.4763 24.8659 10.3682 24.7572C10.26 24.6485 10.1992 24.501 10.1992 24.3473C10.1992 24.1935 10.26 24.0461 10.3682 23.9374C10.4763 23.8287 10.623 23.7676 10.776 23.7676H14.2368C14.3898 23.7676 14.5365 23.8287 14.6446 23.9374C14.7528 24.0461 14.8136 24.1935 14.8136 24.3473C14.8136 24.501 14.7528 24.6485 14.6446 24.7572C14.5365 24.8659 14.3898 24.927 14.2368 24.927ZM18.2743 28.4051H10.776C10.623 28.4051 10.4763 28.344 10.3682 28.2353C10.26 28.1266 10.1992 27.9792 10.1992 27.8254C10.1992 27.6717 10.26 27.5242 10.3682 27.4155C10.4763 27.3068 10.623 27.2457 10.776 27.2457H18.2743C18.4273 27.2457 18.574 27.3068 18.6822 27.4155C18.7904 27.5242 18.8511 27.6717 18.8511 27.8254C18.8511 27.9792 18.7904 28.1266 18.6822 28.2353C18.574 28.344 18.4273 28.4051 18.2743 28.4051Z" fill="#EDEBF2"/><path d="M47.6907 26.6644V24.0773C47.7052 23.0227 47.448 21.9823 46.9441 21.0573C46.4401 20.1322 45.7066 19.3539 44.8148 18.798C40.7352 16.3523 36.1548 19.7081 36.1548 23.766V26.6644C35.5429 26.6644 34.9561 26.9087 34.5234 27.3436C34.0907 27.7784 33.8477 28.3682 33.8477 28.9832V37.6786C33.8477 38.2936 34.0907 38.8834 34.5234 39.3182C34.9561 39.7531 35.5429 39.9974 36.1548 39.9974H47.6907C48.3026 39.9974 48.8895 39.7531 49.3221 39.3182C49.7548 38.8834 49.9979 38.2936 49.9979 37.6786V28.9832C49.9979 28.3682 49.7548 27.7784 49.3221 27.3436C48.8895 26.9087 48.3026 26.6644 47.6907 26.6644ZM37.8852 23.8929C37.8703 22.8715 38.2322 21.8806 38.9012 21.1115C39.5702 20.3424 40.4988 19.8495 41.5081 19.7278C42.0714 19.6641 42.6418 19.7213 43.1815 19.8957C43.7213 20.0701 44.218 20.3577 44.6389 20.7394C45.0597 21.1211 45.3952 21.5883 45.623 22.1101C45.8508 22.6318 45.9658 23.1962 45.9603 23.766V26.6644H37.8852V23.8929ZM41.9228 37.2206C41.5458 37.2196 41.1846 37.0682 40.9186 36.7997C40.6526 36.5313 40.5034 36.1677 40.5039 35.7888C40.5033 35.5606 40.5514 35.3348 40.6449 35.1268C40.7384 34.9189 40.8752 34.7334 41.0461 34.583V33.041H42.7995V34.6642C43.1462 34.9332 43.3486 35.3488 43.3475 35.7888C43.3467 36.1683 43.1964 36.5321 42.9293 36.8004C42.6623 37.0688 42.3004 37.2199 41.9228 37.2206Z" fill="#9DCC6B"/><path d="M44.2153 20.364C43.8775 20.1599 43.515 20.0001 43.1367 19.8887C43.9615 20.1413 44.6827 20.6557 45.1922 21.3549C45.7017 22.054 45.9722 22.9003 45.963 23.7668V26.6653L46.4879 26.5899V24.5436C46.5001 23.7091 46.2973 22.8856 45.899 22.1532C45.5008 21.4208 44.9208 20.8044 44.2153 20.364Z" fill="#84B749"/><path d="M44.8183 18.7982C40.7346 16.3519 36.1548 19.7083 36.1548 23.7662V26.6647C35.5429 26.6647 34.9561 26.909 34.5234 27.3438C34.0907 27.7787 33.8477 28.3685 33.8477 28.9834V37.6788C33.8466 38.0264 33.9239 38.3697 34.0737 38.683C34.2236 38.9962 34.4421 39.2713 34.7129 39.4875C34.5226 39.1457 34.4233 38.7603 34.4245 38.3687V29.6733C34.4245 29.0583 34.6675 28.4685 35.1002 28.0337C35.5329 27.5988 36.1197 27.3545 36.7316 27.3545V24.456C36.7316 20.3982 41.3114 17.0418 45.3951 19.4881C45.8092 19.7368 46.1893 20.0388 46.5256 20.3866C46.0703 19.7456 45.4893 19.205 44.8183 18.7982Z" fill="#B4DF8B"/><path d="M11.7867 12.752H17.8431C18.4003 12.752 18.8525 13.2064 18.8525 13.7664V17.8243C18.8525 18.0933 18.7461 18.3514 18.5568 18.5416C18.3675 18.7318 18.1108 18.8387 17.8431 18.8387H11.7867C11.519 18.8387 11.2623 18.7318 11.073 18.5416C10.8837 18.3514 10.7773 18.0933 10.7773 17.8243V13.7664C10.7773 13.2064 11.2296 12.752 11.7867 12.752Z" fill="#FFDE76"/><path d="M13.0846 14.0566H16.5454C16.6983 14.0566 16.8451 14.1177 16.9532 14.2264C17.0614 14.3351 17.1222 14.4826 17.1222 14.6363V16.9551C17.1222 17.1088 17.0614 17.2563 16.9532 17.365C16.8451 17.4737 16.6983 17.5348 16.5454 17.5348H13.0846C12.9316 17.5348 12.7849 17.4737 12.6768 17.365C12.5686 17.2563 12.5078 17.1088 12.5078 16.9551V14.6363C12.5078 14.4826 12.5686 14.3351 12.6768 14.2264C12.7849 14.1177 12.9316 14.0566 13.0846 14.0566Z" fill="#FFBA55"/><path d="M15.5167 15.5055H18.8564V16.0852H15.5167L17.2471 17.8243H18.8564C18.8564 18.0318 18.7918 18.2347 18.6718 18.404H17.0049L15.1072 16.4968V18.8387H14.5304V16.4968L12.6328 18.404H10.9658C10.8459 18.2347 10.7813 18.0321 10.7812 17.8243H12.3905L14.1209 16.0852H10.7812V15.5055H14.1209L12.3905 13.7664H10.7812C10.7812 13.5589 10.8459 13.356 10.9658 13.1867H12.6328L14.5304 15.0939V12.752H15.1072V15.0939L17.0049 13.1867H18.6718C18.7918 13.356 18.8564 13.5589 18.8564 13.7664H17.2471L15.5167 15.5055Z" fill="#FFBA55"/><path d="M24.8727 9.27539C20.4141 9.39713 13.083 9.27539 9.62226 11.5942C6.32126 13.8057 7.34969 26.0285 7.29201 31.6457C6.93398 31.2284 6.73742 30.6954 6.73828 30.1443V11.5942C6.73828 10.9792 6.98136 10.3894 7.41404 9.95454C7.84672 9.51969 8.43356 9.27539 9.04546 9.27539H24.8727Z" fill="#425D75"/><path d="M49.9982 28.9848V37.6802C49.9982 38.2952 49.7552 38.8849 49.3225 39.3198C48.8898 39.7547 48.303 39.999 47.6911 39.999H40.7695C42.3799 39.999 46.8836 39.7016 47.6911 37.6802C48.8447 34.7817 48.8447 30.8444 48.8447 28.4051C48.8159 28.0404 48.6948 27.6892 48.4929 27.3848C48.291 27.0804 48.015 26.833 47.6911 26.666C48.303 26.666 48.8898 26.9103 49.3225 27.3452C49.7552 27.78 49.9982 28.3698 49.9982 28.9848Z" fill="#84B749"/></svg>