<svg width="25" height="25" viewBox="0 0 25 25" fill="none" xmlns="http://www.w3.org/2000/svg"><g clip-path="url(#clip0_386_4859)"><path d="M16.25 22.5V22.9167H8.75V22.5L9.58333 20.4167V20H15.4167V20.4167L16.25 22.5Z" fill="#9DC5CE"/><path d="M7.08464 22.5H17.918C18.139 22.5 18.3509 22.5878 18.5072 22.7441C18.6635 22.9004 18.7513 23.1123 18.7513 23.3333V24.1667C18.7513 24.2772 18.7074 24.3832 18.6293 24.4613C18.5511 24.5394 18.4451 24.5833 18.3346 24.5833H6.66797C6.55746 24.5833 6.45148 24.5394 6.37334 24.4613C6.2952 24.3832 6.2513 24.2772 6.2513 24.1667V23.3333C6.2513 23.1123 6.3391 22.9004 6.49538 22.7441C6.65166 22.5878 6.86362 22.5 7.08464 22.5ZM24.5846 17.9167V19.1667C24.5846 19.4982 24.4529 19.8161 24.2185 20.0505C23.9841 20.285 23.6662 20.4167 23.3346 20.4167H1.66797C1.33645 20.4167 1.01851 20.285 0.784085 20.0505C0.549665 19.8161 0.417969 19.4982 0.417969 19.1667V17.9167L0.834635 17.5H24.168L24.5846 17.9167Z" fill="#C0D7DD"/><path d="M24.5846 17.9167V2.5C24.5846 2.16848 24.4529 1.85054 24.2185 1.61612C23.9841 1.3817 23.6662 1.25 23.3346 1.25H1.66797C1.33645 1.25 1.01851 1.3817 0.784085 1.61612C0.549665 1.85054 0.417969 2.16848 0.417969 2.5V17.9167H24.5846Z" fill="#263F51"/><path d="M20.0026 11.2503C19.8921 11.2503 19.7861 11.2064 19.708 11.1283C19.6298 11.0501 19.5859 10.9442 19.5859 10.8337V7.08366C19.5859 6.97315 19.6298 6.86717 19.708 6.78903C19.7861 6.71089 19.8921 6.66699 20.0026 6.66699C20.1131 6.66699 20.2191 6.71089 20.2972 6.78903C20.3754 6.86717 20.4193 6.97315 20.4193 7.08366V10.8337C20.4193 10.9442 20.3754 11.0501 20.2972 11.1283C20.2191 11.2064 20.1131 11.2503 20.0026 11.2503Z" fill="#151F28"/><path d="M18.0703 12.1756C18.5281 11.8172 18.9081 11.3692 19.187 10.859C19.2439 10.7448 19.3339 10.6504 19.4453 10.5881C19.6802 10.4396 19.9624 10.385 20.2358 10.4352C20.5091 10.4854 20.7535 10.6367 20.9203 10.859C20.9977 10.9676 21.0519 11.091 21.0794 11.2216C21.1069 11.3521 21.1072 11.4869 21.0802 11.6175C21.0532 11.7482 20.9995 11.8718 20.9226 11.9808C20.8456 12.0897 20.7469 12.1816 20.6328 12.2506C20.5649 12.2963 20.4904 12.3314 20.412 12.3548C19.894 12.5263 19.4162 12.8013 19.0078 13.1631L18.9911 13.1756L18.3328 12.9173L18.0703 12.1756Z" fill="#FDD1C3"/><path d="M13.2138 9.58327L13.618 9.6916C14.0423 9.78606 14.4364 9.98489 14.7646 10.2701C15.0927 10.5553 15.3445 10.9179 15.4971 11.3249L16.0596 12.8208C16.0822 12.8792 16.1181 12.9315 16.1645 12.9735C16.211 13.0156 16.2666 13.0461 16.327 13.0627C16.3874 13.0793 16.4508 13.0815 16.5122 13.0692C16.5736 13.0568 16.6312 13.0303 16.6805 12.9916L17.6805 12.1916C17.7449 12.139 17.8271 12.1131 17.91 12.1193C17.993 12.1255 18.0704 12.1633 18.1263 12.2249L18.9346 13.0833C18.9646 13.1159 18.9877 13.1542 19.0026 13.1959C19.0176 13.2375 19.0241 13.2818 19.0218 13.326C19.0194 13.3702 19.0083 13.4135 18.9891 13.4534C18.9698 13.4933 18.9428 13.5289 18.9096 13.5583L16.2055 15.5708C16.082 15.68 15.9344 15.7585 15.7747 15.7998C15.6151 15.841 15.4479 15.8439 15.287 15.8081C15.126 15.7723 14.9758 15.699 14.8487 15.594C14.7215 15.489 14.621 15.3554 14.5555 15.2041L13.3346 12.9166V17.9166H5.83464C5.72413 17.9166 5.61815 17.8727 5.54001 17.7946C5.46187 17.7164 5.41797 17.6104 5.41797 17.4999V12.0958C5.41796 11.5014 5.62067 10.9248 5.99263 10.4611C6.36459 9.99752 6.88355 9.67462 7.4638 9.54577L7.59714 9.5166L13.2138 9.58327Z" fill="#DB464E"/><path d="M9.58479 12.0837L9.17146 14.8407C9.16223 14.9048 9.1714 14.9701 9.19788 15.0291C9.22436 15.0881 9.26708 15.1384 9.32104 15.1741L10.2277 15.7766C10.2841 15.8141 10.3504 15.834 10.4181 15.834C10.4859 15.834 10.5521 15.8141 10.6085 15.7766L11.5152 15.1741C11.5692 15.1384 11.6119 15.0881 11.6384 15.0291C11.6648 14.9701 11.674 14.9048 11.6648 14.8407L11.2515 12.0837L10.4181 11.667L9.58479 12.0837Z" fill="#F2AB1C"/><path d="M9.34375 11.3585L9.58542 12.0835H11.2521L11.4937 11.3585L11.0492 10.2798C10.9978 10.1548 10.9104 10.048 10.7982 9.97277C10.6859 9.89757 10.5539 9.85742 10.4187 9.85742C10.2836 9.85742 10.1516 9.89757 10.0393 9.97277C9.9271 10.048 9.83973 10.1548 9.78833 10.2798L9.34375 11.3585Z" fill="#FFB91D"/><path d="M13.2143 9.58366C13.0045 10.2545 12.5998 10.8477 12.0518 11.2878C11.9764 11.3431 11.8888 11.3795 11.7964 11.3939C11.704 11.4082 11.6095 11.4002 11.5208 11.3703C11.4322 11.3405 11.352 11.2898 11.2871 11.2225C11.2221 11.1552 11.1743 11.0733 11.1477 10.9837C11.0994 10.7788 11.0098 10.5859 10.8844 10.4168C10.7591 10.2477 10.6005 10.106 10.4185 10.0003C10.2365 10.106 10.0779 10.2477 9.95254 10.4168C9.82716 10.5859 9.7376 10.7788 9.68932 10.9837C9.66268 11.0733 9.61487 11.1552 9.54992 11.2225C9.48498 11.2898 9.4048 11.3405 9.31616 11.3703C9.22752 11.4002 9.13301 11.4082 9.04059 11.3939C8.94818 11.3795 8.86057 11.3431 8.78516 11.2878C8.22018 10.8305 7.80631 10.2133 7.59766 9.51699L9.16849 9.16699H11.6685L13.2143 9.58366Z" fill="#C43745"/><path d="M11.668 7.99609V9.16693C11.5439 9.39765 11.365 9.59434 11.147 9.73965C10.929 9.88497 10.6787 9.97447 10.418 10.0003C10.1573 9.97447 9.9069 9.88497 9.68893 9.73965C9.47095 9.59434 9.29205 9.39765 9.16797 9.16693V7.99609H11.668Z" fill="#E8BCB1"/><path d="M7.08594 5.00033V3.75033C7.08594 2.86627 7.43713 2.01842 8.06225 1.3933C8.68737 0.768182 9.53522 0.416992 10.4193 0.416992C11.3033 0.416992 12.1512 0.768182 12.7763 1.3933C13.4014 2.01842 13.7526 2.86627 13.7526 3.75033V5.00033H7.08594Z" fill="#151F28"/><path d="M7.91927 4.16727V4.13018C7.92331 3.97736 7.96793 3.82837 8.04856 3.69849C8.12919 3.56861 8.24291 3.46252 8.37808 3.3911C8.51324 3.31968 8.66497 3.2855 8.8177 3.29208C8.97043 3.29865 9.11866 3.34574 9.24719 3.42852C9.59718 3.65 10.0052 3.76214 10.4193 3.7506C10.8332 3.76205 11.2411 3.64992 11.5909 3.42852C11.7195 3.34564 11.8677 3.29846 12.0205 3.29183C12.1733 3.28519 12.3251 3.31935 12.4604 3.39078C12.5956 3.46221 12.7094 3.56835 12.79 3.69829C12.8707 3.82823 12.9153 3.9773 12.9193 4.13018V4.16727C13.1403 4.16727 13.3522 4.25506 13.5085 4.41134C13.6648 4.56762 13.7526 4.77959 13.7526 5.0006C13.7526 5.22161 13.6648 5.43357 13.5085 5.58985C13.3522 5.74613 13.1403 5.83393 12.9193 5.83393C12.9193 6.49697 12.6559 7.13286 12.187 7.6017C11.7182 8.07054 11.0823 8.33393 10.4193 8.33393C9.75623 8.33393 9.12034 8.07054 8.6515 7.6017C8.18266 7.13286 7.91927 6.49697 7.91927 5.83393C7.69826 5.83393 7.4863 5.74613 7.33002 5.58985C7.17374 5.43357 7.08594 5.22161 7.08594 5.0006C7.08594 4.77959 7.17374 4.56762 7.33002 4.41134C7.4863 4.25506 7.69826 4.16727 7.91927 4.16727Z" fill="#FDD1C3"/><path d="M7.08594 17.9167V12.9167C7.08594 12.8062 7.12984 12.7002 7.20798 12.622C7.28612 12.5439 7.3921 12.5 7.5026 12.5C7.61311 12.5 7.71909 12.5439 7.79723 12.622C7.87537 12.7002 7.91927 12.8062 7.91927 12.9167V17.9167H7.08594Z" fill="#C43745"/></g><defs><clipPath id="clip0_386_4859"><rect width="25" height="25" fill="white"/></clipPath></defs></svg>