<svg width="50" height="50" viewBox="0 0 50 50" fill="none" xmlns="http://www.w3.org/2000/svg">
<path fill-rule="evenodd" clip-rule="evenodd" d="M7.59319 15.3195L9.67652 17.4028C9.77318 17.4996 9.88797 17.5764 10.0143 17.6288C10.1407 17.6812 10.2762 17.7082 10.413 17.7082C10.5498 17.7082 10.6852 17.6812 10.8116 17.6288C10.938 17.5764 11.0528 17.4996 11.1494 17.4028L15.3171 13.2361C15.5069 13.0397 15.6119 12.7765 15.6095 12.5034C15.6071 12.2303 15.4976 11.969 15.3045 11.7759C15.1113 11.5828 14.8501 11.4732 14.5769 11.4708C14.3038 11.4685 14.0407 11.5735 13.8442 11.7632L10.413 15.1934L9.06611 13.8465C8.86965 13.6568 8.60652 13.5518 8.3334 13.5542C8.06027 13.5566 7.79901 13.6661 7.60588 13.8592C7.41275 14.0524 7.30319 14.3136 7.30082 14.5868C7.29845 14.8599 7.40344 15.123 7.59319 15.3195ZM18.7463 13.5413H24.9963C25.2726 13.5413 25.5375 13.4316 25.7329 13.2362C25.9282 13.0409 26.038 12.7759 26.038 12.4997C26.038 12.2234 25.9282 11.9585 25.7329 11.7631C25.5375 11.5678 25.2726 11.458 24.9963 11.458H18.7463C18.47 11.458 18.2051 11.5678 18.0097 11.7631C17.8144 11.9585 17.7046 12.2234 17.7046 12.4997C17.7046 12.7759 17.8144 13.0409 18.0097 13.2362C18.2051 13.4316 18.47 13.5413 18.7463 13.5413ZM18.7463 17.708H33.3296C33.6059 17.708 33.8709 17.5983 34.0662 17.4029C34.2616 17.2076 34.3713 16.9426 34.3713 16.6663C34.3713 16.3901 34.2616 16.1251 34.0662 15.9298C33.8709 15.7344 33.6059 15.6247 33.3296 15.6247H18.7463C18.47 15.6247 18.2051 15.7344 18.0097 15.9298C17.8144 16.1251 17.7046 16.3901 17.7046 16.6663C17.7046 16.9426 17.8144 17.2076 18.0097 17.4029C18.2051 17.5983 18.47 17.708 18.7463 17.708ZM7.59319 25.7361L9.67652 27.8195C9.77318 27.9163 9.88797 27.9931 10.0143 28.0455C10.1407 28.0979 10.2762 28.1249 10.413 28.1249C10.5498 28.1249 10.6852 28.0979 10.8116 28.0455C10.938 27.9931 11.0528 27.9163 11.1494 27.8195L15.3171 23.6528C15.5069 23.4563 15.6119 23.1932 15.6095 22.9201C15.6071 22.647 15.4976 22.3857 15.3045 22.1926C15.1113 21.9994 14.8501 21.8899 14.5769 21.8875C14.3038 21.8851 14.0407 21.9901 13.8442 22.1799L10.413 25.6101L9.06611 24.2632C8.86965 24.0735 8.60652 23.9685 8.3334 23.9708C8.06027 23.9732 7.79901 24.0828 7.60588 24.2759C7.41275 24.469 7.30319 24.7303 7.30082 25.0034C7.29845 25.2765 7.40344 25.5397 7.59319 25.7361ZM7.59319 36.1528L9.67652 38.2361C9.77318 38.333 9.88797 38.4098 10.0143 38.4622C10.1407 38.5146 10.2762 38.5416 10.413 38.5416C10.5498 38.5416 10.6852 38.5146 10.8116 38.4622C10.938 38.4098 11.0528 38.333 11.1494 38.2361L15.3171 34.0695C15.5069 33.873 15.6119 33.6099 15.6095 33.3368C15.6071 33.0636 15.4976 32.8024 15.3045 32.6092C15.1113 32.4161 14.8501 32.3066 14.5769 32.3042C14.3038 32.3018 14.0407 32.4068 13.8442 32.5965L10.413 36.0268L9.06611 34.6799C8.86965 34.4901 8.60652 34.3851 8.3334 34.3875C8.06027 34.3899 7.79901 34.4994 7.60588 34.6926C7.41275 34.8857 7.30319 35.147 7.30082 35.4201C7.29845 35.6932 7.40344 35.9563 7.59319 36.1528ZM18.7463 23.958H33.3296C33.6059 23.958 33.8709 23.8483 34.0662 23.6529C34.2616 23.4576 34.3713 23.1926 34.3713 22.9163C34.3713 22.6401 34.2616 22.3751 34.0662 22.1798C33.8709 21.9844 33.6059 21.8747 33.3296 21.8747H18.7463C18.47 21.8747 18.2051 21.9844 18.0097 22.1798C17.8144 22.3751 17.7046 22.6401 17.7046 22.9163C17.7046 23.1926 17.8144 23.4576 18.0097 23.6529C18.2051 23.8483 18.47 23.958 18.7463 23.958ZM18.7463 28.1247H27.0807C27.357 28.1247 27.6219 28.0149 27.8173 27.8196C28.0126 27.6242 28.1224 27.3593 28.1224 27.083C28.1224 26.8067 28.0126 26.5418 27.8173 26.3464C27.6219 26.1511 27.357 26.0413 27.0807 26.0413H18.7463C18.47 26.0413 18.2051 26.1511 18.0097 26.3464C17.8144 26.5418 17.7046 26.8067 17.7046 27.083C17.7046 27.3593 17.8144 27.6242 18.0097 27.8196C18.2051 28.0149 18.47 28.1247 18.7463 28.1247ZM32.2703 38.2684L35.2161 41.2143C35.4114 41.4095 35.6763 41.5192 35.9526 41.5192C36.2288 41.5192 36.4937 41.4095 36.689 41.2143L42.5807 35.3226C42.7704 35.1261 42.8754 34.863 42.8731 34.5899C42.8707 34.3168 42.7611 34.0555 42.568 33.8624C42.3749 33.6692 42.1136 33.5597 41.8405 33.5573C41.5674 33.5549 41.3042 33.6599 41.1078 33.8497L35.9526 39.0049L33.7432 36.7955C33.5467 36.6058 33.2836 36.5008 33.0105 36.5031C32.7374 36.5055 32.4761 36.6151 32.283 36.8082C32.0898 37.0013 31.9803 37.2626 31.9779 37.5357C31.9755 37.8088 32.0805 38.072 32.2703 38.2684ZM18.7463 34.3747H22.914C23.1903 34.3747 23.4552 34.2649 23.6506 34.0696C23.8459 33.8742 23.9557 33.6093 23.9557 33.333C23.9557 33.0567 23.8459 32.7918 23.6506 32.5964C23.4552 32.4011 23.1903 32.2913 22.914 32.2913H18.7463C18.47 32.2913 18.2051 32.4011 18.0097 32.5964C17.8144 32.7918 17.7046 33.0567 17.7046 33.333C17.7046 33.6093 17.8144 33.8742 18.0097 34.0696C18.2051 34.2649 18.47 34.3747 18.7463 34.3747ZM18.7463 38.5413H22.914C23.1903 38.5413 23.4552 38.4316 23.6506 38.2362C23.8459 38.0409 23.9557 37.7759 23.9557 37.4997C23.9557 37.2234 23.8459 36.9585 23.6506 36.7631C23.4552 36.5678 23.1903 36.458 22.914 36.458H18.7463C18.47 36.458 18.2051 36.5678 18.0097 36.7631C17.8144 36.9585 17.7046 37.2234 17.7046 37.4997C17.7046 37.7759 17.8144 38.0409 18.0097 38.2362C18.2051 38.4316 18.47 38.5413 18.7463 38.5413Z" fill="#1544AB"/>
<path fill-rule="evenodd" clip-rule="evenodd" d="M37.4984 48.9582H6.2474C4.86606 48.9582 3.5413 48.4094 2.56455 47.4327C1.5878 46.4559 1.03906 45.1312 1.03906 43.7498V6.24984C1.03906 4.8685 1.5878 3.54374 2.56455 2.56699C3.5413 1.59024 4.86606 1.0415 6.2474 1.0415H27.4391C28.8203 1.0415 30.1453 1.59046 31.1224 2.5665L39.0974 10.5425C40.0736 11.5194 40.6221 12.8438 40.6224 14.2248V26.4738C45.4297 27.8342 48.9568 32.2582 48.9568 37.4998C48.9568 43.8238 43.8224 48.9582 37.4984 48.9582ZM38.5391 26.0884V14.2248C38.5391 13.9936 38.513 13.7644 38.463 13.5415H33.3318C31.9504 13.5415 30.6257 12.9928 29.6489 12.016C28.6722 11.0393 28.1234 9.71451 28.1234 8.33317V3.20088C27.8989 3.14988 27.6693 3.12438 27.4391 3.12484H6.2474C5.41859 3.12484 4.62374 3.45408 4.03769 4.04013C3.45164 4.62618 3.1224 5.42104 3.1224 6.24984V43.7498C3.1224 44.5786 3.45164 45.3735 4.03769 45.9595C4.62374 46.5456 5.41859 46.8748 6.2474 46.8748H30.913C29.4073 45.8187 28.1782 44.4152 27.33 42.7833C26.4817 41.1514 26.0393 39.3391 26.0401 37.4998C26.0401 31.1759 31.1745 26.0415 37.4984 26.0415C37.8495 26.0415 38.1964 26.0571 38.5391 26.0884ZM37.4984 28.1248C42.6724 28.1248 46.8734 32.3259 46.8734 37.4998C46.8734 42.6738 42.6724 46.8748 37.4984 46.8748C32.3245 46.8748 28.1234 42.6738 28.1234 37.4998C28.1234 32.3259 32.3245 28.1248 37.4984 28.1248ZM30.2068 4.59775V8.33317C30.2068 9.16197 30.536 9.95683 31.1221 10.5429C31.7081 11.1289 32.503 11.4582 33.3318 11.4582H37.0661L30.2068 4.59775Z" fill="#1544AB"/>
</svg>
