<svg width="50" height="50" viewBox="0 0 50 50" fill="none" xmlns="http://www.w3.org/2000/svg">
<path d="M11.1904 48.0565C10.6426 48.0565 10.0986 47.8852 9.63441 47.5489C9.21219 47.2427 8.88912 46.8188 8.70539 46.3301C8.52167 45.8413 8.48538 45.3093 8.60106 44.8L11.8175 30.6033L0.909433 21.0183C0.517122 20.6753 0.23412 20.2243 0.0956356 19.7214C-0.042849 19.2185 -0.0307027 18.6859 0.130563 18.1898C0.290839 17.694 0.59281 17.2563 0.999036 16.9309C1.40526 16.6054 1.89788 16.4066 2.41581 16.3591L16.8484 15.0461L22.5547 1.66576C22.9753 0.682685 23.9334 0.0478516 24.9981 0.0478516C26.0628 0.0478516 27.021 0.682685 27.4418 1.66351L33.1479 15.0461L47.5782 16.3589C48.6409 16.4548 49.5365 17.1753 49.8657 18.1897C50.195 19.2042 49.8905 20.3168 49.0887 21.0182L38.1807 30.6015L41.3972 44.7978C41.6329 45.8416 41.2285 46.921 40.3642 47.5471C39.5018 48.1731 38.3516 48.2212 37.4435 47.6743L24.9981 40.2222L12.5529 47.6785C12.1321 47.9289 11.6633 48.0565 11.1904 48.0565ZM24.9981 37.012C25.4712 37.012 25.9395 37.1392 26.3607 37.3896L38.106 44.4286L35.0704 31.0292C34.9641 30.5608 34.9863 30.0724 35.1344 29.6157C35.2826 29.1589 35.5514 28.7508 35.9122 28.4346L46.2118 19.3838L32.5852 18.1439C32.1057 18.1009 31.6468 17.928 31.2579 17.6437C30.8689 17.3595 30.5644 16.9745 30.377 16.5301L24.9981 3.90333L19.6129 16.532C19.2337 17.4317 18.3899 18.0498 17.4111 18.1396L3.78254 19.3796L14.0819 28.4304C14.8195 29.0776 15.1422 30.0713 14.9236 31.0273L11.8904 44.4262L23.6356 37.3896C24.0564 37.1392 24.5252 37.012 24.9981 37.012ZM16.7382 15.3048C16.7382 15.3048 16.7382 15.307 16.7359 15.309L16.7382 15.3048ZM33.254 15.2986L33.2563 15.3028C33.2563 15.3006 33.2563 15.3006 33.2539 15.2986H33.254Z" fill="#1544AB"/>
</svg>
