<svg width="35" height="35" viewBox="0 0 35 35" fill="none" xmlns="http://www.w3.org/2000/svg">
<g clip-path="url(#clip0_77_1200)">
<path d="M20.9297 22.9386L21.7898 23.7991L22.7954 24.7994L23.1828 25.1896L25.1892 23.1818L22.9395 20.9287L20.9297 22.9386Z" fill="#5D6D7E"/>
<path d="M27.2339 23.1685L34.1576 30.0918C34.6785 30.6112 35.0017 31.3322 34.9995 32.1252C34.9995 32.9195 34.6784 33.6398 34.1576 34.1613C33.6382 34.68 32.919 35.0001 32.1246 35.0001C31.747 35.0009 31.373 34.927 31.0241 34.7828C30.6751 34.6385 30.3581 34.4267 30.0913 34.1596L23.168 27.2355L27.2339 23.1685Z" fill="#FF8E31"/>
<path d="M26.2773 24.1252L26.8399 23.5615L33.7643 30.4859C34.2015 30.9234 34.4419 31.5053 34.4416 32.1246C34.4416 32.7457 34.2004 33.3286 33.7643 33.7668C33.6887 33.8402 33.5876 33.8814 33.4822 33.8818C33.3762 33.882 33.2745 33.8403 33.1991 33.7658C33.0449 33.6095 33.0449 33.3593 33.1991 33.2042C33.4878 32.9165 33.6457 32.5312 33.6457 32.1236C33.6466 31.9239 33.6077 31.7261 33.5314 31.5416C33.4551 31.3571 33.3429 31.1896 33.2012 31.0489L26.2773 24.1252Z" fill="#FECE59"/>
<path d="M23.1681 27.2355L27.2344 23.1682L26.9311 22.8642C26.838 22.7702 26.7272 22.6958 26.605 22.645C26.4829 22.5943 26.3518 22.5684 26.2196 22.5688C25.9396 22.5688 25.6886 22.6799 25.5073 22.8628L22.8631 25.5084C22.7692 25.6016 22.6948 25.7124 22.6441 25.8346C22.5935 25.9568 22.5676 26.0878 22.568 26.22C22.5679 26.3519 22.5938 26.4825 22.6445 26.6043C22.6951 26.726 22.7694 26.8366 22.8631 26.9294L23.1681 27.2355ZM0 12.9996C0 5.82149 5.82032 0.000488281 12.9999 0.000488281C20.1802 0.000488281 26.0001 5.82183 26.0001 12.9996C26.0001 20.1799 20.1795 25.9999 12.9999 26.0016C5.82032 25.9999 0 20.1797 0 12.9996Z" fill="#34495E"/>
<path d="M12.9992 24.5928C19.4 24.5928 24.5917 19.403 24.5917 12.9992C24.5917 6.59913 19.4001 1.40771 12.9992 1.40771C6.59732 1.40785 1.40625 6.59893 1.40625 12.9993C1.40625 19.403 6.59732 24.5928 12.9992 24.5928Z" fill="#5D6D7E"/>
<path d="M13.001 23.6651C18.8899 23.6651 23.6654 18.8915 23.6654 12.9996C23.6654 7.11206 18.8897 2.33545 13.001 2.33545C7.11221 2.33545 2.33594 7.11206 2.33594 12.9996C2.33594 18.8911 7.11098 23.6651 13.001 23.6651Z" fill="#CEE2F2"/>
<path d="M13.2804 4.08618C13.0988 3.81671 12.7866 3.648 12.443 3.66755C10.9709 3.75696 9.57964 4.17156 8.30829 4.90971C7.86068 5.17153 7.70714 5.74848 7.96793 6.19821C8.22865 6.64235 8.80636 6.80039 9.25261 6.53612C10.2667 5.9511 11.3767 5.61873 12.5535 5.54702C13.0704 5.52009 13.4681 5.07418 13.436 4.55759C13.4301 4.37856 13.37 4.21757 13.2804 4.08618ZM7.24202 7.17808C7.19199 7.10302 7.1267 7.03336 7.05513 6.97403C6.6514 6.64378 6.05941 6.70804 5.73299 7.11143C4.77227 8.2909 4.1111 9.70601 3.8192 11.212C3.47392 13.0007 3.65452 14.8321 4.34037 16.5102C4.54026 16.9939 5.09041 17.221 5.5703 17.0233C6.05155 16.8283 6.28082 16.2802 6.08374 15.7965C5.53687 14.4583 5.39495 12.9968 5.6727 11.5692C5.89986 10.367 6.428 9.23822 7.19431 8.29692C7.46077 7.9692 7.46782 7.50935 7.24202 7.17808Z" fill="white"/>
</g>
<defs>
<clipPath id="clip0_77_1200">
<rect width="35" height="35" fill="white"/>
</clipPath>
</defs>
</svg>
